<svg xmlns="http://www.w3.org/2000/svg" width="240" height="240" viewBox="0 0 240 240">
  <g fill="none" fill-rule="evenodd">
    <circle cx="120" cy="120" r="120" fill="#A0DEE3" fill-opacity=".2"/>
    <g transform="translate(13 107)">
      <rect width="25" height="55" x="43" stroke="#0B7285" stroke-linecap="round" stroke-linejoin="round" stroke-width="4" rx="4.5" transform="matrix(-1 0 0 1 111 0)"/>
      <path stroke="#0B7285" stroke-linecap="round" stroke-linejoin="round" stroke-width="4" d="M24,8 C34.4934102,8 43,16.7304474 43,27.5 C43,38.2695526 34.4934102,47 24,47 L24,47 Z" transform="matrix(-1 0 0 1 67 0)"/>
      <path fill="#0B7285" fill-opacity=".25" d="M34,32 L35.020794,32.3402647 C36.0189036,32.6729679 36.9489603,32.9829868 37.8109641,33.2703214 L39.0529301,33.68431 C40.6408318,34.2136106 41.9565217,34.6521739 43,35 L43,44 C45.6666667,44.6666667 50,45 56,45 C62,45 66,44.3333333 68,43 L68,49.5 C68,52.4634791 65.65622,54.8795391 62.7212071,54.9956328 L62.5,55 L48.5,55 C45.5365209,55 43.1204609,52.65622 43.0043672,49.7212071 L43,49.5 L43,47 L42.6657863,46.9970439 C32.3265612,46.814015 24,38.1549829 24,27.5 C24,25.5457052 24.2801176,23.658557 24.8013935,21.8785399 C27.3249335,27.4234397 30.3911354,30.7970451 34,32 Z"/>
      <g stroke="#0B7285" stroke-linecap="round" stroke-linejoin="round" stroke-width="4" opacity=".562" transform="matrix(-1 0 0 1 22 2.485)">
        <g transform="translate(0 1.515)">
          <line x1="5.49" x2="20.842" y1="18.418" y2="14.118"/>
          <line x2="8.105" y1="8.189"/>
        </g>
        <g transform="matrix(1 0 0 -1 0 53.515)">
          <line x1="5.531" x2="21" y1="23.586" y2="14.781"/>
          <line x2="4.266" y1="13.153" y2=".176"/>
        </g>
      </g>
    </g>
    <g transform="matrix(-1 0 0 1 223 107)">
      <rect width="25" height="55" x="43" stroke="#0B7285" stroke-linecap="round" stroke-linejoin="round" stroke-width="4" rx="4.5" transform="matrix(-1 0 0 1 111 0)"/>
      <path stroke="#0B7285" stroke-linecap="round" stroke-linejoin="round" stroke-width="4" d="M24,8 C34.4934102,8 43,16.7304474 43,27.5 C43,38.2695526 34.4934102,47 24,47 L24,47 Z" transform="matrix(-1 0 0 1 67 0)"/>
      <path fill="#0B7285" fill-opacity=".25" d="M34,32 L35.020794,32.3402647 C36.0189036,32.6729679 36.9489603,32.9829868 37.8109641,33.2703214 L39.0529301,33.68431 C40.6408318,34.2136106 41.9565217,34.6521739 43,35 L43,44 C45.6666667,44.6666667 50,45 56,45 C62,45 66,44.3333333 68,43 L68,49.5 C68,52.4634791 65.65622,54.8795391 62.7212071,54.9956328 L62.5,55 L48.5,55 C45.5365209,55 43.1204609,52.65622 43.0043672,49.7212071 L43,49.5 L43,47 L42.6657863,46.9970439 C32.3265612,46.814015 24,38.1549829 24,27.5 C24,25.5457052 24.2801176,23.658557 24.8013935,21.8785399 C27.3249335,27.4234397 30.3911354,30.7970451 34,32 Z"/>
      <g stroke="#0B7285" stroke-linecap="round" stroke-linejoin="round" stroke-width="4" opacity=".562" transform="matrix(-1 0 0 1 22 2.485)">
        <g transform="translate(0 1.515)">
          <line x1="5.49" x2="20.842" y1="18.418" y2="14.118"/>
          <line x2="8.105" y1="8.189"/>
        </g>
        <g transform="matrix(1 0 0 -1 0 53.515)">
          <line x1="5.531" x2="21" y1="23.586" y2="14.781"/>
          <line x2="4.266" y1="13.153" y2=".176"/>
        </g>
      </g>
    </g>
    <path fill="#0B7285" d="M137.740908,122.549319 C136.851265,117.810956 133.381656,115.109646 129.467225,114.57824 C125.775205,114.091119 121.682845,115.5082 119.013915,119.006618 C118.524611,119.670874 118.213236,120.290847 117.990825,121.087955 C117.768414,120.290847 117.457039,119.670874 116.967735,119.006618 C114.298805,115.5082 110.250928,114.091119 106.514425,114.57824 C102.599994,115.109646 99.0859031,117.810956 98.2407419,122.549319 C97.217652,128.084791 99.575207,131.538925 103.044816,135.745883 C107.759926,141.502773 112.919858,146.993961 117.990825,152.485149 C123.061792,146.993961 128.221724,141.547057 132.981316,135.745883 C136.450926,131.538925 138.808481,128.084791 137.740908,122.549319 Z"/>
    <path stroke="#0B7285" stroke-linecap="round" stroke-linejoin="round" stroke-width="4" d="M118,58 C146.347992,58 169.68687,79.4465623 172.676437,106.999488 L159.134981,106.999735 C156.22694,86.8872748 138.917993,71.4351145 118,71.4351145 C97.0820075,71.4351145 79.7730604,86.8872748 76.8650187,106.999735 L63.3235626,106.999488 C66.3131297,79.4465623 89.6520083,58 118,58 Z"/>
    <path fill="#0B7285" fill-opacity=".25" d="M117.5,64.5 C142.254151,64.5 162.676853,83.0451407 165.632499,106.999816 L159.135125,107.000732 C156.227512,86.8877855 138.918338,71.4351145 118,71.4351145 C97.0816618,71.4351145 79.7724882,86.8877855 76.8648745,107.000732 L69.3675011,106.999816 C72.3231469,83.0451407 92.7458486,64.5 117.5,64.5 Z"/>
  </g>
</svg>
