<?xml version="1.0" encoding="UTF-8" standalone="no"?><!DOCTYPE svg PUBLIC "-//W3C//DTD SVG 1.1//EN" "http://www.w3.org/Graphics/SVG/1.1/DTD/svg11.dtd"><svg width="100%" height="100%" viewBox="0 0 300 300" version="1.1" xmlns="http://www.w3.org/2000/svg" xmlns:xlink="http://www.w3.org/1999/xlink" xml:space="preserve" xmlns:serif="http://www.serif.com/" style="fill-rule:evenodd;clip-rule:evenodd;stroke-linecap:round;stroke-miterlimit:3;"><rect x="0" y="0" width="300" height="300" style="fill:#181b1c;"/><g><circle cx="164" cy="136" r="100" style="fill:#656565;fill-opacity:0.25;"/><g><path d="M75.278,81.63l-2.546,-2.546" style="fill:none;stroke:#fff;stroke-width:2px;"/><path d="M69.338,75.69l-2.545,-2.545" style="fill:none;stroke:#fff;stroke-width:2px;"/><path d="M75.278,73.145l-2.546,2.545" style="fill:none;stroke:#fff;stroke-width:2px;"/><path d="M69.338,79.084l-2.545,2.546" style="fill:none;stroke:#fff;stroke-width:2px;"/></g><g><path d="M186.533,259.033l-2.546,-2.546" style="fill:none;stroke:#fff;stroke-width:2px;"/><path d="M180.593,253.093l-2.545,-2.545" style="fill:none;stroke:#fff;stroke-width:2px;"/><path d="M186.533,250.548l-2.546,2.545" style="fill:none;stroke:#fff;stroke-width:2px;"/><path d="M180.593,256.487l-2.545,2.546" style="fill:none;stroke:#fff;stroke-width:2px;"/></g><g><path d="M170.533,99.033l-2.546,-2.546" style="fill:none;stroke:#fff;stroke-width:2px;"/><path d="M164.593,93.093l-2.545,-2.545" style="fill:none;stroke:#fff;stroke-width:2px;"/><path d="M170.533,90.548l-2.546,2.545" style="fill:none;stroke:#fff;stroke-width:2px;"/><path d="M164.593,96.487l-2.545,2.546" style="fill:none;stroke:#fff;stroke-width:2px;"/></g><g><path d="M259.033,150.533l-2.546,-2.546" style="fill:none;stroke:#fff;stroke-width:2px;"/><path d="M253.093,144.593l-2.545,-2.545" style="fill:none;stroke:#fff;stroke-width:2px;"/><path d="M259.033,142.048l-2.546,2.545" style="fill:none;stroke:#fff;stroke-width:2px;"/><path d="M253.093,147.987l-2.545,2.546" style="fill:none;stroke:#fff;stroke-width:2px;"/></g><g><circle cx="121.75" cy="44.25" r="2" style="fill:#e84f9e;"/></g><g><circle cx="247.5" cy="122" r="2" style="fill:#e84f9e;"/></g><g><circle cx="200" cy="240" r="2" style="fill:#e84f9e;"/></g><g><path d="M150.052,40l0.051,0.001l0.052,0.002l0.051,0.002l0.051,0.003l0.051,0.004l0.05,0.004l0.051,0.005l0.05,0.005l0.05,0.006l0.05,0.007l0.05,0.007l0.049,0.008l0.05,0.009l0.049,0.009l0.049,0.009l0.048,0.011l0.049,0.011l0.048,0.011l0.048,0.012l0.048,0.013l0.048,0.013l0.047,0.014l0.047,0.014l0.047,0.015l0.046,0.015l0.047,0.016l0.046,0.017l0.046,0.017l0.045,0.018l0.045,0.018l0.045,0.019l0.045,0.019l0.045,0.02l0.044,0.02l0.044,0.021l0.043,0.021l0.043,0.022l0.043,0.022l0.043,0.023l0.042,0.023l0.042,0.024l0.042,0.025l0.041,0.024l0.042,0.026l0.04,0.026l0.041,0.026l0.04,0.027l0.04,0.027l0.039,0.027l0.039,0.029l0.039,0.028l0.038,0.029l0.038,0.03l0.038,0.03l0.037,0.03l0.037,0.031l0.036,0.031l0.036,0.032l0.036,0.032l0.035,0.032l0.035,0.033l0.035,0.033l0.034,0.034l0.034,0.034l0.033,0.035l0.033,0.035l0.032,0.035l0.032,0.036l0.032,0.036l0.031,0.036l0.031,0.037l0.03,0.037l0.03,0.038l0.03,0.038l0.029,0.038l0.028,0.039l0.029,0.039l0.027,0.039l0.027,0.04l0.027,0.04l0.026,0.041l0.026,0.04l0.026,0.042l0.024,0.041l0.025,0.042l0.024,0.042l0.023,0.042l0.023,0.043l0.022,0.043l0.022,0.043l0.021,0.043l0.021,0.044l0.02,0.044l0.02,0.045l0.019,0.045l0.019,0.045l0.018,0.045l0.018,0.045l0.017,0.046l0.017,0.046l0.016,0.047l0.015,0.046l0.015,0.047l0.014,0.047l0.014,0.047l0.013,0.048l0.013,0.048l0.012,0.048l0.011,0.048l0.011,0.049l0.011,0.048l0.009,0.049l0.009,0.049l0.009,0.05l0.008,0.049l0.007,0.05l0.007,0.05l0.006,0.05l0.005,0.05l0.005,0.051l0.004,0.05l0.004,0.051l0.003,0.051l0.002,0.051l0.002,0.052l0.001,0.051l0,0.052l0,0.052l-0.001,0.051l-0.002,0.052l-0.002,0.051l-0.003,0.051l-0.004,0.051l-0.004,0.05l-0.005,0.051l-0.005,0.05l-0.006,0.05l-0.007,0.05l-0.007,0.05l-0.008,0.049l-0.009,0.05l-0.009,0.049l-0.009,0.049l-0.011,0.048l-0.011,0.049l-0.011,0.048l-0.012,0.048l-0.013,0.048l-0.013,0.048l-0.014,0.047l-0.014,0.047l-0.015,0.047l-0.015,0.046l-0.016,0.047l-0.017,0.046l-0.017,0.046l-0.018,0.045l-0.018,0.045l-0.019,0.045l-0.019,0.045l-0.02,0.045l-0.02,0.044l-0.021,0.044l-0.021,0.043l-0.022,0.043l-0.022,0.043l-0.023,0.043l-0.023,0.042l-0.024,0.042l-0.025,0.042l-0.024,0.041l-0.026,0.042l-0.026,0.04l-0.026,0.041l-0.027,0.04l-0.027,0.04l-0.027,0.039l-0.029,0.039l-0.028,0.039l-0.029,0.038l-0.03,0.038l-0.03,0.038l-0.03,0.037l-0.031,0.037l-0.031,0.036l-0.032,0.036l-0.032,0.036l-0.032,0.035l-0.033,0.035l-0.033,0.035l-0.034,0.034l-0.034,0.034l-0.035,0.033l-0.035,0.033l-0.035,0.032l-0.036,0.032l-0.036,0.032l-0.036,0.031l-0.037,0.031l-0.037,0.03l-0.038,0.03l-0.038,0.03l-0.038,0.029l-0.039,0.028l-0.039,0.029l-0.039,0.027l-0.04,0.027l-0.04,0.027l-0.041,0.026l-0.04,0.026l-0.042,0.026l-0.041,0.024l-0.042,0.025l-0.042,0.024l-0.042,0.023l-0.043,0.023l-0.043,0.022l-0.043,0.022l-0.043,0.021l-0.044,0.021l-0.044,0.02l-0.045,0.02l-0.045,0.019l-0.045,0.019l-0.045,0.018l-0.045,0.018l-0.046,0.017l-0.046,0.017l-0.047,0.016l-0.046,0.015l-0.047,0.015l-0.047,0.014l-0.047,0.014l-0.048,0.013l-0.048,0.013l-0.048,0.012l-0.048,0.011l-0.049,0.011l-0.048,0.011l-0.049,0.009l-0.049,0.009l-0.05,0.009l-0.049,0.008l-0.05,0.007l-0.05,0.007l-0.05,0.006l-0.05,0.005l-0.051,0.005l-0.05,0.004l-0.051,0.004l-0.051,0.003l-0.051,0.002l-0.052,0.002l-0.051,0.001l-0.052,0l-0.052,0l-0.051,-0.001l-0.052,-0.002l-0.051,-0.002l-0.051,-0.003l-0.051,-0.004l-0.05,-0.004l-0.051,-0.005l-0.05,-0.005l-0.05,-0.006l-0.05,-0.007l-0.05,-0.007l-0.049,-0.008l-0.05,-0.009l-0.049,-0.009l-0.049,-0.009l-0.048,-0.011l-0.049,-0.011l-0.048,-0.011l-0.048,-0.012l-0.048,-0.013l-0.048,-0.013l-0.047,-0.014l-0.047,-0.014l-0.047,-0.015l-0.046,-0.015l-0.047,-0.016l-0.046,-0.017l-0.046,-0.017l-0.045,-0.018l-0.045,-0.018l-0.045,-0.019l-0.045,-0.019l-0.045,-0.02l-0.044,-0.02l-0.044,-0.021l-0.043,-0.021l-0.043,-0.022l-0.043,-0.022l-0.043,-0.023l-0.042,-0.023l-0.042,-0.024l-0.042,-0.025l-0.041,-0.024l-0.042,-0.026l-0.04,-0.026l-0.041,-0.026l-0.04,-0.027l-0.04,-0.027l-0.039,-0.027l-0.039,-0.029l-0.039,-0.028l-0.038,-0.029l-0.038,-0.03l-0.038,-0.03l-0.037,-0.03l-0.037,-0.031l-0.036,-0.031l-0.036,-0.032l-0.036,-0.032l-0.035,-0.032l-0.035,-0.033l-0.035,-0.033l-0.034,-0.034l-0.034,-0.034l-0.033,-0.035l-0.033,-0.035l-0.032,-0.035l-0.032,-0.036l-0.032,-0.036l-0.031,-0.036l-0.031,-0.037l-0.03,-0.037l-0.03,-0.038l-0.03,-0.038l-0.029,-0.038l-0.028,-0.039l-0.029,-0.039l-0.027,-0.039l-0.027,-0.04l-0.027,-0.04l-0.026,-0.041l-0.026,-0.04l-0.026,-0.042l-0.024,-0.041l-0.025,-0.042l-0.024,-0.042l-0.023,-0.042l-0.023,-0.043l-0.022,-0.043l-0.022,-0.043l-0.021,-0.043l-0.021,-0.044l-0.02,-0.044l-0.02,-0.045l-0.019,-0.045l-0.019,-0.045l-0.018,-0.045l-0.018,-0.045l-0.017,-0.046l-0.017,-0.046l-0.016,-0.047l-0.015,-0.046l-0.015,-0.047l-0.014,-0.047l-0.014,-0.047l-0.013,-0.048l-0.013,-0.048l-0.012,-0.048l-0.011,-0.048l-0.011,-0.049l-0.011,-0.048l-0.009,-0.049l-0.009,-0.049l-0.009,-0.05l-0.008,-0.049l-0.007,-0.05l-0.007,-0.05l-0.006,-0.05l-0.005,-0.05l-0.005,-0.051l-0.004,-0.05l-0.004,-0.051l-0.003,-0.051l-0.002,-0.051l-0.002,-0.052l-0.001,-0.051l0,-0.052l0,-0.052l0.001,-0.051l0.002,-0.052l0.002,-0.051l0.003,-0.051l0.004,-0.051l0.004,-0.05l0.005,-0.051l0.005,-0.05l0.006,-0.05l0.007,-0.05l0.007,-0.05l0.008,-0.049l0.009,-0.05l0.009,-0.049l0.009,-0.049l0.011,-0.048l0.011,-0.049l0.011,-0.048l0.012,-0.048l0.013,-0.048l0.013,-0.048l0.014,-0.047l0.014,-0.047l0.015,-0.047l0.015,-0.046l0.016,-0.047l0.017,-0.046l0.017,-0.046l0.018,-0.045l0.018,-0.045l0.019,-0.045l0.019,-0.045l0.02,-0.045l0.02,-0.044l0.021,-0.044l0.021,-0.043l0.022,-0.043l0.022,-0.043l0.023,-0.043l0.023,-0.042l0.024,-0.042l0.025,-0.042l0.024,-0.041l0.026,-0.042l0.026,-0.04l0.026,-0.041l0.027,-0.04l0.027,-0.04l0.027,-0.039l0.029,-0.039l0.028,-0.039l0.029,-0.038l0.03,-0.038l0.03,-0.038l0.03,-0.037l0.031,-0.037l0.031,-0.036l0.032,-0.036l0.032,-0.036l0.032,-0.035l0.033,-0.035l0.033,-0.035l0.034,-0.034l0.034,-0.034l0.035,-0.033l0.035,-0.033l0.035,-0.032l0.036,-0.032l0.036,-0.032l0.036,-0.031l0.037,-0.031l0.037,-0.03l0.038,-0.03l0.038,-0.03l0.038,-0.029l0.039,-0.028l0.039,-0.029l0.039,-0.027l0.04,-0.027l0.04,-0.027l0.041,-0.026l0.04,-0.026l0.042,-0.026l0.041,-0.024l0.042,-0.025l0.042,-0.024l0.042,-0.023l0.043,-0.023l0.043,-0.022l0.043,-0.022l0.043,-0.021l0.044,-0.021l0.044,-0.02l0.045,-0.02l0.045,-0.019l0.045,-0.019l0.045,-0.018l0.045,-0.018l0.046,-0.017l0.046,-0.017l0.047,-0.016l0.046,-0.015l0.047,-0.015l0.047,-0.014l0.047,-0.014l0.048,-0.013l0.048,-0.013l0.048,-0.012l0.048,-0.011l0.049,-0.011l0.048,-0.011l0.049,-0.009l0.049,-0.009l0.05,-0.009l0.049,-0.008l0.05,-0.007l0.05,-0.007l0.05,-0.006l0.05,-0.005l0.051,-0.005l0.05,-0.004l0.051,-0.004l0.051,-0.003l0.051,-0.002l0.052,-0.002l0.051,-0.001l0.052,0l0.052,0Zm-0.078,2l-0.027,0.001l-0.026,0.001l-0.025,0.001l-0.025,0.001l-0.025,0.002l-0.027,0.002l-0.026,0.003l-0.024,0.002l-0.026,0.003l-0.026,0.004l-0.023,0.003l-0.025,0.004l-0.024,0.004l-0.026,0.005l-0.023,0.005l-0.023,0.005l-0.025,0.005l-0.025,0.006l-0.025,0.006l-0.021,0.006l-0.024,0.006l-0.024,0.008l-0.023,0.006l-0.025,0.008l-0.022,0.008l-0.022,0.007l-0.024,0.009l-0.022,0.008l-0.023,0.009l-0.024,0.01l-0.019,0.008l-0.023,0.01l-0.023,0.01l-0.022,0.01l-0.023,0.011l-0.02,0.01l-0.023,0.011l-0.02,0.011l-0.022,0.011l-0.021,0.012l-0.019,0.011l-0.023,0.013l-0.022,0.013l-0.021,0.013l-0.018,0.012l-0.02,0.013l-0.021,0.014l-0.02,0.013l-0.019,0.014l-0.019,0.013l-0.021,0.016l-0.02,0.015l-0.018,0.014l-0.018,0.015l-0.018,0.014l-0.021,0.018l-0.018,0.015l-0.018,0.016l-0.018,0.016l-0.016,0.014l-0.02,0.019l-0.016,0.016l-0.017,0.016l-0.019,0.02l-0.016,0.016l-0.015,0.017l-0.017,0.018l-0.015,0.017l-0.018,0.021l-0.017,0.019l-0.012,0.014l-0.016,0.019l-0.017,0.022l-0.015,0.019l-0.013,0.017l-0.014,0.02l-0.015,0.021l-0.013,0.018l-0.015,0.022l-0.013,0.019l-0.013,0.02l-0.014,0.023l-0.012,0.019l-0.012,0.021l-0.012,0.02l-0.012,0.021l-0.012,0.021l-0.011,0.022l-0.011,0.021l-0.011,0.021l-0.011,0.023l-0.009,0.019l-0.011,0.022l-0.01,0.024l-0.01,0.023l-0.009,0.023l-0.008,0.02l-0.01,0.024l-0.008,0.022l-0.007,0.02l-0.01,0.029l-0.007,0.021l-0.007,0.021l-0.008,0.027l-0.007,0.022l-0.006,0.023l-0.006,0.022l-0.006,0.023l-0.006,0.027l-0.005,0.024l-0.005,0.024l-0.005,0.024l-0.005,0.024l-0.004,0.025l-0.004,0.025l-0.004,0.025l-0.002,0.022l-0.004,0.029l-0.003,0.027l-0.002,0.022l-0.002,0.023l-0.002,0.027l-0.001,0.027l-0.001,0.024l-0.001,0.027l-0.001,0.028l0,0.025l0,0.025l0.001,0.028l0.001,0.027l0.001,0.024l0.001,0.027l0.002,0.027l0.002,0.023l0.002,0.022l0.003,0.027l0.004,0.029l0.002,0.022l0.004,0.025l0.004,0.025l0.004,0.025l0.005,0.024l0.005,0.024l0.005,0.024l0.005,0.024l0.006,0.027l0.006,0.023l0.006,0.022l0.006,0.023l0.007,0.022l0.008,0.027l0.007,0.021l0.007,0.021l0.01,0.029l0.007,0.02l0.008,0.022l0.01,0.024l0.008,0.02l0.009,0.023l0.01,0.023l0.01,0.024l0.011,0.022l0.009,0.019l0.011,0.023l0.011,0.021l0.011,0.021l0.011,0.022l0.012,0.021l0.012,0.021l0.012,0.02l0.012,0.021l0.012,0.019l0.014,0.023l0.013,0.02l0.013,0.019l0.015,0.022l0.013,0.018l0.015,0.021l0.014,0.02l0.013,0.017l0.015,0.019l0.017,0.022l0.016,0.019l0.012,0.014l0.017,0.019l0.018,0.021l0.015,0.017l0.017,0.018l0.015,0.017l0.016,0.016l0.019,0.02l0.017,0.016l0.016,0.016l0.02,0.019l0.016,0.014l0.018,0.016l0.018,0.016l0.018,0.015l0.021,0.018l0.018,0.014l0.018,0.015l0.018,0.014l0.02,0.015l0.021,0.016l0.019,0.013l0.019,0.014l0.02,0.013l0.021,0.014l0.02,0.013l0.018,0.012l0.021,0.013l0.022,0.013l0.023,0.013l0.019,0.011l0.021,0.012l0.022,0.011l0.02,0.011l0.023,0.011l0.02,0.01l0.023,0.011l0.022,0.01l0.023,0.01l0.023,0.01l0.019,0.008l0.024,0.01l0.023,0.009l0.022,0.008l0.024,0.009l0.022,0.007l0.022,0.008l0.025,0.008l0.023,0.006l0.024,0.008l0.024,0.006l0.021,0.006l0.025,0.006l0.025,0.006l0.025,0.005l0.023,0.005l0.023,0.005l0.026,0.005l0.024,0.004l0.025,0.004l0.023,0.003l0.026,0.004l0.026,0.003l0.024,0.002l0.026,0.003l0.027,0.002l0.025,0.002l0.025,0.001l0.025,0.001l0.026,0.001l0.027,0.001l0.026,0l0.026,0l0.027,-0.001l0.026,-0.001l0.025,-0.001l0.025,-0.001l0.025,-0.002l0.027,-0.002l0.026,-0.003l0.024,-0.002l0.026,-0.003l0.026,-0.004l0.023,-0.003l0.025,-0.004l0.024,-0.004l0.026,-0.005l0.023,-0.005l0.023,-0.005l0.025,-0.005l0.025,-0.006l0.025,-0.006l0.021,-0.006l0.024,-0.006l0.024,-0.008l0.023,-0.006l0.025,-0.008l0.022,-0.008l0.022,-0.007l0.024,-0.009l0.022,-0.008l0.023,-0.009l0.024,-0.01l0.019,-0.008l0.023,-0.01l0.023,-0.01l0.022,-0.01l0.023,-0.011l0.02,-0.01l0.023,-0.011l0.02,-0.011l0.022,-0.011l0.021,-0.012l0.019,-0.011l0.023,-0.013l0.022,-0.013l0.021,-0.013l0.018,-0.012l0.02,-0.013l0.021,-0.014l0.02,-0.013l0.019,-0.014l0.019,-0.013l0.021,-0.016l0.02,-0.015l0.018,-0.014l0.018,-0.015l0.018,-0.014l0.021,-0.018l0.018,-0.015l0.018,-0.016l0.018,-0.016l0.016,-0.014l0.02,-0.019l0.016,-0.016l0.017,-0.016l0.019,-0.02l0.016,-0.016l0.015,-0.017l0.017,-0.018l0.015,-0.017l0.018,-0.021l0.017,-0.019l0.012,-0.014l0.016,-0.019l0.017,-0.022l0.015,-0.019l0.013,-0.017l0.014,-0.02l0.015,-0.021l0.013,-0.018l0.015,-0.022l0.013,-0.019l0.013,-0.02l0.014,-0.023l0.012,-0.019l0.012,-0.021l0.012,-0.02l0.012,-0.021l0.012,-0.021l0.011,-0.022l0.011,-0.021l0.011,-0.021l0.011,-0.023l0.009,-0.019l0.011,-0.022l0.01,-0.024l0.01,-0.023l0.009,-0.023l0.008,-0.02l0.01,-0.024l0.008,-0.022l0.007,-0.02l0.01,-0.029l0.007,-0.021l0.007,-0.021l0.008,-0.027l0.007,-0.022l0.006,-0.023l0.006,-0.022l0.006,-0.023l0.006,-0.027l0.005,-0.024l0.005,-0.024l0.005,-0.024l0.005,-0.024l0.004,-0.025l0.004,-0.025l0.004,-0.025l0.002,-0.022l0.004,-0.029l0.003,-0.027l0.002,-0.022l0.002,-0.023l0.002,-0.027l0.001,-0.027l0.001,-0.024l0.001,-0.027l0.001,-0.028l0,-0.025l0,-0.025l-0.001,-0.028l-0.001,-0.027l-0.001,-0.024l-0.001,-0.027l-0.002,-0.027l-0.002,-0.023l-0.002,-0.022l-0.003,-0.027l-0.004,-0.029l-0.002,-0.022l-0.004,-0.025l-0.004,-0.025l-0.004,-0.025l-0.005,-0.024l-0.005,-0.024l-0.005,-0.024l-0.005,-0.024l-0.006,-0.027l-0.006,-0.023l-0.006,-0.022l-0.006,-0.023l-0.007,-0.022l-0.008,-0.027l-0.007,-0.021l-0.007,-0.021l-0.01,-0.029l-0.007,-0.02l-0.008,-0.022l-0.01,-0.024l-0.008,-0.02l-0.009,-0.023l-0.01,-0.023l-0.01,-0.024l-0.011,-0.022l-0.009,-0.019l-0.011,-0.023l-0.011,-0.021l-0.011,-0.021l-0.011,-0.022l-0.012,-0.021l-0.012,-0.021l-0.012,-0.02l-0.012,-0.021l-0.012,-0.019l-0.014,-0.023l-0.013,-0.02l-0.013,-0.019l-0.015,-0.022l-0.013,-0.018l-0.015,-0.021l-0.014,-0.02l-0.013,-0.017l-0.015,-0.019l-0.017,-0.022l-0.016,-0.019l-0.012,-0.014l-0.017,-0.019l-0.018,-0.021l-0.015,-0.017l-0.017,-0.018l-0.015,-0.017l-0.016,-0.016l-0.019,-0.02l-0.017,-0.016l-0.016,-0.016l-0.02,-0.019l-0.016,-0.014l-0.018,-0.016l-0.018,-0.016l-0.018,-0.015l-0.021,-0.018l-0.018,-0.014l-0.018,-0.015l-0.018,-0.014l-0.02,-0.015l-0.021,-0.016l-0.019,-0.013l-0.019,-0.014l-0.02,-0.013l-0.021,-0.014l-0.02,-0.013l-0.018,-0.012l-0.021,-0.013l-0.022,-0.013l-0.023,-0.013l-0.019,-0.011l-0.021,-0.012l-0.022,-0.011l-0.02,-0.011l-0.023,-0.011l-0.02,-0.01l-0.023,-0.011l-0.022,-0.01l-0.023,-0.01l-0.023,-0.01l-0.019,-0.008l-0.024,-0.01l-0.023,-0.009l-0.022,-0.008l-0.024,-0.009l-0.022,-0.007l-0.022,-0.008l-0.025,-0.008l-0.023,-0.006l-0.024,-0.008l-0.024,-0.006l-0.021,-0.006l-0.025,-0.006l-0.025,-0.006l-0.025,-0.005l-0.023,-0.005l-0.023,-0.005l-0.026,-0.005l-0.024,-0.004l-0.025,-0.004l-0.023,-0.003l-0.026,-0.004l-0.026,-0.003l-0.024,-0.002l-0.026,-0.003l-0.027,-0.002l-0.025,-0.002l-0.025,-0.001l-0.025,-0.001l-0.026,-0.001l-0.027,-0.001l-0.026,0l-0.026,0Z" style="fill:#e5a1c8;"/></g><g><path d="M233.552,127l0.051,0.001l0.052,0.002l0.051,0.002l0.051,0.003l0.051,0.004l0.05,0.004l0.051,0.005l0.05,0.005l0.05,0.006l0.05,0.007l0.05,0.007l0.049,0.008l0.05,0.009l0.049,0.009l0.049,0.009l0.048,0.011l0.049,0.011l0.048,0.011l0.048,0.012l0.048,0.013l0.048,0.013l0.047,0.014l0.047,0.014l0.047,0.015l0.046,0.015l0.047,0.016l0.046,0.017l0.046,0.017l0.045,0.018l0.045,0.018l0.045,0.019l0.045,0.019l0.045,0.02l0.044,0.02l0.044,0.021l0.043,0.021l0.043,0.022l0.043,0.022l0.043,0.023l0.042,0.023l0.042,0.024l0.042,0.025l0.041,0.024l0.042,0.026l0.04,0.026l0.041,0.026l0.04,0.027l0.04,0.027l0.039,0.027l0.039,0.029l0.039,0.028l0.038,0.029l0.038,0.03l0.038,0.03l0.037,0.03l0.037,0.031l0.036,0.031l0.036,0.032l0.036,0.032l0.035,0.032l0.035,0.033l0.035,0.033l0.034,0.034l0.034,0.034l0.033,0.035l0.033,0.035l0.032,0.035l0.032,0.036l0.032,0.036l0.031,0.036l0.031,0.037l0.03,0.037l0.03,0.038l0.03,0.038l0.029,0.038l0.028,0.039l0.029,0.039l0.027,0.039l0.027,0.04l0.027,0.04l0.026,0.041l0.026,0.04l0.026,0.042l0.024,0.041l0.025,0.042l0.024,0.042l0.023,0.042l0.023,0.043l0.022,0.043l0.022,0.043l0.021,0.043l0.021,0.044l0.02,0.044l0.02,0.045l0.019,0.045l0.019,0.045l0.018,0.045l0.018,0.045l0.017,0.046l0.017,0.046l0.016,0.047l0.015,0.046l0.015,0.047l0.014,0.047l0.014,0.047l0.013,0.048l0.013,0.048l0.012,0.048l0.011,0.048l0.011,0.049l0.011,0.048l0.009,0.049l0.009,0.049l0.009,0.05l0.008,0.049l0.007,0.05l0.007,0.05l0.006,0.05l0.005,0.05l0.005,0.051l0.004,0.05l0.004,0.051l0.003,0.051l0.002,0.051l0.002,0.052l0.001,0.051l0,0.052l0,0.052l-0.001,0.051l-0.002,0.052l-0.002,0.051l-0.003,0.051l-0.004,0.051l-0.004,0.05l-0.005,0.051l-0.005,0.05l-0.006,0.05l-0.007,0.05l-0.007,0.05l-0.008,0.049l-0.009,0.05l-0.009,0.049l-0.009,0.049l-0.011,0.048l-0.011,0.049l-0.011,0.048l-0.012,0.048l-0.013,0.048l-0.013,0.048l-0.014,0.047l-0.014,0.047l-0.015,0.047l-0.015,0.046l-0.016,0.047l-0.017,0.046l-0.017,0.046l-0.018,0.045l-0.018,0.045l-0.019,0.045l-0.019,0.045l-0.02,0.045l-0.02,0.044l-0.021,0.044l-0.021,0.043l-0.022,0.043l-0.022,0.043l-0.023,0.043l-0.023,0.042l-0.024,0.042l-0.025,0.042l-0.024,0.041l-0.026,0.042l-0.026,0.04l-0.026,0.041l-0.027,0.04l-0.027,0.04l-0.027,0.039l-0.029,0.039l-0.028,0.039l-0.029,0.038l-0.03,0.038l-0.03,0.038l-0.03,0.037l-0.031,0.037l-0.031,0.036l-0.032,0.036l-0.032,0.036l-0.032,0.035l-0.033,0.035l-0.033,0.035l-0.034,0.034l-0.034,0.034l-0.035,0.033l-0.035,0.033l-0.035,0.032l-0.036,0.032l-0.036,0.032l-0.036,0.031l-0.037,0.031l-0.037,0.03l-0.038,0.03l-0.038,0.03l-0.038,0.029l-0.039,0.028l-0.039,0.029l-0.039,0.027l-0.04,0.027l-0.04,0.027l-0.041,0.026l-0.04,0.026l-0.042,0.026l-0.041,0.024l-0.042,0.025l-0.042,0.024l-0.042,0.023l-0.043,0.023l-0.043,0.022l-0.043,0.022l-0.043,0.021l-0.044,0.021l-0.044,0.02l-0.045,0.02l-0.045,0.019l-0.045,0.019l-0.045,0.018l-0.045,0.018l-0.046,0.017l-0.046,0.017l-0.047,0.016l-0.046,0.015l-0.047,0.015l-0.047,0.014l-0.047,0.014l-0.048,0.013l-0.048,0.013l-0.048,0.012l-0.048,0.011l-0.049,0.011l-0.048,0.011l-0.049,0.009l-0.049,0.009l-0.05,0.009l-0.049,0.008l-0.05,0.007l-0.05,0.007l-0.05,0.006l-0.05,0.005l-0.051,0.005l-0.05,0.004l-0.051,0.004l-0.051,0.003l-0.051,0.002l-0.052,0.002l-0.051,0.001l-0.052,0l-0.052,0l-0.051,-0.001l-0.052,-0.002l-0.051,-0.002l-0.051,-0.003l-0.051,-0.004l-0.05,-0.004l-0.051,-0.005l-0.05,-0.005l-0.05,-0.006l-0.05,-0.007l-0.05,-0.007l-0.049,-0.008l-0.05,-0.009l-0.049,-0.009l-0.049,-0.009l-0.048,-0.011l-0.049,-0.011l-0.048,-0.011l-0.048,-0.012l-0.048,-0.013l-0.048,-0.013l-0.047,-0.014l-0.047,-0.014l-0.047,-0.015l-0.046,-0.015l-0.047,-0.016l-0.046,-0.017l-0.046,-0.017l-0.045,-0.018l-0.045,-0.018l-0.045,-0.019l-0.045,-0.019l-0.045,-0.02l-0.044,-0.02l-0.044,-0.021l-0.043,-0.021l-0.043,-0.022l-0.043,-0.022l-0.043,-0.023l-0.042,-0.023l-0.042,-0.024l-0.042,-0.025l-0.041,-0.024l-0.042,-0.026l-0.04,-0.026l-0.041,-0.026l-0.04,-0.027l-0.04,-0.027l-0.039,-0.027l-0.039,-0.029l-0.039,-0.028l-0.038,-0.029l-0.038,-0.03l-0.038,-0.03l-0.037,-0.03l-0.037,-0.031l-0.036,-0.031l-0.036,-0.032l-0.036,-0.032l-0.035,-0.032l-0.035,-0.033l-0.035,-0.033l-0.034,-0.034l-0.034,-0.034l-0.033,-0.035l-0.033,-0.035l-0.032,-0.035l-0.032,-0.036l-0.032,-0.036l-0.031,-0.036l-0.031,-0.037l-0.03,-0.037l-0.03,-0.038l-0.03,-0.038l-0.029,-0.038l-0.028,-0.039l-0.029,-0.039l-0.027,-0.039l-0.027,-0.04l-0.027,-0.04l-0.026,-0.041l-0.026,-0.04l-0.026,-0.042l-0.024,-0.041l-0.025,-0.042l-0.024,-0.042l-0.023,-0.042l-0.023,-0.043l-0.022,-0.043l-0.022,-0.043l-0.021,-0.043l-0.021,-0.044l-0.02,-0.044l-0.02,-0.045l-0.019,-0.045l-0.019,-0.045l-0.018,-0.045l-0.018,-0.045l-0.017,-0.046l-0.017,-0.046l-0.016,-0.047l-0.015,-0.046l-0.015,-0.047l-0.014,-0.047l-0.014,-0.047l-0.013,-0.048l-0.013,-0.048l-0.012,-0.048l-0.011,-0.048l-0.011,-0.049l-0.011,-0.048l-0.009,-0.049l-0.009,-0.049l-0.009,-0.05l-0.008,-0.049l-0.007,-0.05l-0.007,-0.05l-0.006,-0.05l-0.005,-0.05l-0.005,-0.051l-0.004,-0.05l-0.004,-0.051l-0.003,-0.051l-0.002,-0.051l-0.002,-0.052l-0.001,-0.051l0,-0.052l0,-0.052l0.001,-0.051l0.002,-0.052l0.002,-0.051l0.003,-0.051l0.004,-0.051l0.004,-0.05l0.005,-0.051l0.005,-0.05l0.006,-0.05l0.007,-0.05l0.007,-0.05l0.008,-0.049l0.009,-0.05l0.009,-0.049l0.009,-0.049l0.011,-0.048l0.011,-0.049l0.011,-0.048l0.012,-0.048l0.013,-0.048l0.013,-0.048l0.014,-0.047l0.014,-0.047l0.015,-0.047l0.015,-0.046l0.016,-0.047l0.017,-0.046l0.017,-0.046l0.018,-0.045l0.018,-0.045l0.019,-0.045l0.019,-0.045l0.02,-0.045l0.02,-0.044l0.021,-0.044l0.021,-0.043l0.022,-0.043l0.022,-0.043l0.023,-0.043l0.023,-0.042l0.024,-0.042l0.025,-0.042l0.024,-0.041l0.026,-0.042l0.026,-0.04l0.026,-0.041l0.027,-0.04l0.027,-0.04l0.027,-0.039l0.029,-0.039l0.028,-0.039l0.029,-0.038l0.03,-0.038l0.03,-0.038l0.03,-0.037l0.031,-0.037l0.031,-0.036l0.032,-0.036l0.032,-0.036l0.032,-0.035l0.033,-0.035l0.033,-0.035l0.034,-0.034l0.034,-0.034l0.035,-0.033l0.035,-0.033l0.035,-0.032l0.036,-0.032l0.036,-0.032l0.036,-0.031l0.037,-0.031l0.037,-0.03l0.038,-0.03l0.038,-0.03l0.038,-0.029l0.039,-0.028l0.039,-0.029l0.039,-0.027l0.04,-0.027l0.04,-0.027l0.041,-0.026l0.04,-0.026l0.042,-0.026l0.041,-0.024l0.042,-0.025l0.042,-0.024l0.042,-0.023l0.043,-0.023l0.043,-0.022l0.043,-0.022l0.043,-0.021l0.044,-0.021l0.044,-0.02l0.045,-0.02l0.045,-0.019l0.045,-0.019l0.045,-0.018l0.045,-0.018l0.046,-0.017l0.046,-0.017l0.047,-0.016l0.046,-0.015l0.047,-0.015l0.047,-0.014l0.047,-0.014l0.048,-0.013l0.048,-0.013l0.048,-0.012l0.048,-0.011l0.049,-0.011l0.048,-0.011l0.049,-0.009l0.049,-0.009l0.05,-0.009l0.049,-0.008l0.05,-0.007l0.05,-0.007l0.05,-0.006l0.05,-0.005l0.051,-0.005l0.05,-0.004l0.051,-0.004l0.051,-0.003l0.051,-0.002l0.052,-0.002l0.051,-0.001l0.052,0l0.052,0Zm-0.078,2l-0.027,0.001l-0.026,0.001l-0.025,0.001l-0.025,0.001l-0.025,0.002l-0.027,0.002l-0.026,0.003l-0.024,0.002l-0.026,0.003l-0.026,0.004l-0.023,0.003l-0.025,0.004l-0.024,0.004l-0.026,0.005l-0.023,0.005l-0.023,0.005l-0.025,0.005l-0.025,0.006l-0.025,0.006l-0.021,0.006l-0.024,0.006l-0.024,0.008l-0.023,0.006l-0.025,0.008l-0.022,0.008l-0.022,0.007l-0.024,0.009l-0.022,0.008l-0.023,0.009l-0.024,0.01l-0.019,0.008l-0.023,0.01l-0.023,0.01l-0.022,0.01l-0.023,0.011l-0.02,0.01l-0.023,0.011l-0.02,0.011l-0.022,0.011l-0.021,0.012l-0.019,0.011l-0.023,0.013l-0.022,0.013l-0.021,0.013l-0.018,0.012l-0.02,0.013l-0.021,0.014l-0.02,0.013l-0.019,0.014l-0.019,0.013l-0.021,0.016l-0.02,0.015l-0.018,0.014l-0.018,0.015l-0.018,0.014l-0.021,0.018l-0.018,0.015l-0.018,0.016l-0.018,0.016l-0.016,0.014l-0.02,0.019l-0.016,0.016l-0.017,0.016l-0.019,0.02l-0.016,0.016l-0.015,0.017l-0.017,0.018l-0.015,0.017l-0.018,0.021l-0.017,0.019l-0.012,0.014l-0.016,0.019l-0.017,0.022l-0.015,0.019l-0.013,0.017l-0.014,0.02l-0.015,0.021l-0.013,0.018l-0.015,0.022l-0.013,0.019l-0.013,0.02l-0.014,0.023l-0.012,0.019l-0.012,0.021l-0.012,0.02l-0.012,0.021l-0.012,0.021l-0.011,0.022l-0.011,0.021l-0.011,0.021l-0.011,0.023l-0.009,0.019l-0.011,0.022l-0.01,0.024l-0.01,0.023l-0.009,0.023l-0.008,0.02l-0.01,0.024l-0.008,0.022l-0.007,0.02l-0.01,0.029l-0.007,0.021l-0.007,0.021l-0.008,0.027l-0.007,0.022l-0.006,0.023l-0.006,0.022l-0.006,0.023l-0.006,0.027l-0.005,0.024l-0.005,0.024l-0.005,0.024l-0.005,0.024l-0.004,0.025l-0.004,0.025l-0.004,0.025l-0.002,0.022l-0.004,0.029l-0.003,0.027l-0.002,0.022l-0.002,0.023l-0.002,0.027l-0.001,0.027l-0.001,0.024l-0.001,0.027l-0.001,0.028l0,0.025l0,0.025l0.001,0.028l0.001,0.027l0.001,0.024l0.001,0.027l0.002,0.027l0.002,0.023l0.002,0.022l0.003,0.027l0.004,0.029l0.002,0.022l0.004,0.025l0.004,0.025l0.004,0.025l0.005,0.024l0.005,0.024l0.005,0.024l0.005,0.024l0.006,0.027l0.006,0.023l0.006,0.022l0.006,0.023l0.007,0.022l0.008,0.027l0.007,0.021l0.007,0.021l0.01,0.029l0.007,0.02l0.008,0.022l0.01,0.024l0.008,0.02l0.009,0.023l0.01,0.023l0.01,0.024l0.011,0.022l0.009,0.019l0.011,0.023l0.011,0.021l0.011,0.021l0.011,0.022l0.012,0.021l0.012,0.021l0.012,0.02l0.012,0.021l0.012,0.019l0.014,0.023l0.013,0.02l0.013,0.019l0.015,0.022l0.013,0.018l0.015,0.021l0.014,0.02l0.013,0.017l0.015,0.019l0.017,0.022l0.016,0.019l0.012,0.014l0.017,0.019l0.018,0.021l0.015,0.017l0.017,0.018l0.015,0.017l0.016,0.016l0.019,0.02l0.017,0.016l0.016,0.016l0.02,0.019l0.016,0.014l0.018,0.016l0.018,0.016l0.018,0.015l0.021,0.018l0.018,0.014l0.018,0.015l0.018,0.014l0.02,0.015l0.021,0.016l0.019,0.013l0.019,0.014l0.02,0.013l0.021,0.014l0.02,0.013l0.018,0.012l0.021,0.013l0.022,0.013l0.023,0.013l0.019,0.011l0.021,0.012l0.022,0.011l0.02,0.011l0.023,0.011l0.02,0.01l0.023,0.011l0.022,0.01l0.023,0.01l0.023,0.01l0.019,0.008l0.024,0.01l0.023,0.009l0.022,0.008l0.024,0.009l0.022,0.007l0.022,0.008l0.025,0.008l0.023,0.006l0.024,0.008l0.024,0.006l0.021,0.006l0.025,0.006l0.025,0.006l0.025,0.005l0.023,0.005l0.023,0.005l0.026,0.005l0.024,0.004l0.025,0.004l0.023,0.003l0.026,0.004l0.026,0.003l0.024,0.002l0.026,0.003l0.027,0.002l0.025,0.002l0.025,0.001l0.025,0.001l0.026,0.001l0.027,0.001l0.026,0l0.026,0l0.027,-0.001l0.026,-0.001l0.025,-0.001l0.025,-0.001l0.025,-0.002l0.027,-0.002l0.026,-0.003l0.024,-0.002l0.026,-0.003l0.026,-0.004l0.023,-0.003l0.025,-0.004l0.024,-0.004l0.026,-0.005l0.023,-0.005l0.023,-0.005l0.025,-0.005l0.025,-0.006l0.025,-0.006l0.021,-0.006l0.024,-0.006l0.024,-0.008l0.023,-0.006l0.025,-0.008l0.022,-0.008l0.022,-0.007l0.024,-0.009l0.022,-0.008l0.023,-0.009l0.024,-0.01l0.019,-0.008l0.023,-0.01l0.023,-0.01l0.022,-0.01l0.023,-0.011l0.02,-0.01l0.023,-0.011l0.02,-0.011l0.022,-0.011l0.021,-0.012l0.019,-0.011l0.023,-0.013l0.022,-0.013l0.021,-0.013l0.018,-0.012l0.02,-0.013l0.021,-0.014l0.02,-0.013l0.019,-0.014l0.019,-0.013l0.021,-0.016l0.02,-0.015l0.018,-0.014l0.018,-0.015l0.018,-0.014l0.021,-0.018l0.018,-0.015l0.018,-0.016l0.018,-0.016l0.016,-0.014l0.02,-0.019l0.016,-0.016l0.017,-0.016l0.019,-0.02l0.016,-0.016l0.015,-0.017l0.017,-0.018l0.015,-0.017l0.018,-0.021l0.017,-0.019l0.012,-0.014l0.016,-0.019l0.017,-0.022l0.015,-0.019l0.013,-0.017l0.014,-0.02l0.015,-0.021l0.013,-0.018l0.015,-0.022l0.013,-0.019l0.013,-0.02l0.014,-0.023l0.012,-0.019l0.012,-0.021l0.012,-0.02l0.012,-0.021l0.012,-0.021l0.011,-0.022l0.011,-0.021l0.011,-0.021l0.011,-0.023l0.009,-0.019l0.011,-0.022l0.01,-0.024l0.01,-0.023l0.009,-0.023l0.008,-0.02l0.01,-0.024l0.008,-0.022l0.007,-0.02l0.01,-0.029l0.007,-0.021l0.007,-0.021l0.008,-0.027l0.007,-0.022l0.006,-0.023l0.006,-0.022l0.006,-0.023l0.006,-0.027l0.005,-0.024l0.005,-0.024l0.005,-0.024l0.005,-0.024l0.004,-0.025l0.004,-0.025l0.004,-0.025l0.002,-0.022l0.004,-0.029l0.003,-0.027l0.002,-0.022l0.002,-0.023l0.002,-0.027l0.001,-0.027l0.001,-0.024l0.001,-0.027l0.001,-0.028l0,-0.025l0,-0.025l-0.001,-0.028l-0.001,-0.027l-0.001,-0.024l-0.001,-0.027l-0.002,-0.027l-0.002,-0.023l-0.002,-0.022l-0.003,-0.027l-0.004,-0.029l-0.002,-0.022l-0.004,-0.025l-0.004,-0.025l-0.004,-0.025l-0.005,-0.024l-0.005,-0.024l-0.005,-0.024l-0.005,-0.024l-0.006,-0.027l-0.006,-0.023l-0.006,-0.022l-0.006,-0.023l-0.007,-0.022l-0.008,-0.027l-0.007,-0.021l-0.007,-0.021l-0.01,-0.029l-0.007,-0.02l-0.008,-0.022l-0.01,-0.024l-0.008,-0.02l-0.009,-0.023l-0.01,-0.023l-0.01,-0.024l-0.011,-0.022l-0.009,-0.019l-0.011,-0.023l-0.011,-0.021l-0.011,-0.021l-0.011,-0.022l-0.012,-0.021l-0.012,-0.021l-0.012,-0.02l-0.012,-0.021l-0.012,-0.019l-0.014,-0.023l-0.013,-0.02l-0.013,-0.019l-0.015,-0.022l-0.013,-0.018l-0.015,-0.021l-0.014,-0.02l-0.013,-0.017l-0.015,-0.019l-0.017,-0.022l-0.016,-0.019l-0.012,-0.014l-0.017,-0.019l-0.018,-0.021l-0.015,-0.017l-0.017,-0.018l-0.015,-0.017l-0.016,-0.016l-0.019,-0.02l-0.017,-0.016l-0.016,-0.016l-0.02,-0.019l-0.016,-0.014l-0.018,-0.016l-0.018,-0.016l-0.018,-0.015l-0.021,-0.018l-0.018,-0.014l-0.018,-0.015l-0.018,-0.014l-0.02,-0.015l-0.021,-0.016l-0.019,-0.013l-0.019,-0.014l-0.02,-0.013l-0.021,-0.014l-0.02,-0.013l-0.018,-0.012l-0.021,-0.013l-0.022,-0.013l-0.023,-0.013l-0.019,-0.011l-0.021,-0.012l-0.022,-0.011l-0.02,-0.011l-0.023,-0.011l-0.02,-0.01l-0.023,-0.011l-0.022,-0.01l-0.023,-0.01l-0.023,-0.01l-0.019,-0.008l-0.024,-0.01l-0.023,-0.009l-0.022,-0.008l-0.024,-0.009l-0.022,-0.007l-0.022,-0.008l-0.025,-0.008l-0.023,-0.006l-0.024,-0.008l-0.024,-0.006l-0.021,-0.006l-0.025,-0.006l-0.025,-0.006l-0.025,-0.005l-0.023,-0.005l-0.023,-0.005l-0.026,-0.005l-0.024,-0.004l-0.025,-0.004l-0.023,-0.003l-0.026,-0.004l-0.026,-0.003l-0.024,-0.002l-0.026,-0.003l-0.027,-0.002l-0.025,-0.002l-0.025,-0.001l-0.025,-0.001l-0.026,-0.001l-0.027,-0.001l-0.026,0l-0.026,0Z" style="fill:#e5a1c8;"/></g></g><g><rect x="21.5" y="120.009" width="144.987" height="101.491" style="fill:#181b1c;"/><path d="M167.253,118.161l0.649,0.434l0.433,0.649l0.152,0.765l0,101.491l-0.152,0.765l-0.433,0.649l-0.649,0.434l-0.766,0.152l-144.987,0l-0.765,-0.152l-0.649,-0.434l-0.434,-0.649l-0.152,-0.765l0,-101.491l0.152,-0.765l0.434,-0.649l0.649,-0.434l0.765,-0.152l144.987,0l0.766,0.152Zm-145.753,1.848l0,101.491l144.987,0l0,-101.491l-144.987,0Z" style="fill:#fff;"/><rect x="33.994" y="133.57" width="120" height="68" style="fill:#181b1c;"/><path d="M154.278,131.591l0.279,0.06l0.267,0.1l0.251,0.137l0.228,0.171l0.202,0.202l0.171,0.228l0.137,0.25l0.1,0.268l0.06,0.279l0.021,0.284l0,68l-0.021,0.285l-0.06,0.279l-0.1,0.267l-0.137,0.251l-0.171,0.228l-0.202,0.202l-0.228,0.171l-0.251,0.137l-0.267,0.099l-0.279,0.061l-0.284,0.02l-120,0l-0.285,-0.02l-0.279,-0.061l-0.267,-0.099l-0.251,-0.137l-0.228,-0.171l-0.202,-0.202l-0.171,-0.228l-0.137,-0.251l-0.099,-0.267l-0.061,-0.279l-0.02,-0.285l0,-68l0.02,-0.284l0.061,-0.279l0.099,-0.268l0.137,-0.25l0.171,-0.228l0.202,-0.202l0.228,-0.171l0.251,-0.137l0.267,-0.1l0.279,-0.06l0.285,-0.021l120,0l0.284,0.021Zm-120.284,1.979l0,68l120,0l0,-68l-120,0Z" style="fill:#fff;"/><ellipse cx="93.994" cy="211.876" rx="4.142" ry="4.06" style="fill:#fff;"/></g><g><path d="M77.586,157.864l-11.717,11.717l11.717,11.717l-5.858,5.858l-17.575,-17.575l17.575,-17.575c1.953,1.952 3.905,3.905 5.858,5.858Z" style="fill:#181b1c;"/><path d="M71.81,150.007l0.165,0.014l0.163,0.027l0.16,0.041l0.157,0.053l0.151,0.067l0.146,0.079l0.138,0.09l0.13,0.101l0.122,0.112l5.858,5.859l0.112,0.121l0.102,0.131l0.09,0.138l0.079,0.146l0.066,0.151l0.054,0.156l0.04,0.161l0.028,0.163l0.013,0.164l0,0.166l-0.013,0.164l-0.028,0.164l-0.04,0.16l-0.054,0.156l-0.066,0.151l-0.079,0.146l-0.09,0.138l-0.102,0.131l-0.112,0.121l-10.302,10.303l10.302,10.302l0.112,0.122l0.102,0.13l0.09,0.139l0.079,0.145l0.066,0.152l0.054,0.156l0.04,0.16l0.028,0.163l0.013,0.165l0,0.165l-0.013,0.165l-0.028,0.163l-0.04,0.16l-0.054,0.157l-0.066,0.151l-0.079,0.145l-0.09,0.139l-0.102,0.13l-0.112,0.122l-5.858,5.858l-0.122,0.112l-0.13,0.102l-0.139,0.09l-0.145,0.079l-0.151,0.066l-0.157,0.054l-0.16,0.04l-0.163,0.027l-0.165,0.014l-0.165,0l-0.165,-0.014l-0.163,-0.027l-0.16,-0.04l-0.156,-0.054l-0.152,-0.066l-0.145,-0.079l-0.138,-0.09l-0.131,-0.102l-0.121,-0.112l-17.576,-17.575l-0.112,-0.122l-0.101,-0.13l-0.09,-0.138l-0.079,-0.146l-0.067,-0.151l-0.053,-0.157l-0.041,-0.16l-0.027,-0.163l-0.014,-0.165l0,-0.165l0.014,-0.165l0.027,-0.163l0.041,-0.16l0.053,-0.156l0.067,-0.152l0.079,-0.145l0.09,-0.138l0.101,-0.131l0.112,-0.121l17.576,-17.576l0.121,-0.112l0.131,-0.101l0.138,-0.09l0.145,-0.079l0.152,-0.067l0.156,-0.053l0.16,-0.041l0.163,-0.027l0.165,-0.014l0.165,0Zm-17.657,19.574l17.575,17.575l5.858,-5.858l-11.717,-11.717l11.717,-11.717l-5.858,-5.858l-17.575,17.575Z" style="fill:#fff;"/><path d="M134.677,169.581l-17.575,17.575l-5.858,-5.858l11.717,-11.717l-11.717,-11.717l5.858,-5.858c5.859,5.858 11.717,11.716 17.575,17.575Z" style="fill:#181b1c;"/><path d="M117.185,150.007l0.165,0.014l0.163,0.027l0.16,0.041l0.156,0.053l0.152,0.067l0.145,0.079l0.138,0.09l0.131,0.101l0.121,0.112l17.575,17.576l0.112,0.121l0.102,0.131l0.09,0.138l0.079,0.145l0.066,0.152l0.054,0.156l0.041,0.16l0.027,0.163l0.014,0.165l0,0.165l-0.014,0.165l-0.027,0.163l-0.041,0.16l-0.054,0.157l-0.066,0.151l-0.079,0.146l-0.09,0.138l-0.102,0.13l-0.112,0.122l-17.575,17.575l-0.121,0.112l-0.131,0.102l-0.138,0.09l-0.145,0.079l-0.152,0.066l-0.156,0.054l-0.16,0.04l-0.163,0.027l-0.165,0.014l-0.165,0l-0.165,-0.014l-0.163,-0.027l-0.16,-0.04l-0.157,-0.054l-0.151,-0.066l-0.146,-0.079l-0.138,-0.09l-0.13,-0.102l-0.122,-0.112l-5.858,-5.858l-0.112,-0.122l-0.102,-0.13l-0.09,-0.139l-0.079,-0.145l-0.066,-0.151l-0.054,-0.157l-0.041,-0.16l-0.027,-0.163l-0.013,-0.165l0,-0.165l0.013,-0.165l0.027,-0.163l0.041,-0.16l0.054,-0.156l0.066,-0.152l0.079,-0.145l0.09,-0.139l0.102,-0.13l0.112,-0.122l10.302,-10.302l-10.302,-10.303l-0.112,-0.121l-0.102,-0.131l-0.09,-0.138l-0.079,-0.146l-0.066,-0.151l-0.054,-0.156l-0.041,-0.16l-0.027,-0.164l-0.013,-0.164l0,-0.166l0.013,-0.164l0.027,-0.163l0.041,-0.161l0.054,-0.156l0.066,-0.151l0.079,-0.146l0.09,-0.138l0.102,-0.131l0.112,-0.121l5.858,-5.859l0.122,-0.112l0.13,-0.101l0.138,-0.09l0.146,-0.079l0.151,-0.067l0.157,-0.053l0.16,-0.041l0.163,-0.027l0.165,-0.014l0.165,0Zm-5.941,7.857l11.717,11.717l-11.717,11.717l5.858,5.858l17.575,-17.575l-17.575,-17.575l-5.858,5.858Z" style="fill:#fff;"/><path d="M103.206,151.08l-10.42,39.074l-8.005,-2.135l10.42,-39.074c2.668,0.712 5.337,1.423 8.005,2.135Z" style="fill:#181b1c;"/><path d="M95.373,146.953l0.173,0.022l0.17,0.038l8.005,2.134l0.167,0.053l0.161,0.066l0.155,0.081l0.147,0.093l0.139,0.106l0.129,0.118l0.118,0.128l0.106,0.139l0.094,0.147l0.081,0.154l0.067,0.161l0.052,0.167l0.038,0.17l0.023,0.173l0.008,0.174l-0.007,0.175l-0.023,0.173l-0.037,0.17l-10.42,39.074l-0.052,0.167l-0.067,0.161l-0.08,0.155l-0.094,0.147l-0.106,0.139l-0.118,0.128l-0.128,0.118l-0.139,0.107l-0.147,0.094l-0.154,0.08l-0.161,0.067l-0.167,0.053l-0.17,0.038l-0.173,0.023l-0.174,0.008l-0.175,-0.008l-0.173,-0.022l-0.17,-0.038l-8.005,-2.134l-0.167,-0.053l-0.161,-0.066l-0.155,-0.081l-0.147,-0.093l-0.139,-0.106l-0.128,-0.118l-0.118,-0.128l-0.107,-0.139l-0.094,-0.147l-0.08,-0.154l-0.067,-0.162l-0.053,-0.166l-0.038,-0.17l-0.023,-0.173l-0.008,-0.174l0.008,-0.175l0.022,-0.173l0.038,-0.17l10.419,-39.074l0.053,-0.167l0.066,-0.161l0.081,-0.155l0.093,-0.147l0.106,-0.139l0.118,-0.128l0.128,-0.118l0.139,-0.107l0.147,-0.094l0.154,-0.08l0.161,-0.067l0.167,-0.053l0.17,-0.038l0.173,-0.023l0.174,-0.008l0.175,0.008Zm-10.592,41.066l8.005,2.135l10.42,-39.074l-8.005,-2.135l-10.42,39.074Z" style="fill:#fff;"/><path d="M77.586,157.864l-11.717,11.717l11.717,11.717l-5.858,5.858l-17.575,-17.575l17.575,-17.575c1.953,1.952 3.905,3.905 5.858,5.858Z" style="fill:#addde2;"/><path d="M77.586,157.864l-11.717,11.717l11.717,11.717l-5.858,5.858l-17.575,-17.575l17.575,-17.575l5.858,5.858Zm-20.605,11.717l14.747,14.746l3.03,-3.029l-11.717,-11.717l11.717,-11.717l-3.03,-3.03l-14.747,14.747Z" style="fill:#181b1c;"/><path d="M134.677,169.581l-17.575,17.575l-5.858,-5.858l11.717,-11.717l-11.717,-11.717l5.858,-5.858c5.859,5.858 11.717,11.716 17.575,17.575Z" style="fill:#addde2;"/><path d="M134.677,169.581l-17.575,17.575l-5.858,-5.858l11.717,-11.717l-11.717,-11.717l5.858,-5.858l17.575,17.575Zm-20.605,-11.717l11.717,11.717l-11.717,11.717l3.03,3.029l14.747,-14.746l-14.747,-14.747l-3.03,3.03Z" style="fill:#181b1c;"/><path d="M103.206,151.08l-10.42,39.074l-8.005,-2.135l10.42,-39.074c2.668,0.712 5.337,1.423 8.005,2.135Z" style="fill:#addde2;"/><path d="M103.206,151.08l-10.42,39.074l-8.005,-2.135l10.42,-39.074l8.005,2.135Zm-15.977,35.522l4.14,1.104l9.389,-35.209l-4.14,-1.104l-9.389,35.209Z" style="fill:#181b1c;"/></g><g><path d="M41.825,137.594l-3.765,3.765" style="fill:none;stroke:#fff;stroke-width:1px;"/><path d="M46.06,138.389l-7.529,7.529" style="fill:none;stroke:#fff;stroke-width:1px;"/></g><g><path d="M64.5,257.5l6.667,0l11.333,-34l24,0l11.333,34l6.667,0l0,8l-60,0l0,-8Z" style="fill:#181b1c;"/><path d="M106.708,221.511l0.205,0.032l0.201,0.054l0.195,0.074l0.186,0.094l0.174,0.112l0.163,0.131l0.148,0.146l0.131,0.161l0.115,0.174l0.095,0.185l0.076,0.194l10.878,32.632l5.225,0l0.209,0.011l0.207,0.033l0.202,0.054l0.195,0.075l0.187,0.095l0.176,0.114l0.162,0.132l0.148,0.148l0.132,0.162l0.114,0.176l0.095,0.187l0.075,0.195l0.054,0.202l0.033,0.207l0.011,0.209l0,8l-0.011,0.209l-0.033,0.207l-0.054,0.202l-0.075,0.195l-0.095,0.187l-0.114,0.176l-0.132,0.162l-0.148,0.148l-0.162,0.132l-0.176,0.114l-0.187,0.095l-0.195,0.075l-0.202,0.054l-0.207,0.033l-0.209,0.011l-60,0l-0.209,-0.011l-0.207,-0.033l-0.202,-0.054l-0.195,-0.075l-0.187,-0.095l-0.176,-0.114l-0.162,-0.132l-0.148,-0.148l-0.132,-0.162l-0.114,-0.176l-0.095,-0.187l-0.075,-0.195l-0.054,-0.202l-0.033,-0.207l-0.011,-0.209l0,-8l0.011,-0.209l0.033,-0.207l0.054,-0.202l0.075,-0.195l0.095,-0.187l0.114,-0.176l0.132,-0.162l0.148,-0.148l0.162,-0.132l0.176,-0.114l0.187,-0.095l0.195,-0.075l0.202,-0.054l0.207,-0.033l0.209,-0.011l5.225,0l10.878,-32.632l0.076,-0.194l0.095,-0.185l0.115,-0.174l0.131,-0.161l0.148,-0.146l0.163,-0.131l0.174,-0.112l0.186,-0.094l0.195,-0.074l0.201,-0.054l0.205,-0.032l0.208,-0.011l24,0l0.208,0.011Zm-24.208,1.989l-11.333,34l-6.667,0l0,8l60,0l0,-8l-6.667,0l-11.333,-34l-24,0Z" style="fill:#fff;"/><rect x="64.5" y="257.5" width="60" height="8" style="fill:#4aa6b2;"/><path d="M124.5,265.5l-60,0l0,-8l60,0l0,8Zm-58,-6l0,4l56,0l0,-4l-56,0Z" style="fill:#181b1c;"/><path d="M106.5,223.5l-24,0l-12,36l48,0l-12,-36Z" style="fill:#4aa6b2;"/><path d="M118.5,259.5l-48,0l12,-36l24,0l12,36Zm-34.558,-34l-10.667,32l42.45,0l-10.667,-32l-21.116,0Z" style="fill:#181b1c;"/><path d="M105.5,225.5l-22,0l-2.5,8l27,0l-2.5,-8Z" style="fill:#171717;fill-opacity:0.15;"/></g></svg>
