<svg xmlns="http://www.w3.org/2000/svg" viewBox="0 0 200 30"><defs><style>.cls-1{isolation:isolate}.cls-2{fill:#e33592}.cls-3{fill:#fff}</style></defs><title>Octopus Think</title><g id="text" class="cls-1"><g class="cls-1"><path class="cls-2" d="M141.46 13h-2.26v5.93c0 1.09.54 1.32 1.22 1.32a3.24 3.24 0 0 0 .79-.1l.46 2.11a5.29 5.29 0 0 1-1.59.27c-2 .06-3.6-1-3.59-3.16V13h-1.62v-2.14h1.62V8.12h2.71v2.74h2.26zM145.67 22.32H143V7h2.65v5.77h.13a3.37 3.37 0 0 1 3.41-2.1c2.38 0 3.95 1.55 3.95 4.32v7.29h-2.7v-6.84a2.16 2.16 0 0 0-2.3-2.44 2.38 2.38 0 0 0-2.47 2.61zM155 7.77a1.57 1.57 0 0 1 3.13 0 1.57 1.57 0 0 1-3.13 0zm.21 3.09h2.7v11.46h-2.7zM162.87 22.32h-2.71V10.86h2.59v2h.13a3.43 3.43 0 0 1 3.42-2.1c2.36 0 3.93 1.57 3.92 4.32v7.29h-2.7v-6.93a2.15 2.15 0 0 0-2.23-2.44 2.35 2.35 0 0 0-2.42 2.61zM172.38 7h2.7v8.43h.19l4.12-4.61h3.15l-4.44 5 4.7 6.51h-3.23l-3.5-4.9-1 1v3.85h-2.7z"/></g><g class="cls-1"><path class="cls-3" d="M56.64 16.64c0-3.56 2.11-5.93 5.34-5.93s5.34 2.37 5.34 5.93-2.11 5.91-5.32 5.91-5.36-2.36-5.36-5.91zm8.43 0c0-2.2-1-4.06-3.08-4.06s-3.1 1.86-3.1 4.06 1 4 3.1 4 3.08-1.8 3.08-4zM68.63 16.64c0-3.49 2.09-5.93 5.32-5.93 2.6 0 4.49 1.54 4.73 3.85h-2.17a2.47 2.47 0 0 0-2.52-2c-1.87 0-3.11 1.55-3.11 4s1.22 4.11 3.12 4.11a2.45 2.45 0 0 0 2.52-2h2.17c-.25 2.23-2 3.85-4.71 3.85-3.34.03-5.35-2.42-5.35-5.88zM85.78 12.65h-2.35V19c0 1.29.64 1.53 1.37 1.53a3.52 3.52 0 0 0 .78-.1l.4 1.84a4.19 4.19 0 0 1-1.44.24 3 3 0 0 1-3.35-3v-6.86h-1.67v-1.79h1.67V8.12h2.24v2.74h2.35zM86.62 16.64c0-3.56 2.11-5.93 5.34-5.93s5.34 2.37 5.34 5.93-2.11 5.91-5.3 5.91-5.38-2.36-5.38-5.91zm8.43 0c0-2.2-1-4.06-3.08-4.06s-3.1 1.86-3.1 4.06 1 4 3.1 4 3.08-1.8 3.08-4zM99.16 10.86h2.18v1.86h.19a3.43 3.43 0 0 1 3.29-2c2.77 0 4.81 2.19 4.81 5.91s-2 5.93-4.79 5.93a3.49 3.49 0 0 1-3.31-2h-.14v6.08h-2.23zm5.18 9.78c2 0 3-1.75 3-4.05s-1-4-3-4-3 1.59-3 4 1.08 4.05 3 4.05zM118.72 10.86H121v11.46h-2.2v-2h-.12a3.55 3.55 0 0 1-3.42 2.13c-2.2 0-3.76-1.47-3.76-4.32v-7.27h2.23v7a2.32 2.32 0 0 0 2.27 2.58 2.69 2.69 0 0 0 2.69-2.87zM129.78 14a2.21 2.21 0 0 0-2.29-1.54c-1.27 0-2.22.63-2.21 1.51s.53 1.2 1.8 1.5l1.82.42c2.1.48 3.13 1.48 3.13 3.1 0 2.08-1.92 3.54-4.69 3.54-2.57 0-4.26-1.14-4.63-3.17l2.16-.33a2.23 2.23 0 0 0 2.46 1.71c1.46 0 2.41-.7 2.41-1.59 0-.71-.52-1.2-1.62-1.45l-1.94-.43c-2.15-.47-3.13-1.56-3.13-3.18 0-2 1.83-3.4 4.42-3.4s3.87 1.17 4.34 2.95z"/></g></g><g id="logomark" fill-rule="evenodd"><path id="filament" d="M31 28.32a.51.51 0 0 1-.51-.52V16.72h-1.68V27.8a.51.51 0 1 1-1 0V16.72h-2.08a3.06 3.06 0 0 1-2.84-2 3.27 3.27 0 0 1 .66-3.48 3 3 0 0 1 3.36-.69 3.19 3.19 0 0 1 1.9 2.95v2.14h1.68v-2.12a3.19 3.19 0 0 1 1.9-2.95 3 3 0 0 1 3.36.69 3.3 3.3 0 0 1 .67 3.48 3.08 3.08 0 0 1-2.85 2h-2.06V27.8a.51.51 0 0 1-.51.52zm.51-12.66h2.06a2.14 2.14 0 1 0-2.06-2.14zm-5.78-4.28a2.15 2.15 0 0 0 0 4.29h2.06v-2.15a2.1 2.1 0 0 0-2.06-2.14z" fill="#e33592"/><path id="octopus" d="M34.88 28.32a1 1 0 0 1-1-1v-.4a1 1 0 0 1 .62-.94 11.91 11.91 0 1 0-9.61 0 1 1 0 0 1 .62.94v.4a1 1 0 0 1-.41.82 1.06 1.06 0 0 1-.91.18A21.26 21.26 0 0 1 13.05 21 20.61 20.61 0 0 1 9.13 3.81a1 1 0 0 1 2 .43 18.65 18.65 0 0 0 7.07 18.91 13.69 13.69 0 0 1-2.56-8 14 14 0 0 1 28 0 13.76 13.76 0 0 1-2.56 8 18.66 18.66 0 0 0 7.07-18.86A1 1 0 0 1 49 3.08a1 1 0 0 1 1.23.78 20.56 20.56 0 0 1 .46 4.36A20.42 20.42 0 0 1 46.25 21a21.26 21.26 0 0 1-11.1 7.33 1.24 1.24 0 0 1-.27-.01z" fill="#fff"/></g></svg>