<svg id="Layer_1" data-name="Layer 1" xmlns="http://www.w3.org/2000/svg" viewBox="0 0 200 30"><defs><style>.cls-1{isolation:isolate;}.cls-2,.cls-4{fill:#e33592;}.cls-3,.cls-5{fill:#fff;}.cls-4,.cls-5{fill-rule:evenodd;}</style></defs><title>Octopus Think</title><g id="text" class="cls-1"><g class="cls-1"><path class="cls-2" d="M141.46,13H139.2v5.93c0,1.09.54,1.32,1.22,1.32a3.24,3.24,0,0,0,.79-.1l.46,2.11a5.29,5.29,0,0,1-1.59.27c-2,.06-3.6-1-3.59-3.16V13h-1.62V10.86h1.62V8.12h2.71v2.74h2.26Z"/><path class="cls-2" d="M145.67,22.32H143V7h2.65v5.77h.13a3.37,3.37,0,0,1,3.41-2.1c2.38,0,3.95,1.55,3.95,4.32v7.29h-2.7V15.44A2.16,2.16,0,0,0,148.14,13a2.38,2.38,0,0,0-2.47,2.61Z"/><path class="cls-2" d="M155,7.77a1.57,1.57,0,0,1,3.13,0,1.57,1.57,0,0,1-3.13,0Zm.21,3.09h2.7V22.32h-2.7Z"/><path class="cls-2" d="M162.87,22.32h-2.71V10.86h2.59v2h.13a3.43,3.43,0,0,1,3.42-2.1c2.36,0,3.93,1.57,3.92,4.32v7.29h-2.7V15.44A2.15,2.15,0,0,0,165.29,13a2.35,2.35,0,0,0-2.42,2.61Z"/><path class="cls-2" d="M172.38,7h2.7v8.43h.19l4.12-4.61h3.15l-4.44,5,4.7,6.51h-3.23l-3.5-4.9-1,1v3.85h-2.7Z"/></g><g class="cls-1"><path class="cls-3" d="M56.64,16.64c0-3.56,2.11-5.93,5.34-5.93s5.34,2.37,5.34,5.93S65.21,22.55,62,22.55,56.64,20.19,56.64,16.64Zm8.43,0c0-2.2-1-4.06-3.08-4.06s-3.1,1.86-3.1,4.06,1,4,3.1,4S65.07,18.84,65.07,16.64Z"/><path class="cls-3" d="M68.63,16.64c0-3.49,2.09-5.93,5.32-5.93,2.6,0,4.49,1.54,4.73,3.85H76.51a2.47,2.47,0,0,0-2.52-2c-1.87,0-3.11,1.55-3.11,4S72.1,20.67,74,20.67a2.45,2.45,0,0,0,2.52-2h2.17c-.25,2.23-2,3.85-4.71,3.85C70.64,22.55,68.63,20.1,68.63,16.64Z"/><path class="cls-3" d="M85.78,12.65H83.43V19c0,1.29.64,1.53,1.37,1.53a3.52,3.52,0,0,0,.78-.1l.4,1.84a4.19,4.19,0,0,1-1.44.24,3,3,0,0,1-3.35-3V12.65H79.52V10.86h1.67V8.12h2.24v2.74h2.35Z"/><path class="cls-3" d="M86.62,16.64c0-3.56,2.11-5.93,5.34-5.93s5.34,2.37,5.34,5.93S95.19,22.55,92,22.55,86.62,20.19,86.62,16.64Zm8.43,0c0-2.2-1-4.06-3.08-4.06s-3.1,1.86-3.1,4.06,1,4,3.1,4S95.05,18.84,95.05,16.64Z"/><path class="cls-3" d="M99.16,10.86h2.18v1.86h.19a3.43,3.43,0,0,1,3.29-2c2.77,0,4.81,2.19,4.81,5.91s-2,5.93-4.79,5.93a3.49,3.49,0,0,1-3.31-2h-.14v6.08H99.16Zm5.18,9.78c2,0,3-1.75,3-4.05s-1-4-3-4-3,1.59-3,4S102.42,20.64,104.34,20.64Z"/><path class="cls-3" d="M118.72,10.86H121V22.32h-2.2v-2h-.12a3.55,3.55,0,0,1-3.42,2.13c-2.2,0-3.76-1.47-3.76-4.32V10.86h2.23v7A2.32,2.32,0,0,0,116,20.44a2.69,2.69,0,0,0,2.69-2.87Z"/><path class="cls-3" d="M129.78,14a2.21,2.21,0,0,0-2.29-1.54c-1.27,0-2.22.63-2.21,1.51s.53,1.2,1.8,1.5l1.82.42c2.1.48,3.13,1.48,3.13,3.1,0,2.08-1.92,3.54-4.69,3.54-2.57,0-4.26-1.14-4.63-3.17l2.16-.33a2.23,2.23,0,0,0,2.46,1.71c1.46,0,2.41-.7,2.41-1.59,0-.71-.52-1.2-1.62-1.45l-1.94-.43c-2.15-.47-3.13-1.56-3.13-3.18,0-2,1.83-3.4,4.42-3.4s3.87,1.17,4.34,2.95Z"/></g></g><g id="logomark"><path id="filament" class="cls-4" d="M31,28.32a.51.51,0,0,1-.51-.52V16.72H28.81V27.8a.51.51,0,1,1-1,0V16.72H25.73a3.06,3.06,0,0,1-2.84-2,3.27,3.27,0,0,1,.66-3.48,3,3,0,0,1,3.36-.69,3.19,3.19,0,0,1,1.9,2.95v2.14h1.68V13.52a3.19,3.19,0,0,1,1.9-2.95,3,3,0,0,1,3.36.69,3.3,3.3,0,0,1,.67,3.48,3.08,3.08,0,0,1-2.85,2H31.51V27.8a.51.51,0,0,1-.51.52Zm.51-12.66h2.06a2.14,2.14,0,1,0-2.06-2.14Zm-5.78-4.28a2.15,2.15,0,0,0,0,4.29h2.06V13.52A2.1,2.1,0,0,0,25.73,11.38Z"/><path id="octopus" class="cls-5" d="M34.88,28.32a1,1,0,0,1-1-1v-.4a1,1,0,0,1,.62-.94,11.91,11.91,0,1,0-9.61,0,1,1,0,0,1,.62.94v.4a1,1,0,0,1-.41.82,1.06,1.06,0,0,1-.91.18A21.26,21.26,0,0,1,13.05,21,20.61,20.61,0,0,1,9.13,3.81a1,1,0,0,1,2,.43,18.65,18.65,0,0,0,7.07,18.91,13.69,13.69,0,0,1-2.56-8,14,14,0,0,1,28,0,13.76,13.76,0,0,1-2.56,8A18.66,18.66,0,0,0,48.15,4.29,1,1,0,0,1,49,3.08a1,1,0,0,1,1.23.78,20.56,20.56,0,0,1,.46,4.36A20.42,20.42,0,0,1,46.25,21a21.26,21.26,0,0,1-11.1,7.33A1.24,1.24,0,0,1,34.88,28.32Z"/></g></svg>
