<svg width="42px" height="27px" viewBox="0 0 42 27" xmlns="http://www.w3.org/2000/svg" aria-hidden="true" focusable="false">
<g fill="#FFF" fill-rule="evenodd">
  <path d="M22.3511868 27c-.2807172 0-.5082834-.236341-.5082834-.5278823v-11.07761h-1.6858068v11.07761c0 .2915413-.2275662.5278823-.5082834.5278823-.2807172 0-.5082834-.236341-.5082834-.5278823v-11.07761h-2.0619365c-1.2451384 0-2.3676724-.7789745-2.8441662-1.9736889-.4764938-1.1947145-.2131101-2.5698902.6673356-3.48428506.8804458-.91439483 2.204565-1.1879343 3.3549228-.69306739 1.1503579.49486692 1.9004111 1.66068465 1.9004111 2.95383425v2.1414425h1.6858068v-2.1414425c0-1.2931496.7500532-2.45896733 1.9004111-2.95383425 1.1503578-.49486691 2.474477-.22132744 3.3549228.69306739.8804457.91439486 1.1438294 2.28957056.6673356 3.48428506-.4764938 1.1947144-1.5990278 1.9736889-2.8441662 1.9736889h-2.0619365v11.07761c0 .2915413-.2275662.5278823-.5082834.5278823zm.5082834-12.6612569h2.0619365c1.1387761 0 2.0619364-.9587565 2.0619364-2.1414425 0-1.1826861-.9231603-2.1414426-2.0619364-2.1414426-1.1387761 0-2.0619365.9587565-2.0619365 2.1414426v2.1414425zm-5.7808769-4.2793658c-1.1387761 0-2.0619364.9587564-2.0619364 2.1414425 0 1.182686.9231603 2.1414425 2.0619364 2.1414425h2.0619365v-2.1449617c-.0032647-1.1807086-.9250607-2.1364747-2.0619365-2.1379233z"/>
  <path d="M26.2253654 26.9995278c-.5747349 0-1.0406497-.4611725-1.0406497-1.0300576v-.4008641c-.0008175-.408613.2424571-.7790723.6200538-.9442196 4.3145229-1.8872464 7.098543-6.1156791 7.1006998-10.7847036 0-6.49708861-5.3411346-11.7838595-11.9050326-11.7838595S9.09540403 7.34431105 9.09540403 13.8413997c.00269128 4.6681989 2.78622397 8.8957346 7.09983267 10.7829868.3775966.1651473.6208713.5356066.6200537.9442196v.4008641c.0001457.3206933-.1506173.623158-.4078179.8181755-.2572007.1950175-.5914922.260336-.9042679.1766885-4.4028301-1.1927627-8.29713073-3.7645458-11.10026355-7.330577C1.53452054 15.997025-.01606946 11.5117107 0 6.89795274c0-1.48321317.159324-2.96222921.47535562-4.41208027.12141276-.55608522.67526891-.90945866 1.23707234-.78928168.56180342.12017698.9188106.66839582.79739784 1.22448103C.95230765 10.0469644 3.70848641 17.4205029 9.57670452 21.8269216c-1.66624784-2.3352972-2.56113379-5.1239671-2.5617327-7.9829468C7.01497182 6.21038926 13.2892223 0 21.0013039 0 28.7133854 0 34.987636 6.21038926 34.987636 13.8439748c-.0005114 2.8591251-.895735 5.6479031-2.5625999 7.9829468 5.8567381-4.3962627 8.6151505-11.7494335 7.076418-18.86378909-.109099-.55174218.2489148-1.08815807.8044404-1.2053015.5555255-.11714342 1.1033326.22826241 1.2308969.77611081C41.845102 3.96854983 42 5.43124548 42 6.89795274c.0156718 4.61369216-1.5348743 9.09887936-4.4029349 12.73580446-2.8034336 3.5657109-6.6976167 6.1374164-11.1002635 7.330577-.0885003.0236004-.1797806.0356658-.2714362.0351936z"/>
</g>
</svg>
