<?xml version="1.0" encoding="UTF-8" standalone="no"?>
<!DOCTYPE svg PUBLIC "-//W3C//DTD SVG 1.1//EN" "http://www.w3.org/Graphics/SVG/1.1/DTD/svg11.dtd">
<svg width="100%" height="100%" viewBox="0 0 600 600" version="1.1" xmlns="http://www.w3.org/2000/svg" xmlns:xlink="http://www.w3.org/1999/xlink" xml:space="preserve" xmlns:serif="http://www.serif.com/" style="fill-rule:evenodd;clip-rule:evenodd;stroke-linecap:round;stroke-linejoin:round;stroke-miterlimit:1.5;">
    <g transform="matrix(1,0,0,1,-765,-2496)">
        <g id="accessibility" transform="matrix(0.950872,0,0,0.950872,761.197,1035.46)">
            <rect x="4" y="1536" width="631" height="631" style="fill:rgb(24,27,28);"/>
            <g id="rings" transform="matrix(1.05167,0,0,1.05167,-101.167,-256.04)">
                <g transform="matrix(0.767011,0,0,0.767011,-3.26618,1594.21)">
                    <circle cx="525.763" cy="534.273" r="333.763" style="fill:none;stroke:rgb(104,189,198);stroke-width:10.43px;"/>
                </g>
                <g transform="matrix(0.719073,0,0,0.719073,21.938,1619.82)">
                    <circle cx="525.763" cy="534.273" r="333.763" style="fill:none;stroke:rgb(221,124,179);stroke-width:11.13px;"/>
                </g>
            </g>
            <g transform="matrix(-0.942809,-0.942809,0.942809,-0.942809,-1089.89,3831.17)">
                <g>
                    <g transform="matrix(4.37844e-17,-0.430227,0.78875,1.75138e-16,-309.134,2547.39)">
                        <path d="M1505,645L1527,645" style="fill:none;stroke:white;stroke-width:4.97px;stroke-linejoin:miter;stroke-miterlimit:3;"/>
                    </g>
                    <g transform="matrix(4.37844e-17,-0.430227,0.78875,1.75138e-16,-309.134,2525.31)">
                        <path d="M1505,645L1527,645" style="fill:none;stroke:white;stroke-width:4.97px;stroke-linejoin:miter;stroke-miterlimit:3;"/>
                    </g>
                    <g transform="matrix(-0.430227,-4.37844e-17,1.75138e-16,-0.78875,862.877,2392.87)">
                        <path d="M1505,645L1527,645" style="fill:none;stroke:white;stroke-width:4.97px;stroke-linejoin:miter;stroke-miterlimit:3;"/>
                    </g>
                    <g transform="matrix(-0.430227,-4.37844e-17,1.75138e-16,-0.78875,840.792,2392.87)">
                        <path d="M1505,645L1527,645" style="fill:none;stroke:white;stroke-width:4.97px;stroke-linejoin:miter;stroke-miterlimit:3;"/>
                    </g>
                </g>
            </g>
            <g transform="matrix(0.942809,-0.942809,0.942809,0.942809,-1886.73,447.477)">
                <g transform="matrix(4.37844e-17,-0.430227,0.78875,1.75138e-16,-79.6075,2450.38)">
                    <path d="M1505,645L1527,645" style="fill:none;stroke:white;stroke-width:4.97px;stroke-linejoin:miter;stroke-miterlimit:3;"/>
                </g>
                <g transform="matrix(4.37844e-17,-0.430227,0.78875,1.75138e-16,-79.6075,2428.29)">
                    <path d="M1505,645L1527,645" style="fill:none;stroke:white;stroke-width:4.97px;stroke-linejoin:miter;stroke-miterlimit:3;"/>
                </g>
                <g transform="matrix(-0.430227,-4.37844e-17,1.75138e-16,-0.78875,1092.4,2295.85)">
                    <path d="M1505,645L1527,645" style="fill:none;stroke:white;stroke-width:4.97px;stroke-linejoin:miter;stroke-miterlimit:3;"/>
                </g>
                <g transform="matrix(-0.430227,-4.37844e-17,1.75138e-16,-0.78875,1070.32,2295.85)">
                    <path d="M1505,645L1527,645" style="fill:none;stroke:white;stroke-width:4.97px;stroke-linejoin:miter;stroke-miterlimit:3;"/>
                </g>
            </g>
            <g id="visual-drawing" serif:id="visual drawing">
            </g>
            <g transform="matrix(1.26546,0,0,1.23266,-3398.79,-1952.31)">
                <path d="M2948,3210L2948,3174C2948.07,3171.36 2949.12,3168.84 2950.93,3166.93L3001.93,3115.93C3004.06,3113.92 3006.85,3112.86 3009.87,3113.04C3012.24,3113.31 3012.99,3113.71 3014.25,3114.49C3018.99,3117.41 3020.42,3124.68 3016.84,3129.2C3016.52,3129.61 3016.43,3129.7 3016.07,3130.07L2987,3159.14" style="fill:none;stroke:white;stroke-width:3.37px;stroke-miterlimit:2;"/>
            </g>
            <g transform="matrix(1.26546,0,0,1.23266,-3568.35,-1949.84)">
                <path d="M3153,3123.55L3153,3061C3153.15,3055.25 3158.2,3050.72 3164,3051.03C3169.81,3051.03 3174.86,3055.78 3175,3061L3175,3132C3175.05,3134.11 3175.11,3136.24 3175,3138.35L3175,3141C3174.97,3142.18 3174.87,3142.94 3174.7,3143.57C3174.32,3145.36 3173.55,3147.08 3172.34,3148.62C3172.05,3149 3171.95,3149.15 3171.21,3149.9L3150.21,3170.9C3149.46,3171.63 3149.32,3171.73 3148.94,3172.03C3148.74,3172.19 3148.53,3172.34 3148.32,3172.48L3126,3194.8L3126,3208" style="fill:none;stroke:white;stroke-width:3.37px;stroke-miterlimit:2;"/>
            </g>
            <g transform="matrix(-1.26546,0,0,1.23266,4028.7,-1952.31)">
                <path d="M2948,3210L2948,3174C2948.07,3171.36 2949.12,3168.84 2950.93,3166.93L3001.93,3115.93C3004.06,3113.92 3006.85,3112.86 3009.87,3113.04C3012.24,3113.31 3012.99,3113.71 3014.25,3114.49C3018.99,3117.41 3020.42,3124.68 3016.84,3129.2C3016.52,3129.61 3016.43,3129.7 3016.07,3130.07L2987,3159.14" style="fill:none;stroke:white;stroke-width:3.37px;stroke-miterlimit:2;"/>
            </g>
            <g transform="matrix(-1.26546,0,0,1.23266,4198.25,-1949.84)">
                <path d="M3153,3123.55L3153,3061C3153.15,3055.25 3158.2,3050.72 3164,3051.03C3169.81,3051.03 3174.86,3055.78 3175,3061L3175,3132C3175.05,3134.11 3175.11,3136.24 3175,3138.35L3175,3141C3174.97,3142.18 3174.87,3142.94 3174.7,3143.57C3174.32,3145.36 3173.55,3147.08 3172.34,3148.62C3172.05,3149 3171.95,3149.15 3171.21,3149.9L3150.21,3170.9C3149.46,3171.63 3149.32,3171.73 3148.94,3172.03C3148.74,3172.19 3148.53,3172.34 3148.32,3172.48L3126,3194.8L3126,3208" style="fill:none;stroke:white;stroke-width:3.37px;stroke-miterlimit:2;"/>
            </g>
            <g id="heart" transform="matrix(7.51942,0,0,7.60904,172.372,1742.5)">
                <g id="Shape" transform="matrix(0.951049,0,0,0.926964,4.20979,-4.3262)">
                    <path d="M21.084,6.404L21.132,6.405L21.181,6.406L21.23,6.407L21.278,6.409L21.327,6.411L21.376,6.414L21.424,6.417L21.472,6.42L21.521,6.424L21.569,6.428L21.617,6.433L21.666,6.438L21.714,6.443L21.762,6.449L21.811,6.456L21.863,6.463L21.914,6.47L21.964,6.478L22.015,6.487L22.066,6.496L22.116,6.505L22.166,6.515L22.217,6.525L22.267,6.536L22.317,6.547L22.367,6.559L22.417,6.571L22.466,6.584L22.516,6.596L22.565,6.61L22.615,6.624L22.664,6.638L22.713,6.653L22.762,6.668L22.81,6.684L22.859,6.7L22.908,6.716L22.956,6.733L23.004,6.751L23.052,6.768L23.1,6.787L23.148,6.805L23.195,6.825L23.242,6.844L23.29,6.864L23.337,6.885L23.384,6.906L23.43,6.927L23.476,6.949L23.523,6.971L23.569,6.994L23.615,7.018L23.66,7.041L23.706,7.065L23.751,7.09L23.796,7.115L23.841,7.14L23.885,7.166L23.929,7.192L23.952,7.206L23.974,7.219L23.996,7.233L24.018,7.246L24.039,7.26L24.061,7.274L24.083,7.288L24.105,7.302L24.126,7.317L24.148,7.331L24.169,7.345L24.19,7.36L24.212,7.375L24.233,7.389L24.255,7.404L24.276,7.419L24.297,7.434L24.318,7.45L24.339,7.465L24.36,7.48L24.381,7.496L24.401,7.512L24.422,7.527L24.443,7.544L24.463,7.56L24.483,7.575L24.504,7.592L24.524,7.608L24.545,7.625L24.565,7.641L24.585,7.658L24.605,7.675L24.625,7.691L24.645,7.708L24.665,7.726L24.685,7.743L24.704,7.76L24.724,7.778L24.743,7.795L24.763,7.813L24.782,7.831L24.802,7.849L24.821,7.867L24.84,7.885L24.859,7.903L24.878,7.921L24.897,7.94L24.916,7.958L24.934,7.977L24.953,7.996L24.972,8.014L24.99,8.034L25.009,8.053L25.027,8.072L25.045,8.091L25.063,8.111L25.081,8.13L25.099,8.15L25.117,8.169L25.135,8.189L25.153,8.209L25.17,8.229L25.188,8.249L25.205,8.27L25.223,8.29L25.24,8.311L25.257,8.331L25.274,8.352L25.291,8.373L25.308,8.394L25.325,8.415L25.342,8.436L25.358,8.457L25.375,8.479L25.391,8.5L25.408,8.521L25.424,8.543L25.44,8.565L25.456,8.587L25.472,8.609L25.488,8.631L25.504,8.653L25.52,8.676L25.535,8.698L25.551,8.72L25.566,8.743L25.582,8.766L25.597,8.789L25.612,8.812L25.627,8.835L25.642,8.858L25.656,8.881L25.671,8.905L25.686,8.928L25.7,8.951L25.714,8.975L25.729,8.999L25.743,9.023L25.757,9.047L25.771,9.071L25.785,9.095L25.798,9.119L25.812,9.144L25.826,9.168L25.839,9.193L25.852,9.217L25.866,9.242L25.879,9.267L25.892,9.292L25.904,9.317L25.917,9.342L25.93,9.368L25.943,9.393L25.955,9.419L25.967,9.444L25.979,9.47L25.991,9.496L26.003,9.522L26.015,9.548L26.027,9.574L26.039,9.6L26.05,9.626L26.062,9.653L26.073,9.679L26.084,9.706L26.095,9.732L26.106,9.759L26.117,9.786L26.127,9.813L26.138,9.84L26.148,9.867L26.159,9.894L26.169,9.922L26.179,9.949L26.189,9.977L26.199,10.004L26.209,10.032L26.218,10.06L26.228,10.088L26.237,10.116L26.246,10.144L26.256,10.172L26.265,10.201L26.273,10.229L26.282,10.258L26.291,10.286L26.299,10.315L26.308,10.344L26.316,10.373L26.324,10.402L26.332,10.431L26.34,10.46L26.348,10.489L26.355,10.519L26.363,10.548L26.37,10.578L26.377,10.607L26.385,10.637L26.391,10.667L26.398,10.697L26.405,10.727L26.412,10.757L26.418,10.787L26.424,10.817L26.431,10.847L26.437,10.878L26.443,10.908L26.455,10.971L26.461,11.006L26.467,11.041L26.473,11.076L26.479,11.11L26.485,11.145L26.491,11.179L26.496,11.214L26.502,11.248L26.507,11.282L26.512,11.316L26.517,11.351L26.521,11.385L26.526,11.419L26.53,11.452L26.535,11.486L26.539,11.52L26.542,11.554L26.546,11.587L26.55,11.621L26.553,11.654L26.556,11.687L26.559,11.721L26.562,11.754L26.565,11.787L26.568,11.82L26.57,11.853L26.573,11.886L26.575,11.919L26.577,11.952L26.578,11.984L26.58,12.017L26.582,12.05L26.583,12.082L26.584,12.115L26.585,12.147L26.586,12.179L26.587,12.211L26.587,12.244L26.588,12.276L26.588,12.308L26.588,12.34L26.588,12.371L26.588,12.403L26.588,12.435L26.587,12.467L26.587,12.498L26.586,12.53L26.585,12.561L26.584,12.593L26.582,12.624L26.581,12.655L26.579,12.687L26.578,12.718L26.576,12.749L26.574,12.78L26.572,12.811L26.569,12.842L26.567,12.872L26.564,12.903L26.562,12.934L26.559,12.965L26.556,12.995L26.553,13.026L26.549,13.056L26.546,13.086L26.542,13.117L26.538,13.147L26.535,13.177L26.531,13.207L26.526,13.237L26.522,13.267L26.518,13.297L26.513,13.327L26.508,13.357L26.503,13.386L26.498,13.416L26.493,13.446L26.488,13.475L26.482,13.505L26.477,13.534L26.471,13.564L26.465,13.593L26.459,13.622L26.453,13.651L26.447,13.68L26.441,13.709L26.434,13.739L26.427,13.767L26.421,13.796L26.414,13.825L26.407,13.854L26.399,13.882L26.392,13.911L26.385,13.94L26.377,13.968L26.369,13.997L26.362,14.025L26.354,14.053L26.346,14.082L26.337,14.11L26.329,14.138L26.321,14.166L26.312,14.194L26.303,14.222L26.295,14.25L26.286,14.278L26.277,14.306L26.267,14.333L26.258,14.361L26.249,14.389L26.239,14.416L26.23,14.444L26.22,14.471L26.21,14.499L26.2,14.526L26.19,14.554L26.18,14.581L26.169,14.608L26.159,14.635L26.148,14.662L26.138,14.689L26.127,14.716L26.116,14.744L26.094,14.797L26.071,14.851L26.048,14.904L26.025,14.957L26.001,15.01L25.977,15.063L25.952,15.115L25.927,15.168L25.902,15.22L25.876,15.272L25.85,15.324L25.823,15.376L25.796,15.428L25.769,15.479L25.741,15.53L25.713,15.582L25.685,15.633L25.656,15.684L25.627,15.734L25.598,15.785L25.568,15.835L25.538,15.886L25.507,15.936L25.477,15.986L25.445,16.036L25.414,16.086L25.382,16.136L25.35,16.186L25.318,16.236L25.285,16.285L25.252,16.335L25.219,16.384L25.186,16.434L25.152,16.483L25.118,16.532L25.083,16.582L25.049,16.631L25.014,16.68L24.979,16.729L24.943,16.778L24.908,16.827L24.872,16.876L24.836,16.925L24.799,16.974L24.763,17.023L24.726,17.072L24.689,17.121L24.651,17.17L24.614,17.219L24.576,17.269L24.538,17.318L24.499,17.367L24.461,17.416L24.422,17.465L24.383,17.514L24.344,17.564L24.305,17.613L24.265,17.662L24.186,17.761L24.106,17.86L24.025,17.96L23.943,18.059L23.831,18.196L23.718,18.333L23.605,18.47L23.492,18.607L23.378,18.743L23.265,18.879L23.15,19.015L23.036,19.151L22.922,19.286L22.807,19.421L22.692,19.556L22.577,19.691L22.461,19.825L22.345,19.959L22.23,20.093L22.114,20.227L21.997,20.361L21.881,20.494L21.764,20.627L21.648,20.76L21.531,20.893L21.414,21.026L21.296,21.158L21.179,21.29L21.061,21.423L20.944,21.555L20.826,21.686L20.708,21.818L20.59,21.949L20.472,22.081L20.353,22.212L20.235,22.343L20.117,22.474L19.998,22.605L19.879,22.735L19.761,22.866L19.642,22.996L19.523,23.127L19.404,23.257L19.285,23.387L19.047,23.647L18.808,23.907L18.57,24.166L18.331,24.425L18.093,24.684L17.854,24.942L17.377,25.459L17.139,25.717L16.901,25.975L16.663,26.234L15.995,26.959L15.327,26.233L15.09,25.975L14.613,25.458L14.136,24.94L13.898,24.681L13.659,24.421L13.421,24.161L13.182,23.901L12.944,23.641L12.706,23.38L12.587,23.25L12.469,23.119L12.35,22.989L12.231,22.858L12.113,22.727L11.994,22.596L11.876,22.465L11.758,22.334L11.64,22.202L11.522,22.071L11.404,21.939L11.286,21.808L11.168,21.676L11.051,21.544L10.934,21.412L10.817,21.28L10.7,21.147L10.583,21.015L10.466,20.882L10.35,20.75L10.234,20.617L10.117,20.484L10.002,20.35L9.886,20.217L9.771,20.083L9.655,19.95L9.54,19.816L9.426,19.682L9.311,19.547L9.197,19.413L9.083,19.278L8.969,19.144L8.856,19.009L8.742,18.873L8.629,18.738L8.517,18.602L8.404,18.467L8.292,18.331L8.181,18.194L8.07,18.059L7.989,17.96L7.907,17.86L7.827,17.761L7.748,17.662L7.708,17.613L7.669,17.564L7.63,17.514L7.591,17.465L7.552,17.416L7.514,17.367L7.475,17.318L7.437,17.269L7.399,17.22L7.362,17.17L7.324,17.122L7.287,17.073L7.25,17.024L7.214,16.975L7.177,16.925L7.141,16.876L7.105,16.827L7.069,16.778L7.034,16.729L6.999,16.68L6.964,16.631L6.929,16.582L6.895,16.533L6.861,16.483L6.827,16.434L6.794,16.385L6.76,16.335L6.727,16.286L6.695,16.236L6.662,16.186L6.63,16.137L6.599,16.087L6.567,16.037L6.536,15.987L6.505,15.937L6.475,15.886L6.445,15.836L6.415,15.785L6.385,15.735L6.356,15.684L6.327,15.633L6.299,15.582L6.271,15.531L6.243,15.48L6.215,15.428L6.188,15.377L6.162,15.325L6.135,15.273L6.11,15.221L6.084,15.169L6.059,15.116L6.034,15.064L6.01,15.011L5.986,14.958L5.963,14.905L5.939,14.852L5.917,14.798L5.895,14.745L5.873,14.691L5.862,14.664L5.851,14.637L5.841,14.609L5.83,14.582L5.82,14.555L5.81,14.528L5.8,14.5L5.79,14.473L5.78,14.445L5.77,14.418L5.761,14.39L5.751,14.363L5.742,14.335L5.733,14.307L5.724,14.28L5.715,14.252L5.706,14.224L5.697,14.196L5.688,14.168L5.68,14.14L5.671,14.112L5.663,14.084L5.655,14.055L5.647,14.027L5.639,13.999L5.631,13.97L5.623,13.942L5.616,13.913L5.608,13.885L5.601,13.856L5.594,13.827L5.587,13.798L5.58,13.77L5.573,13.741L5.567,13.712L5.56,13.683L5.554,13.654L5.548,13.624L5.541,13.595L5.536,13.566L5.53,13.537L5.524,13.507L5.518,13.478L5.513,13.449L5.508,13.419L5.502,13.389L5.497,13.36L5.493,13.33L5.488,13.3L5.483,13.27L5.479,13.24L5.474,13.21L5.47,13.18L5.466,13.15L5.462,13.12L5.459,13.089L5.455,13.059L5.451,13.029L5.448,12.998L5.445,12.968L5.442,12.937L5.439,12.907L5.436,12.876L5.434,12.845L5.431,12.814L5.429,12.783L5.427,12.752L5.425,12.721L5.423,12.69L5.421,12.659L5.419,12.628L5.418,12.596L5.417,12.565L5.416,12.534L5.415,12.502L5.414,12.47L5.413,12.439L5.412,12.407L5.412,12.375L5.412,12.343L5.412,12.312L5.412,12.28L5.412,12.247L5.412,12.215L5.413,12.183L5.414,12.151L5.414,12.119L5.415,12.086L5.417,12.054L5.418,12.021L5.419,11.988L5.421,11.956L5.423,11.923L5.425,11.89L5.427,11.857L5.429,11.825L5.431,11.791L5.434,11.758L5.436,11.725L5.439,11.692L5.442,11.659L5.445,11.625L5.449,11.591L5.452,11.558L5.456,11.524L5.46,11.491L5.464,11.457L5.468,11.423L5.472,11.389L5.476,11.355L5.481,11.321L5.486,11.287L5.491,11.253L5.496,11.218L5.501,11.184L5.506,11.149L5.512,11.115L5.518,11.08L5.524,11.045L5.53,11.011L5.536,10.976L5.542,10.943L5.547,10.914L5.553,10.883L5.558,10.853L5.564,10.822L5.57,10.792L5.577,10.762L5.583,10.731L5.589,10.701L5.596,10.671L5.603,10.641L5.61,10.612L5.617,10.582L5.624,10.552L5.631,10.523L5.639,10.493L5.646,10.464L5.654,10.435L5.662,10.406L5.67,10.377L5.678,10.348L5.686,10.319L5.694,10.29L5.703,10.261L5.711,10.233L5.72,10.204L5.729,10.176L5.738,10.148L5.747,10.119L5.756,10.091L5.765,10.063L5.775,10.035L5.784,10.007L5.794,9.98L5.804,9.952L5.814,9.925L5.824,9.897L5.834,9.87L5.845,9.843L5.855,9.815L5.866,9.788L5.876,9.761L5.887,9.735L5.898,9.708L5.909,9.681L5.92,9.655L5.932,9.628L5.943,9.602L5.955,9.575L5.966,9.549L5.978,9.523L5.99,9.497L6.002,9.471L6.014,9.446L6.026,9.42L6.039,9.395L6.051,9.369L6.064,9.344L6.077,9.319L6.089,9.293L6.102,9.268L6.116,9.243L6.129,9.219L6.142,9.194L6.155,9.169L6.169,9.145L6.182,9.12L6.196,9.096L6.21,9.072L6.224,9.047L6.238,9.023L6.252,9L6.266,8.976L6.281,8.952L6.295,8.928L6.31,8.905L6.324,8.881L6.339,8.858L6.354,8.835L6.369,8.812L6.384,8.789L6.399,8.766L6.415,8.743L6.43,8.72L6.446,8.698L6.461,8.676L6.477,8.653L6.493,8.631L6.509,8.609L6.525,8.587L6.541,8.565L6.557,8.543L6.573,8.521L6.59,8.5L6.606,8.478L6.623,8.457L6.639,8.436L6.656,8.415L6.673,8.393L6.69,8.372L6.707,8.352L6.724,8.331L6.742,8.31L6.759,8.29L6.776,8.269L6.794,8.249L6.811,8.229L6.829,8.209L6.847,8.189L6.865,8.169L6.883,8.149L6.901,8.129L6.919,8.11L6.937,8.09L6.956,8.071L6.974,8.052L6.992,8.033L7.011,8.014L7.03,7.995L7.048,7.976L7.067,7.957L7.086,7.939L7.105,7.921L7.124,7.902L7.143,7.884L7.162,7.866L7.182,7.848L7.201,7.83L7.221,7.812L7.24,7.794L7.26,7.777L7.279,7.759L7.299,7.742L7.319,7.725L7.339,7.708L7.359,7.691L7.379,7.674L7.399,7.657L7.419,7.64L7.44,7.624L7.46,7.607L7.48,7.591L7.501,7.575L7.521,7.559L7.542,7.543L7.563,7.527L7.584,7.511L7.604,7.495L7.625,7.48L7.646,7.464L7.667,7.449L7.689,7.434L7.709,7.419L7.731,7.404L7.752,7.389L7.773,7.374L7.795,7.359L7.817,7.345L7.838,7.33L7.859,7.316L7.881,7.302L7.903,7.288L7.925,7.274L7.947,7.26L7.969,7.246L7.991,7.232L8.013,7.219L8.035,7.205L8.057,7.192L8.079,7.179L8.102,7.165L8.146,7.14L8.191,7.114L8.236,7.089L8.282,7.065L8.327,7.041L8.373,7.017L8.419,6.994L8.465,6.971L8.512,6.949L8.558,6.927L8.605,6.906L8.652,6.885L8.699,6.864L8.746,6.844L8.794,6.824L8.841,6.805L8.889,6.786L8.937,6.768L8.985,6.75L9.034,6.733L9.082,6.716L9.131,6.699L9.18,6.683L9.228,6.668L9.277,6.653L9.327,6.638L9.376,6.624L9.425,6.61L9.475,6.596L9.524,6.583L9.574,6.571L9.624,6.559L9.674,6.547L9.724,6.536L9.774,6.525L9.824,6.515L9.875,6.505L9.925,6.496L9.976,6.487L10.026,6.478L10.077,6.47L10.128,6.463L10.18,6.455L10.23,6.449L10.279,6.443L10.327,6.438L10.376,6.433L10.424,6.428L10.473,6.424L10.522,6.42L10.571,6.417L10.619,6.414L10.668,6.411L10.718,6.409L10.766,6.407L10.815,6.406L10.864,6.405L10.913,6.404L10.962,6.404L11.011,6.404L11.06,6.404L11.109,6.405L11.158,6.406L11.207,6.408L11.257,6.41L11.306,6.412L11.355,6.415L11.404,6.418L11.453,6.422L11.502,6.426L11.551,6.431L11.6,6.435L11.649,6.441L11.698,6.446L11.747,6.452L11.796,6.459L11.845,6.465L11.894,6.472L11.943,6.48L11.992,6.488L12.041,6.496L12.089,6.505L12.138,6.514L12.187,6.524L12.235,6.534L12.284,6.544L12.332,6.555L12.381,6.566L12.429,6.578L12.478,6.59L12.526,6.602L12.575,6.615L12.623,6.628L12.671,6.641L12.719,6.655L12.767,6.67L12.815,6.684L12.862,6.7L12.91,6.715L12.958,6.731L13.006,6.748L13.053,6.764L13.1,6.782L13.148,6.799L13.195,6.817L13.242,6.836L13.289,6.854L13.336,6.874L13.382,6.893L13.429,6.913L13.476,6.933L13.522,6.954L13.568,6.976L13.615,6.997L13.661,7.019L13.707,7.042L13.752,7.065L13.798,7.088L13.843,7.112L13.889,7.136L13.934,7.16L13.979,7.185L14.024,7.21L14.069,7.236L14.114,7.262L14.158,7.289L14.202,7.316L14.246,7.343L14.29,7.371L14.334,7.399L14.378,7.428L14.421,7.457L14.465,7.486L14.508,7.516L14.551,7.546L14.593,7.577L14.636,7.608L14.678,7.639L14.72,7.671L14.762,7.703L14.804,7.736L14.846,7.769L14.887,7.803L14.928,7.836L14.969,7.871L15.01,7.906L15.05,7.941L15.091,7.976L15.131,8.012L15.171,8.049L15.21,8.085L15.25,8.123L15.289,8.16L15.328,8.198L15.366,8.237L15.405,8.275L15.443,8.315L15.481,8.354L15.518,8.394L15.556,8.435L15.593,8.476L15.63,8.517L15.667,8.559L15.703,8.601L15.739,8.643L15.775,8.686L15.811,8.73L15.846,8.773L15.881,8.818L15.915,8.862L15.953,8.911L15.982,8.951L15.995,8.97L16.009,8.951L16.038,8.911L16.075,8.862L16.11,8.817L16.145,8.773L16.181,8.729L16.216,8.686L16.252,8.643L16.288,8.601L16.325,8.558L16.362,8.517L16.399,8.475L16.436,8.434L16.473,8.394L16.511,8.354L16.549,8.314L16.587,8.275L16.626,8.236L16.665,8.198L16.704,8.16L16.743,8.122L16.783,8.085L16.823,8.048L16.862,8.012L16.903,7.976L16.943,7.94L16.984,7.905L17.025,7.87L17.066,7.836L17.107,7.802L17.149,7.768L17.19,7.735L17.232,7.703L17.274,7.67L17.317,7.638L17.359,7.607L17.402,7.576L17.445,7.545L17.488,7.515L17.531,7.485L17.575,7.456L17.618,7.427L17.662,7.398L17.706,7.37L17.75,7.342L17.795,7.315L17.839,7.288L17.884,7.262L17.929,7.236L17.974,7.21L18.019,7.185L18.064,7.16L18.109,7.135L18.155,7.111L18.2,7.087L18.246,7.064L18.292,7.041L18.338,7.019L18.384,6.997L18.431,6.975L18.477,6.954L18.524,6.933L18.57,6.913L18.617,6.893L18.664,6.873L18.711,6.854L18.758,6.835L18.805,6.817L18.852,6.799L18.9,6.781L18.947,6.764L18.995,6.747L19.042,6.731L19.09,6.715L19.138,6.7L19.186,6.684L19.234,6.67L19.282,6.655L19.33,6.641L19.378,6.628L19.426,6.615L19.474,6.602L19.523,6.59L19.571,6.578L19.62,6.566L19.668,6.555L19.717,6.544L19.765,6.534L19.814,6.524L19.863,6.514L19.911,6.505L19.96,6.496L20.009,6.488L20.058,6.48L20.107,6.472L20.155,6.465L20.204,6.459L20.253,6.452L20.302,6.446L20.351,6.441L20.4,6.435L20.448,6.431L20.497,6.426L20.546,6.422L20.595,6.419L20.644,6.415L20.693,6.412L20.742,6.41L20.791,6.408L20.84,6.406L20.889,6.405L20.937,6.404L20.986,6.404L21.035,6.404L21.084,6.404ZM10.919,7L10.875,7.001L10.83,7.002L10.786,7.003L10.742,7.005L10.698,7.007L10.653,7.009L10.609,7.012L10.565,7.015L10.521,7.019L10.477,7.022L10.433,7.027L10.389,7.031L10.345,7.036L10.301,7.041L10.257,7.047L10.211,7.053L10.166,7.06L10.12,7.067L10.074,7.075L10.029,7.083L9.983,7.091L9.938,7.1L9.893,7.11L9.848,7.119L9.803,7.129L9.758,7.14L9.713,7.15L9.668,7.162L9.624,7.173L9.579,7.185L9.535,7.198L9.491,7.211L9.447,7.224L9.403,7.237L9.359,7.251L9.315,7.266L9.272,7.281L9.228,7.296L9.185,7.311L9.142,7.327L9.099,7.344L9.056,7.36L9.013,7.378L8.971,7.395L8.929,7.413L8.887,7.431L8.845,7.45L8.803,7.469L8.761,7.489L8.72,7.509L8.679,7.529L8.638,7.55L8.597,7.571L8.556,7.592L8.516,7.614L8.475,7.636L8.435,7.659L8.395,7.682L8.376,7.694L8.356,7.706L8.336,7.717L8.316,7.729L8.297,7.741L8.277,7.754L8.258,7.766L8.238,7.778L8.219,7.791L8.2,7.803L8.18,7.816L8.161,7.829L8.142,7.841L8.123,7.854L8.104,7.867L8.085,7.881L8.066,7.894L8.047,7.907L8.028,7.921L8.009,7.934L7.991,7.948L7.972,7.961L7.954,7.975L7.935,7.989L7.917,8.003L7.898,8.017L7.88,8.031L7.862,8.046L7.844,8.06L7.825,8.075L7.807,8.089L7.789,8.104L7.772,8.119L7.754,8.134L7.736,8.149L7.718,8.164L7.701,8.179L7.683,8.194L7.665,8.209L7.648,8.225L7.631,8.24L7.613,8.256L7.596,8.272L7.579,8.288L7.562,8.304L7.545,8.32L7.528,8.336L7.511,8.352L7.494,8.368L7.477,8.385L7.461,8.401L7.444,8.418L7.428,8.435L7.411,8.452L7.395,8.468L7.379,8.485L7.362,8.503L7.346,8.52L7.33,8.537L7.314,8.554L7.298,8.572L7.283,8.589L7.267,8.607L7.251,8.625L7.236,8.643L7.22,8.661L7.205,8.679L7.189,8.697L7.174,8.715L7.159,8.734L7.144,8.752L7.129,8.771L7.114,8.789L7.099,8.808L7.084,8.827L7.069,8.846L7.055,8.865L7.04,8.884L7.026,8.903L7.012,8.922L6.997,8.942L6.983,8.961L6.969,8.981L6.955,9.001L6.941,9.02L6.927,9.04L6.914,9.06L6.9,9.08L6.886,9.101L6.873,9.121L6.859,9.141L6.846,9.162L6.833,9.182L6.82,9.203L6.807,9.224L6.794,9.244L6.781,9.265L6.768,9.286L6.756,9.308L6.743,9.329L6.731,9.35L6.718,9.372L6.706,9.393L6.694,9.415L6.682,9.436L6.67,9.458L6.658,9.48L6.646,9.502L6.634,9.524L6.623,9.546L6.611,9.569L6.6,9.591L6.589,9.613L6.577,9.636L6.566,9.659L6.555,9.681L6.544,9.704L6.534,9.727L6.523,9.75L6.512,9.773L6.502,9.797L6.491,9.82L6.481,9.843L6.471,9.867L6.461,9.89L6.451,9.914L6.441,9.938L6.431,9.962L6.421,9.986L6.412,10.01L6.402,10.034L6.393,10.058L6.384,10.083L6.375,10.107L6.366,10.132L6.357,10.156L6.348,10.181L6.339,10.206L6.331,10.231L6.322,10.256L6.314,10.281L6.305,10.306L6.297,10.331L6.289,10.357L6.281,10.382L6.273,10.408L6.266,10.434L6.258,10.459L6.251,10.485L6.243,10.511L6.236,10.537L6.229,10.563L6.222,10.59L6.215,10.616L6.208,10.642L6.201,10.669L6.195,10.696L6.188,10.722L6.182,10.749L6.176,10.776L6.17,10.803L6.164,10.83L6.158,10.857L6.152,10.885L6.147,10.912L6.141,10.939L6.136,10.967L6.131,10.995L6.125,11.022L6.12,11.05L6.114,11.083L6.109,11.115L6.103,11.147L6.098,11.18L6.092,11.212L6.087,11.244L6.082,11.276L6.077,11.308L6.073,11.34L6.068,11.371L6.064,11.403L6.059,11.434L6.055,11.466L6.051,11.497L6.048,11.528L6.044,11.56L6.04,11.591L6.037,11.622L6.034,11.652L6.031,11.683L6.028,11.714L6.025,11.745L6.023,11.775L6.02,11.806L6.018,11.836L6.016,11.866L6.014,11.897L6.012,11.927L6.01,11.957L6.008,11.987L6.007,12.017L6.006,12.046L6.004,12.076L6.003,12.106L6.002,12.135L6.002,12.165L6.001,12.194L6.001,12.224L6,12.253L6,12.282L6,12.311L6,12.34L6,12.369L6.001,12.398L6.001,12.427L6.002,12.456L6.003,12.485L6.003,12.513L6.004,12.542L6.006,12.57L6.007,12.599L6.008,12.627L6.01,12.655L6.012,12.683L6.013,12.711L6.015,12.739L6.018,12.767L6.02,12.795L6.022,12.823L6.025,12.851L6.027,12.879L6.03,12.906L6.033,12.934L6.036,12.961L6.039,12.989L6.042,13.016L6.046,13.044L6.049,13.071L6.053,13.098L6.057,13.125L6.061,13.152L6.065,13.179L6.069,13.206L6.073,13.233L6.077,13.26L6.082,13.287L6.087,13.314L6.091,13.341L6.096,13.367L6.101,13.394L6.107,13.42L6.112,13.447L6.117,13.473L6.123,13.499L6.128,13.526L6.134,13.552L6.14,13.578L6.146,13.604L6.152,13.631L6.158,13.657L6.165,13.683L6.171,13.709L6.178,13.734L6.184,13.76L6.191,13.786L6.198,13.812L6.205,13.838L6.212,13.863L6.22,13.889L6.227,13.914L6.235,13.94L6.242,13.965L6.25,13.991L6.258,14.016L6.266,14.042L6.274,14.067L6.282,14.092L6.29,14.117L6.299,14.143L6.307,14.168L6.316,14.193L6.325,14.218L6.333,14.243L6.342,14.268L6.351,14.293L6.361,14.318L6.37,14.343L6.379,14.368L6.389,14.392L6.398,14.417L6.408,14.442L6.418,14.467L6.438,14.516L6.458,14.565L6.479,14.614L6.5,14.663L6.522,14.712L6.544,14.761L6.566,14.809L6.589,14.858L6.612,14.906L6.636,14.955L6.66,15.003L6.684,15.051L6.709,15.099L6.734,15.147L6.759,15.195L6.785,15.242L6.812,15.29L6.838,15.338L6.865,15.385L6.892,15.433L6.92,15.48L6.948,15.528L6.977,15.575L7.005,15.623L7.034,15.67L7.064,15.717L7.094,15.764L7.124,15.812L7.154,15.859L7.185,15.906L7.216,15.953L7.247,16L7.279,16.048L7.311,16.095L7.343,16.142L7.376,16.189L7.409,16.236L7.442,16.284L7.476,16.331L7.509,16.378L7.544,16.425L7.578,16.473L7.613,16.52L7.648,16.567L7.683,16.615L7.718,16.662L7.754,16.71L7.79,16.757L7.827,16.805L7.863,16.853L7.9,16.901L7.937,16.948L7.975,16.996L8.012,17.044L8.05,17.093L8.088,17.141L8.127,17.189L8.165,17.237L8.204,17.286L8.282,17.383L8.361,17.481L8.442,17.579L8.522,17.678L8.633,17.813L8.744,17.949L8.855,18.084L8.967,18.219L9.079,18.353L9.191,18.488L9.304,18.622L9.416,18.756L9.529,18.89L9.643,19.024L9.756,19.158L9.87,19.291L9.984,19.425L10.099,19.558L10.213,19.691L10.328,19.824L10.443,19.956L10.558,20.089L10.674,20.221L10.79,20.354L10.906,20.486L11.022,20.618L11.138,20.75L11.254,20.881L11.371,21.013L11.488,21.145L11.605,21.276L11.722,21.407L11.839,21.539L11.957,21.67L12.074,21.801L12.192,21.932L12.31,22.062L12.428,22.193L12.546,22.324L12.664,22.454L12.783,22.585L12.901,22.715L13.02,22.845L13.138,22.975L13.376,23.236L13.614,23.496L13.851,23.755L14.09,24.015L14.328,24.274L14.566,24.533L15.043,25.051L15.52,25.568L15.758,25.827L15.995,26.085L16.233,25.827L16.471,25.568L16.709,25.31L16.948,25.052L17.425,24.535L17.663,24.276L17.902,24.018L18.14,23.759L18.378,23.5L18.616,23.241L18.854,22.981L18.972,22.851L19.091,22.722L19.21,22.592L19.328,22.461L19.447,22.331L19.565,22.201L19.683,22.07L19.801,21.94L19.919,21.809L20.037,21.679L20.155,21.548L20.273,21.417L20.39,21.286L20.508,21.154L20.625,21.023L20.742,20.891L20.859,20.76L20.975,20.628L21.092,20.496L21.208,20.363L21.325,20.231L21.441,20.099L21.556,19.966L21.672,19.833L21.788,19.7L21.903,19.567L22.018,19.433L22.133,19.299L22.247,19.166L22.361,19.031L22.475,18.897L22.589,18.763L22.703,18.628L22.816,18.493L22.929,18.358L23.042,18.222L23.155,18.087L23.267,17.951L23.379,17.814L23.491,17.678L23.572,17.579L23.652,17.481L23.731,17.383L23.809,17.286L23.848,17.237L23.887,17.189L23.925,17.141L23.963,17.093L24.001,17.044L24.038,16.996L24.076,16.948L24.113,16.901L24.15,16.853L24.186,16.805L24.223,16.757L24.259,16.71L24.295,16.662L24.33,16.615L24.365,16.567L24.4,16.52L24.435,16.473L24.469,16.425L24.503,16.378L24.537,16.331L24.571,16.284L24.604,16.236L24.637,16.189L24.669,16.142L24.702,16.095L24.734,16.048L24.765,16L24.797,15.953L24.828,15.906L24.858,15.859L24.889,15.812L24.919,15.764L24.949,15.717L24.978,15.67L25.007,15.623L25.036,15.575L25.064,15.528L25.092,15.48L25.119,15.433L25.147,15.385L25.174,15.338L25.2,15.29L25.226,15.242L25.252,15.195L25.278,15.147L25.303,15.099L25.327,15.051L25.351,15.003L25.375,14.955L25.399,14.906L25.422,14.858L25.445,14.809L25.467,14.761L25.489,14.712L25.51,14.663L25.531,14.614L25.552,14.565L25.572,14.516L25.582,14.491L25.592,14.467L25.602,14.442L25.611,14.417L25.621,14.392L25.63,14.368L25.64,14.343L25.649,14.318L25.658,14.293L25.667,14.268L25.676,14.243L25.685,14.218L25.693,14.193L25.702,14.168L25.71,14.143L25.718,14.117L25.727,14.092L25.735,14.067L25.743,14.042L25.751,14.016L25.758,13.991L25.766,13.965L25.774,13.94L25.781,13.914L25.788,13.889L25.795,13.863L25.803,13.838L25.809,13.812L25.816,13.786L25.823,13.76L25.83,13.734L25.836,13.709L25.842,13.683L25.849,13.657L25.855,13.631L25.861,13.604L25.867,13.578L25.872,13.552L25.878,13.526L25.884,13.499L25.889,13.473L25.894,13.447L25.899,13.42L25.904,13.394L25.909,13.367L25.914,13.341L25.919,13.314L25.923,13.287L25.928,13.26L25.932,13.233L25.936,13.206L25.94,13.179L25.944,13.152L25.948,13.125L25.951,13.098L25.955,13.071L25.958,13.044L25.962,13.016L25.965,12.989L25.968,12.961L25.971,12.934L25.973,12.906L25.976,12.879L25.978,12.851L25.981,12.823L25.983,12.795L25.985,12.767L25.987,12.739L25.989,12.711L25.99,12.683L25.992,12.655L25.993,12.627L25.995,12.599L25.996,12.57L25.997,12.542L25.998,12.513L25.998,12.485L25.999,12.456L25.999,12.427L26,12.398L26,12.369L26,12.34L26,12.311L26,12.282L25.999,12.253L25.999,12.224L25.998,12.194L25.997,12.165L25.996,12.135L25.995,12.106L25.994,12.076L25.993,12.046L25.991,12.017L25.989,11.987L25.988,11.957L25.986,11.927L25.984,11.897L25.981,11.866L25.979,11.836L25.976,11.806L25.974,11.775L25.971,11.745L25.968,11.714L25.965,11.683L25.961,11.652L25.958,11.622L25.954,11.591L25.951,11.56L25.947,11.528L25.943,11.497L25.939,11.466L25.934,11.434L25.93,11.403L25.925,11.371L25.92,11.34L25.916,11.308L25.91,11.276L25.905,11.244L25.9,11.212L25.894,11.18L25.889,11.147L25.883,11.115L25.877,11.083L25.87,11.05L25.865,11.022L25.86,10.995L25.854,10.967L25.849,10.939L25.843,10.912L25.837,10.885L25.831,10.857L25.825,10.83L25.819,10.803L25.812,10.776L25.806,10.749L25.8,10.722L25.793,10.696L25.786,10.669L25.779,10.642L25.772,10.616L25.765,10.59L25.758,10.563L25.751,10.537L25.743,10.511L25.736,10.485L25.728,10.459L25.72,10.434L25.712,10.408L25.704,10.382L25.696,10.357L25.688,10.331L25.68,10.306L25.671,10.281L25.663,10.256L25.654,10.231L25.645,10.206L25.636,10.181L25.627,10.156L25.618,10.132L25.609,10.107L25.6,10.083L25.591,10.058L25.581,10.034L25.572,10.01L25.562,9.986L25.552,9.962L25.542,9.938L25.532,9.914L25.522,9.89L25.512,9.867L25.502,9.843L25.491,9.82L25.481,9.797L25.47,9.773L25.459,9.75L25.449,9.727L25.438,9.704L25.427,9.681L25.416,9.659L25.405,9.636L25.393,9.613L25.382,9.591L25.37,9.569L25.359,9.546L25.347,9.524L25.335,9.502L25.324,9.48L25.312,9.458L25.3,9.436L25.287,9.415L25.275,9.393L25.263,9.372L25.251,9.35L25.238,9.329L25.225,9.308L25.213,9.286L25.2,9.265L25.187,9.244L25.174,9.224L25.161,9.203L25.148,9.182L25.135,9.162L25.121,9.141L25.108,9.121L25.095,9.101L25.081,9.08L25.067,9.06L25.054,9.04L25.04,9.02L25.026,9.001L25.012,8.981L24.998,8.961L24.984,8.942L24.969,8.922L24.955,8.903L24.941,8.884L24.926,8.865L24.912,8.846L24.897,8.827L24.882,8.808L24.867,8.789L24.852,8.771L24.837,8.752L24.822,8.734L24.807,8.715L24.792,8.697L24.777,8.679L24.761,8.661L24.746,8.643L24.73,8.625L24.715,8.607L24.699,8.589L24.683,8.572L24.667,8.554L24.651,8.537L24.635,8.52L24.619,8.503L24.603,8.485L24.587,8.468L24.571,8.452L24.554,8.435L24.538,8.418L24.521,8.401L24.505,8.385L24.488,8.368L24.471,8.352L24.454,8.336L24.437,8.32L24.42,8.304L24.403,8.288L24.386,8.272L24.369,8.256L24.352,8.24L24.335,8.225L24.317,8.209L24.3,8.194L24.282,8.179L24.265,8.164L24.247,8.149L24.229,8.134L24.212,8.119L24.194,8.104L24.176,8.089L24.158,8.075L24.14,8.06L24.122,8.046L24.104,8.031L24.085,8.017L24.067,8.003L24.049,7.989L24.03,7.975L24.012,7.961L23.993,7.948L23.975,7.934L23.956,7.921L23.937,7.907L23.918,7.894L23.9,7.881L23.881,7.867L23.862,7.854L23.843,7.841L23.824,7.829L23.805,7.816L23.785,7.803L23.766,7.791L23.747,7.778L23.727,7.766L23.708,7.754L23.689,7.741L23.669,7.729L23.649,7.717L23.63,7.706L23.59,7.682L23.551,7.659L23.511,7.636L23.471,7.614L23.43,7.592L23.39,7.571L23.349,7.55L23.308,7.529L23.267,7.509L23.226,7.489L23.185,7.469L23.143,7.45L23.101,7.431L23.059,7.413L23.017,7.395L22.975,7.378L22.932,7.36L22.89,7.344L22.847,7.327L22.804,7.311L22.761,7.296L22.718,7.281L22.674,7.266L22.631,7.251L22.587,7.237L22.543,7.224L22.499,7.211L22.455,7.198L22.411,7.185L22.366,7.173L22.322,7.162L22.277,7.15L22.233,7.14L22.188,7.129L22.143,7.119L22.098,7.11L22.053,7.1L22.007,7.091L21.962,7.083L21.916,7.075L21.871,7.067L21.825,7.06L21.779,7.053L21.734,7.047L21.69,7.041L21.647,7.036L21.603,7.031L21.56,7.027L21.516,7.022L21.473,7.019L21.429,7.015L21.385,7.012L21.342,7.009L21.298,7.007L21.254,7.005L21.21,7.003L21.166,7.002L21.122,7.001L21.078,7L21.034,7L20.99,7L20.945,7.001L20.901,7.001L20.857,7.002L20.813,7.004L20.769,7.006L20.724,7.008L20.68,7.011L20.636,7.014L20.592,7.017L20.547,7.02L20.503,7.024L20.459,7.029L20.414,7.033L20.37,7.039L20.326,7.044L20.282,7.05L20.237,7.056L20.193,7.062L20.149,7.069L20.105,7.076L20.06,7.084L20.016,7.092L19.972,7.1L19.928,7.109L19.884,7.118L19.84,7.127L19.796,7.137L19.752,7.147L19.708,7.158L19.664,7.168L19.62,7.18L19.577,7.191L19.533,7.203L19.489,7.215L19.446,7.228L19.402,7.241L19.359,7.254L19.315,7.268L19.272,7.282L19.229,7.297L19.186,7.312L19.143,7.327L19.1,7.342L19.057,7.358L19.014,7.375L18.971,7.391L18.928,7.408L18.886,7.426L18.843,7.443L18.801,7.461L18.759,7.48L18.717,7.499L18.675,7.518L18.633,7.538L18.591,7.558L18.549,7.578L18.507,7.599L18.466,7.62L18.425,7.641L18.383,7.663L18.342,7.685L18.301,7.708L18.26,7.73L18.22,7.754L18.179,7.777L18.139,7.801L18.098,7.826L18.058,7.851L18.018,7.876L17.978,7.901L17.939,7.927L17.899,7.953L17.86,7.98L17.821,8.007L17.782,8.034L17.743,8.062L17.704,8.09L17.665,8.119L17.627,8.148L17.589,8.177L17.551,8.207L17.513,8.237L17.475,8.267L17.438,8.298L17.401,8.329L17.364,8.36L17.327,8.392L17.29,8.424L17.253,8.457L17.217,8.49L17.181,8.523L17.145,8.557L17.11,8.591L17.074,8.626L17.039,8.661L17.004,8.696L16.969,8.732L16.935,8.768L16.9,8.804L16.866,8.841L16.832,8.878L16.799,8.916L16.765,8.954L16.732,8.992L16.699,9.031L16.667,9.07L16.634,9.109L16.602,9.149L16.57,9.189L16.538,9.23L16.507,9.271L16.484,9.302L16.462,9.333L16.44,9.364L16.419,9.395L16.399,9.426L16.378,9.457L16.359,9.488L16.339,9.519L16.321,9.55L16.302,9.581L16.284,9.612L16.267,9.643L16.25,9.674L16.233,9.705L16.217,9.737L16.201,9.769L16.186,9.8L16.171,9.833L16.156,9.865L16.142,9.897L16.128,9.93L16.114,9.964L16.101,9.997L16.088,10.031L16.075,10.065L16.063,10.1L16.051,10.135L16.039,10.17L16.028,10.206L16.017,10.242L16.006,10.279L15.995,10.316L15.985,10.279L15.974,10.242L15.963,10.206L15.952,10.17L15.94,10.135L15.928,10.1L15.916,10.065L15.903,10.031L15.89,9.997L15.877,9.964L15.863,9.93L15.849,9.897L15.835,9.865L15.82,9.833L15.805,9.8L15.79,9.769L15.774,9.737L15.758,9.705L15.741,9.674L15.724,9.643L15.706,9.612L15.689,9.581L15.67,9.55L15.651,9.519L15.632,9.488L15.612,9.457L15.592,9.426L15.572,9.395L15.55,9.364L15.529,9.333L15.507,9.302L15.484,9.271L15.452,9.23L15.421,9.189L15.389,9.149L15.357,9.109L15.324,9.07L15.292,9.031L15.259,8.992L15.226,8.954L15.192,8.916L15.159,8.878L15.125,8.841L15.091,8.804L15.057,8.768L15.022,8.732L14.988,8.696L14.953,8.661L14.918,8.626L14.882,8.591L14.847,8.557L14.811,8.523L14.775,8.49L14.739,8.457L14.703,8.424L14.666,8.392L14.629,8.36L14.592,8.329L14.555,8.298L14.518,8.267L14.481,8.237L14.443,8.207L14.405,8.177L14.367,8.148L14.329,8.119L14.29,8.09L14.252,8.062L14.213,8.034L14.174,8.007L14.135,7.98L14.096,7.953L14.057,7.927L14.017,7.901L13.977,7.876L13.938,7.851L13.898,7.826L13.857,7.801L13.817,7.777L13.777,7.754L13.736,7.73L13.696,7.708L13.655,7.685L13.614,7.663L13.573,7.641L13.532,7.62L13.49,7.599L13.449,7.578L13.407,7.558L13.366,7.538L13.324,7.518L13.282,7.499L13.24,7.48L13.198,7.461L13.155,7.443L13.113,7.426L13.071,7.408L13.028,7.391L12.986,7.375L12.943,7.358L12.9,7.342L12.857,7.327L12.814,7.312L12.771,7.297L12.728,7.282L12.685,7.268L12.641,7.254L12.598,7.241L12.555,7.228L12.511,7.215L12.467,7.203L12.424,7.191L12.38,7.18L12.336,7.168L12.293,7.158L12.249,7.147L12.205,7.137L12.161,7.127L12.117,7.118L12.073,7.109L12.029,7.1L11.984,7.092L11.94,7.084L11.896,7.076L11.852,7.069L11.807,7.062L11.763,7.056L11.719,7.05L11.674,7.044L11.63,7.039L11.586,7.033L11.541,7.029L11.497,7.024L11.452,7.02L11.408,7.017L11.363,7.014L11.319,7.011L11.274,7.008L11.23,7.006L11.186,7.004L11.141,7.002L11.097,7.001L11.052,7.001L11.008,7L10.963,7L10.919,7Z" style="fill:white;"/>
                </g>
                <g id="Shape1" serif:id="Shape" transform="matrix(0.951049,0,0,0.926964,4.20979,-4.3262)">
                    <path d="M25.87,11.05C25.426,8.67 23.691,7.314 21.734,7.047C19.888,6.802 17.841,7.514 16.507,9.271C16.262,9.604 16.107,9.916 15.995,10.316C15.884,9.916 15.729,9.604 15.484,9.271C14.149,7.514 12.125,6.802 10.257,7.047C8.3,7.314 6.543,8.67 6.12,11.05C5.609,13.83 6.788,15.565 8.522,17.678C10.88,20.569 13.46,23.327 15.995,26.085C18.531,23.327 21.111,20.592 23.491,17.678C25.225,15.565 26.404,13.83 25.87,11.05Z" style="fill:rgb(133,197,204);"/>
                    <path d="M11.008,7L11.052,7.001L11.097,7.001L11.141,7.002L11.186,7.004L11.23,7.006L11.274,7.008L11.319,7.011L11.363,7.014L11.408,7.017L11.452,7.02L11.497,7.024L11.541,7.029L11.586,7.033L11.63,7.039L11.674,7.044L11.719,7.05L11.763,7.056L11.807,7.062L11.852,7.069L11.896,7.076L11.94,7.084L11.984,7.092L12.029,7.1L12.073,7.109L12.117,7.118L12.161,7.127L12.205,7.137L12.249,7.147L12.293,7.158L12.336,7.168L12.38,7.18L12.424,7.191L12.467,7.203L12.511,7.215L12.555,7.228L12.598,7.241L12.641,7.254L12.685,7.268L12.728,7.282L12.771,7.297L12.814,7.312L12.857,7.327L12.9,7.342L12.943,7.358L12.986,7.375L13.028,7.391L13.071,7.408L13.113,7.426L13.155,7.443L13.198,7.461L13.24,7.48L13.282,7.499L13.324,7.518L13.366,7.538L13.407,7.558L13.449,7.578L13.49,7.599L13.532,7.62L13.573,7.641L13.614,7.663L13.655,7.685L13.696,7.708L13.736,7.73L13.777,7.754L13.817,7.777L13.857,7.801L13.898,7.826L13.938,7.851L13.977,7.876L14.017,7.901L14.057,7.927L14.096,7.953L14.135,7.98L14.174,8.007L14.213,8.034L14.252,8.062L14.29,8.09L14.329,8.119L14.367,8.148L14.405,8.177L14.443,8.207L14.481,8.237L14.518,8.267L14.555,8.298L14.592,8.329L14.629,8.36L14.666,8.392L14.703,8.424L14.739,8.457L14.775,8.49L14.811,8.523L14.847,8.557L14.882,8.591L14.918,8.626L14.953,8.661L14.988,8.696L15.022,8.732L15.057,8.768L15.091,8.804L15.125,8.841L15.159,8.878L15.192,8.916L15.226,8.954L15.259,8.992L15.292,9.031L15.324,9.07L15.357,9.109L15.389,9.149L15.421,9.189L15.452,9.23L15.484,9.271L15.507,9.302L15.529,9.333L15.55,9.364L15.572,9.395L15.592,9.426L15.612,9.457L15.632,9.488L15.651,9.519L15.67,9.55L15.689,9.581L15.706,9.612L15.724,9.643L15.741,9.674L15.758,9.705L15.774,9.737L15.79,9.769L15.805,9.8L15.82,9.833L15.835,9.865L15.849,9.897L15.863,9.93L15.877,9.964L15.89,9.997L15.903,10.031L15.916,10.065L15.928,10.1L15.94,10.135L15.952,10.17L15.963,10.206L15.974,10.242L15.985,10.279L15.995,10.316L16.006,10.279L16.017,10.242L16.028,10.206L16.039,10.17L16.051,10.135L16.063,10.1L16.075,10.065L16.088,10.031L16.101,9.997L16.114,9.964L16.128,9.93L16.142,9.897L16.156,9.865L16.171,9.833L16.186,9.8L16.201,9.769L16.217,9.737L16.233,9.705L16.25,9.674L16.267,9.643L16.284,9.612L16.302,9.581L16.321,9.55L16.339,9.519L16.359,9.488L16.378,9.457L16.399,9.426L16.419,9.395L16.44,9.364L16.462,9.333L16.484,9.302L16.507,9.271L16.538,9.23L16.57,9.189L16.602,9.149L16.634,9.109L16.667,9.07L16.699,9.031L16.732,8.992L16.765,8.954L16.799,8.916L16.832,8.878L16.866,8.841L16.9,8.804L16.935,8.768L16.969,8.732L17.004,8.696L17.039,8.661L17.074,8.626L17.11,8.591L17.145,8.557L17.181,8.523L17.217,8.49L17.253,8.457L17.29,8.424L17.327,8.392L17.364,8.36L17.401,8.329L17.438,8.298L17.475,8.267L17.513,8.237L17.551,8.207L17.589,8.177L17.627,8.148L17.665,8.119L17.704,8.09L17.743,8.062L17.782,8.034L17.821,8.007L17.86,7.98L17.899,7.953L17.939,7.927L17.978,7.901L18.018,7.876L18.058,7.851L18.098,7.826L18.139,7.801L18.179,7.777L18.22,7.754L18.26,7.73L18.301,7.708L18.342,7.685L18.383,7.663L18.425,7.641L18.466,7.62L18.507,7.599L18.549,7.578L18.591,7.558L18.633,7.538L18.675,7.518L18.717,7.499L18.759,7.48L18.801,7.461L18.843,7.443L18.886,7.426L18.928,7.408L18.971,7.391L19.014,7.375L19.057,7.358L19.1,7.342L19.143,7.327L19.186,7.312L19.229,7.297L19.272,7.282L19.315,7.268L19.359,7.254L19.402,7.241L19.446,7.228L19.489,7.215L19.533,7.203L19.577,7.191L19.62,7.18L19.664,7.168L19.708,7.158L19.752,7.147L19.796,7.137L19.84,7.127L19.884,7.118L19.928,7.109L19.972,7.1L20.016,7.092L20.06,7.084L20.105,7.076L20.149,7.069L20.193,7.062L20.237,7.056L20.282,7.05L20.326,7.044L20.37,7.039L20.414,7.033L20.459,7.029L20.503,7.024L20.547,7.02L20.592,7.017L20.636,7.014L20.68,7.011L20.724,7.008L20.769,7.006L20.813,7.004L20.857,7.002L20.901,7.001L20.945,7.001L20.99,7L21.034,7L21.078,7L21.122,7.001L21.166,7.002L21.21,7.003L21.254,7.005L21.298,7.007L21.342,7.009L21.385,7.012L21.429,7.015L21.473,7.019L21.516,7.022L21.56,7.027L21.603,7.031L21.647,7.036L21.69,7.041L21.734,7.047L21.779,7.053L21.825,7.06L21.871,7.067L21.916,7.075L21.962,7.083L22.007,7.091L22.053,7.1L22.098,7.11L22.143,7.119L22.188,7.129L22.233,7.14L22.277,7.15L22.322,7.162L22.366,7.173L22.411,7.185L22.455,7.198L22.499,7.211L22.543,7.224L22.587,7.237L22.631,7.251L22.674,7.266L22.718,7.281L22.761,7.296L22.804,7.311L22.847,7.327L22.89,7.344L22.932,7.36L22.975,7.378L23.017,7.395L23.059,7.413L23.101,7.431L23.143,7.45L23.185,7.469L23.226,7.489L23.267,7.509L23.308,7.529L23.349,7.55L23.39,7.571L23.43,7.592L23.471,7.614L23.511,7.636L23.551,7.659L23.59,7.682L23.63,7.706L23.649,7.717L23.669,7.729L23.689,7.741L23.708,7.754L23.727,7.766L23.747,7.778L23.766,7.791L23.785,7.803L23.805,7.816L23.824,7.829L23.843,7.841L23.862,7.854L23.881,7.867L23.9,7.881L23.918,7.894L23.937,7.907L23.956,7.921L23.975,7.934L23.993,7.948L24.012,7.961L24.03,7.975L24.049,7.989L24.067,8.003L24.085,8.017L24.104,8.031L24.122,8.046L24.14,8.06L24.158,8.075L24.176,8.089L24.194,8.104L24.212,8.119L24.229,8.134L24.247,8.149L24.265,8.164L24.282,8.179L24.3,8.194L24.317,8.209L24.335,8.225L24.352,8.24L24.369,8.256L24.386,8.272L24.403,8.288L24.42,8.304L24.437,8.32L24.454,8.336L24.471,8.352L24.488,8.368L24.505,8.385L24.521,8.401L24.538,8.418L24.554,8.435L24.571,8.452L24.587,8.468L24.603,8.485L24.619,8.503L24.635,8.52L24.651,8.537L24.667,8.554L24.683,8.572L24.699,8.589L24.715,8.607L24.73,8.625L24.746,8.643L24.761,8.661L24.777,8.679L24.792,8.697L24.807,8.715L24.822,8.734L24.837,8.752L24.852,8.771L24.867,8.789L24.882,8.808L24.897,8.827L24.912,8.846L24.926,8.865L24.941,8.884L24.955,8.903L24.969,8.922L24.984,8.942L24.998,8.961L25.012,8.981L25.026,9.001L25.04,9.02L25.054,9.04L25.067,9.06L25.081,9.08L25.095,9.101L25.108,9.121L25.121,9.141L25.135,9.162L25.148,9.182L25.161,9.203L25.174,9.224L25.187,9.244L25.2,9.265L25.213,9.286L25.225,9.308L25.238,9.329L25.251,9.35L25.263,9.372L25.275,9.393L25.287,9.415L25.3,9.436L25.312,9.458L25.324,9.48L25.335,9.502L25.347,9.524L25.359,9.546L25.37,9.569L25.382,9.591L25.393,9.613L25.405,9.636L25.416,9.659L25.427,9.681L25.438,9.704L25.449,9.727L25.459,9.75L25.47,9.773L25.481,9.797L25.491,9.82L25.502,9.843L25.512,9.867L25.522,9.89L25.532,9.914L25.542,9.938L25.552,9.962L25.562,9.986L25.572,10.01L25.581,10.034L25.591,10.058L25.6,10.083L25.609,10.107L25.618,10.132L25.627,10.156L25.636,10.181L25.645,10.206L25.654,10.231L25.663,10.256L25.671,10.281L25.68,10.306L25.688,10.331L25.696,10.357L25.704,10.382L25.712,10.408L25.72,10.434L25.728,10.459L25.736,10.485L25.743,10.511L25.751,10.537L25.758,10.563L25.765,10.59L25.772,10.616L25.779,10.642L25.786,10.669L25.793,10.696L25.8,10.722L25.806,10.749L25.812,10.776L25.819,10.803L25.825,10.83L25.831,10.857L25.837,10.885L25.843,10.912L25.849,10.939L25.854,10.967L25.86,10.995L25.865,11.022L25.877,11.083L25.883,11.115L25.889,11.147L25.894,11.18L25.9,11.212L25.905,11.244L25.91,11.276L25.916,11.308L25.92,11.34L25.925,11.371L25.93,11.403L25.934,11.434L25.939,11.466L25.943,11.497L25.947,11.528L25.951,11.56L25.954,11.591L25.958,11.622L25.961,11.652L25.965,11.683L25.968,11.714L25.971,11.745L25.974,11.775L25.976,11.806L25.979,11.836L25.981,11.866L25.984,11.897L25.986,11.927L25.988,11.957L25.989,11.987L25.991,12.017L25.993,12.046L25.994,12.076L25.995,12.106L25.996,12.135L25.997,12.165L25.998,12.194L25.999,12.224L25.999,12.253L26,12.282L26,12.311L26,12.34L26,12.369L26,12.398L25.999,12.427L25.999,12.456L25.998,12.485L25.998,12.513L25.997,12.542L25.996,12.57L25.995,12.599L25.993,12.627L25.992,12.655L25.99,12.683L25.989,12.711L25.987,12.739L25.985,12.767L25.983,12.795L25.981,12.823L25.978,12.851L25.976,12.879L25.973,12.906L25.971,12.934L25.968,12.961L25.965,12.989L25.962,13.016L25.958,13.044L25.955,13.071L25.951,13.098L25.948,13.125L25.944,13.152L25.94,13.179L25.936,13.206L25.932,13.233L25.928,13.26L25.923,13.287L25.919,13.314L25.914,13.341L25.909,13.367L25.904,13.394L25.899,13.42L25.894,13.447L25.889,13.473L25.884,13.499L25.878,13.526L25.872,13.552L25.867,13.578L25.861,13.604L25.855,13.631L25.849,13.657L25.842,13.683L25.836,13.709L25.83,13.734L25.823,13.76L25.816,13.786L25.809,13.812L25.803,13.838L25.795,13.863L25.788,13.889L25.781,13.914L25.774,13.94L25.766,13.965L25.758,13.991L25.751,14.016L25.743,14.042L25.735,14.067L25.727,14.092L25.718,14.117L25.71,14.143L25.702,14.168L25.693,14.193L25.685,14.218L25.676,14.243L25.667,14.268L25.658,14.293L25.649,14.318L25.64,14.343L25.63,14.368L25.621,14.392L25.611,14.417L25.602,14.442L25.592,14.467L25.582,14.491L25.572,14.516L25.552,14.565L25.531,14.614L25.51,14.663L25.489,14.712L25.467,14.761L25.445,14.809L25.422,14.858L25.399,14.906L25.375,14.955L25.351,15.003L25.327,15.051L25.303,15.099L25.278,15.147L25.252,15.195L25.226,15.242L25.2,15.29L25.174,15.338L25.147,15.385L25.119,15.433L25.092,15.48L25.064,15.528L25.036,15.575L25.007,15.623L24.978,15.67L24.949,15.717L24.919,15.764L24.889,15.812L24.858,15.859L24.828,15.906L24.797,15.953L24.765,16L24.734,16.048L24.702,16.095L24.669,16.142L24.637,16.189L24.604,16.236L24.571,16.284L24.537,16.331L24.503,16.378L24.469,16.425L24.435,16.473L24.4,16.52L24.365,16.567L24.33,16.615L24.295,16.662L24.259,16.71L24.223,16.757L24.186,16.805L24.15,16.853L24.113,16.901L24.076,16.948L24.038,16.996L24.001,17.044L23.963,17.093L23.925,17.141L23.887,17.189L23.848,17.237L23.809,17.286L23.731,17.383L23.652,17.481L23.572,17.579L23.491,17.678L23.379,17.814L23.267,17.951L23.155,18.087L23.042,18.222L22.929,18.358L22.816,18.493L22.703,18.628L22.589,18.763L22.475,18.897L22.361,19.031L22.247,19.166L22.133,19.299L22.018,19.433L21.903,19.567L21.788,19.7L21.672,19.833L21.556,19.966L21.441,20.099L21.325,20.231L21.208,20.363L21.092,20.496L20.975,20.628L20.859,20.76L20.742,20.891L20.625,21.023L20.508,21.154L20.39,21.286L20.273,21.417L20.155,21.548L20.037,21.679L19.919,21.809L19.801,21.94L19.683,22.07L19.565,22.201L19.447,22.331L19.328,22.461L19.21,22.592L19.091,22.722L18.972,22.851L18.854,22.981L18.616,23.241L18.378,23.5L18.14,23.759L17.902,24.018L17.663,24.276L17.425,24.535L16.948,25.052L16.709,25.31L16.471,25.568L16.233,25.827L15.995,26.085L15.758,25.827L15.52,25.568L15.043,25.051L14.566,24.533L14.328,24.274L14.09,24.015L13.851,23.755L13.614,23.496L13.376,23.236L13.138,22.975L13.02,22.845L12.901,22.715L12.783,22.585L12.664,22.454L12.546,22.324L12.428,22.193L12.31,22.062L12.192,21.932L12.074,21.801L11.957,21.67L11.839,21.539L11.722,21.407L11.605,21.276L11.488,21.145L11.371,21.013L11.254,20.881L11.138,20.75L11.022,20.618L10.906,20.486L10.79,20.354L10.674,20.221L10.558,20.089L10.443,19.956L10.328,19.824L10.213,19.691L10.099,19.558L9.984,19.425L9.87,19.291L9.756,19.158L9.643,19.024L9.529,18.89L9.416,18.756L9.304,18.622L9.191,18.488L9.079,18.353L8.967,18.219L8.855,18.084L8.744,17.949L8.633,17.813L8.522,17.678L8.442,17.579L8.361,17.481L8.282,17.383L8.204,17.286L8.165,17.237L8.127,17.189L8.088,17.141L8.05,17.093L8.012,17.044L7.975,16.996L7.937,16.948L7.9,16.901L7.863,16.853L7.827,16.805L7.79,16.757L7.754,16.71L7.718,16.662L7.683,16.615L7.648,16.567L7.613,16.52L7.578,16.473L7.544,16.425L7.509,16.378L7.476,16.331L7.442,16.284L7.409,16.236L7.376,16.189L7.343,16.142L7.311,16.095L7.279,16.048L7.247,16L7.216,15.953L7.185,15.906L7.154,15.859L7.124,15.812L7.094,15.764L7.064,15.717L7.034,15.67L7.005,15.623L6.977,15.575L6.948,15.528L6.92,15.48L6.892,15.433L6.865,15.385L6.838,15.338L6.812,15.29L6.785,15.242L6.759,15.195L6.734,15.147L6.709,15.099L6.684,15.051L6.66,15.003L6.636,14.955L6.612,14.906L6.589,14.858L6.566,14.809L6.544,14.761L6.522,14.712L6.5,14.663L6.479,14.614L6.458,14.565L6.438,14.516L6.418,14.467L6.408,14.442L6.398,14.417L6.389,14.392L6.379,14.368L6.37,14.343L6.361,14.318L6.351,14.293L6.342,14.268L6.333,14.243L6.325,14.218L6.316,14.193L6.307,14.168L6.299,14.143L6.29,14.117L6.282,14.092L6.274,14.067L6.266,14.042L6.258,14.016L6.25,13.991L6.242,13.965L6.235,13.94L6.227,13.914L6.22,13.889L6.212,13.863L6.205,13.838L6.198,13.812L6.191,13.786L6.184,13.76L6.178,13.734L6.171,13.709L6.165,13.683L6.158,13.657L6.152,13.631L6.146,13.604L6.14,13.578L6.134,13.552L6.128,13.526L6.123,13.499L6.117,13.473L6.112,13.447L6.107,13.42L6.101,13.394L6.096,13.367L6.091,13.341L6.087,13.314L6.082,13.287L6.077,13.26L6.073,13.233L6.069,13.206L6.065,13.179L6.061,13.152L6.057,13.125L6.053,13.098L6.049,13.071L6.046,13.044L6.042,13.016L6.039,12.989L6.036,12.961L6.033,12.934L6.03,12.906L6.027,12.879L6.025,12.851L6.022,12.823L6.02,12.795L6.018,12.767L6.015,12.739L6.013,12.711L6.012,12.683L6.01,12.655L6.008,12.627L6.007,12.599L6.006,12.57L6.004,12.542L6.003,12.513L6.003,12.485L6.002,12.456L6.001,12.427L6.001,12.398L6,12.369L6,12.34L6,12.311L6,12.282L6,12.253L6.001,12.224L6.001,12.194L6.002,12.165L6.002,12.135L6.003,12.106L6.004,12.076L6.006,12.046L6.007,12.017L6.008,11.987L6.01,11.957L6.012,11.927L6.014,11.897L6.016,11.866L6.018,11.836L6.02,11.806L6.023,11.775L6.025,11.745L6.028,11.714L6.031,11.683L6.034,11.652L6.037,11.622L6.04,11.591L6.044,11.56L6.048,11.528L6.051,11.497L6.055,11.466L6.059,11.434L6.064,11.403L6.068,11.371L6.073,11.34L6.077,11.308L6.082,11.276L6.087,11.244L6.092,11.212L6.098,11.18L6.103,11.147L6.109,11.115L6.114,11.083L6.12,11.05L6.125,11.022L6.131,10.995L6.136,10.967L6.141,10.939L6.147,10.912L6.152,10.885L6.158,10.857L6.164,10.83L6.17,10.803L6.176,10.776L6.182,10.749L6.188,10.722L6.195,10.696L6.201,10.669L6.208,10.642L6.215,10.616L6.222,10.59L6.229,10.563L6.236,10.537L6.243,10.511L6.251,10.485L6.258,10.459L6.266,10.434L6.273,10.408L6.281,10.382L6.289,10.357L6.297,10.331L6.305,10.306L6.314,10.281L6.322,10.256L6.331,10.231L6.339,10.206L6.348,10.181L6.357,10.156L6.366,10.132L6.375,10.107L6.384,10.083L6.393,10.058L6.402,10.034L6.412,10.01L6.421,9.986L6.431,9.962L6.441,9.938L6.451,9.914L6.461,9.89L6.471,9.867L6.481,9.843L6.491,9.82L6.502,9.797L6.512,9.773L6.523,9.75L6.534,9.727L6.544,9.704L6.555,9.681L6.566,9.659L6.577,9.636L6.589,9.613L6.6,9.591L6.611,9.569L6.623,9.546L6.634,9.524L6.646,9.502L6.658,9.48L6.67,9.458L6.682,9.436L6.694,9.415L6.706,9.393L6.718,9.372L6.731,9.35L6.743,9.329L6.756,9.308L6.768,9.286L6.781,9.265L6.794,9.244L6.807,9.224L6.82,9.203L6.833,9.182L6.846,9.162L6.859,9.141L6.873,9.121L6.886,9.101L6.9,9.08L6.914,9.06L6.927,9.04L6.941,9.02L6.955,9.001L6.969,8.981L6.983,8.961L6.997,8.942L7.012,8.922L7.026,8.903L7.04,8.884L7.055,8.865L7.069,8.846L7.084,8.827L7.099,8.808L7.114,8.789L7.129,8.771L7.144,8.752L7.159,8.734L7.174,8.715L7.189,8.697L7.205,8.679L7.22,8.661L7.236,8.643L7.251,8.625L7.267,8.607L7.283,8.589L7.298,8.572L7.314,8.554L7.33,8.537L7.346,8.52L7.362,8.503L7.379,8.485L7.395,8.468L7.411,8.452L7.428,8.435L7.444,8.418L7.461,8.401L7.477,8.385L7.494,8.368L7.511,8.352L7.528,8.336L7.545,8.32L7.562,8.304L7.579,8.288L7.596,8.272L7.613,8.256L7.631,8.24L7.648,8.225L7.665,8.209L7.683,8.194L7.701,8.179L7.718,8.164L7.736,8.149L7.754,8.134L7.772,8.119L7.789,8.104L7.807,8.089L7.825,8.075L7.844,8.06L7.862,8.046L7.88,8.031L7.898,8.017L7.917,8.003L7.935,7.989L7.954,7.975L7.972,7.961L7.991,7.948L8.009,7.934L8.028,7.921L8.047,7.907L8.066,7.894L8.085,7.881L8.104,7.867L8.123,7.854L8.142,7.841L8.161,7.829L8.18,7.816L8.2,7.803L8.219,7.791L8.238,7.778L8.258,7.766L8.277,7.754L8.297,7.741L8.316,7.729L8.336,7.717L8.356,7.706L8.376,7.694L8.395,7.682L8.435,7.659L8.475,7.636L8.516,7.614L8.556,7.592L8.597,7.571L8.638,7.55L8.679,7.529L8.72,7.509L8.761,7.489L8.803,7.469L8.845,7.45L8.887,7.431L8.929,7.413L8.971,7.395L9.013,7.378L9.056,7.36L9.099,7.344L9.142,7.327L9.185,7.311L9.228,7.296L9.272,7.281L9.315,7.266L9.359,7.251L9.403,7.237L9.447,7.224L9.491,7.211L9.535,7.198L9.579,7.185L9.624,7.173L9.668,7.162L9.713,7.15L9.758,7.14L9.803,7.129L9.848,7.119L9.893,7.11L9.938,7.1L9.983,7.091L10.029,7.083L10.074,7.075L10.12,7.067L10.166,7.06L10.211,7.053L10.257,7.047L10.301,7.041L10.345,7.036L10.389,7.031L10.433,7.027L10.477,7.022L10.521,7.019L10.565,7.015L10.609,7.012L10.653,7.009L10.698,7.007L10.742,7.005L10.786,7.003L10.83,7.002L10.875,7.001L10.919,7L10.963,7L11.008,7ZM10.925,7.597L10.885,7.597L10.846,7.598L10.806,7.599L10.766,7.601L10.727,7.603L10.687,7.605L10.648,7.607L10.608,7.61L10.568,7.613L10.529,7.617L10.49,7.62L10.45,7.624L10.411,7.629L10.372,7.633L10.334,7.638L10.295,7.644L10.254,7.65L10.213,7.656L10.173,7.663L10.133,7.67L10.092,7.678L10.052,7.685L10.012,7.694L9.971,7.702L9.932,7.711L9.892,7.72L9.852,7.73L9.812,7.74L9.773,7.75L9.733,7.761L9.694,7.772L9.655,7.783L9.616,7.795L9.577,7.807L9.538,7.819L9.499,7.832L9.461,7.845L9.423,7.859L9.384,7.872L9.346,7.887L9.308,7.901L9.271,7.916L9.233,7.931L9.195,7.946L9.158,7.962L9.121,7.978L9.084,7.995L9.047,8.012L9.011,8.029L8.974,8.046L8.938,8.064L8.902,8.082L8.866,8.101L8.83,8.12L8.795,8.139L8.759,8.159L8.725,8.178L8.689,8.199L8.672,8.209L8.655,8.219L8.638,8.23L8.62,8.24L8.603,8.251L8.586,8.261L8.569,8.272L8.552,8.283L8.535,8.294L8.518,8.305L8.501,8.316L8.484,8.327L8.467,8.338L8.451,8.35L8.434,8.361L8.417,8.372L8.401,8.384L8.385,8.396L8.368,8.408L8.352,8.419L8.335,8.431L8.319,8.443L8.303,8.455L8.287,8.467L8.271,8.48L8.255,8.492L8.239,8.504L8.223,8.517L8.207,8.529L8.191,8.542L8.175,8.555L8.16,8.567L8.144,8.58L8.128,8.593L8.113,8.606L8.097,8.62L8.082,8.633L8.067,8.646L8.052,8.659L8.036,8.673L8.021,8.686L8.006,8.7L7.991,8.714L7.976,8.727L7.961,8.741L7.946,8.756L7.932,8.77L7.917,8.784L7.902,8.798L7.888,8.812L7.873,8.827L7.859,8.841L7.844,8.856L7.83,8.87L7.816,8.885L7.802,8.9L7.788,8.915L7.774,8.93L7.76,8.945L7.746,8.96L7.732,8.975L7.718,8.99L7.704,9.006L7.691,9.021L7.677,9.037L7.664,9.052L7.65,9.068L7.637,9.084L7.624,9.1L7.611,9.116L7.597,9.132L7.584,9.148L7.571,9.164L7.558,9.18L7.545,9.197L7.533,9.213L7.52,9.23L7.507,9.247L7.495,9.263L7.482,9.28L7.47,9.297L7.458,9.314L7.445,9.331L7.433,9.348L7.421,9.365L7.409,9.383L7.397,9.4L7.385,9.418L7.373,9.435L7.362,9.453L7.35,9.471L7.338,9.489L7.327,9.506L7.315,9.524L7.304,9.542L7.293,9.561L7.281,9.579L7.27,9.597L7.259,9.616L7.248,9.634L7.237,9.653L7.227,9.672L7.216,9.69L7.205,9.709L7.195,9.728L7.184,9.747L7.174,9.766L7.164,9.786L7.153,9.805L7.143,9.824L7.133,9.844L7.123,9.863L7.113,9.883L7.103,9.903L7.094,9.923L7.084,9.943L7.074,9.963L7.065,9.983L7.056,10.003L7.046,10.023L7.037,10.044L7.028,10.064L7.019,10.085L7.01,10.105L7.001,10.126L6.992,10.147L6.984,10.168L6.975,10.189L6.966,10.21L6.958,10.231L6.95,10.252L6.941,10.274L6.933,10.296L6.925,10.317L6.917,10.339L6.909,10.36L6.902,10.382L6.894,10.404L6.886,10.426L6.879,10.448L6.871,10.47L6.864,10.493L6.857,10.515L6.85,10.538L6.843,10.56L6.836,10.583L6.829,10.606L6.822,10.629L6.816,10.652L6.809,10.675L6.803,10.698L6.796,10.721L6.79,10.745L6.784,10.768L6.778,10.791L6.772,10.815L6.766,10.839L6.76,10.863L6.755,10.887L6.749,10.911L6.744,10.935L6.738,10.959L6.733,10.983L6.728,11.007L6.723,11.032L6.718,11.057L6.713,11.081L6.708,11.106L6.704,11.131L6.699,11.158L6.693,11.19L6.688,11.22L6.683,11.249L6.678,11.279L6.673,11.309L6.668,11.339L6.663,11.368L6.659,11.397L6.655,11.427L6.65,11.456L6.646,11.485L6.642,11.514L6.639,11.543L6.635,11.571L6.632,11.6L6.628,11.628L6.625,11.657L6.622,11.685L6.619,11.714L6.616,11.742L6.614,11.769L6.611,11.798L6.609,11.825L6.606,11.853L6.604,11.881L6.602,11.908L6.601,11.936L6.599,11.963L6.597,11.99L6.596,12.018L6.594,12.045L6.593,12.072L6.592,12.099L6.591,12.126L6.59,12.152L6.59,12.179L6.589,12.206L6.589,12.232L6.588,12.259L6.588,12.285L6.588,12.311L6.588,12.337L6.588,12.363L6.589,12.389L6.589,12.415L6.59,12.441L6.591,12.467L6.591,12.493L6.592,12.518L6.593,12.544L6.594,12.569L6.596,12.595L6.597,12.62L6.599,12.645L6.6,12.671L6.602,12.696L6.604,12.721L6.606,12.746L6.608,12.771L6.61,12.795L6.613,12.82L6.615,12.845L6.618,12.87L6.62,12.894L6.623,12.919L6.626,12.943L6.629,12.968L6.632,12.992L6.636,13.016L6.639,13.041L6.642,13.065L6.646,13.089L6.65,13.113L6.654,13.137L6.658,13.161L6.662,13.185L6.666,13.209L6.67,13.232L6.674,13.256L6.679,13.28L6.683,13.304L6.688,13.327L6.693,13.351L6.698,13.374L6.703,13.398L6.708,13.421L6.713,13.445L6.719,13.468L6.724,13.491L6.73,13.515L6.735,13.538L6.741,13.561L6.747,13.584L6.753,13.607L6.759,13.63L6.765,13.654L6.772,13.677L6.778,13.7L6.784,13.722L6.791,13.745L6.798,13.768L6.805,13.791L6.812,13.814L6.819,13.837L6.826,13.859L6.833,13.882L6.84,13.905L6.848,13.928L6.856,13.95L6.863,13.973L6.871,13.995L6.879,14.018L6.887,14.041L6.895,14.063L6.903,14.086L6.911,14.108L6.92,14.131L6.928,14.153L6.937,14.176L6.945,14.198L6.954,14.22L6.963,14.242L6.981,14.287L7,14.332L7.019,14.377L7.038,14.421L7.058,14.466L7.078,14.51L7.098,14.555L7.119,14.599L7.14,14.644L7.162,14.688L7.184,14.732L7.206,14.777L7.229,14.821L7.253,14.865L7.276,14.909L7.3,14.954L7.324,14.998L7.349,15.042L7.374,15.087L7.4,15.131L7.426,15.175L7.452,15.22L7.478,15.264L7.505,15.309L7.533,15.353L7.56,15.398L7.589,15.442L7.617,15.487L7.646,15.532L7.675,15.576L7.704,15.621L7.734,15.666L7.764,15.711L7.795,15.756L7.826,15.801L7.857,15.846L7.888,15.891L7.92,15.936L7.952,15.981L7.985,16.027L8.018,16.072L8.051,16.118L8.084,16.163L8.118,16.209L8.152,16.255L8.187,16.301L8.221,16.347L8.256,16.393L8.292,16.44L8.327,16.486L8.363,16.533L8.399,16.579L8.436,16.626L8.472,16.673L8.509,16.72L8.547,16.767L8.584,16.815L8.622,16.862L8.66,16.91L8.737,17.005L8.815,17.102L8.895,17.199L8.975,17.297L9.086,17.432L9.196,17.567L9.306,17.701L9.417,17.835L9.528,17.969L9.64,18.102L9.752,18.236L9.864,18.369L9.976,18.502L10.089,18.635L10.202,18.768L10.315,18.901L10.428,19.033L10.542,19.166L10.656,19.298L10.77,19.43L10.885,19.562L10.999,19.694L11.114,19.826L11.229,19.958L11.345,20.089L11.46,20.221L11.576,20.352L11.692,20.483L11.808,20.614L11.925,20.745L12.041,20.876L12.158,21.007L12.275,21.138L12.392,21.268L12.509,21.399L12.627,21.529L12.744,21.66L12.862,21.79L12.98,21.92L13.097,22.051L13.215,22.181L13.334,22.311L13.452,22.441L13.57,22.571L13.807,22.83L14.045,23.09L14.282,23.349L14.52,23.608L14.758,23.867L14.996,24.126L15.473,24.644L15.95,25.161L15.995,25.211L16.041,25.161L16.28,24.903L16.518,24.644L16.995,24.127L17.233,23.869L17.472,23.611L17.71,23.352L17.948,23.093L18.185,22.835L18.423,22.576L18.541,22.446L18.659,22.316L18.778,22.187L18.896,22.057L19.014,21.927L19.132,21.797L19.25,21.667L19.368,21.537L19.485,21.407L19.603,21.276L19.72,21.146L19.838,21.015L19.955,20.885L20.072,20.754L20.188,20.623L20.305,20.492L20.421,20.361L20.537,20.23L20.653,20.098L20.769,19.967L20.885,19.835L21,19.703L21.116,19.571L21.231,19.439L21.345,19.306L21.46,19.174L21.574,19.041L21.689,18.908L21.802,18.775L21.916,18.642L22.029,18.508L22.143,18.375L22.255,18.241L22.368,18.107L22.48,17.972L22.592,17.838L22.704,17.703L22.816,17.568L22.927,17.433L23.038,17.297L23.119,17.199L23.198,17.102L23.276,17.005L23.353,16.91L23.391,16.862L23.429,16.815L23.466,16.767L23.504,16.72L23.541,16.673L23.577,16.626L23.614,16.579L23.65,16.533L23.686,16.486L23.721,16.44L23.757,16.393L23.792,16.347L23.826,16.301L23.861,16.255L23.895,16.209L23.929,16.164L23.962,16.118L23.995,16.072L24.028,16.027L24.06,15.982L24.093,15.936L24.124,15.891L24.156,15.846L24.187,15.801L24.218,15.756L24.248,15.711L24.278,15.666L24.308,15.621L24.337,15.577L24.367,15.532L24.395,15.487L24.424,15.443L24.452,15.398L24.479,15.354L24.506,15.309L24.533,15.265L24.56,15.22L24.586,15.176L24.612,15.132L24.637,15.087L24.662,15.043L24.687,14.999L24.711,14.954L24.735,14.91L24.759,14.866L24.782,14.822L24.804,14.777L24.827,14.733L24.849,14.689L24.87,14.645L24.891,14.6L24.912,14.556L24.933,14.511L24.952,14.467L24.972,14.423L24.991,14.378L25.01,14.333L25.028,14.288L25.037,14.267L25.046,14.244L25.055,14.222L25.064,14.2L25.072,14.177L25.081,14.155L25.089,14.132L25.098,14.11L25.106,14.087L25.114,14.065L25.122,14.042L25.13,14.02L25.138,13.997L25.145,13.974L25.153,13.952L25.16,13.929L25.168,13.907L25.175,13.884L25.182,13.861L25.189,13.839L25.196,13.816L25.203,13.793L25.21,13.77L25.216,13.747L25.223,13.725L25.229,13.702L25.236,13.679L25.242,13.656L25.248,13.633L25.254,13.609L25.26,13.586L25.266,13.563L25.271,13.54L25.277,13.517L25.282,13.494L25.288,13.47L25.293,13.447L25.298,13.424L25.303,13.4L25.308,13.377L25.313,13.353L25.317,13.33L25.322,13.306L25.326,13.283L25.331,13.259L25.335,13.235L25.339,13.212L25.343,13.188L25.347,13.164L25.351,13.14L25.355,13.116L25.358,13.092L25.362,13.068L25.365,13.044L25.368,13.019L25.372,12.995L25.375,12.971L25.377,12.946L25.38,12.922L25.383,12.897L25.386,12.873L25.388,12.848L25.39,12.824L25.392,12.799L25.395,12.774L25.397,12.749L25.398,12.724L25.4,12.699L25.402,12.674L25.403,12.649L25.405,12.624L25.406,12.598L25.407,12.573L25.408,12.547L25.409,12.522L25.41,12.496L25.41,12.471L25.411,12.445L25.411,12.419L25.412,12.393L25.412,12.367L25.412,12.341L25.412,12.315L25.411,12.289L25.411,12.262L25.411,12.236L25.41,12.21L25.409,12.183L25.408,12.156L25.407,12.13L25.406,12.103L25.405,12.076L25.404,12.049L25.402,12.022L25.401,11.994L25.399,11.967L25.397,11.94L25.395,11.913L25.393,11.885L25.39,11.857L25.388,11.83L25.385,11.802L25.383,11.774L25.38,11.746L25.377,11.718L25.374,11.69L25.37,11.661L25.367,11.633L25.363,11.604L25.36,11.576L25.356,11.547L25.352,11.518L25.348,11.489L25.344,11.46L25.339,11.431L25.335,11.402L25.33,11.373L25.325,11.343L25.32,11.313L25.315,11.284L25.31,11.254L25.304,11.224L25.299,11.194L25.293,11.163L25.288,11.136L25.283,11.111L25.278,11.086L25.273,11.062L25.268,11.037L25.263,11.012L25.257,10.988L25.252,10.964L25.246,10.939L25.24,10.915L25.235,10.891L25.229,10.867L25.223,10.843L25.217,10.819L25.211,10.796L25.204,10.772L25.198,10.748L25.192,10.725L25.185,10.702L25.178,10.678L25.172,10.655L25.165,10.632L25.158,10.609L25.151,10.587L25.144,10.564L25.137,10.541L25.129,10.518L25.122,10.496L25.115,10.474L25.107,10.451L25.099,10.429L25.092,10.407L25.084,10.385L25.076,10.363L25.068,10.341L25.06,10.32L25.051,10.298L25.043,10.276L25.035,10.255L25.026,10.234L25.018,10.212L25.009,10.191L25,10.17L24.992,10.149L24.983,10.128L24.974,10.107L24.965,10.087L24.955,10.066L24.946,10.045L24.937,10.025L24.927,10.005L24.918,9.984L24.908,9.964L24.899,9.944L24.889,9.924L24.879,9.904L24.869,9.885L24.859,9.865L24.849,9.845L24.839,9.825L24.829,9.806L24.819,9.787L24.808,9.767L24.798,9.748L24.787,9.729L24.776,9.71L24.766,9.691L24.755,9.672L24.744,9.654L24.733,9.635L24.722,9.616L24.711,9.598L24.7,9.58L24.689,9.561L24.677,9.543L24.666,9.525L24.654,9.507L24.643,9.489L24.631,9.471L24.62,9.453L24.608,9.435L24.596,9.418L24.584,9.4L24.572,9.383L24.56,9.365L24.548,9.348L24.536,9.331L24.523,9.314L24.511,9.297L24.498,9.28L24.486,9.263L24.473,9.246L24.461,9.23L24.448,9.213L24.435,9.197L24.422,9.18L24.409,9.164L24.397,9.148L24.383,9.131L24.37,9.115L24.357,9.099L24.344,9.083L24.33,9.067L24.317,9.052L24.304,9.036L24.29,9.021L24.276,9.005L24.263,8.99L24.249,8.974L24.235,8.959L24.221,8.944L24.207,8.929L24.193,8.914L24.179,8.899L24.165,8.884L24.151,8.869L24.137,8.855L24.122,8.84L24.108,8.826L24.093,8.811L24.079,8.797L24.064,8.783L24.05,8.769L24.035,8.755L24.02,8.741L24.005,8.727L23.991,8.713L23.976,8.699L23.961,8.686L23.945,8.672L23.93,8.659L23.915,8.645L23.9,8.632L23.885,8.619L23.869,8.606L23.854,8.592L23.838,8.58L23.823,8.567L23.807,8.554L23.791,8.541L23.776,8.528L23.76,8.516L23.744,8.503L23.728,8.491L23.712,8.479L23.696,8.467L23.68,8.454L23.664,8.442L23.648,8.43L23.632,8.419L23.615,8.407L23.599,8.395L23.582,8.383L23.566,8.372L23.549,8.36L23.533,8.349L23.516,8.338L23.499,8.326L23.483,8.315L23.466,8.304L23.449,8.293L23.432,8.282L23.416,8.272L23.399,8.261L23.381,8.25L23.364,8.24L23.347,8.229L23.33,8.219L23.295,8.198L23.261,8.178L23.226,8.158L23.191,8.139L23.155,8.119L23.12,8.101L23.084,8.082L23.048,8.064L23.012,8.046L22.976,8.029L22.939,8.011L22.903,7.995L22.866,7.978L22.829,7.962L22.792,7.946L22.755,7.931L22.717,7.916L22.68,7.901L22.642,7.886L22.604,7.872L22.566,7.858L22.528,7.845L22.489,7.832L22.451,7.819L22.412,7.807L22.374,7.795L22.335,7.783L22.295,7.772L22.256,7.761L22.217,7.75L22.178,7.74L22.138,7.73L22.099,7.72L22.059,7.711L22.019,7.702L21.979,7.694L21.939,7.685L21.899,7.678L21.858,7.67L21.818,7.663L21.777,7.656L21.737,7.65L21.696,7.644L21.656,7.638L21.619,7.633L21.58,7.629L21.541,7.624L21.503,7.62L21.464,7.616L21.425,7.613L21.386,7.61L21.347,7.607L21.307,7.605L21.268,7.603L21.229,7.601L21.19,7.599L21.15,7.598L21.111,7.597L21.072,7.597L21.032,7.596L20.993,7.596L20.954,7.597L20.914,7.598L20.874,7.599L20.835,7.6L20.795,7.602L20.756,7.604L20.716,7.606L20.676,7.609L20.637,7.611L20.597,7.615L20.558,7.618L20.518,7.622L20.478,7.626L20.438,7.631L20.399,7.636L20.359,7.641L20.319,7.646L20.28,7.652L20.24,7.658L20.2,7.665L20.161,7.672L20.121,7.679L20.082,7.686L20.042,7.694L20.003,7.702L19.963,7.711L19.924,7.719L19.884,7.728L19.845,7.738L19.806,7.747L19.767,7.757L19.727,7.768L19.688,7.779L19.649,7.789L19.61,7.801L19.571,7.812L19.532,7.824L19.493,7.837L19.454,7.849L19.415,7.862L19.377,7.876L19.338,7.889L19.299,7.903L19.261,7.918L19.223,7.932L19.184,7.947L19.146,7.962L19.108,7.978L19.07,7.994L19.032,8.01L18.994,8.027L18.956,8.043L18.918,8.061L18.881,8.078L18.843,8.096L18.806,8.114L18.769,8.133L18.731,8.152L18.694,8.171L18.657,8.191L18.621,8.21L18.584,8.231L18.547,8.251L18.511,8.272L18.474,8.293L18.438,8.315L18.402,8.337L18.366,8.359L18.33,8.381L18.295,8.404L18.259,8.427L18.224,8.451L18.188,8.475L18.153,8.499L18.118,8.524L18.083,8.549L18.049,8.574L18.014,8.599L17.98,8.625L17.945,8.651L17.911,8.678L17.877,8.705L17.844,8.732L17.81,8.76L17.777,8.787L17.743,8.816L17.71,8.844L17.677,8.873L17.645,8.903L17.612,8.932L17.58,8.962L17.547,8.993L17.515,9.023L17.484,9.054L17.452,9.086L17.42,9.117L17.389,9.149L17.358,9.182L17.327,9.214L17.297,9.247L17.266,9.281L17.236,9.315L17.206,9.349L17.176,9.383L17.146,9.418L17.117,9.453L17.088,9.489L17.059,9.525L17.03,9.561L17.001,9.598L16.976,9.631L16.96,9.654L16.941,9.68L16.922,9.706L16.904,9.732L16.887,9.758L16.87,9.784L16.854,9.809L16.838,9.834L16.823,9.86L16.808,9.885L16.794,9.91L16.78,9.935L16.766,9.96L16.753,9.984L16.74,10.01L16.728,10.035L16.715,10.06L16.703,10.085L16.692,10.111L16.68,10.137L16.669,10.163L16.659,10.189L16.648,10.216L16.638,10.243L16.627,10.271L16.618,10.299L16.608,10.327L16.598,10.356L16.589,10.386L16.58,10.416L16.57,10.447L16.561,10.481L16.539,10.544L16.51,10.604L16.475,10.661L16.434,10.713L16.388,10.761L16.336,10.802L16.28,10.838L16.221,10.867L16.158,10.889L16.094,10.904L16.028,10.912L15.962,10.912L15.897,10.904L15.832,10.889L15.77,10.867L15.711,10.838L15.655,10.802L15.603,10.761L15.557,10.713L15.516,10.661L15.48,10.604L15.452,10.544L15.43,10.481L15.42,10.446L15.411,10.416L15.402,10.386L15.393,10.356L15.383,10.327L15.373,10.299L15.363,10.271L15.353,10.243L15.343,10.216L15.332,10.189L15.321,10.163L15.31,10.137L15.299,10.111L15.287,10.085L15.275,10.06L15.263,10.035L15.251,10.01L15.238,9.984L15.225,9.96L15.211,9.935L15.197,9.91L15.183,9.885L15.168,9.86L15.152,9.835L15.137,9.809L15.12,9.784L15.104,9.758L15.086,9.732L15.069,9.706L15.05,9.68L15.031,9.654L15.015,9.631L14.989,9.598L14.961,9.561L14.932,9.525L14.903,9.489L14.874,9.453L14.844,9.418L14.815,9.383L14.785,9.349L14.755,9.314L14.725,9.28L14.694,9.247L14.664,9.214L14.633,9.181L14.602,9.149L14.571,9.117L14.539,9.085L14.508,9.054L14.476,9.023L14.444,8.992L14.412,8.962L14.38,8.932L14.347,8.902L14.315,8.873L14.282,8.844L14.249,8.815L14.216,8.787L14.182,8.759L14.149,8.731L14.115,8.704L14.081,8.677L14.048,8.651L14.013,8.624L13.979,8.598L13.945,8.573L13.91,8.548L13.876,8.523L13.841,8.498L13.806,8.474L13.771,8.45L13.735,8.427L13.7,8.404L13.664,8.381L13.629,8.358L13.593,8.336L13.557,8.314L13.521,8.293L13.485,8.272L13.448,8.251L13.412,8.23L13.375,8.21L13.339,8.19L13.302,8.171L13.265,8.151L13.228,8.133L13.191,8.114L13.154,8.096L13.117,8.078L13.079,8.06L13.042,8.043L13.004,8.026L12.966,8.01L12.928,7.994L12.891,7.978L12.853,7.962L12.814,7.947L12.776,7.932L12.738,7.917L12.7,7.903L12.661,7.889L12.623,7.875L12.584,7.862L12.546,7.849L12.507,7.837L12.468,7.824L12.429,7.812L12.39,7.801L12.351,7.789L12.312,7.778L12.273,7.768L12.234,7.757L12.195,7.747L12.156,7.738L12.116,7.728L12.077,7.719L12.038,7.711L11.998,7.702L11.959,7.694L11.919,7.686L11.879,7.679L11.84,7.672L11.8,7.665L11.761,7.658L11.721,7.652L11.681,7.647L11.641,7.641L11.602,7.636L11.562,7.631L11.522,7.626L11.482,7.622L11.442,7.618L11.403,7.615L11.363,7.611L11.323,7.609L11.283,7.606L11.243,7.604L11.203,7.602L11.164,7.6L11.124,7.599L11.084,7.598L11.044,7.597L11.005,7.596L10.965,7.596L10.925,7.597Z" style="fill:rgb(24,27,28);"/>
                </g>
            </g>
        </g>
    </g>
</svg>
