<?xml version="1.0" encoding="UTF-8" standalone="no"?>
<!DOCTYPE svg PUBLIC "-//W3C//DTD SVG 1.1//EN" "http://www.w3.org/Graphics/SVG/1.1/DTD/svg11.dtd">
<svg width="100%" height="100%" viewBox="0 0 600 600" version="1.1" xmlns="http://www.w3.org/2000/svg" xmlns:xlink="http://www.w3.org/1999/xlink" xml:space="preserve" xmlns:serif="http://www.serif.com/" style="fill-rule:evenodd;clip-rule:evenodd;stroke-linecap:round;stroke-linejoin:round;stroke-miterlimit:1.5;">
    <g transform="matrix(1,0,0,1,-90,-3916)">
        <g class="product-design" serif:class="product design" transform="matrix(0.950872,0,0,0.950872,86.1965,2455.46)">
            <rect x="4" y="1536" width="631" height="631" style="fill:rgb(24,27,28);"/>
            <g class="rings" transform="matrix(1.05167,0,0,1.05167,-101.167,-256.04)">
                <g transform="matrix(0.767011,0,0,0.767011,-3.26618,1594.21)">
                    <circle cx="525.763" cy="534.273" r="333.763" style="fill:none;stroke:rgb(104,189,198);stroke-width:10.43px;"/>
                </g>
                <g transform="matrix(0.719073,0,0,0.719073,21.938,1619.82)">
                    <circle cx="525.763" cy="534.273" r="333.763" style="fill:none;stroke:rgb(221,124,179);stroke-width:11.13px;"/>
                </g>
            </g>
            <g class="visual-drawing" serif:class="visual drawing" transform="matrix(1.05167,0,0,1.05167,-1449.4,1236.28)">
                <g transform="matrix(0.707107,-0.707107,0.707107,0.707107,-70.7476,1263.3)">
                    <g transform="matrix(5.55112e-17,-0.545455,1,2.22045e-16,934,1505.91)">
                        <path d="M1505,645L1527,645" style="fill:none;stroke:white;stroke-width:4.97px;stroke-linejoin:miter;stroke-miterlimit:3;"/>
                    </g>
                    <g transform="matrix(5.55112e-17,-0.545455,1,2.22045e-16,934,1477.91)">
                        <path d="M1505,645L1527,645" style="fill:none;stroke:white;stroke-width:4.97px;stroke-linejoin:miter;stroke-miterlimit:3;"/>
                    </g>
                    <g transform="matrix(-0.545455,-5.55112e-17,2.22045e-16,-1,2419.91,1310)">
                        <path d="M1505,645L1527,645" style="fill:none;stroke:white;stroke-width:4.97px;stroke-linejoin:miter;stroke-miterlimit:3;"/>
                    </g>
                    <g transform="matrix(-0.545455,-5.55112e-17,2.22045e-16,-1,2391.91,1310)">
                        <path d="M1505,645L1527,645" style="fill:none;stroke:white;stroke-width:4.97px;stroke-linejoin:miter;stroke-miterlimit:3;"/>
                    </g>
                </g>
                <g transform="matrix(0.707107,-0.707107,0.707107,0.707107,179.835,1478.21)">
                    <g transform="matrix(5.55112e-17,-0.545455,1,2.22045e-16,1140,1400.91)">
                        <path d="M1505,645L1527,645" style="fill:none;stroke:white;stroke-width:4.97px;stroke-linejoin:miter;stroke-miterlimit:3;"/>
                    </g>
                    <g transform="matrix(5.55112e-17,-0.545455,1,2.22045e-16,1140,1372.91)">
                        <path d="M1505,645L1527,645" style="fill:none;stroke:white;stroke-width:4.97px;stroke-linejoin:miter;stroke-miterlimit:3;"/>
                    </g>
                    <g transform="matrix(-0.545455,-5.55112e-17,2.22045e-16,-1,2625.91,1205)">
                        <path d="M1505,645L1527,645" style="fill:none;stroke:white;stroke-width:4.97px;stroke-linejoin:miter;stroke-miterlimit:3;"/>
                    </g>
                    <g transform="matrix(-0.545455,-5.55112e-17,2.22045e-16,-1,2597.91,1205)">
                        <path d="M1505,645L1527,645" style="fill:none;stroke:white;stroke-width:4.97px;stroke-linejoin:miter;stroke-miterlimit:3;"/>
                    </g>
                </g>
            </g>
            <g transform="matrix(0.481937,0.481937,-0.481937,0.481937,159.899,-700.206)">
                <rect x="2896" y="2255" width="33" height="99" style="fill:rgb(24,27,28);"/>
                <path d="M2892.15,2250.18L2892.52,2249.9L2892.91,2249.66L2893.32,2249.44L2893.74,2249.26L2894.18,2249.1L2894.63,2248.98L2895.08,2248.9L2895.54,2248.85L2896,2248.83L2929,2248.83L2929.46,2248.85L2929.92,2248.9L2930.37,2248.98L2930.82,2249.1L2931.26,2249.26L2931.68,2249.44L2932.09,2249.66L2932.48,2249.9L2932.85,2250.18L2933.2,2250.48L2933.53,2250.8L2933.83,2251.15L2934.1,2251.52L2934.35,2251.91L2934.56,2252.32L2934.74,2252.74L2934.9,2253.18L2935.02,2253.63L2935.1,2254.08L2935.16,2254.54L2935.17,2255L2935.17,2354L2935.16,2354.46L2935.1,2354.92L2935.02,2355.37L2934.9,2355.82L2934.74,2356.26L2934.56,2356.68L2934.35,2357.09L2934.1,2357.48L2933.83,2357.85L2933.53,2358.2L2933.2,2358.53L2932.85,2358.83L2932.48,2359.1L2932.09,2359.35L2931.68,2359.56L2931.26,2359.75L2930.82,2359.9L2930.37,2360.02L2929.92,2360.1L2929.46,2360.16L2929,2360.17L2896,2360.17L2895.54,2360.16L2895.08,2360.1L2894.63,2360.02L2894.18,2359.9L2893.74,2359.75L2893.32,2359.56L2892.91,2359.35L2892.52,2359.1L2892.15,2358.83L2891.8,2358.53L2891.48,2358.2L2891.17,2357.85L2890.9,2357.48L2890.66,2357.09L2890.44,2356.68L2890.26,2356.26L2890.1,2355.82L2889.98,2355.37L2889.9,2354.92L2889.85,2354.46L2889.83,2354L2889.83,2255L2889.85,2254.54L2889.9,2254.08L2889.98,2253.63L2890.1,2253.18L2890.26,2252.74L2890.44,2252.32L2890.66,2251.91L2890.9,2251.52L2891.17,2251.15L2891.48,2250.8L2891.8,2250.48L2892.15,2250.18ZM2896,2354L2929,2354L2929,2255L2896,2255L2896,2354Z" style="fill:white;"/>
            </g>
            <g transform="matrix(1.40602,1.40602,-0.437723,0.437723,-2678.87,-3335.65)">
                <path d="M2888.84,2254L2864.24,2333.54L2864.24,2363L2892.58,2325.69L2897.87,2354L2929,2354L2929,2255L2888.84,2254Z" style="fill:rgb(24,27,28);"/>
                <path d="M2887.52,2248.69L2887.71,2248.25L2887.93,2247.87L2888.15,2247.58L2888.38,2247.37L2888.62,2247.24L2888.86,2247.2L2929.02,2248.2L2929.25,2248.25L2929.48,2248.39L2929.71,2248.6L2929.93,2248.89L2930.13,2249.26L2930.33,2249.71L2930.5,2250.21L2930.66,2250.78L2930.79,2251.4L2930.91,2252.07L2931,2252.77L2931.06,2253.49L2931.1,2254.24L2931.12,2255L2931.12,2354L2931.1,2354.76L2931.06,2355.51L2931,2356.24L2930.91,2356.95L2930.79,2357.62L2930.65,2358.24L2930.5,2358.8L2930.32,2359.31L2930.13,2359.75L2929.92,2360.12L2929.7,2360.41L2929.47,2360.62L2929.24,2360.75L2929,2360.8L2897.87,2360.8L2897.63,2360.75L2897.39,2360.62L2897.16,2360.4L2896.93,2360.1L2896.72,2359.71L2896.53,2359.26L2896.35,2358.73L2896.19,2358.14L2896.05,2357.5L2891.7,2334.19L2865.05,2369.29L2864.83,2369.53L2864.61,2369.7L2864.38,2369.78L2864.15,2369.79L2863.92,2369.71L2863.69,2369.56L2863.47,2369.33L2863.27,2369.02L2863.07,2368.65L2862.88,2368.2L2862.72,2367.7L2862.57,2367.14L2862.44,2366.53L2862.33,2365.87L2862.24,2365.19L2862.18,2364.47L2862.14,2363.75L2862.13,2363.01L2862.12,2333.55L2862.13,2332.79L2862.17,2332.04L2862.24,2331.31L2862.33,2330.6L2862.44,2329.94L2862.58,2329.32L2862.73,2328.75L2887.34,2249.21L2887.52,2248.69ZM2864.24,2333.54L2864.24,2363L2892.58,2325.69L2897.87,2354L2929,2354L2929,2255L2888.84,2254L2864.24,2333.54Z" style="fill:white;"/>
            </g>
            <g transform="matrix(0.481937,0.481937,-0.481937,0.481937,159.899,-700.206)">
                <rect x="2896" y="2255" width="33" height="99" style="fill:rgb(133,197,204);"/>
                <path d="M2929,2255L2929,2354L2896,2354L2896,2255L2929,2255ZM2902.17,2347.83L2922.83,2347.83L2922.83,2261.17L2902.17,2261.17L2902.17,2347.83Z" style="fill:rgb(24,27,28);"/>
            </g>
            <g transform="matrix(1.40602,1.40602,-0.437723,0.437723,-2678.87,-3335.65)">
                <path d="M2888.84,2254L2864.24,2333.54L2864.24,2363L2892.58,2325.69L2897.87,2354L2929,2354L2929,2255L2888.84,2254Z" style="fill:rgb(133,197,204);"/>
                <path d="M2929,2255L2929,2354L2897.87,2354L2892.58,2325.69L2864.24,2363L2864.24,2333.54L2888.84,2254L2929,2255ZM2866.35,2336.34L2866.36,2352.88L2891.77,2319.41L2891.99,2319.16L2892.22,2319L2892.45,2318.91L2892.68,2318.91L2892.91,2318.98L2893.13,2319.14L2893.35,2319.37L2893.56,2319.68L2893.76,2320.06L2893.94,2320.51L2894.11,2321.01L2894.26,2321.58L2894.39,2322.19L2899.07,2347.2L2926.88,2347.2L2926.88,2261.74L2889.71,2260.82L2866.35,2336.34Z" style="fill:rgb(24,27,28);"/>
            </g>
            <g transform="matrix(1.05167,0,0,1.05167,-90.65,-2582.33)">
                <path d="M325.819,4179.44L322.25,4183.01L290.146,4182.07L269.775,4161.69L266.467,4127.23L269.573,4124.12L294.219,4148.77L311.223,4145.94L314.049,4128.94L289.403,4104.29L292.509,4101.19L326.976,4104.49L347.347,4124.86L348.292,4156.97L344.723,4160.54L452.781,4268.6C466.533,4262.46 483.241,4265.03 494.518,4276.31C509.124,4290.91 509.124,4314.63 494.518,4329.24C479.911,4343.84 456.195,4343.84 441.588,4329.24C430.312,4317.96 427.741,4301.25 433.877,4287.5L325.819,4179.44ZM458.601,4293.32L471.513,4289.86L480.964,4299.31L477.505,4312.22L464.593,4315.68L455.142,4306.23L458.601,4293.32Z" style="fill:rgb(18,12,15);"/>
                <path d="M292.891,4097.2L327.358,4100.51L327.902,4100.6L328.428,4100.77L328.927,4101L329.388,4101.3L329.804,4101.67L350.175,4122.04L350.569,4122.49L350.889,4123.01L351.129,4123.56L351.282,4124.15L351.345,4124.75L352.29,4156.85L352.27,4157.39L352.175,4157.93L352.01,4158.44L351.776,4158.94L351.477,4159.39L351.121,4159.8L350.38,4160.54L453.735,4263.89L453.86,4263.85L454.042,4263.78L454.224,4263.72L454.41,4263.65L454.592,4263.59L454.775,4263.53L454.962,4263.47L455.145,4263.4L455.328,4263.35L455.515,4263.29L455.695,4263.23L455.879,4263.17L456.071,4263.11L456.255,4263.06L456.436,4263.01L456.625,4262.95L456.81,4262.9L456.995,4262.85L457.184,4262.8L457.37,4262.75L457.559,4262.7L457.745,4262.65L457.927,4262.6L458.117,4262.56L458.308,4262.51L458.494,4262.46L458.681,4262.42L458.868,4262.38L459.055,4262.34L459.246,4262.29L459.433,4262.25L459.621,4262.22L459.812,4262.18L460,4262.14L460.188,4262.1L460.376,4262.07L460.564,4262.03L460.756,4262L460.945,4261.96L461.133,4261.93L461.326,4261.9L461.515,4261.87L461.703,4261.84L461.896,4261.81L462.086,4261.78L462.275,4261.76L462.464,4261.73L462.653,4261.7L462.847,4261.68L463.036,4261.66L463.23,4261.63L463.42,4261.61L463.609,4261.59L463.799,4261.57L463.989,4261.55L464.183,4261.53L464.373,4261.52L464.563,4261.5L464.758,4261.48L464.948,4261.47L465.138,4261.45L465.328,4261.44L465.518,4261.43L465.713,4261.42L465.904,4261.41L466.098,4261.4L466.289,4261.39L466.479,4261.38L466.67,4261.38L466.86,4261.37L467.055,4261.36L467.246,4261.36L467.436,4261.36L467.631,4261.36L467.822,4261.35L468.012,4261.35L468.203,4261.35L468.393,4261.35L468.588,4261.36L468.783,4261.36L468.974,4261.36L469.16,4261.37L469.355,4261.37L469.545,4261.38L469.736,4261.39L469.931,4261.4L470.121,4261.4L470.316,4261.41L470.506,4261.43L470.692,4261.44L470.887,4261.45L471.081,4261.46L471.271,4261.48L471.462,4261.49L471.652,4261.51L471.842,4261.52L472.036,4261.54L472.226,4261.56L472.416,4261.58L472.61,4261.6L472.799,4261.62L472.989,4261.65L473.178,4261.67L473.372,4261.69L473.561,4261.72L473.75,4261.74L473.944,4261.77L474.129,4261.8L474.318,4261.83L474.515,4261.86L474.704,4261.89L474.888,4261.92L475.081,4261.95L475.273,4261.98L475.462,4262.02L475.65,4262.05L475.838,4262.09L476.026,4262.12L476.213,4262.16L476.405,4262.2L476.597,4262.24L476.78,4262.28L476.967,4262.32L477.158,4262.36L477.349,4262.4L477.536,4262.45L477.719,4262.49L477.909,4262.53L478.1,4262.58L478.285,4262.63L478.471,4262.68L478.657,4262.73L478.843,4262.77L479.032,4262.83L479.217,4262.88L479.402,4262.93L479.591,4262.98L479.776,4263.04L479.96,4263.09L480.144,4263.15L480.328,4263.2L480.516,4263.26L480.7,4263.32L480.883,4263.38L481.07,4263.44L481.253,4263.5L481.436,4263.56L481.618,4263.62L481.804,4263.69L481.986,4263.75L482.168,4263.82L482.354,4263.89L482.535,4263.95L482.716,4264.02L482.897,4264.09L483.081,4264.16L483.261,4264.23L483.441,4264.3L483.625,4264.38L483.804,4264.45L483.983,4264.52L484.162,4264.6L484.341,4264.68L484.523,4264.75L484.701,4264.83L484.879,4264.91L485.06,4264.99L485.237,4265.07L485.414,4265.15L485.591,4265.23L485.767,4265.32L485.947,4265.4L486.126,4265.49L486.298,4265.57L486.473,4265.66L486.651,4265.75L486.829,4265.84L487.003,4265.93L487.173,4266.01L487.35,4266.11L487.526,4266.2L487.699,4266.29L487.872,4266.39L488.044,4266.48L488.216,4266.57L488.387,4266.67L488.561,4266.77L488.735,4266.87L488.902,4266.97L489.072,4267.07L489.245,4267.17L489.417,4267.27L489.586,4267.37L489.754,4267.48L489.922,4267.58L490.09,4267.69L490.259,4267.79L490.426,4267.9L490.593,4268.01L490.759,4268.11L490.927,4268.23L491.092,4268.34L491.257,4268.45L491.424,4268.56L491.588,4268.67L491.752,4268.79L491.915,4268.9L492.077,4269.02L492.242,4269.14L492.407,4269.25L492.565,4269.37L492.726,4269.49L492.889,4269.61L493.049,4269.73L493.211,4269.86L493.37,4269.98L493.529,4270.1L493.687,4270.23L493.844,4270.35L494.004,4270.48L494.161,4270.6L494.319,4270.73L494.475,4270.86L494.63,4270.99L494.785,4271.12L494.939,4271.25L495.095,4271.39L495.248,4271.52L495.401,4271.65L495.553,4271.79L495.707,4271.93L495.858,4272.06L496.009,4272.2L496.161,4272.34L496.311,4272.48L496.46,4272.62L496.608,4272.76L496.758,4272.9L496.905,4273.05L497.053,4273.19L497.201,4273.33L497.347,4273.48L497.534,4273.67L497.722,4273.86L497.907,4274.05L498.09,4274.24L498.274,4274.44L498.455,4274.63L498.634,4274.82L498.812,4275.02L498.988,4275.22L499.165,4275.42L499.339,4275.61L499.511,4275.81L499.681,4276.02L499.85,4276.22L500.018,4276.42L500.185,4276.62L500.351,4276.82L500.514,4277.03L500.675,4277.23L500.836,4277.44L500.996,4277.65L501.153,4277.85L501.309,4278.06L501.464,4278.27L501.618,4278.48L501.769,4278.69L501.919,4278.9L502.068,4279.12L502.216,4279.33L502.361,4279.54L502.505,4279.76L502.649,4279.97L502.79,4280.19L502.93,4280.4L503.069,4280.62L503.206,4280.84L503.341,4281.06L503.475,4281.28L503.608,4281.5L503.739,4281.72L503.869,4281.94L503.996,4282.16L504.123,4282.38L504.249,4282.61L504.373,4282.83L504.494,4283.05L504.615,4283.28L504.735,4283.51L504.852,4283.73L504.968,4283.96L505.083,4284.18L505.197,4284.41L505.309,4284.64L505.419,4284.87L505.527,4285.1L505.635,4285.33L505.741,4285.56L505.845,4285.79L505.948,4286.02L506.05,4286.25L506.15,4286.48L506.248,4286.72L506.345,4286.95L506.441,4287.18L506.535,4287.42L506.627,4287.65L506.719,4287.89L506.808,4288.12L506.896,4288.36L506.983,4288.6L507.068,4288.83L507.152,4289.07L507.234,4289.31L507.314,4289.54L507.394,4289.78L507.471,4290.02L507.548,4290.26L507.622,4290.5L507.696,4290.74L507.767,4290.98L507.838,4291.22L507.907,4291.46L507.974,4291.7L508.04,4291.94L508.104,4292.18L508.167,4292.43L508.229,4292.67L508.289,4292.91L508.347,4293.15L508.404,4293.4L508.46,4293.64L508.514,4293.89L508.566,4294.13L508.617,4294.37L508.667,4294.62L508.715,4294.86L508.761,4295.11L508.807,4295.35L508.85,4295.6L508.892,4295.84L508.933,4296.09L508.972,4296.34L509.01,4296.58L509.046,4296.83L509.081,4297.07L509.114,4297.32L509.146,4297.57L509.176,4297.81L509.205,4298.06L509.233,4298.31L509.258,4298.56L509.283,4298.8L509.306,4299.05L509.327,4299.3L509.347,4299.55L509.366,4299.79L509.383,4300.04L509.398,4300.29L509.412,4300.54L509.425,4300.79L509.436,4301.03L509.446,4301.28L509.454,4301.53L509.46,4301.78L509.466,4302.03L509.469,4302.27L509.471,4302.52L509.472,4302.77L509.471,4303.02L509.469,4303.27L509.466,4303.52L509.46,4303.77L509.454,4304.01L509.446,4304.26L509.436,4304.51L509.425,4304.76L509.412,4305.01L509.398,4305.25L509.383,4305.5L509.366,4305.75L509.347,4306L509.327,4306.25L509.306,4306.49L509.283,4306.74L509.258,4306.99L509.233,4307.24L509.205,4307.48L509.176,4307.73L509.146,4307.98L509.114,4308.22L509.081,4308.47L509.046,4308.72L509.01,4308.96L508.972,4309.21L508.933,4309.45L508.892,4309.7L508.85,4309.95L508.807,4310.19L508.761,4310.44L508.715,4310.68L508.667,4310.93L508.617,4311.17L508.566,4311.41L508.514,4311.66L508.46,4311.9L508.404,4312.15L508.347,4312.39L508.289,4312.63L508.229,4312.88L508.167,4313.12L508.104,4313.36L508.04,4313.6L507.974,4313.84L507.906,4314.08L507.838,4314.32L507.768,4314.56L507.696,4314.81L507.622,4315.04L507.548,4315.28L507.471,4315.52L507.394,4315.76L507.315,4316L507.234,4316.24L507.152,4316.48L507.068,4316.71L506.982,4316.95L506.896,4317.19L506.808,4317.42L506.718,4317.66L506.627,4317.89L506.535,4318.13L506.441,4318.36L506.345,4318.59L506.248,4318.83L506.15,4319.06L506.05,4319.29L505.948,4319.52L505.845,4319.76L505.741,4319.98L505.635,4320.22L505.528,4320.45L505.419,4320.68L505.308,4320.9L505.197,4321.13L505.083,4321.36L504.969,4321.59L504.852,4321.81L504.734,4322.04L504.615,4322.27L504.495,4322.49L504.372,4322.71L504.248,4322.94L504.124,4323.16L503.997,4323.38L503.868,4323.61L503.738,4323.83L503.608,4324.05L503.475,4324.27L503.341,4324.48L503.206,4324.7L503.068,4324.92L502.931,4325.14L502.79,4325.36L502.648,4325.57L502.506,4325.78L502.361,4326L502.215,4326.22L502.068,4326.43L501.92,4326.64L501.769,4326.85L501.617,4327.06L501.464,4327.27L501.309,4327.48L501.154,4327.69L500.996,4327.9L500.836,4328.1L500.677,4328.31L500.513,4328.52L500.35,4328.72L500.185,4328.92L500.019,4329.13L499.851,4329.33L499.681,4329.53L499.511,4329.73L499.337,4329.93L499.163,4330.13L498.99,4330.32L498.812,4330.52L498.634,4330.72L498.455,4330.91L498.274,4331.11L498.092,4331.3L497.906,4331.49L497.72,4331.69L497.536,4331.87L497.346,4332.07L497.156,4332.25L496.965,4332.44L496.774,4332.63L496.583,4332.81L496.389,4332.99L496.194,4333.17L496,4333.35L495.804,4333.53L495.606,4333.71L495.409,4333.88L495.21,4334.06L495.009,4334.23L494.809,4334.4L494.61,4334.57L494.409,4334.74L494.204,4334.9L494.001,4335.07L493.797,4335.23L493.59,4335.4L493.384,4335.56L493.179,4335.71L492.97,4335.87L492.762,4336.03L492.553,4336.18L492.341,4336.34L492.133,4336.49L491.92,4336.64L491.708,4336.79L491.495,4336.93L491.282,4337.08L491.068,4337.22L490.851,4337.37L490.638,4337.51L490.419,4337.65L490.203,4337.79L489.985,4337.92L489.765,4338.06L489.548,4338.19L489.329,4338.33L489.106,4338.46L488.886,4338.59L488.664,4338.72L488.44,4338.84L488.217,4338.97L487.996,4339.09L487.773,4339.21L487.546,4339.33L487.321,4339.45L487.095,4339.57L486.867,4339.69L486.64,4339.8L486.415,4339.91L486.185,4340.03L485.954,4340.14L485.728,4340.25L485.499,4340.35L485.269,4340.46L485.036,4340.57L484.805,4340.67L484.574,4340.77L484.342,4340.87L484.109,4340.97L483.874,4341.07L483.641,4341.16L483.407,4341.25L483.173,4341.35L482.938,4341.44L482.703,4341.53L482.468,4341.61L482.229,4341.7L481.993,4341.79L481.759,4341.87L481.519,4341.95L481.279,4342.03L481.041,4342.11L480.806,4342.19L480.567,4342.27L480.325,4342.34L480.083,4342.41L479.846,4342.49L479.606,4342.56L479.363,4342.63L479.122,4342.69L478.882,4342.76L478.64,4342.82L478.399,4342.89L478.157,4342.95L477.912,4343.01L477.669,4343.07L477.427,4343.12L477.184,4343.18L476.94,4343.23L476.697,4343.28L476.453,4343.34L476.206,4343.39L475.962,4343.43L475.718,4343.48L475.473,4343.52L475.228,4343.57L474.98,4343.61L474.735,4343.65L474.493,4343.69L474.244,4343.73L473.995,4343.77L473.752,4343.8L473.506,4343.83L473.257,4343.86L473.01,4343.9L472.764,4343.92L472.517,4343.95L472.27,4343.98L472.024,4344L471.777,4344.02L471.526,4344.05L471.279,4344.07L471.032,4344.09L470.781,4344.1L470.534,4344.12L470.289,4344.13L470.042,4344.14L469.791,4344.15L469.543,4344.16L469.295,4344.17L469.044,4344.18L468.796,4344.18L468.552,4344.19L468.304,4344.19L468.053,4344.19L467.802,4344.19L467.554,4344.19L467.31,4344.18L467.062,4344.18L466.811,4344.17L466.563,4344.16L466.315,4344.15L466.064,4344.14L465.817,4344.13L465.573,4344.12L465.325,4344.1L465.074,4344.09L464.827,4344.07L464.58,4344.05L464.33,4344.02L464.083,4344L463.836,4343.98L463.589,4343.95L463.342,4343.92L463.096,4343.9L462.849,4343.86L462.6,4343.83L462.354,4343.8L462.111,4343.77L461.862,4343.73L461.613,4343.69L461.371,4343.65L461.126,4343.61L460.878,4343.57L460.633,4343.52L460.388,4343.48L460.144,4343.43L459.9,4343.39L459.653,4343.34L459.409,4343.28L459.166,4343.23L458.922,4343.18L458.679,4343.12L458.437,4343.07L458.194,4343.01L457.949,4342.95L457.707,4342.89L457.466,4342.82L457.225,4342.76L456.983,4342.69L456.743,4342.63L456.5,4342.56L456.26,4342.49L456.023,4342.41L455.781,4342.34L455.539,4342.27L455.3,4342.19L455.065,4342.11L454.827,4342.03L454.587,4341.95L454.347,4341.87L454.113,4341.79L453.877,4341.7L453.638,4341.61L453.403,4341.53L453.168,4341.44L452.933,4341.35L452.699,4341.25L452.465,4341.16L452.232,4341.07L451.997,4340.97L451.764,4340.87L451.532,4340.77L451.301,4340.67L451.07,4340.57L450.837,4340.46L450.607,4340.35L450.378,4340.25L450.152,4340.14L449.921,4340.03L449.691,4339.91L449.466,4339.8L449.239,4339.69L449.011,4339.57L448.785,4339.45L448.56,4339.33L448.333,4339.21L448.11,4339.09L447.889,4338.97L447.666,4338.84L447.442,4338.72L447.221,4338.59L447,4338.46L446.777,4338.33L446.558,4338.19L446.341,4338.06L446.121,4337.92L445.903,4337.79L445.687,4337.65L445.468,4337.51L445.255,4337.37L445.038,4337.22L444.824,4337.08L444.611,4336.93L444.398,4336.79L444.186,4336.64L443.973,4336.49L443.765,4336.34L443.553,4336.18L443.344,4336.03L443.136,4335.87L442.927,4335.71L442.722,4335.56L442.516,4335.4L442.309,4335.23L442.105,4335.07L441.902,4334.9L441.697,4334.74L441.496,4334.57L441.297,4334.4L441.097,4334.23L440.895,4334.06L440.697,4333.88L440.5,4333.71L440.302,4333.53L440.106,4333.35L439.913,4333.17L439.717,4332.99L439.522,4332.81L439.332,4332.63L439.141,4332.44L438.95,4332.25L438.761,4332.07L438.613,4331.92L438.47,4331.77L438.327,4331.62L438.183,4331.48L438.041,4331.33L437.899,4331.18L437.759,4331.03L437.621,4330.88L437.481,4330.73L437.342,4330.58L437.207,4330.43L437.071,4330.27L436.935,4330.12L436.8,4329.97L436.667,4329.81L436.536,4329.66L436.403,4329.5L436.273,4329.35L436.144,4329.19L436.013,4329.04L435.886,4328.88L435.759,4328.72L435.631,4328.56L435.507,4328.41L435.381,4328.25L435.257,4328.09L435.136,4327.93L435.013,4327.77L434.892,4327.61L434.772,4327.45L434.651,4327.28L434.533,4327.12L434.416,4326.96L434.299,4326.8L434.183,4326.63L434.069,4326.47L433.955,4326.31L433.841,4326.14L433.728,4325.98L433.616,4325.81L433.507,4325.65L433.397,4325.48L433.289,4325.31L433.179,4325.14L433.072,4324.98L432.967,4324.81L432.862,4324.64L432.757,4324.47L432.653,4324.3L432.551,4324.13L432.45,4323.96L432.349,4323.79L432.247,4323.62L432.149,4323.45L432.05,4323.28L431.953,4323.11L431.857,4322.94L431.761,4322.76L431.666,4322.59L431.572,4322.42L431.48,4322.24L431.387,4322.07L431.296,4321.89L431.206,4321.72L431.116,4321.55L431.028,4321.37L430.94,4321.19L430.853,4321.02L430.768,4320.84L430.682,4320.66L430.599,4320.49L430.515,4320.31L430.432,4320.13L430.352,4319.96L430.271,4319.78L430.191,4319.6L430.112,4319.42L430.034,4319.24L429.957,4319.06L429.881,4318.88L429.805,4318.7L429.731,4318.52L429.658,4318.34L429.585,4318.16L429.513,4317.98L429.443,4317.8L429.372,4317.62L429.303,4317.44L429.235,4317.25L429.168,4317.07L429.101,4316.89L429.036,4316.7L428.971,4316.52L428.907,4316.34L428.844,4316.15L428.782,4315.97L428.721,4315.79L428.661,4315.6L428.601,4315.42L428.543,4315.23L428.486,4315.05L428.429,4314.86L428.373,4314.68L428.318,4314.49L428.264,4314.31L428.21,4314.12L428.158,4313.94L428.107,4313.75L428.056,4313.56L428.007,4313.38L427.958,4313.19L427.91,4313L427.863,4312.82L427.817,4312.63L427.771,4312.44L427.727,4312.25L427.684,4312.07L427.641,4311.88L427.599,4311.69L427.558,4311.5L427.519,4311.31L427.479,4311.12L427.441,4310.94L427.404,4310.75L427.367,4310.56L427.332,4310.37L427.297,4310.18L427.263,4309.99L427.231,4309.8L427.199,4309.61L427.167,4309.42L427.137,4309.23L427.108,4309.04L427.079,4308.85L427.052,4308.66L427.025,4308.47L426.999,4308.28L426.974,4308.09L426.95,4307.9L426.927,4307.71L426.905,4307.52L426.883,4307.33L426.863,4307.14L426.843,4306.94L426.824,4306.75L426.807,4306.56L426.79,4306.37L426.773,4306.18L426.758,4305.99L426.744,4305.8L426.73,4305.61L426.718,4305.41L426.706,4305.22L426.695,4305.03L426.685,4304.84L426.676,4304.65L426.668,4304.46L426.661,4304.27L426.654,4304.07L426.649,4303.88L426.644,4303.69L426.64,4303.5L426.637,4303.31L426.635,4303.11L426.634,4302.92L426.634,4302.73L426.635,4302.54L426.636,4302.35L426.638,4302.16L426.642,4301.97L426.646,4301.77L426.651,4301.58L426.657,4301.39L426.664,4301.2L426.671,4301.01L426.68,4300.81L426.689,4300.62L426.7,4300.43L426.711,4300.24L426.723,4300.05L426.736,4299.86L426.75,4299.66L426.765,4299.47L426.78,4299.28L426.797,4299.09L426.814,4298.9L426.832,4298.71L426.851,4298.52L426.871,4298.33L426.892,4298.14L426.914,4297.95L426.937,4297.76L426.96,4297.56L426.985,4297.38L427.01,4297.19L427.036,4296.99L427.063,4296.8L427.091,4296.61L427.12,4296.42L427.15,4296.23L427.181,4296.04L427.212,4295.85L427.244,4295.66L427.278,4295.47L427.312,4295.28L427.347,4295.1L427.383,4294.91L427.42,4294.72L427.457,4294.53L427.496,4294.34L427.535,4294.15L427.576,4293.96L427.617,4293.77L427.659,4293.59L427.702,4293.4L427.746,4293.21L427.791,4293.02L427.836,4292.84L427.882,4292.65L427.93,4292.46L427.978,4292.27L428.027,4292.09L428.077,4291.9L428.128,4291.72L428.18,4291.53L428.233,4291.34L428.286,4291.16L428.341,4290.97L428.396,4290.79L428.452,4290.6L428.509,4290.42L428.568,4290.23L428.627,4290.05L428.686,4289.86L428.747,4289.68L428.808,4289.49L428.871,4289.31L428.934,4289.13L428.999,4288.94L429.063,4288.76L429.129,4288.58L429.175,4288.45L325.819,4185.1L325.078,4185.84L324.669,4186.2L324.216,4186.49L323.726,4186.73L323.209,4186.89L322.675,4186.99L322.132,4187.01L290.029,4186.06L289.428,4186L288.843,4185.85L288.289,4185.61L287.776,4185.29L287.318,4184.89L266.947,4164.52L266.585,4164.11L266.283,4163.65L266.048,4163.15L265.884,4162.62L265.793,4162.08L262.485,4127.61L262.472,4127.02L262.545,4126.44L262.703,4125.88L262.941,4125.34L263.255,4124.84L263.639,4124.4L266.745,4121.29L267.176,4120.92L267.656,4120.61L268.175,4120.37L268.723,4120.21L269.288,4120.13L269.858,4120.13L270.423,4120.21L270.971,4120.37L271.49,4120.61L271.97,4120.92L272.402,4121.29L295.593,4144.48L307.746,4142.47L309.766,4130.31L286.575,4107.12L286.201,4106.69L285.893,4106.21L285.655,4105.69L285.495,4105.14L285.413,4104.58L285.413,4104.01L285.495,4103.44L285.656,4102.89L285.893,4102.38L286.201,4101.9L286.575,4101.46L289.681,4098.36L290.125,4097.97L290.621,4097.66L291.157,4097.42L291.722,4097.26L292.305,4097.19L292.891,4097.2ZM289.403,4104.29L314.049,4128.94L311.223,4145.94L294.219,4148.77L269.573,4124.12L266.467,4127.23L269.775,4161.69L290.146,4182.07L322.25,4183.01L325.819,4179.44L433.877,4287.5L433.806,4287.66L433.735,4287.82L433.665,4287.98L433.596,4288.15L433.528,4288.31L433.46,4288.47L433.394,4288.63L433.328,4288.8L433.263,4288.96L433.198,4289.12L433.135,4289.29L433.072,4289.45L433.01,4289.62L432.949,4289.78L432.888,4289.95L432.829,4290.11L432.77,4290.28L432.712,4290.44L432.655,4290.61L432.599,4290.77L432.543,4290.94L432.488,4291.11L432.434,4291.27L432.381,4291.44L432.329,4291.61L432.277,4291.77L432.226,4291.94L432.176,4292.11L432.127,4292.27L432.079,4292.44L432.031,4292.61L431.984,4292.78L431.938,4292.95L431.893,4293.12L431.849,4293.28L431.805,4293.45L431.762,4293.62L431.72,4293.79L431.679,4293.96L431.639,4294.13L431.599,4294.3L431.56,4294.47L431.522,4294.64L431.485,4294.81L431.449,4294.98L431.413,4295.15L431.378,4295.32L431.344,4295.49L431.311,4295.66L431.278,4295.83L431.247,4296L431.216,4296.18L431.186,4296.35L431.157,4296.52L431.128,4296.69L431.1,4296.86L431.074,4297.03L431.047,4297.2L431.022,4297.38L430.998,4297.55L430.974,4297.72L430.951,4297.89L430.929,4298.07L430.908,4298.24L430.887,4298.41L430.868,4298.58L430.849,4298.75L430.831,4298.93L430.813,4299.1L430.797,4299.27L430.781,4299.44L430.766,4299.62L430.752,4299.79L430.739,4299.96L430.726,4300.14L430.714,4300.31L430.703,4300.48L430.693,4300.66L430.684,4300.83L430.675,4301L430.668,4301.18L430.661,4301.35L430.655,4301.52L430.649,4301.69L430.645,4301.87L430.641,4302.04L430.638,4302.22L430.636,4302.39L430.634,4302.56L430.634,4302.73L430.634,4302.91L430.635,4303.08L430.637,4303.26L430.64,4303.43L430.643,4303.6L430.647,4303.77L430.652,4303.95L430.658,4304.12L430.665,4304.3L430.672,4304.47L430.68,4304.64L430.689,4304.82L430.699,4304.99L430.71,4305.16L430.721,4305.33L430.733,4305.51L430.746,4305.68L430.76,4305.85L430.775,4306.03L430.79,4306.2L430.806,4306.37L430.823,4306.54L430.841,4306.72L430.859,4306.89L430.879,4307.06L430.899,4307.23L430.92,4307.41L430.942,4307.58L430.964,4307.75L430.988,4307.92L431.012,4308.1L431.037,4308.27L431.062,4308.44L431.089,4308.61L431.116,4308.78L431.144,4308.95L431.173,4309.12L431.203,4309.3L431.234,4309.47L431.265,4309.64L431.297,4309.81L431.33,4309.98L431.364,4310.15L431.398,4310.32L431.433,4310.49L431.47,4310.66L431.506,4310.83L431.544,4311L431.583,4311.17L431.622,4311.34L431.662,4311.51L431.703,4311.68L431.745,4311.85L431.787,4312.02L431.83,4312.19L431.874,4312.36L431.919,4312.53L431.965,4312.69L432.011,4312.86L432.059,4313.03L432.107,4313.2L432.156,4313.37L432.205,4313.53L432.256,4313.7L432.307,4313.87L432.359,4314.03L432.412,4314.2L432.465,4314.37L432.52,4314.53L432.575,4314.7L432.631,4314.87L432.688,4315.03L432.746,4315.2L432.804,4315.36L432.863,4315.53L432.923,4315.69L432.984,4315.86L433.046,4316.02L433.108,4316.19L433.171,4316.35L433.235,4316.51L433.3,4316.68L433.366,4316.84L433.432,4317L433.499,4317.17L433.567,4317.33L433.636,4317.49L433.706,4317.65L433.776,4317.82L433.847,4317.98L433.919,4318.14L433.992,4318.3L434.065,4318.46L434.14,4318.62L434.215,4318.78L434.291,4318.94L434.368,4319.1L434.445,4319.26L434.523,4319.42L434.603,4319.57L434.683,4319.73L434.763,4319.89L434.845,4320.05L434.927,4320.21L435.01,4320.36L435.094,4320.52L435.179,4320.68L435.264,4320.83L435.351,4320.99L435.438,4321.14L435.526,4321.3L435.615,4321.45L435.704,4321.61L435.794,4321.76L435.885,4321.92L435.977,4322.07L436.07,4322.22L436.164,4322.38L436.258,4322.53L436.353,4322.68L436.449,4322.83L436.545,4322.98L436.643,4323.13L436.741,4323.28L436.84,4323.44L436.94,4323.59L437.041,4323.73L437.142,4323.88L437.245,4324.03L437.348,4324.18L437.451,4324.33L437.556,4324.48L437.662,4324.62L437.768,4324.77L437.875,4324.92L437.983,4325.06L438.091,4325.21L438.201,4325.35L438.311,4325.5L438.422,4325.64L438.534,4325.78L438.646,4325.93L438.76,4326.07L438.874,4326.21L438.989,4326.36L439.105,4326.5L439.222,4326.64L439.339,4326.78L439.457,4326.92L439.576,4327.06L439.696,4327.2L439.816,4327.34L439.938,4327.48L440.06,4327.62L440.183,4327.75L440.307,4327.89L440.431,4328.03L440.557,4328.16L440.683,4328.3L440.81,4328.44L440.938,4328.57L441.066,4328.7L441.196,4328.84L441.326,4328.97L441.457,4329.1L441.588,4329.24L441.76,4329.41L441.932,4329.58L442.106,4329.74L442.28,4329.91L442.455,4330.07L442.63,4330.24L442.807,4330.4L442.984,4330.56L443.162,4330.72L443.341,4330.88L443.52,4331.04L443.701,4331.19L443.882,4331.35L444.064,4331.5L444.246,4331.65L444.429,4331.8L444.614,4331.95L444.798,4332.1L444.984,4332.25L445.17,4332.39L445.357,4332.54L445.544,4332.68L445.733,4332.82L445.922,4332.96L446.111,4333.1L446.302,4333.23L446.493,4333.37L446.684,4333.51L446.877,4333.64L447.069,4333.77L447.263,4333.9L447.457,4334.03L447.652,4334.16L447.848,4334.28L448.044,4334.41L448.24,4334.53L448.438,4334.65L448.635,4334.77L448.834,4334.9L449.033,4335.01L449.233,4335.13L449.433,4335.25L449.633,4335.36L449.835,4335.47L450.037,4335.59L450.239,4335.69L450.442,4335.8L450.645,4335.91L450.849,4336.02L451.054,4336.12L451.259,4336.23L451.464,4336.33L451.67,4336.43L451.877,4336.53L452.084,4336.63L452.291,4336.73L452.499,4336.82L452.707,4336.91L452.916,4337.01L453.125,4337.1L453.335,4337.19L453.545,4337.28L453.756,4337.37L453.967,4337.45L454.178,4337.54L454.39,4337.62L454.602,4337.7L454.815,4337.78L455.028,4337.86L455.241,4337.94L455.455,4338.02L455.669,4338.09L455.884,4338.17L456.098,4338.24L456.314,4338.31L456.529,4338.38L456.745,4338.45L456.961,4338.52L457.178,4338.59L457.395,4338.65L457.612,4338.71L457.83,4338.78L458.047,4338.84L458.265,4338.9L458.484,4338.95L458.702,4339.01L458.921,4339.07L459.141,4339.12L459.36,4339.17L459.58,4339.23L459.8,4339.28L460.02,4339.32L460.24,4339.37L460.461,4339.42L460.682,4339.46L460.903,4339.51L461.124,4339.55L461.346,4339.59L461.568,4339.63L461.79,4339.67L462.012,4339.7L462.234,4339.74L462.456,4339.77L462.679,4339.81L462.902,4339.84L463.125,4339.87L463.348,4339.9L463.571,4339.92L463.794,4339.95L464.017,4339.97L464.241,4340L464.465,4340.02L464.688,4340.04L464.912,4340.06L465.136,4340.08L465.36,4340.1L465.584,4340.11L465.809,4340.12L466.033,4340.14L466.257,4340.15L466.482,4340.16L466.706,4340.17L466.93,4340.17L467.155,4340.18L467.379,4340.19L467.604,4340.19L467.828,4340.19L468.053,4340.19L468.278,4340.19L468.502,4340.19L468.727,4340.19L468.951,4340.18L469.176,4340.17L469.4,4340.17L469.624,4340.16L469.849,4340.15L470.073,4340.14L470.297,4340.12L470.522,4340.11L470.746,4340.1L470.97,4340.08L471.194,4340.06L471.418,4340.04L471.641,4340.02L471.865,4340L472.089,4339.97L472.312,4339.95L472.535,4339.92L472.758,4339.9L472.982,4339.87L473.204,4339.84L473.427,4339.81L473.65,4339.77L473.872,4339.74L474.094,4339.7L474.317,4339.67L474.538,4339.63L474.76,4339.59L474.982,4339.55L475.203,4339.51L475.424,4339.46L475.645,4339.42L475.866,4339.37L476.086,4339.32L476.306,4339.28L476.526,4339.23L476.746,4339.17L476.965,4339.12L477.185,4339.07L477.404,4339.01L477.622,4338.95L477.841,4338.9L478.059,4338.84L478.277,4338.78L478.494,4338.71L478.711,4338.65L478.928,4338.59L479.145,4338.52L479.361,4338.45L479.577,4338.38L479.792,4338.31L480.008,4338.24L480.222,4338.17L480.437,4338.09L480.651,4338.02L480.865,4337.94L481.078,4337.86L481.291,4337.78L481.504,4337.7L481.716,4337.62L481.928,4337.54L482.139,4337.45L482.35,4337.37L482.561,4337.28L482.771,4337.19L482.981,4337.1L483.19,4337.01L483.399,4336.91L483.607,4336.82L483.815,4336.73L484.023,4336.63L484.229,4336.53L484.436,4336.43L484.642,4336.33L484.847,4336.23L485.052,4336.12L485.257,4336.02L485.461,4335.91L485.664,4335.8L485.867,4335.69L486.07,4335.59L486.271,4335.47L486.473,4335.36L486.673,4335.25L486.874,4335.13L487.073,4335.01L487.272,4334.9L487.471,4334.77L487.668,4334.65L487.866,4334.53L488.062,4334.41L488.258,4334.28L488.454,4334.16L488.649,4334.03L488.843,4333.9L489.037,4333.77L489.229,4333.64L489.422,4333.51L489.613,4333.37L489.804,4333.23L489.995,4333.1L490.184,4332.96L490.373,4332.82L490.562,4332.68L490.749,4332.54L490.936,4332.39L491.122,4332.25L491.308,4332.1L491.493,4331.95L491.677,4331.8L491.86,4331.65L492.042,4331.5L492.224,4331.35L492.405,4331.19L492.586,4331.04L492.765,4330.88L492.944,4330.72L493.122,4330.56L493.299,4330.4L493.476,4330.24L493.651,4330.07L493.826,4329.91L494,4329.74L494.174,4329.58L494.346,4329.41L494.518,4329.24L494.688,4329.07L494.857,4328.89L495.025,4328.72L495.192,4328.55L495.357,4328.37L495.52,4328.19L495.683,4328.02L495.844,4327.84L496.004,4327.66L496.162,4327.48L496.319,4327.3L496.475,4327.12L496.63,4326.94L496.783,4326.76L496.935,4326.58L497.085,4326.4L497.234,4326.21L497.382,4326.03L497.528,4325.84L497.673,4325.65L497.817,4325.47L497.96,4325.28L498.101,4325.09L498.24,4324.9L498.379,4324.71L498.516,4324.52L498.652,4324.33L498.786,4324.14L498.919,4323.95L499.051,4323.76L499.181,4323.56L499.31,4323.37L499.438,4323.17L499.564,4322.98L499.689,4322.78L499.813,4322.59L499.935,4322.39L500.056,4322.19L500.176,4321.99L500.294,4321.79L500.411,4321.59L500.527,4321.39L500.641,4321.19L500.754,4320.99L500.866,4320.79L500.976,4320.59L501.085,4320.38L501.193,4320.18L501.299,4319.98L501.404,4319.77L501.508,4319.57L501.61,4319.36L501.711,4319.15L501.811,4318.95L501.909,4318.74L502.006,4318.53L502.102,4318.33L502.196,4318.12L502.289,4317.91L502.38,4317.7L502.471,4317.49L502.56,4317.28L502.647,4317.07L502.734,4316.86L502.818,4316.65L502.902,4316.44L502.984,4316.22L503.065,4316.01L503.145,4315.8L503.223,4315.58L503.3,4315.37L503.375,4315.16L503.45,4314.94L503.522,4314.73L503.594,4314.51L503.664,4314.3L503.733,4314.08L503.801,4313.86L503.867,4313.65L503.932,4313.43L503.995,4313.21L504.057,4312.99L504.118,4312.78L504.178,4312.56L504.236,4312.34L504.293,4312.12L504.348,4311.9L504.402,4311.68L504.455,4311.47L504.507,4311.24L504.557,4311.02L504.606,4310.81L504.653,4310.58L504.699,4310.36L504.744,4310.14L504.788,4309.92L504.83,4309.7L504.87,4309.48L504.91,4309.26L504.948,4309.03L504.985,4308.81L505.02,4308.59L505.054,4308.37L505.087,4308.15L505.118,4307.92L505.149,4307.7L505.177,4307.48L505.205,4307.25L505.231,4307.03L505.256,4306.81L505.279,4306.58L505.301,4306.36L505.322,4306.14L505.341,4305.91L505.359,4305.69L505.376,4305.47L505.391,4305.24L505.405,4305.02L505.418,4304.79L505.429,4304.57L505.439,4304.34L505.448,4304.12L505.455,4303.89L505.461,4303.67L505.466,4303.44L505.47,4303.22L505.472,4303L505.472,4302.77L505.472,4302.55L505.47,4302.32L505.466,4302.1L505.461,4301.87L505.455,4301.65L505.448,4301.43L505.439,4301.2L505.429,4300.98L505.418,4300.75L505.405,4300.53L505.391,4300.3L505.376,4300.08L505.359,4299.86L505.341,4299.63L505.322,4299.41L505.301,4299.18L505.279,4298.96L505.256,4298.74L505.231,4298.51L505.205,4298.29L505.177,4298.07L505.149,4297.84L505.118,4297.62L505.087,4297.4L505.054,4297.18L505.02,4296.95L504.985,4296.73L504.948,4296.51L504.91,4296.29L504.87,4296.07L504.83,4295.84L504.788,4295.62L504.744,4295.4L504.699,4295.18L504.653,4294.96L504.606,4294.74L504.557,4294.52L504.507,4294.3L504.455,4294.08L504.402,4293.86L504.348,4293.64L504.293,4293.42L504.236,4293.2L504.178,4292.98L504.118,4292.77L504.057,4292.55L503.995,4292.33L503.932,4292.11L503.867,4291.9L503.801,4291.68L503.733,4291.46L503.664,4291.25L503.594,4291.03L503.522,4290.82L503.45,4290.6L503.375,4290.39L503.3,4290.17L503.223,4289.96L503.145,4289.75L503.065,4289.53L502.984,4289.32L502.902,4289.11L502.818,4288.9L502.734,4288.69L502.647,4288.47L502.56,4288.26L502.471,4288.05L502.38,4287.84L502.289,4287.64L502.196,4287.43L502.102,4287.22L502.006,4287.01L501.909,4286.8L501.811,4286.6L501.711,4286.39L501.61,4286.18L501.508,4285.98L501.404,4285.77L501.299,4285.57L501.193,4285.36L501.085,4285.16L500.976,4284.96L500.866,4284.76L500.754,4284.55L500.641,4284.35L500.527,4284.15L500.411,4283.95L500.294,4283.75L500.176,4283.55L500.056,4283.35L499.935,4283.16L499.813,4282.96L499.689,4282.76L499.564,4282.57L499.438,4282.37L499.31,4282.18L499.181,4281.98L499.051,4281.79L498.919,4281.6L498.786,4281.4L498.652,4281.21L498.516,4281.02L498.379,4280.83L498.24,4280.64L498.101,4280.45L497.96,4280.26L497.817,4280.08L497.673,4279.89L497.528,4279.7L497.382,4279.52L497.234,4279.33L497.085,4279.15L496.935,4278.97L496.783,4278.78L496.63,4278.6L496.475,4278.42L496.319,4278.24L496.162,4278.06L496.004,4277.88L495.844,4277.7L495.683,4277.53L495.52,4277.35L495.357,4277.17L495.192,4277L495.025,4276.82L494.857,4276.65L494.688,4276.48L494.518,4276.31L494.385,4276.18L494.252,4276.05L494.119,4275.91L493.985,4275.78L493.851,4275.66L493.716,4275.53L493.58,4275.4L493.445,4275.28L493.308,4275.15L493.172,4275.03L493.034,4274.9L492.897,4274.78L492.759,4274.66L492.62,4274.53L492.481,4274.41L492.342,4274.3L492.202,4274.18L492.061,4274.06L491.92,4273.94L491.779,4273.82L491.637,4273.71L491.495,4273.59L491.353,4273.48L491.21,4273.36L491.066,4273.25L490.922,4273.14L490.778,4273.03L490.633,4272.92L490.488,4272.81L490.343,4272.7L490.197,4272.59L490.051,4272.49L489.904,4272.38L489.757,4272.27L489.609,4272.17L489.461,4272.07L489.313,4271.96L489.164,4271.86L489.015,4271.76L488.866,4271.66L488.716,4271.56L488.566,4271.46L488.415,4271.36L488.264,4271.26L488.113,4271.17L487.961,4271.07L487.809,4270.98L487.657,4270.88L487.504,4270.79L487.351,4270.7L487.198,4270.6L487.044,4270.51L486.89,4270.42L486.735,4270.33L486.58,4270.24L486.425,4270.16L486.27,4270.07L486.114,4269.98L485.958,4269.9L485.802,4269.81L485.645,4269.73L485.488,4269.65L485.33,4269.56L485.173,4269.48L485.015,4269.4L484.856,4269.32L484.698,4269.24L484.539,4269.16L484.38,4269.09L484.22,4269.01L484.061,4268.93L483.901,4268.86L483.74,4268.78L483.58,4268.71L483.419,4268.64L483.258,4268.57L483.096,4268.49L482.935,4268.42L482.773,4268.36L482.61,4268.29L482.448,4268.22L482.285,4268.15L482.122,4268.08L481.959,4268.02L481.796,4267.95L481.632,4267.89L481.468,4267.83L481.304,4267.76L481.139,4267.7L480.975,4267.64L480.81,4267.58L480.645,4267.52L480.479,4267.46L480.314,4267.41L480.148,4267.35L479.982,4267.29L479.816,4267.24L479.65,4267.18L479.483,4267.13L479.316,4267.08L479.149,4267.03L478.982,4266.97L478.815,4266.92L478.647,4266.87L478.48,4266.82L478.312,4266.78L478.144,4266.73L477.975,4266.68L477.807,4266.64L477.638,4266.59L477.469,4266.55L477.3,4266.51L477.131,4266.46L476.962,4266.42L476.793,4266.38L476.623,4266.34L476.453,4266.3L476.284,4266.26L476.114,4266.23L475.943,4266.19L475.773,4266.15L475.603,4266.12L475.432,4266.08L475.261,4266.05L475.091,4266.02L474.92,4265.98L474.749,4265.95L474.577,4265.92L474.406,4265.89L474.235,4265.86L474.063,4265.84L473.892,4265.81L473.72,4265.78L473.548,4265.76L473.376,4265.73L473.204,4265.71L473.032,4265.68L472.86,4265.66L472.688,4265.64L472.515,4265.62L472.343,4265.6L472.171,4265.58L471.998,4265.56L471.825,4265.54L471.653,4265.52L471.48,4265.51L471.307,4265.49L471.134,4265.48L470.961,4265.47L470.788,4265.45L470.615,4265.44L470.442,4265.43L470.269,4265.42L470.096,4265.41L469.923,4265.4L469.75,4265.39L469.577,4265.38L469.403,4265.38L469.23,4265.37L469.057,4265.37L468.883,4265.36L468.71,4265.36L468.537,4265.36L468.363,4265.35L468.19,4265.35L468.017,4265.35L467.843,4265.35L467.67,4265.36L467.496,4265.36L467.323,4265.36L467.15,4265.36L466.976,4265.37L466.803,4265.37L466.63,4265.38L466.457,4265.39L466.283,4265.39L466.11,4265.4L465.937,4265.41L465.764,4265.42L465.591,4265.43L465.418,4265.44L465.245,4265.46L465.072,4265.47L464.899,4265.48L464.726,4265.5L464.553,4265.52L464.381,4265.53L464.208,4265.55L464.035,4265.57L463.863,4265.59L463.69,4265.61L463.518,4265.63L463.346,4265.65L463.174,4265.67L463.001,4265.69L462.829,4265.72L462.657,4265.74L462.486,4265.77L462.314,4265.79L462.142,4265.82L461.971,4265.85L461.799,4265.88L461.628,4265.9L461.457,4265.94L461.285,4265.97L461.114,4266L460.944,4266.03L460.773,4266.06L460.602,4266.1L460.432,4266.13L460.261,4266.17L460.091,4266.2L459.921,4266.24L459.751,4266.28L459.581,4266.32L459.412,4266.36L459.242,4266.4L459.073,4266.44L458.904,4266.48L458.734,4266.52L458.566,4266.57L458.397,4266.61L458.228,4266.66L458.06,4266.7L457.892,4266.75L457.724,4266.8L457.556,4266.85L457.388,4266.9L457.221,4266.94L457.054,4267L456.886,4267.05L456.72,4267.1L456.553,4267.15L456.386,4267.21L456.22,4267.26L456.054,4267.32L455.888,4267.37L455.722,4267.43L455.557,4267.49L455.392,4267.55L455.227,4267.61L455.062,4267.67L454.898,4267.73L454.733,4267.79L454.569,4267.85L454.405,4267.92L454.242,4267.98L454.078,4268.05L453.915,4268.11L453.752,4268.18L453.59,4268.25L453.427,4268.32L453.265,4268.38L453.103,4268.45L452.942,4268.52L452.781,4268.6L344.723,4160.54L348.292,4156.97L347.347,4124.86L326.976,4104.49L292.509,4101.19L289.403,4104.29ZM480.964,4299.31L477.505,4312.22L464.593,4315.68L455.142,4306.23L458.601,4293.32L471.513,4289.86L480.964,4299.31ZM461.867,4296.59L459.603,4305.04L465.789,4311.22L474.239,4308.96L476.503,4300.51L470.317,4294.32L461.867,4296.59Z" style="fill:white;"/>
            </g>
            <g transform="matrix(0.240969,0.240969,-0.28113,0.28113,384.126,449.101)">
                <rect x="2896" y="2255" width="33" height="99" style="fill:rgb(24,27,28);"/>
                <path d="M2887.53,2247.3L2888.07,2246.89L2888.63,2246.51L2889.22,2246.16L2889.83,2245.84L2890.46,2245.54L2891.11,2245.28L2891.78,2245.06L2892.46,2244.86L2893.15,2244.7L2893.86,2244.58L2894.57,2244.49L2895.28,2244.44L2896,2244.42L2929,2244.42L2929.72,2244.44L2930.43,2244.49L2931.14,2244.58L2931.85,2244.7L2932.54,2244.86L2933.22,2245.06L2933.89,2245.28L2934.54,2245.55L2935.17,2245.84L2935.78,2246.16L2936.37,2246.51L2936.93,2246.89L2937.47,2247.3L2937.98,2247.74L2938.46,2248.2L2938.9,2248.68L2939.31,2249.19L2939.69,2249.71L2940.03,2250.25L2940.34,2250.81L2940.6,2251.38L2940.83,2251.97L2941.01,2252.56L2941.16,2253.16L2941.26,2253.77L2941.32,2254.39L2941.34,2255L2941.34,2354L2941.32,2354.62L2941.26,2355.23L2941.16,2355.84L2941.01,2356.44L2940.83,2357.03L2940.6,2357.62L2940.33,2358.19L2940.03,2358.75L2939.69,2359.29L2939.31,2359.81L2938.9,2360.32L2938.46,2360.8L2937.98,2361.26L2937.47,2361.7L2936.93,2362.11L2936.37,2362.49L2935.78,2362.84L2935.17,2363.16L2934.54,2363.45L2933.89,2363.72L2933.22,2363.94L2932.54,2364.14L2931.85,2364.3L2931.14,2364.42L2930.43,2364.51L2929.72,2364.56L2929,2364.58L2896,2364.58L2895.28,2364.56L2894.57,2364.51L2893.86,2364.42L2893.15,2364.3L2892.46,2364.14L2891.78,2363.94L2891.11,2363.72L2890.46,2363.45L2889.83,2363.16L2889.22,2362.84L2888.63,2362.49L2888.07,2362.11L2887.53,2361.7L2887.02,2361.26L2886.54,2360.8L2886.1,2360.32L2885.69,2359.81L2885.31,2359.29L2884.97,2358.75L2884.66,2358.19L2884.4,2357.62L2884.17,2357.03L2883.99,2356.44L2883.84,2355.84L2883.74,2355.23L2883.68,2354.62L2883.66,2354L2883.66,2255L2883.68,2254.39L2883.74,2253.77L2883.84,2253.16L2883.99,2252.56L2884.17,2251.97L2884.4,2251.38L2884.66,2250.81L2884.97,2250.25L2885.31,2249.71L2885.69,2249.19L2886.1,2248.68L2886.54,2248.2L2887.02,2247.74L2887.53,2247.3ZM2896,2354L2929,2354L2929,2255L2896,2255L2896,2354Z" style="fill:white;"/>
            </g>
            <g transform="matrix(0.240969,0.240969,-0.28113,0.28113,384.126,449.101)">
                <rect x="2896" y="2255" width="33" height="99" style="fill:rgb(133,197,204);"/>
                <path d="M2929,2255L2929,2354L2896,2354L2896,2255L2929,2255ZM2908.34,2343.42L2916.66,2343.42L2916.66,2265.58L2908.34,2265.58L2908.34,2343.42Z" style="fill:rgb(24,27,28);"/>
            </g>
            <g transform="matrix(0.462323,0.462323,-0.540561,0.540561,356.022,-779.998)">
                <rect x="2789" y="2355" width="43" height="153" style="fill:rgb(24,27,28);"/>
                <path d="M2784.92,2350.75L2785.43,2350.43L2785.97,2350.15L2786.54,2349.92L2787.13,2349.73L2787.74,2349.6L2788.37,2349.52L2789,2349.5L2832,2349.5L2832.63,2349.52L2833.26,2349.6L2833.87,2349.73L2834.46,2349.92L2835.03,2350.15L2835.57,2350.43L2836.08,2350.75L2836.55,2351.11L2836.97,2351.51L2837.35,2351.94L2837.67,2352.41L2837.94,2352.89L2838.16,2353.4L2838.31,2353.93L2838.4,2354.46L2838.43,2355L2838.43,2508L2838.4,2508.54L2838.31,2509.07L2838.16,2509.6L2837.94,2510.11L2837.67,2510.59L2837.35,2511.06L2836.97,2511.49L2836.55,2511.89L2836.08,2512.25L2835.58,2512.58L2835.03,2512.85L2834.46,2513.08L2833.87,2513.27L2833.26,2513.4L2832.63,2513.48L2832,2513.5L2789,2513.5L2788.37,2513.48L2787.74,2513.4L2787.13,2513.27L2786.54,2513.08L2785.97,2512.85L2785.43,2512.58L2784.92,2512.25L2784.45,2511.89L2784.03,2511.49L2783.65,2511.06L2783.33,2510.59L2783.06,2510.11L2782.84,2509.6L2782.69,2509.07L2782.6,2508.54L2782.57,2508L2782.57,2355L2782.6,2354.46L2782.69,2353.93L2782.84,2353.4L2783.06,2352.89L2783.33,2352.41L2783.65,2351.94L2784.03,2351.51L2784.45,2351.11L2784.92,2350.75ZM2789,2508L2832,2508L2832,2355L2789,2355L2789,2508Z" style="fill:white;"/>
            </g>
            <g transform="matrix(1.05167,0,0,1.05167,-90.65,-2582.33)">
                <path d="M291.986,4287.33L354.354,4224.96L384.599,4255.21L322.231,4317.57L324.121,4319.46L312.779,4330.81L278.754,4296.78L290.096,4285.44L291.986,4287.33Z" style="fill:rgb(24,27,28);"/>
                <path d="M354.746,4220.98L355.134,4221.04L355.515,4221.13L355.885,4221.27L356.239,4221.43L356.576,4221.64L356.891,4221.87L357.182,4222.13L387.427,4252.38L387.691,4252.67L387.925,4252.98L388.127,4253.32L388.295,4253.68L388.427,4254.04L388.522,4254.43L388.58,4254.81L388.599,4255.21L388.58,4255.6L388.522,4255.99L388.427,4256.37L388.295,4256.74L388.127,4257.09L387.925,4257.43L387.691,4257.74L387.427,4258.03L327.724,4317.74L327.817,4317.93L327.949,4318.3L328.045,4318.68L328.102,4319.07L328.121,4319.46L328.102,4319.86L328.045,4320.24L327.949,4320.62L327.817,4320.99L327.649,4321.35L327.447,4321.69L327.213,4322L326.95,4322.29L315.608,4333.63L315.317,4333.9L315.002,4334.13L314.665,4334.33L314.31,4334.5L313.941,4334.63L313.56,4334.73L313.172,4334.79L312.779,4334.81L312.387,4334.79L311.999,4334.73L311.618,4334.63L311.249,4334.5L310.894,4334.33L310.557,4334.13L310.242,4333.9L309.951,4333.63L275.925,4299.61L275.662,4299.32L275.428,4299L275.226,4298.67L275.058,4298.31L274.926,4297.94L274.83,4297.56L274.773,4297.17L274.754,4296.78L274.773,4296.39L274.83,4296L274.926,4295.62L275.058,4295.25L275.226,4294.89L275.428,4294.56L275.662,4294.24L275.925,4293.95L287.267,4282.61L287.558,4282.35L287.873,4282.11L288.21,4281.91L288.565,4281.74L288.934,4281.61L289.315,4281.52L289.704,4281.46L290.096,4281.44L290.488,4281.46L290.876,4281.52L291.257,4281.61L291.626,4281.74L291.822,4281.84L351.525,4222.13L351.816,4221.87L352.132,4221.64L352.468,4221.43L352.823,4221.27L353.193,4221.13L353.573,4221.04L353.962,4220.98L354.354,4220.96L354.746,4220.98ZM291.986,4287.33L290.096,4285.44L278.754,4296.78L312.779,4330.81L324.121,4319.46L322.231,4317.57L384.599,4255.21L354.354,4224.96L291.986,4287.33Z" style="fill:white;"/>
            </g>
            <g transform="matrix(1.05167,0,0,1.05167,-90.65,-2582.33)">
                <path d="M291.986,4287.33L354.354,4224.96L384.599,4255.21L322.231,4317.57L324.121,4319.46L312.779,4330.81L278.754,4296.78L290.096,4285.44L291.986,4287.33Z" style="fill:rgb(133,197,204);"/>
                <path d="M384.599,4255.21L322.231,4317.57L324.121,4319.46L312.779,4330.81L278.754,4296.78L290.096,4285.44L291.986,4287.33L354.354,4224.96L384.599,4255.21ZM294.814,4290.16L294.523,4290.42L294.208,4290.65L293.871,4290.86L293.517,4291.02L293.147,4291.16L292.766,4291.25L292.378,4291.31L291.986,4291.33L291.594,4291.31L291.206,4291.25L290.825,4291.16L290.455,4291.02L290.259,4290.93L284.41,4296.78L312.779,4325.15L318.628,4319.3L318.536,4319.1L318.403,4318.73L318.308,4318.35L318.25,4317.97L318.231,4317.57L318.25,4317.18L318.308,4316.79L318.403,4316.41L318.536,4316.04L318.703,4315.69L318.905,4315.35L319.139,4315.04L319.403,4314.74L378.942,4255.21L354.354,4230.62L294.814,4290.16Z" style="fill:rgb(24,27,28);"/>
            </g>
        </g>
    </g>
</svg>
