<?xml version="1.0" encoding="UTF-8" standalone="no"?>
<!DOCTYPE svg PUBLIC "-//W3C//DTD SVG 1.1//EN" "http://www.w3.org/Graphics/SVG/1.1/DTD/svg11.dtd">
<svg width="100%" height="100%" viewBox="0 0 1121 1755" version="1.1" xmlns="http://www.w3.org/2000/svg" xmlns:xlink="http://www.w3.org/1999/xlink" xml:space="preserve" xmlns:serif="http://www.serif.com/" style="fill-rule:evenodd;clip-rule:evenodd;stroke-linejoin:round;stroke-miterlimit:2;">
    <g transform="matrix(1,0,0,1,0,-119)">
        <g id="reach-out" serif:id="reach out" transform="matrix(0.67166,0,0,0.787349,0.67166,123.724)">
            <rect x="-1" y="-6" width="1669" height="2229" style="fill:none;"/>
            <clipPath id="_clip1">
                <rect x="-1" y="-6" width="1669" height="2229"/>
            </clipPath>
            <g clip-path="url(#_clip1)">
                <g transform="matrix(1.48885,0,0,1.27009,-676.938,-108.877)">
                    <path d="M444,1948C443.125,1941.06 1009.91,1502.78 947,1176C919.755,1034.47 804.639,876.971 757,754C707.815,627.036 707.265,399.013 819,261C912.542,145.459 1047.92,117.12 1100,155L964,441L1085,863L1203,1133L1108,1798L922,2037L884,2075L444,1948Z" style="fill:rgb(58,131,140);"/>
                </g>
                <g transform="matrix(1.48885,0,0,1.27009,-673.96,-108.877)">
                    <path d="M648,2046C651.904,2050.62 843.89,1853.32 999,1603C1126.24,1397.65 1155.66,1213.39 1079.61,1085.73C1045.69,1028.8 1019.17,984.019 976.794,930.223C910.839,846.485 832.105,745.161 824.737,575.006C824.301,564.927 824.052,554.595 824,544C823.881,519.667 825.142,496.47 827.592,474.401C847.733,292.991 948.234,187.857 1023,155C1060.47,138.532 1096.58,143.999 1113,172C1133.47,206.917 1094.89,251.83 1073,288C1034.21,352.106 1002.31,479.007 1053,570C1195.95,826.596 1373.32,894.966 1450,1179C1570.95,1627.04 1378.83,1941.43 1198,2111L648,2046Z" style="fill:rgb(74,166,178);"/>
                </g>
                <g>
                    <g transform="matrix(1.98513,0,0,1.69345,-1197.54,-236.309)">
                        <circle cx="1022" cy="262" r="30" style="fill:rgb(173,221,226);"/>
                    </g>
                    <g transform="matrix(1.98513,0,0,1.69345,-1197.54,-236.309)">
                        <path d="M1022.21,229.751C1036.98,229.891 1050.86,241.242 1053.67,255.9C1055.67,266.327 1052.14,277.639 1044.53,285.072C1035.63,293.763 1021.5,296.64 1009.81,291.864C999.49,287.643 991.708,277.738 990.092,266.706C988.096,253.088 995.866,238.61 1008.38,232.766C1012.69,230.748 1017.51,229.736 1022.21,229.751ZM1021.82,234.251C1009.18,234.371 997.365,243.956 994.814,256.409C992.957,265.475 995.993,275.381 1002.62,281.852C1010.27,289.323 1022.38,291.828 1032.48,287.699C1044.18,282.916 1051.6,269.399 1049.29,256.918C1047,244.555 1035.52,234.544 1022.54,234.255C1022.3,234.251 1022.06,234.25 1021.82,234.251Z" style="fill:rgb(58,131,140);"/>
                    </g>
                    <g transform="matrix(0.694796,0,0,0.592707,121.185,52.0852)">
                        <circle cx="1022" cy="262" r="30" style="fill:rgb(47,108,116);"/>
                    </g>
                    <g transform="matrix(0.694796,0,0,0.592707,121.185,52.0852)">
                        <path d="M1022.47,225.574C1043.06,225.965 1061.02,246.093 1058.08,267.085C1055.67,284.255 1039.44,298.429 1022,298.429C997.903,298.429 977.506,269.658 989.364,245.81C995.278,233.915 1007.94,225.832 1021.53,225.574C1022,225.571 1022,225.571 1022.47,225.574ZM1021.69,238.431C1006.05,238.728 993.513,257.195 1000.75,272.21C1007.14,285.464 1027.23,289.573 1038.26,279.059C1045.67,271.99 1047.67,259.861 1042.73,250.775C1038.61,243.196 1030.97,238.372 1021.69,238.431Z" style="fill:white;"/>
                    </g>
                </g>
                <g transform="matrix(1.3,0,0,1.3,-352.111,100.359)">
                    <g transform="matrix(1.98513,0,0,1.69345,-1197.54,-236.309)">
                        <circle cx="1022" cy="262" r="30" style="fill:rgb(173,221,226);"/>
                    </g>
                    <g transform="matrix(1.98513,0,0,1.69345,-1197.54,-236.309)">
                        <path d="M1022.21,229.751C1036.98,229.891 1050.86,241.242 1053.67,255.9C1055.67,266.327 1052.14,277.639 1044.53,285.072C1035.63,293.763 1021.5,296.64 1009.81,291.864C999.49,287.643 991.708,277.738 990.092,266.706C988.096,253.088 995.866,238.61 1008.38,232.766C1012.69,230.748 1017.51,229.736 1022.21,229.751ZM1021.82,234.251C1009.18,234.371 997.365,243.956 994.814,256.409C992.957,265.475 995.993,275.381 1002.62,281.852C1010.27,289.323 1022.38,291.828 1032.48,287.699C1044.18,282.916 1051.6,269.399 1049.29,256.918C1047,244.555 1035.52,234.544 1022.54,234.255C1022.3,234.251 1022.06,234.25 1021.82,234.251Z" style="fill:rgb(58,131,140);"/>
                    </g>
                    <g transform="matrix(0.694796,0,0,0.592707,121.185,52.0852)">
                        <circle cx="1022" cy="262" r="30" style="fill:rgb(47,108,116);"/>
                    </g>
                    <g transform="matrix(0.694796,0,0,0.592707,121.185,52.0852)">
                        <path d="M1022.47,225.574C1043.06,225.965 1061.02,246.093 1058.08,267.085C1055.67,284.255 1039.44,298.429 1022,298.429C997.903,298.429 977.506,269.658 989.364,245.81C995.278,233.915 1007.94,225.832 1021.53,225.574C1022,225.571 1022,225.571 1022.47,225.574ZM1021.69,238.431C1006.05,238.728 993.513,257.195 1000.75,272.21C1007.14,285.464 1027.23,289.573 1038.26,279.059C1045.67,271.99 1047.67,259.861 1042.73,250.775C1038.61,243.196 1030.97,238.372 1021.69,238.431Z" style="fill:white;"/>
                    </g>
                </g>
                <g transform="matrix(1.7,0,0,1.7,-703.972,243.603)">
                    <g transform="matrix(1.98513,0,0,1.69345,-1197.54,-236.309)">
                        <circle cx="1022" cy="262" r="30" style="fill:rgb(173,221,226);"/>
                    </g>
                    <g transform="matrix(1.98513,0,0,1.69345,-1197.54,-236.309)">
                        <path d="M1022.21,229.751C1036.98,229.891 1050.86,241.242 1053.67,255.9C1055.67,266.327 1052.14,277.639 1044.53,285.072C1035.63,293.763 1021.5,296.64 1009.81,291.864C999.49,287.643 991.708,277.738 990.092,266.706C988.096,253.088 995.866,238.61 1008.38,232.766C1012.69,230.748 1017.51,229.736 1022.21,229.751ZM1021.82,234.251C1009.18,234.371 997.365,243.956 994.814,256.409C992.957,265.475 995.993,275.381 1002.62,281.852C1010.27,289.323 1022.38,291.828 1032.48,287.699C1044.18,282.916 1051.6,269.399 1049.29,256.918C1047,244.555 1035.52,234.544 1022.54,234.255C1022.3,234.251 1022.06,234.25 1021.82,234.251Z" style="fill:rgb(58,131,140);"/>
                    </g>
                    <g transform="matrix(0.694796,0,0,0.592707,121.185,52.0852)">
                        <circle cx="1022" cy="262" r="30" style="fill:rgb(47,108,116);"/>
                    </g>
                    <g transform="matrix(0.694796,0,0,0.592707,121.185,52.0852)">
                        <path d="M1022.47,225.574C1043.06,225.965 1061.02,246.093 1058.08,267.085C1055.67,284.255 1039.44,298.429 1022,298.429C997.903,298.429 977.506,269.658 989.364,245.81C995.278,233.915 1007.94,225.832 1021.53,225.574C1022,225.571 1022,225.571 1022.47,225.574ZM1021.69,238.431C1006.05,238.728 993.513,257.195 1000.75,272.21C1007.14,285.464 1027.23,289.573 1038.26,279.059C1045.67,271.99 1047.67,259.861 1042.73,250.775C1038.61,243.196 1030.97,238.372 1021.69,238.431Z" style="fill:white;"/>
                    </g>
                </g>
                <g transform="matrix(3.35181,0,0,3.35361,-1752.22,1497.16)">
                    <g transform="matrix(1.98513,0,0,1.69345,-1197.54,-236.309)">
                        <circle cx="1022" cy="262" r="30" style="fill:rgb(173,221,226);"/>
                    </g>
                    <g transform="matrix(1.98513,0,0,1.69345,-1197.54,-236.309)">
                        <path d="M1022.21,229.751C1036.98,229.891 1050.86,241.242 1053.67,255.9C1055.67,266.327 1052.14,277.639 1044.53,285.072C1035.63,293.763 1021.5,296.64 1009.81,291.864C999.49,287.643 991.708,277.738 990.092,266.706C988.096,253.088 995.866,238.61 1008.38,232.766C1012.69,230.748 1017.51,229.736 1022.21,229.751ZM1021.82,234.251C1009.18,234.371 997.365,243.956 994.814,256.409C992.957,265.475 995.993,275.381 1002.62,281.852C1010.27,289.323 1022.38,291.828 1032.48,287.699C1044.18,282.916 1051.6,269.399 1049.29,256.918C1047,244.555 1035.52,234.544 1022.54,234.255C1022.3,234.251 1022.06,234.25 1021.82,234.251Z" style="fill:rgb(58,131,140);"/>
                    </g>
                    <g transform="matrix(0.694796,0,0,0.592707,121.185,52.0852)">
                        <circle cx="1022" cy="262" r="30" style="fill:rgb(47,108,116);"/>
                    </g>
                    <g transform="matrix(0.694796,0,0,0.592707,121.185,52.0852)">
                        <path d="M1022.47,225.574C1043.06,225.965 1061.02,246.093 1058.08,267.085C1055.67,284.255 1039.44,298.429 1022,298.429C997.903,298.429 977.506,269.658 989.364,245.81C995.278,233.915 1007.94,225.832 1021.53,225.574C1022,225.571 1022,225.571 1022.47,225.574ZM1021.69,238.431C1006.05,238.728 993.513,257.195 1000.75,272.21C1007.14,285.464 1027.23,289.573 1038.26,279.059C1045.67,271.99 1047.67,259.861 1042.73,250.775C1038.61,243.196 1030.97,238.372 1021.69,238.431Z" style="fill:white;"/>
                    </g>
                </g>
                <g transform="matrix(2.92119,0,0,2.92277,-1204.44,1204.81)">
                    <g transform="matrix(1.98513,0,0,1.69345,-1197.54,-236.309)">
                        <circle cx="1022" cy="262" r="30" style="fill:rgb(173,221,226);"/>
                    </g>
                    <g transform="matrix(1.98513,0,0,1.69345,-1197.54,-236.309)">
                        <path d="M1022.21,229.751C1036.98,229.891 1050.86,241.242 1053.67,255.9C1055.67,266.327 1052.14,277.639 1044.53,285.072C1035.63,293.763 1021.5,296.64 1009.81,291.864C999.49,287.643 991.708,277.738 990.092,266.706C988.096,253.088 995.866,238.61 1008.38,232.766C1012.69,230.748 1017.51,229.736 1022.21,229.751ZM1021.82,234.251C1009.18,234.371 997.365,243.956 994.814,256.409C992.957,265.475 995.993,275.381 1002.62,281.852C1010.27,289.323 1022.38,291.828 1032.48,287.699C1044.18,282.916 1051.6,269.399 1049.29,256.918C1047,244.555 1035.52,234.544 1022.54,234.255C1022.3,234.251 1022.06,234.25 1021.82,234.251Z" style="fill:rgb(58,131,140);"/>
                    </g>
                    <g transform="matrix(0.694796,0,0,0.592707,121.185,52.0852)">
                        <circle cx="1022" cy="262" r="30" style="fill:rgb(47,108,116);"/>
                    </g>
                    <g transform="matrix(0.694796,0,0,0.592707,121.185,52.0852)">
                        <path d="M1022.47,225.574C1043.06,225.965 1061.02,246.093 1058.08,267.085C1055.67,284.255 1039.44,298.429 1022,298.429C997.903,298.429 977.506,269.658 989.364,245.81C995.278,233.915 1007.94,225.832 1021.53,225.574C1022,225.571 1022,225.571 1022.47,225.574ZM1021.69,238.431C1006.05,238.728 993.513,257.195 1000.75,272.21C1007.14,285.464 1027.23,289.573 1038.26,279.059C1045.67,271.99 1047.67,259.861 1042.73,250.775C1038.61,243.196 1030.97,238.372 1021.69,238.431Z" style="fill:white;"/>
                    </g>
                </g>
                <g transform="matrix(2.65351,0,0,2.65494,-975.222,815.163)">
                    <g transform="matrix(1.98513,0,0,1.69345,-1197.54,-236.309)">
                        <circle cx="1022" cy="262" r="30" style="fill:rgb(173,221,226);"/>
                    </g>
                    <g transform="matrix(1.98513,0,0,1.69345,-1197.54,-236.309)">
                        <path d="M1022.21,229.751C1036.98,229.891 1050.86,241.242 1053.67,255.9C1055.67,266.327 1052.14,277.639 1044.53,285.072C1035.63,293.763 1021.5,296.64 1009.81,291.864C999.49,287.643 991.708,277.738 990.092,266.706C988.096,253.088 995.866,238.61 1008.38,232.766C1012.69,230.748 1017.51,229.736 1022.21,229.751ZM1021.82,234.251C1009.18,234.371 997.365,243.956 994.814,256.409C992.957,265.475 995.993,275.381 1002.62,281.852C1010.27,289.323 1022.38,291.828 1032.48,287.699C1044.18,282.916 1051.6,269.399 1049.29,256.918C1047,244.555 1035.52,234.544 1022.54,234.255C1022.3,234.251 1022.06,234.25 1021.82,234.251Z" style="fill:rgb(58,131,140);"/>
                    </g>
                    <g transform="matrix(0.694796,0,0,0.592707,121.185,52.0852)">
                        <circle cx="1022" cy="262" r="30" style="fill:rgb(47,108,116);"/>
                    </g>
                    <g transform="matrix(0.694796,0,0,0.592707,121.185,52.0852)">
                        <path d="M1022.47,225.574C1043.06,225.965 1061.02,246.093 1058.08,267.085C1055.67,284.255 1039.44,298.429 1022,298.429C997.903,298.429 977.506,269.658 989.364,245.81C995.278,233.915 1007.94,225.832 1021.53,225.574C1022,225.571 1022,225.571 1022.47,225.574ZM1021.69,238.431C1006.05,238.728 993.513,257.195 1000.75,272.21C1007.14,285.464 1027.23,289.573 1038.26,279.059C1045.67,271.99 1047.67,259.861 1042.73,250.775C1038.61,243.196 1030.97,238.372 1021.69,238.431Z" style="fill:white;"/>
                    </g>
                </g>
                <g transform="matrix(1.94358,0,0,1.94463,-583.839,659.493)">
                    <g transform="matrix(1.98513,0,0,1.69345,-1197.54,-236.309)">
                        <circle cx="1022" cy="262" r="30" style="fill:rgb(173,221,226);"/>
                    </g>
                    <g transform="matrix(1.98513,0,0,1.69345,-1197.54,-236.309)">
                        <path d="M1022.21,229.751C1036.98,229.891 1050.86,241.242 1053.67,255.9C1055.67,266.327 1052.14,277.639 1044.53,285.072C1035.63,293.763 1021.5,296.64 1009.81,291.864C999.49,287.643 991.708,277.738 990.092,266.706C988.096,253.088 995.866,238.61 1008.38,232.766C1012.69,230.748 1017.51,229.736 1022.21,229.751ZM1021.82,234.251C1009.18,234.371 997.365,243.956 994.814,256.409C992.957,265.475 995.993,275.381 1002.62,281.852C1010.27,289.323 1022.38,291.828 1032.48,287.699C1044.18,282.916 1051.6,269.399 1049.29,256.918C1047,244.555 1035.52,234.544 1022.54,234.255C1022.3,234.251 1022.06,234.25 1021.82,234.251Z" style="fill:rgb(58,131,140);"/>
                    </g>
                    <g transform="matrix(0.694796,0,0,0.592707,121.185,52.0852)">
                        <circle cx="1022" cy="262" r="30" style="fill:rgb(47,108,116);"/>
                    </g>
                    <g transform="matrix(0.694796,0,0,0.592707,121.185,52.0852)">
                        <path d="M1022.47,225.574C1043.06,225.965 1061.02,246.093 1058.08,267.085C1055.67,284.255 1039.44,298.429 1022,298.429C997.903,298.429 977.506,269.658 989.364,245.81C995.278,233.915 1007.94,225.832 1021.53,225.574C1022,225.571 1022,225.571 1022.47,225.574ZM1021.69,238.431C1006.05,238.728 993.513,257.195 1000.75,272.21C1007.14,285.464 1027.23,289.573 1038.26,279.059C1045.67,271.99 1047.67,259.861 1042.73,250.775C1038.61,243.196 1030.97,238.372 1021.69,238.431Z" style="fill:white;"/>
                    </g>
                </g>
                <g transform="matrix(1.76901,0,0,1.76996,-641.949,482.962)">
                    <g transform="matrix(1.98513,0,0,1.69345,-1197.54,-236.309)">
                        <circle cx="1022" cy="262" r="30" style="fill:rgb(173,221,226);"/>
                    </g>
                    <g transform="matrix(1.98513,0,0,1.69345,-1197.54,-236.309)">
                        <path d="M1022.21,229.751C1036.98,229.891 1050.86,241.242 1053.67,255.9C1055.67,266.327 1052.14,277.639 1044.53,285.072C1035.63,293.763 1021.5,296.64 1009.81,291.864C999.49,287.643 991.708,277.738 990.092,266.706C988.096,253.088 995.866,238.61 1008.38,232.766C1012.69,230.748 1017.51,229.736 1022.21,229.751ZM1021.82,234.251C1009.18,234.371 997.365,243.956 994.814,256.409C992.957,265.475 995.993,275.381 1002.62,281.852C1010.27,289.323 1022.38,291.828 1032.48,287.699C1044.18,282.916 1051.6,269.399 1049.29,256.918C1047,244.555 1035.52,234.544 1022.54,234.255C1022.3,234.251 1022.06,234.25 1021.82,234.251Z" style="fill:rgb(58,131,140);"/>
                    </g>
                    <g transform="matrix(0.694796,0,0,0.592707,121.185,52.0852)">
                        <circle cx="1022" cy="262" r="30" style="fill:rgb(47,108,116);"/>
                    </g>
                    <g transform="matrix(0.694796,0,0,0.592707,121.185,52.0852)">
                        <path d="M1022.47,225.574C1043.06,225.965 1061.02,246.093 1058.08,267.085C1055.67,284.255 1039.44,298.429 1022,298.429C997.903,298.429 977.506,269.658 989.364,245.81C995.278,233.915 1007.94,225.832 1021.53,225.574C1022,225.571 1022,225.571 1022.47,225.574ZM1021.69,238.431C1006.05,238.728 993.513,257.195 1000.75,272.21C1007.14,285.464 1027.23,289.573 1038.26,279.059C1045.67,271.99 1047.67,259.861 1042.73,250.775C1038.61,243.196 1030.97,238.372 1021.69,238.431Z" style="fill:white;"/>
                    </g>
                </g>
                <g transform="matrix(1.48885,0,0,1.27009,1.9777,-157.14)">
                    <ellipse cx="322.5" cy="450.5" rx="11.5" ry="19.5" style="fill:rgb(74,166,178);"/>
                </g>
                <g transform="matrix(0.678555,-1.33027,0.735108,0.272873,-31.1645,684.918)">
                    <ellipse cx="322.5" cy="450.5" rx="11.5" ry="19.5" style="fill:rgb(74,166,178);"/>
                </g>
                <g transform="matrix(0.404661,-0.793315,0.535405,0.198743,195.52,433.378)">
                    <ellipse cx="322.5" cy="450.5" rx="11.5" ry="19.5" style="fill:rgb(74,166,178);"/>
                </g>
                <g transform="matrix(1.34704,0.540981,-0.634161,1.14911,375.089,-372.364)">
                    <ellipse cx="322.5" cy="450.5" rx="11.5" ry="19.5" style="fill:rgb(74,166,178);"/>
                </g>
                <g transform="matrix(-2.47455,-1.25551,0.92755,-1.33038,794.084,3084.07)">
                    <ellipse cx="322.5" cy="450.5" rx="11.5" ry="19.5" style="fill:rgb(74,166,178);"/>
                </g>
                <g transform="matrix(-1.55243,0.607286,-0.657865,-0.58273,1261.95,2105.18)">
                    <ellipse cx="322.5" cy="450.5" rx="11.5" ry="19.5" style="fill:rgb(74,166,178);"/>
                </g>
                <g transform="matrix(2.56029,-1.05474,0.150328,1.32153,-538.714,1868.94)">
                    <ellipse cx="322.5" cy="450.5" rx="11.5" ry="19.5" style="fill:rgb(74,166,178);"/>
                </g>
            </g>
        </g>
    </g>
</svg>
