<?xml version="1.0" encoding="UTF-8" standalone="no"?>
<!DOCTYPE svg PUBLIC "-//W3C//DTD SVG 1.1//EN" "http://www.w3.org/Graphics/SVG/1.1/DTD/svg11.dtd">
<svg width="100%" height="100%" viewBox="0 0 600 600" version="1.1" xmlns="http://www.w3.org/2000/svg" xmlns:xlink="http://www.w3.org/1999/xlink" xml:space="preserve" xmlns:serif="http://www.serif.com/" style="fill-rule:evenodd;clip-rule:evenodd;stroke-linecap:round;stroke-linejoin:round;stroke-miterlimit:1.5;">
    <g transform="matrix(1,0,0,1,-88,-2496)">
        <g class="strategy" transform="matrix(0.950872,0,0,0.950872,84.1965,1035.46)">
            <rect x="4" y="1536" width="631" height="631" style="fill:rgb(24,27,28);"/>
            <g class="rings" transform="matrix(1.05167,0,0,1.05167,-101.167,-256.04)">
                <g transform="matrix(0.767011,0,0,0.767011,-3.26618,1594.21)">
                    <circle cx="525.763" cy="534.273" r="333.763" style="fill:none;stroke:rgb(104,189,198);stroke-width:10.43px;"/>
                </g>
                <g transform="matrix(0.719073,0,0,0.719073,21.938,1619.82)">
                    <circle cx="525.763" cy="534.273" r="333.763" style="fill:none;stroke:rgb(221,124,179);stroke-width:11.13px;"/>
                </g>
            </g>
            <g transform="matrix(0.942809,-0.942809,0.942809,0.942809,-1831.83,294.447)">
                <g transform="matrix(4.37844e-17,-0.430227,0.78875,1.75138e-16,-330.43,2567.11)">
                    <path d="M1505,645L1527,645" style="fill:none;stroke:white;stroke-width:4.97px;stroke-linejoin:miter;stroke-miterlimit:3;"/>
                </g>
                <g transform="matrix(4.37844e-17,-0.430227,0.78875,1.75138e-16,-330.43,2545.03)">
                    <path d="M1505,645L1527,645" style="fill:none;stroke:white;stroke-width:4.97px;stroke-linejoin:miter;stroke-miterlimit:3;"/>
                </g>
                <g transform="matrix(-0.430227,-4.37844e-17,1.75138e-16,-0.78875,841.581,2412.59)">
                    <path d="M1505,645L1527,645" style="fill:none;stroke:white;stroke-width:4.97px;stroke-linejoin:miter;stroke-miterlimit:3;"/>
                </g>
                <g transform="matrix(-0.430227,-4.37844e-17,1.75138e-16,-0.78875,819.496,2412.59)">
                    <path d="M1505,645L1527,645" style="fill:none;stroke:white;stroke-width:4.97px;stroke-linejoin:miter;stroke-miterlimit:3;"/>
                </g>
            </g>
            <g transform="matrix(0.942809,-0.942809,0.942809,0.942809,-1668.3,527.285)">
                <g transform="matrix(4.37844e-17,-0.430227,0.78875,1.75138e-16,-58.3113,2506.38)">
                    <path d="M1505,645L1527,645" style="fill:none;stroke:white;stroke-width:4.97px;stroke-linejoin:miter;stroke-miterlimit:3;"/>
                </g>
                <g transform="matrix(4.37844e-17,-0.430227,0.78875,1.75138e-16,-58.3113,2484.29)">
                    <path d="M1505,645L1527,645" style="fill:none;stroke:white;stroke-width:4.97px;stroke-linejoin:miter;stroke-miterlimit:3;"/>
                </g>
                <g transform="matrix(-0.430227,-4.37844e-17,1.75138e-16,-0.78875,1113.7,2351.86)">
                    <path d="M1505,645L1527,645" style="fill:none;stroke:white;stroke-width:4.97px;stroke-linejoin:miter;stroke-miterlimit:3;"/>
                </g>
                <g transform="matrix(-0.430227,-4.37844e-17,1.75138e-16,-0.78875,1091.61,2351.86)">
                    <path d="M1505,645L1527,645" style="fill:none;stroke:white;stroke-width:4.97px;stroke-linejoin:miter;stroke-miterlimit:3;"/>
                </g>
            </g>
            <g transform="matrix(0.549877,-8.85857e-16,-7.26211e-16,-1.08023,13.1638,2383.28)">
                <path d="M769.332,359.855L352.397,359.855L352.397,606.164L769.332,606.164L769.332,359.855ZM360.047,602.27L360.047,363.749L761.682,363.749L761.682,602.27L360.047,602.27Z" style="fill:white;"/>
            </g>
            <g transform="matrix(0.494889,-7.95011e-16,-6.82892e-16,-0.987643,44.0045,2337.63)">
                <path d="M770.182,359.49L351.547,359.49L351.547,606.529L770.182,606.529L770.182,359.49ZM360.047,602.27L360.047,363.749L761.682,363.749L761.682,602.27L360.047,602.27Z" style="fill:white;"/>
            </g>
            <g transform="matrix(0.639029,0,0,0.639029,-6.40484,1565.07)">
                <circle cx="409.483" cy="562.732" r="20.16" style="fill:none;stroke:white;stroke-width:9.87px;"/>
            </g>
            <g transform="matrix(0.639029,0,0,0.639029,86.4147,1529.94)">
                <circle cx="409.483" cy="562.732" r="20.16" style="fill:none;stroke:white;stroke-width:9.87px;"/>
            </g>
            <g transform="matrix(0.457702,0,0,0.41887,74.6666,1621.01)">
                <g transform="matrix(2.16515,0,0,2.36587,-570.089,-832.164)">
                    <path d="M515,558L541,584" style="fill:none;stroke:white;stroke-width:6.37px;"/>
                </g>
                <g transform="matrix(1.32577e-16,-2.36587,2.16515,1.44868e-16,-663.19,1767.93)">
                    <path d="M515,558L541,584" style="fill:none;stroke:white;stroke-width:6.37px;"/>
                </g>
            </g>
            <g transform="matrix(0.457702,0,0,0.41887,59.5982,1726.72)">
                <g transform="matrix(2.16515,0,0,2.36587,-570.089,-832.164)">
                    <path d="M515,558L541,584" style="fill:none;stroke:white;stroke-width:6.37px;"/>
                </g>
                <g transform="matrix(1.32577e-16,-2.36587,2.16515,1.44868e-16,-663.19,1767.93)">
                    <path d="M515,558L541,584" style="fill:none;stroke:white;stroke-width:6.37px;"/>
                </g>
            </g>
            <g transform="matrix(0.457702,0,0,0.41887,-4.47128,1577.07)">
                <g transform="matrix(2.16515,0,0,2.36587,-570.089,-832.164)">
                    <path d="M515,558L541,584" style="fill:none;stroke:white;stroke-width:6.37px;"/>
                </g>
                <g transform="matrix(1.32577e-16,-2.36587,2.16515,1.44868e-16,-663.19,1767.93)">
                    <path d="M515,558L541,584" style="fill:none;stroke:white;stroke-width:6.37px;"/>
                </g>
            </g>
            <g transform="matrix(-0.457702,-5.60524e-17,5.12968e-17,-0.41887,518.776,2076.98)">
                <g transform="matrix(2.16515,0,0,2.36587,-570.089,-832.164)">
                    <path d="M515,558L541,584" style="fill:none;stroke:white;stroke-width:6.37px;"/>
                </g>
                <g transform="matrix(1.32577e-16,-2.36587,2.16515,1.44868e-16,-663.19,1767.93)">
                    <path d="M515,558L541,584" style="fill:none;stroke:white;stroke-width:6.37px;"/>
                </g>
            </g>
            <g transform="matrix(0.639029,0,0,0.639029,125.251,1454.51)">
                <circle cx="409.483" cy="562.732" r="20.16" style="fill:none;stroke:white;stroke-width:9.87px;"/>
            </g>
            <g transform="matrix(0.537708,0,0,0.492088,-11.4736,1680.22)">
                <g transform="matrix(1.95583,-0,-0,2.13715,28.7769,-293.08)">
                    <path d="M343.779,385.482L340.803,393.428L348.749,396.404" style="fill:none;stroke:rgb(104,189,198);stroke-width:4px;stroke-linejoin:miter;stroke-miterlimit:10;"/>
                    <path d="M340.803,393.428C346.1,390.641 357.68,382.432 357.117,364.139C356.678,349.889 349.704,340.609 349.704,340.609" style="fill:none;stroke:rgb(104,189,198);stroke-width:4px;"/>
                </g>
            </g>
            <g transform="matrix(0.435869,0,0,0.590125,74.6151,1568.82)">
                <g transform="matrix(2.4128,-0,-0,1.78211,-162.01,-55.6135)">
                    <path d="M342.344,238.637L344.098,246.939L335.796,248.693" style="fill:none;stroke:rgb(104,189,198);stroke-width:4px;stroke-linejoin:miter;stroke-miterlimit:10;"/>
                    <path d="M251.01,351.549C251.01,351.549 272.659,342.719 279.529,322.024C286.061,302.345 269.046,281.565 290.759,257.207C313.238,231.989 336.708,242.568 344.098,246.939" style="fill:none;stroke:rgb(104,189,198);stroke-width:4px;stroke-dasharray:16,16,0,0;"/>
                </g>
            </g>
            <g transform="matrix(0.920208,0,0,0.920208,-43.7235,13.0552)">
                <path d="M377.068,1853C377.002,1852.34 376.969,1851.67 376.969,1851C376.969,1839.96 385.93,1831 396.969,1831C408.007,1831 416.969,1839.96 416.969,1851C416.969,1851.67 416.935,1852.34 416.87,1853L456.969,1853L456.969,1893L336.969,1893L336.969,1853L377.068,1853Z" style="fill:rgb(24,27,28);"/>
                <path d="M397.285,1826.43L397.599,1826.44L397.915,1826.45L398.23,1826.46L398.541,1826.48L398.853,1826.5L399.165,1826.53L399.474,1826.56L399.784,1826.59L400.092,1826.63L400.398,1826.67L400.704,1826.71L401.008,1826.76L401.311,1826.81L401.615,1826.87L401.914,1826.93L402.213,1826.99L402.512,1827.06L402.81,1827.13L403.104,1827.2L403.397,1827.28L403.692,1827.36L403.983,1827.45L404.271,1827.54L404.559,1827.63L404.847,1827.72L405.133,1827.82L405.416,1827.92L405.697,1828.03L405.978,1828.14L406.255,1828.25L406.531,1828.36L406.808,1828.48L407.081,1828.6L407.351,1828.73L407.622,1828.86L407.89,1828.99L408.156,1829.12L408.419,1829.26L408.681,1829.4L408.942,1829.54L409.2,1829.69L409.456,1829.84L409.709,1829.99L409.962,1830.15L410.213,1830.31L410.461,1830.47L410.708,1830.63L410.951,1830.8L411.192,1830.97L411.433,1831.14L411.671,1831.32L411.906,1831.49L412.138,1831.67L412.369,1831.86L412.597,1832.04L412.823,1832.23L413.047,1832.42L413.269,1832.62L413.489,1832.82L413.704,1833.02L413.919,1833.22L414.132,1833.42L414.34,1833.63L414.547,1833.84L414.752,1834.05L414.954,1834.26L415.154,1834.48L415.35,1834.7L415.544,1834.92L415.736,1835.14L415.925,1835.37L416.111,1835.6L416.295,1835.83L416.475,1836.06L416.654,1836.3L416.829,1836.54L417.001,1836.78L417.172,1837.02L417.338,1837.26L417.503,1837.51L417.664,1837.76L417.822,1838.01L417.978,1838.26L418.13,1838.51L418.279,1838.77L418.426,1839.03L418.57,1839.29L418.711,1839.55L418.848,1839.81L418.982,1840.08L419.113,1840.35L419.241,1840.62L419.366,1840.89L419.488,1841.16L419.606,1841.44L419.721,1841.71L419.833,1841.99L419.941,1842.27L420.046,1842.55L420.148,1842.84L420.247,1843.12L420.342,1843.41L420.434,1843.7L420.522,1843.99L420.607,1844.28L420.688,1844.57L420.766,1844.86L420.84,1845.16L420.91,1845.46L420.977,1845.75L421.04,1846.05L421.1,1846.36L421.156,1846.66L421.208,1846.96L421.257,1847.27L421.302,1847.57L421.343,1847.88L421.38,1848.18L421.406,1848.43L461.54,1848.43L461.54,1897.57L332.397,1897.57L332.397,1848.43L372.531,1848.43L372.557,1848.18L372.594,1847.88L372.635,1847.57L372.68,1847.26L372.729,1846.96L372.781,1846.66L372.837,1846.36L372.897,1846.05L372.96,1845.75L373.027,1845.46L373.098,1845.16L373.172,1844.86L373.249,1844.57L373.33,1844.28L373.415,1843.99L373.503,1843.7L373.595,1843.41L373.69,1843.12L373.789,1842.84L373.891,1842.55L373.996,1842.27L374.104,1841.99L374.216,1841.71L374.331,1841.44L374.45,1841.16L374.571,1840.89L374.696,1840.62L374.824,1840.35L374.956,1840.08L375.089,1839.81L375.227,1839.55L375.367,1839.29L375.511,1839.03L375.657,1838.77L375.807,1838.51L375.959,1838.26L376.115,1838.01L376.273,1837.76L376.435,1837.51L376.598,1837.26L376.765,1837.02L376.936,1836.78L377.108,1836.54L377.283,1836.3L377.462,1836.06L377.643,1835.83L377.826,1835.6L378.012,1835.37L378.201,1835.14L378.393,1834.92L378.587,1834.7L378.784,1834.48L378.983,1834.26L379.185,1834.05L379.39,1833.84L379.597,1833.63L379.806,1833.42L380.018,1833.22L380.233,1833.02L380.448,1832.82L380.668,1832.62L380.889,1832.42L381.113,1832.23L381.341,1832.04L381.569,1831.86L381.799,1831.67L382.031,1831.49L382.266,1831.32L382.505,1831.14L382.745,1830.97L382.986,1830.8L383.229,1830.63L383.476,1830.47L383.724,1830.31L383.975,1830.15L384.228,1829.99L384.481,1829.84L384.737,1829.69L384.995,1829.54L385.256,1829.4L385.518,1829.26L385.781,1829.12L386.047,1828.99L386.316,1828.86L386.586,1828.73L386.856,1828.6L387.13,1828.48L387.406,1828.36L387.682,1828.25L387.96,1828.14L388.24,1828.03L388.522,1827.92L388.805,1827.82L389.091,1827.72L389.378,1827.63L389.666,1827.54L389.954,1827.45L390.245,1827.36L390.54,1827.28L390.833,1827.2L391.127,1827.13L391.425,1827.06L391.724,1826.99L392.023,1826.93L392.322,1826.87L392.626,1826.81L392.929,1826.76L393.233,1826.71L393.539,1826.67L393.845,1826.63L394.153,1826.59L394.463,1826.56L394.772,1826.53L395.084,1826.5L395.396,1826.48L395.707,1826.46L396.022,1826.45L396.338,1826.44L396.652,1826.43L396.969,1826.43L397.285,1826.43ZM396.71,1831L396.453,1831.01L396.196,1831.02L395.94,1831.03L395.685,1831.04L395.431,1831.06L395.177,1831.08L394.925,1831.1L394.673,1831.13L394.423,1831.16L394.173,1831.19L393.924,1831.23L393.677,1831.27L393.43,1831.31L393.185,1831.36L392.94,1831.41L392.697,1831.46L392.454,1831.51L392.213,1831.57L391.973,1831.63L391.734,1831.69L391.496,1831.76L391.259,1831.83L391.024,1831.9L390.79,1831.97L390.557,1832.05L390.325,1832.13L390.095,1832.21L389.866,1832.3L389.638,1832.39L389.412,1832.48L389.187,1832.57L388.963,1832.67L388.741,1832.77L388.52,1832.87L388.301,1832.97L388.083,1833.08L387.867,1833.19L387.652,1833.3L387.439,1833.41L387.227,1833.53L387.017,1833.65L386.808,1833.77L386.601,1833.9L386.396,1834.02L386.192,1834.15L385.99,1834.28L385.79,1834.42L385.591,1834.55L385.394,1834.69L385.199,1834.83L385.005,1834.98L384.814,1835.12L384.624,1835.27L384.436,1835.42L384.25,1835.57L384.065,1835.72L383.883,1835.88L383.703,1836.04L383.524,1836.2L383.347,1836.36L383.173,1836.53L383,1836.69L382.829,1836.86L382.661,1837.03L382.494,1837.2L382.329,1837.38L382.167,1837.56L382.006,1837.73L381.848,1837.91L381.692,1838.1L381.538,1838.28L381.386,1838.47L381.237,1838.65L381.089,1838.85L380.944,1839.04L380.801,1839.23L380.661,1839.42L380.522,1839.62L380.386,1839.82L380.253,1840.02L380.121,1840.22L379.992,1840.43L379.866,1840.63L379.742,1840.84L379.62,1841.05L379.501,1841.26L379.384,1841.47L379.27,1841.68L379.158,1841.9L379.049,1842.12L378.942,1842.33L378.838,1842.55L378.736,1842.77L378.638,1843L378.541,1843.22L378.448,1843.44L378.357,1843.67L378.269,1843.9L378.183,1844.13L378.1,1844.36L378.02,1844.59L377.943,1844.82L377.868,1845.06L377.797,1845.29L377.728,1845.53L377.662,1845.77L377.599,1846L377.538,1846.24L377.481,1846.49L377.427,1846.73L377.375,1846.97L377.327,1847.22L377.281,1847.46L377.239,1847.71L377.199,1847.96L377.163,1848.2L377.129,1848.45L377.099,1848.7L377.072,1848.96L377.048,1849.21L377.027,1849.46L377.009,1849.72L376.995,1849.97L376.983,1850.23L376.975,1850.48L376.97,1850.74L376.969,1851L376.97,1851.25L376.975,1851.51L376.983,1851.76L376.994,1852.01L377.007,1852.26L377.024,1852.51L377.045,1852.75L377.068,1853L336.969,1853L336.969,1893L456.969,1893L456.969,1853L416.87,1853L416.893,1852.75L416.913,1852.51L416.93,1852.26L416.944,1852.01L416.955,1851.76L416.962,1851.51L416.967,1851.25L416.969,1851L416.967,1850.74L416.962,1850.48L416.954,1850.23L416.943,1849.97L416.928,1849.72L416.91,1849.46L416.889,1849.21L416.865,1848.96L416.838,1848.7L416.808,1848.45L416.774,1848.2L416.738,1847.96L416.698,1847.71L416.656,1847.46L416.61,1847.22L416.562,1846.97L416.51,1846.73L416.456,1846.49L416.399,1846.24L416.338,1846L416.275,1845.77L416.209,1845.53L416.14,1845.29L416.069,1845.06L415.994,1844.82L415.917,1844.59L415.837,1844.36L415.754,1844.13L415.669,1843.9L415.58,1843.67L415.489,1843.44L415.396,1843.22L415.3,1843L415.201,1842.77L415.099,1842.55L414.995,1842.33L414.888,1842.12L414.779,1841.9L414.667,1841.68L414.553,1841.47L414.436,1841.26L414.317,1841.05L414.196,1840.84L414.071,1840.63L413.945,1840.43L413.816,1840.22L413.685,1840.02L413.551,1839.82L413.415,1839.62L413.277,1839.42L413.136,1839.23L412.993,1839.04L412.848,1838.85L412.701,1838.65L412.551,1838.47L412.399,1838.28L412.245,1838.1L412.089,1837.91L411.931,1837.73L411.77,1837.56L411.608,1837.38L411.443,1837.2L411.277,1837.03L411.108,1836.86L410.937,1836.69L410.765,1836.53L410.59,1836.36L410.413,1836.2L410.235,1836.04L410.054,1835.88L409.872,1835.72L409.687,1835.57L409.501,1835.42L409.313,1835.27L409.123,1835.12L408.932,1834.98L408.738,1834.83L408.543,1834.69L408.346,1834.55L408.148,1834.42L407.947,1834.28L407.745,1834.15L407.541,1834.02L407.336,1833.9L407.129,1833.77L406.92,1833.65L406.71,1833.53L406.498,1833.41L406.285,1833.3L406.07,1833.19L405.854,1833.08L405.636,1832.97L405.417,1832.87L405.196,1832.77L404.974,1832.67L404.75,1832.57L404.525,1832.48L404.299,1832.39L404.071,1832.3L403.842,1832.21L403.612,1832.13L403.38,1832.05L403.147,1831.97L402.913,1831.9L402.678,1831.83L402.441,1831.76L402.203,1831.69L401.964,1831.63L401.724,1831.57L401.483,1831.51L401.241,1831.46L400.997,1831.41L400.753,1831.36L400.507,1831.31L400.26,1831.27L400.013,1831.23L399.764,1831.19L399.514,1831.16L399.264,1831.13L399.012,1831.1L398.76,1831.08L398.506,1831.06L398.252,1831.04L397.997,1831.03L397.741,1831.02L397.484,1831.01L397.227,1831L396.969,1831L396.71,1831Z" style="fill:white;"/>
            </g>
            <g transform="matrix(0.920208,0,0,0.920208,-43.7235,13.0552)">
                <path d="M377.068,1853C377.002,1852.34 376.969,1851.67 376.969,1851C376.969,1839.96 385.93,1831 396.969,1831C408.007,1831 416.969,1839.96 416.969,1851C416.969,1851.67 416.935,1852.34 416.87,1853L456.969,1853L456.969,1893L336.969,1893L336.969,1853L377.068,1853Z" style="fill:rgb(133,197,204);"/>
                <path d="M397.227,1831L397.484,1831.01L397.741,1831.02L397.997,1831.03L398.252,1831.04L398.506,1831.06L398.76,1831.08L399.012,1831.1L399.264,1831.13L399.514,1831.16L399.764,1831.19L400.013,1831.23L400.26,1831.27L400.507,1831.31L400.753,1831.36L400.997,1831.41L401.241,1831.46L401.483,1831.51L401.724,1831.57L401.964,1831.63L402.203,1831.69L402.441,1831.76L402.678,1831.83L402.913,1831.9L403.147,1831.97L403.38,1832.05L403.612,1832.13L403.842,1832.21L404.071,1832.3L404.299,1832.39L404.525,1832.48L404.75,1832.57L404.974,1832.67L405.196,1832.77L405.417,1832.87L405.636,1832.97L405.854,1833.08L406.07,1833.19L406.285,1833.3L406.498,1833.41L406.71,1833.53L406.92,1833.65L407.129,1833.77L407.336,1833.9L407.541,1834.02L407.745,1834.15L407.947,1834.28L408.148,1834.42L408.346,1834.55L408.543,1834.69L408.738,1834.83L408.932,1834.98L409.123,1835.12L409.313,1835.27L409.501,1835.42L409.687,1835.57L409.872,1835.72L410.054,1835.88L410.235,1836.04L410.413,1836.2L410.59,1836.36L410.765,1836.53L410.937,1836.69L411.108,1836.86L411.277,1837.03L411.443,1837.2L411.608,1837.38L411.77,1837.56L411.931,1837.73L412.089,1837.91L412.245,1838.1L412.399,1838.28L412.551,1838.47L412.701,1838.65L412.848,1838.85L412.993,1839.04L413.136,1839.23L413.277,1839.42L413.415,1839.62L413.551,1839.82L413.685,1840.02L413.816,1840.22L413.945,1840.43L414.071,1840.63L414.196,1840.84L414.317,1841.05L414.436,1841.26L414.553,1841.47L414.667,1841.68L414.779,1841.9L414.888,1842.12L414.995,1842.33L415.099,1842.55L415.201,1842.77L415.3,1843L415.396,1843.22L415.489,1843.44L415.58,1843.67L415.669,1843.9L415.754,1844.13L415.837,1844.36L415.917,1844.59L415.994,1844.82L416.069,1845.06L416.14,1845.29L416.209,1845.53L416.275,1845.77L416.338,1846L416.399,1846.24L416.456,1846.49L416.51,1846.73L416.562,1846.97L416.61,1847.22L416.656,1847.46L416.698,1847.71L416.738,1847.96L416.774,1848.2L416.808,1848.45L416.838,1848.7L416.865,1848.96L416.889,1849.21L416.91,1849.46L416.928,1849.72L416.943,1849.97L416.954,1850.23L416.962,1850.48L416.967,1850.74L416.969,1851L416.967,1851.25L416.962,1851.51L416.955,1851.76L416.944,1852.01L416.93,1852.26L416.913,1852.51L416.893,1852.75L416.87,1853L456.969,1853L456.969,1893L336.969,1893L336.969,1853L377.068,1853L377.045,1852.75L377.024,1852.51L377.007,1852.26L376.994,1852.01L376.983,1851.76L376.975,1851.51L376.97,1851.25L376.969,1851L376.97,1850.74L376.975,1850.48L376.983,1850.23L376.995,1849.97L377.009,1849.72L377.027,1849.46L377.048,1849.21L377.072,1848.96L377.099,1848.7L377.129,1848.45L377.163,1848.2L377.199,1847.96L377.239,1847.71L377.281,1847.46L377.327,1847.22L377.375,1846.97L377.427,1846.73L377.481,1846.49L377.538,1846.24L377.599,1846L377.662,1845.77L377.728,1845.53L377.797,1845.29L377.868,1845.06L377.943,1844.82L378.02,1844.59L378.1,1844.36L378.183,1844.13L378.269,1843.9L378.357,1843.67L378.448,1843.44L378.541,1843.22L378.638,1843L378.736,1842.77L378.838,1842.55L378.942,1842.33L379.049,1842.12L379.158,1841.9L379.27,1841.68L379.384,1841.47L379.501,1841.26L379.62,1841.05L379.742,1840.84L379.866,1840.63L379.992,1840.43L380.121,1840.22L380.253,1840.02L380.386,1839.82L380.522,1839.62L380.661,1839.42L380.801,1839.23L380.944,1839.04L381.089,1838.85L381.237,1838.65L381.386,1838.47L381.538,1838.28L381.692,1838.1L381.848,1837.91L382.006,1837.73L382.167,1837.56L382.329,1837.38L382.494,1837.2L382.661,1837.03L382.829,1836.86L383,1836.69L383.173,1836.53L383.347,1836.36L383.524,1836.2L383.703,1836.04L383.883,1835.88L384.065,1835.72L384.25,1835.57L384.436,1835.42L384.624,1835.27L384.814,1835.12L385.005,1834.98L385.199,1834.83L385.394,1834.69L385.591,1834.55L385.79,1834.42L385.99,1834.28L386.192,1834.15L386.396,1834.02L386.601,1833.9L386.808,1833.77L387.017,1833.65L387.227,1833.53L387.439,1833.41L387.652,1833.3L387.867,1833.19L388.083,1833.08L388.301,1832.97L388.52,1832.87L388.741,1832.77L388.963,1832.67L389.187,1832.57L389.412,1832.48L389.638,1832.39L389.866,1832.3L390.095,1832.21L390.325,1832.13L390.557,1832.05L390.79,1831.97L391.024,1831.9L391.259,1831.83L391.496,1831.76L391.734,1831.69L391.973,1831.63L392.213,1831.57L392.454,1831.51L392.697,1831.46L392.94,1831.41L393.185,1831.36L393.43,1831.31L393.677,1831.27L393.924,1831.23L394.173,1831.19L394.423,1831.16L394.673,1831.13L394.925,1831.1L395.177,1831.08L395.431,1831.06L395.685,1831.04L395.94,1831.03L396.196,1831.02L396.453,1831.01L396.71,1831L396.969,1831L397.227,1831ZM396.768,1835.57L396.568,1835.58L396.37,1835.58L396.173,1835.59L395.974,1835.6L395.778,1835.62L395.583,1835.63L395.387,1835.65L395.194,1835.67L395.001,1835.7L394.807,1835.72L394.616,1835.75L394.424,1835.78L394.234,1835.81L394.047,1835.85L393.857,1835.88L393.669,1835.92L393.483,1835.97L393.299,1836.01L393.113,1836.06L392.928,1836.11L392.747,1836.16L392.565,1836.21L392.382,1836.27L392.202,1836.32L392.023,1836.38L391.846,1836.44L391.668,1836.51L391.492,1836.57L391.317,1836.64L391.142,1836.71L390.968,1836.78L390.797,1836.86L390.626,1836.93L390.455,1837.01L390.286,1837.09L390.119,1837.17L389.953,1837.26L389.786,1837.34L389.622,1837.43L389.459,1837.52L389.296,1837.61L389.135,1837.71L388.975,1837.8L388.817,1837.9L388.66,1838L388.504,1838.1L388.35,1838.2L388.196,1838.31L388.043,1838.42L387.893,1838.53L387.745,1838.63L387.597,1838.75L387.449,1838.86L387.303,1838.98L387.159,1839.1L387.018,1839.21L386.877,1839.34L386.737,1839.46L386.6,1839.58L386.462,1839.71L386.327,1839.83L386.194,1839.96L386.062,1840.09L385.931,1840.23L385.803,1840.36L385.675,1840.49L385.55,1840.63L385.425,1840.77L385.303,1840.91L385.183,1841.05L385.064,1841.19L384.947,1841.34L384.831,1841.48L384.716,1841.63L384.605,1841.78L384.495,1841.92L384.385,1842.08L384.279,1842.23L384.174,1842.38L384.071,1842.54L383.969,1842.69L383.87,1842.85L383.772,1843.01L383.676,1843.17L383.582,1843.33L383.491,1843.49L383.4,1843.65L383.313,1843.82L383.226,1843.98L383.142,1844.15L383.06,1844.32L382.98,1844.49L382.901,1844.66L382.826,1844.83L382.751,1845L382.679,1845.17L382.609,1845.35L382.541,1845.52L382.475,1845.7L382.412,1845.88L382.35,1846.06L382.291,1846.23L382.233,1846.41L382.178,1846.6L382.125,1846.78L382.074,1846.96L382.026,1847.14L381.979,1847.33L381.935,1847.52L381.893,1847.7L381.854,1847.89L381.816,1848.08L381.781,1848.27L381.749,1848.46L381.718,1848.65L381.69,1848.84L381.664,1849.03L381.641,1849.23L381.62,1849.42L381.601,1849.61L381.585,1849.81L381.572,1850.01L381.56,1850.2L381.551,1850.4L381.545,1850.6L381.541,1850.8L381.54,1851L381.541,1851.2L381.545,1851.39L381.551,1851.59L381.559,1851.78L381.57,1851.97L381.583,1852.16L381.599,1852.36L382.086,1857.57L341.54,1857.57L341.54,1888.43L452.397,1888.43L452.397,1857.57L411.852,1857.57L412.338,1852.36L412.354,1852.16L412.367,1851.97L412.378,1851.78L412.386,1851.59L412.392,1851.39L412.396,1851.2L412.397,1851L412.396,1850.8L412.392,1850.6L412.386,1850.4L412.377,1850.2L412.366,1850.01L412.352,1849.81L412.336,1849.61L412.317,1849.42L412.296,1849.23L412.273,1849.03L412.247,1848.84L412.219,1848.65L412.189,1848.46L412.156,1848.27L412.121,1848.08L412.083,1847.89L412.044,1847.7L412.002,1847.52L411.958,1847.33L411.911,1847.14L411.863,1846.96L411.812,1846.78L411.759,1846.6L411.704,1846.41L411.647,1846.23L411.587,1846.05L411.525,1845.88L411.462,1845.7L411.396,1845.52L411.328,1845.35L411.258,1845.17L411.186,1845L411.112,1844.83L411.036,1844.66L410.957,1844.49L410.877,1844.32L410.795,1844.15L410.711,1843.98L410.624,1843.82L410.537,1843.65L410.447,1843.49L410.355,1843.33L410.261,1843.17L410.165,1843.01L410.067,1842.85L409.968,1842.69L409.867,1842.54L409.763,1842.38L409.658,1842.23L409.552,1842.08L409.443,1841.92L409.332,1841.78L409.221,1841.63L409.107,1841.48L408.991,1841.34L408.873,1841.19L408.754,1841.05L408.634,1840.91L408.512,1840.77L408.387,1840.63L408.262,1840.49L408.134,1840.36L408.006,1840.23L407.876,1840.09L407.743,1839.96L407.61,1839.83L407.475,1839.71L407.337,1839.58L407.2,1839.46L407.061,1839.34L406.92,1839.21L406.778,1839.1L406.634,1838.98L406.488,1838.86L406.341,1838.75L406.192,1838.63L406.044,1838.53L405.894,1838.42L405.741,1838.31L405.587,1838.2L405.433,1838.1L405.277,1838L405.12,1837.9L404.963,1837.8L404.802,1837.71L404.641,1837.61L404.478,1837.52L404.316,1837.43L404.152,1837.34L403.985,1837.26L403.818,1837.17L403.651,1837.09L403.483,1837.01L403.312,1836.93L403.14,1836.86L402.969,1836.78L402.796,1836.71L402.62,1836.64L402.445,1836.57L402.269,1836.51L402.091,1836.44L401.914,1836.38L401.735,1836.32L401.555,1836.27L401.372,1836.21L401.19,1836.16L401.009,1836.11L400.824,1836.06L400.638,1836.01L400.454,1835.97L400.268,1835.92L400.08,1835.88L399.89,1835.85L399.703,1835.81L399.513,1835.78L399.321,1835.75L399.13,1835.72L398.936,1835.7L398.743,1835.67L398.55,1835.65L398.355,1835.63L398.16,1835.62L397.963,1835.6L397.764,1835.59L397.567,1835.58L397.369,1835.58L397.169,1835.57L396.969,1835.57L396.768,1835.57Z" style="fill:rgb(24,27,28);"/>
            </g>
        </g>
    </g>
</svg>
