<?xml version="1.0" encoding="UTF-8" standalone="no"?><!DOCTYPE svg PUBLIC "-//W3C//DTD SVG 1.1//EN" "http://www.w3.org/Graphics/SVG/1.1/DTD/svg11.dtd"><svg width="100%" height="100%" viewBox="0 0 300 300" version="1.1" xmlns="http://www.w3.org/2000/svg" xmlns:xlink="http://www.w3.org/1999/xlink" xml:space="preserve" xmlns:serif="http://www.serif.com/" style="fill-rule:evenodd;clip-rule:evenodd;stroke-linecap:round;stroke-miterlimit:3;"><rect x="0" y="0" width="300" height="300" style="fill:#181b1c;"/><g><circle cx="164" cy="136" r="100" style="fill:#656565;fill-opacity:0.25;"/><g><path d="M35.778,88.63l-2.546,-2.546" style="fill:none;stroke:#fff;stroke-width:2px;"/><path d="M29.838,82.69l-2.545,-2.545" style="fill:none;stroke:#fff;stroke-width:2px;"/><path d="M35.778,80.145l-2.546,2.545" style="fill:none;stroke:#fff;stroke-width:2px;"/><path d="M29.838,86.084l-2.545,2.546" style="fill:none;stroke:#fff;stroke-width:2px;"/></g><g><path d="M258.533,153.033l-2.546,-2.546" style="fill:none;stroke:#fff;stroke-width:2px;"/><path d="M252.593,147.093l-2.545,-2.545" style="fill:none;stroke:#fff;stroke-width:2px;"/><path d="M258.533,144.548l-2.546,2.545" style="fill:none;stroke:#fff;stroke-width:2px;"/><path d="M252.593,150.487l-2.545,2.546" style="fill:none;stroke:#fff;stroke-width:2px;"/></g><g><path d="M177.533,67.033l-2.546,-2.546" style="fill:none;stroke:#fff;stroke-width:2px;"/><path d="M171.593,61.093l-2.545,-2.545" style="fill:none;stroke:#fff;stroke-width:2px;"/><path d="M177.533,58.548l-2.546,2.545" style="fill:none;stroke:#fff;stroke-width:2px;"/><path d="M171.593,64.487l-2.545,2.546" style="fill:none;stroke:#fff;stroke-width:2px;"/></g><g><path d="M218.033,206.533l-2.546,-2.546" style="fill:none;stroke:#fff;stroke-width:2px;"/><path d="M212.093,200.593l-2.545,-2.545" style="fill:none;stroke:#fff;stroke-width:2px;"/><path d="M218.033,198.048l-2.546,2.545" style="fill:none;stroke:#fff;stroke-width:2px;"/><path d="M212.093,203.987l-2.545,2.546" style="fill:none;stroke:#fff;stroke-width:2px;"/></g><g><circle cx="34.75" cy="102.25" r="2" style="fill:#e84f9e;"/></g><g><circle cx="272" cy="149.5" r="2" style="fill:#e84f9e;"/></g><g><circle cx="199" cy="191" r="2" style="fill:#e84f9e;"/></g><g><path d="M189.052,76l0.051,0.001l0.052,0.002l0.051,0.002l0.051,0.003l0.051,0.004l0.05,0.004l0.051,0.005l0.05,0.005l0.05,0.006l0.05,0.007l0.05,0.007l0.049,0.008l0.05,0.009l0.049,0.009l0.049,0.009l0.048,0.011l0.049,0.011l0.048,0.011l0.048,0.012l0.048,0.013l0.048,0.013l0.047,0.014l0.047,0.014l0.047,0.015l0.046,0.015l0.047,0.016l0.046,0.017l0.046,0.017l0.045,0.018l0.045,0.018l0.045,0.019l0.045,0.019l0.045,0.02l0.044,0.02l0.044,0.021l0.043,0.021l0.043,0.022l0.043,0.022l0.043,0.023l0.042,0.023l0.042,0.024l0.042,0.025l0.041,0.024l0.042,0.026l0.04,0.026l0.041,0.026l0.04,0.027l0.04,0.027l0.039,0.027l0.039,0.029l0.039,0.028l0.038,0.029l0.038,0.03l0.038,0.03l0.037,0.03l0.037,0.031l0.036,0.031l0.036,0.032l0.036,0.032l0.035,0.032l0.035,0.033l0.035,0.033l0.034,0.034l0.034,0.034l0.033,0.035l0.033,0.035l0.032,0.035l0.032,0.036l0.032,0.036l0.031,0.036l0.031,0.037l0.03,0.037l0.03,0.038l0.03,0.038l0.029,0.038l0.028,0.039l0.029,0.039l0.027,0.039l0.027,0.04l0.027,0.04l0.026,0.041l0.026,0.04l0.026,0.042l0.024,0.041l0.025,0.042l0.024,0.042l0.023,0.042l0.023,0.043l0.022,0.043l0.022,0.043l0.021,0.043l0.021,0.044l0.02,0.044l0.02,0.045l0.019,0.045l0.019,0.045l0.018,0.045l0.018,0.045l0.017,0.046l0.017,0.046l0.016,0.047l0.015,0.046l0.015,0.047l0.014,0.047l0.014,0.047l0.013,0.048l0.013,0.048l0.012,0.048l0.011,0.048l0.011,0.049l0.011,0.048l0.009,0.049l0.009,0.049l0.009,0.05l0.008,0.049l0.007,0.05l0.007,0.05l0.006,0.05l0.005,0.05l0.005,0.051l0.004,0.05l0.004,0.051l0.003,0.051l0.002,0.051l0.002,0.052l0.001,0.051l0,0.052l0,0.052l-0.001,0.051l-0.002,0.052l-0.002,0.051l-0.003,0.051l-0.004,0.051l-0.004,0.05l-0.005,0.051l-0.005,0.05l-0.006,0.05l-0.007,0.05l-0.007,0.05l-0.008,0.049l-0.009,0.05l-0.009,0.049l-0.009,0.049l-0.011,0.048l-0.011,0.049l-0.011,0.048l-0.012,0.048l-0.013,0.048l-0.013,0.048l-0.014,0.047l-0.014,0.047l-0.015,0.047l-0.015,0.046l-0.016,0.047l-0.017,0.046l-0.017,0.046l-0.018,0.045l-0.018,0.045l-0.019,0.045l-0.019,0.045l-0.02,0.045l-0.02,0.044l-0.021,0.044l-0.021,0.043l-0.022,0.043l-0.022,0.043l-0.023,0.043l-0.023,0.042l-0.024,0.042l-0.025,0.042l-0.024,0.041l-0.026,0.042l-0.026,0.04l-0.026,0.041l-0.027,0.04l-0.027,0.04l-0.027,0.039l-0.029,0.039l-0.028,0.039l-0.029,0.038l-0.03,0.038l-0.03,0.038l-0.03,0.037l-0.031,0.037l-0.031,0.036l-0.032,0.036l-0.032,0.036l-0.032,0.035l-0.033,0.035l-0.033,0.035l-0.034,0.034l-0.034,0.034l-0.035,0.033l-0.035,0.033l-0.035,0.032l-0.036,0.032l-0.036,0.032l-0.036,0.031l-0.037,0.031l-0.037,0.03l-0.038,0.03l-0.038,0.03l-0.038,0.029l-0.039,0.028l-0.039,0.029l-0.039,0.027l-0.04,0.027l-0.04,0.027l-0.041,0.026l-0.04,0.026l-0.042,0.026l-0.041,0.024l-0.042,0.025l-0.042,0.024l-0.042,0.023l-0.043,0.023l-0.043,0.022l-0.043,0.022l-0.043,0.021l-0.044,0.021l-0.044,0.02l-0.045,0.02l-0.045,0.019l-0.045,0.019l-0.045,0.018l-0.045,0.018l-0.046,0.017l-0.046,0.017l-0.047,0.016l-0.046,0.015l-0.047,0.015l-0.047,0.014l-0.047,0.014l-0.048,0.013l-0.048,0.013l-0.048,0.012l-0.048,0.011l-0.049,0.011l-0.048,0.011l-0.049,0.009l-0.049,0.009l-0.05,0.009l-0.049,0.008l-0.05,0.007l-0.05,0.007l-0.05,0.006l-0.05,0.005l-0.051,0.005l-0.05,0.004l-0.051,0.004l-0.051,0.003l-0.051,0.002l-0.052,0.002l-0.051,0.001l-0.052,0l-0.052,0l-0.051,-0.001l-0.052,-0.002l-0.051,-0.002l-0.051,-0.003l-0.051,-0.004l-0.05,-0.004l-0.051,-0.005l-0.05,-0.005l-0.05,-0.006l-0.05,-0.007l-0.05,-0.007l-0.049,-0.008l-0.05,-0.009l-0.049,-0.009l-0.049,-0.009l-0.048,-0.011l-0.049,-0.011l-0.048,-0.011l-0.048,-0.012l-0.048,-0.013l-0.048,-0.013l-0.047,-0.014l-0.047,-0.014l-0.047,-0.015l-0.046,-0.015l-0.047,-0.016l-0.046,-0.017l-0.046,-0.017l-0.045,-0.018l-0.045,-0.018l-0.045,-0.019l-0.045,-0.019l-0.045,-0.02l-0.044,-0.02l-0.044,-0.021l-0.043,-0.021l-0.043,-0.022l-0.043,-0.022l-0.043,-0.023l-0.042,-0.023l-0.042,-0.024l-0.042,-0.025l-0.041,-0.024l-0.042,-0.026l-0.04,-0.026l-0.041,-0.026l-0.04,-0.027l-0.04,-0.027l-0.039,-0.027l-0.039,-0.029l-0.039,-0.028l-0.038,-0.029l-0.038,-0.03l-0.038,-0.03l-0.037,-0.03l-0.037,-0.031l-0.036,-0.031l-0.036,-0.032l-0.036,-0.032l-0.035,-0.032l-0.035,-0.033l-0.035,-0.033l-0.034,-0.034l-0.034,-0.034l-0.033,-0.035l-0.033,-0.035l-0.032,-0.035l-0.032,-0.036l-0.032,-0.036l-0.031,-0.036l-0.031,-0.037l-0.03,-0.037l-0.03,-0.038l-0.03,-0.038l-0.029,-0.038l-0.028,-0.039l-0.029,-0.039l-0.027,-0.039l-0.027,-0.04l-0.027,-0.04l-0.026,-0.041l-0.026,-0.04l-0.026,-0.042l-0.024,-0.041l-0.025,-0.042l-0.024,-0.042l-0.023,-0.042l-0.023,-0.043l-0.022,-0.043l-0.022,-0.043l-0.021,-0.043l-0.021,-0.044l-0.02,-0.044l-0.02,-0.045l-0.019,-0.045l-0.019,-0.045l-0.018,-0.045l-0.018,-0.045l-0.017,-0.046l-0.017,-0.046l-0.016,-0.047l-0.015,-0.046l-0.015,-0.047l-0.014,-0.047l-0.014,-0.047l-0.013,-0.048l-0.013,-0.048l-0.012,-0.048l-0.011,-0.048l-0.011,-0.049l-0.011,-0.048l-0.009,-0.049l-0.009,-0.049l-0.009,-0.05l-0.008,-0.049l-0.007,-0.05l-0.007,-0.05l-0.006,-0.05l-0.005,-0.05l-0.005,-0.051l-0.004,-0.05l-0.004,-0.051l-0.003,-0.051l-0.002,-0.051l-0.002,-0.052l-0.001,-0.051l0,-0.052l0,-0.052l0.001,-0.051l0.002,-0.052l0.002,-0.051l0.003,-0.051l0.004,-0.051l0.004,-0.05l0.005,-0.051l0.005,-0.05l0.006,-0.05l0.007,-0.05l0.007,-0.05l0.008,-0.049l0.009,-0.05l0.009,-0.049l0.009,-0.049l0.011,-0.048l0.011,-0.049l0.011,-0.048l0.012,-0.048l0.013,-0.048l0.013,-0.048l0.014,-0.047l0.014,-0.047l0.015,-0.047l0.015,-0.046l0.016,-0.047l0.017,-0.046l0.017,-0.046l0.018,-0.045l0.018,-0.045l0.019,-0.045l0.019,-0.045l0.02,-0.045l0.02,-0.044l0.021,-0.044l0.021,-0.043l0.022,-0.043l0.022,-0.043l0.023,-0.043l0.023,-0.042l0.024,-0.042l0.025,-0.042l0.024,-0.041l0.026,-0.042l0.026,-0.04l0.026,-0.041l0.027,-0.04l0.027,-0.04l0.027,-0.039l0.029,-0.039l0.028,-0.039l0.029,-0.038l0.03,-0.038l0.03,-0.038l0.03,-0.037l0.031,-0.037l0.031,-0.036l0.032,-0.036l0.032,-0.036l0.032,-0.035l0.033,-0.035l0.033,-0.035l0.034,-0.034l0.034,-0.034l0.035,-0.033l0.035,-0.033l0.035,-0.032l0.036,-0.032l0.036,-0.032l0.036,-0.031l0.037,-0.031l0.037,-0.03l0.038,-0.03l0.038,-0.03l0.038,-0.029l0.039,-0.028l0.039,-0.029l0.039,-0.027l0.04,-0.027l0.04,-0.027l0.041,-0.026l0.04,-0.026l0.042,-0.026l0.041,-0.024l0.042,-0.025l0.042,-0.024l0.042,-0.023l0.043,-0.023l0.043,-0.022l0.043,-0.022l0.043,-0.021l0.044,-0.021l0.044,-0.02l0.045,-0.02l0.045,-0.019l0.045,-0.019l0.045,-0.018l0.045,-0.018l0.046,-0.017l0.046,-0.017l0.047,-0.016l0.046,-0.015l0.047,-0.015l0.047,-0.014l0.047,-0.014l0.048,-0.013l0.048,-0.013l0.048,-0.012l0.048,-0.011l0.049,-0.011l0.048,-0.011l0.049,-0.009l0.049,-0.009l0.05,-0.009l0.049,-0.008l0.05,-0.007l0.05,-0.007l0.05,-0.006l0.05,-0.005l0.051,-0.005l0.05,-0.004l0.051,-0.004l0.051,-0.003l0.051,-0.002l0.052,-0.002l0.051,-0.001l0.052,0l0.052,0Zm-0.078,2l-0.027,0.001l-0.026,0.001l-0.025,0.001l-0.025,0.001l-0.025,0.002l-0.027,0.002l-0.026,0.003l-0.024,0.002l-0.026,0.003l-0.026,0.004l-0.023,0.003l-0.025,0.004l-0.024,0.004l-0.026,0.005l-0.023,0.005l-0.023,0.005l-0.025,0.005l-0.025,0.006l-0.025,0.006l-0.021,0.006l-0.024,0.006l-0.024,0.008l-0.023,0.006l-0.025,0.008l-0.022,0.008l-0.022,0.007l-0.024,0.009l-0.022,0.008l-0.023,0.009l-0.024,0.01l-0.019,0.008l-0.023,0.01l-0.023,0.01l-0.022,0.01l-0.023,0.011l-0.02,0.01l-0.023,0.011l-0.02,0.011l-0.022,0.011l-0.021,0.012l-0.019,0.011l-0.023,0.013l-0.022,0.013l-0.021,0.013l-0.018,0.012l-0.02,0.013l-0.021,0.014l-0.02,0.013l-0.019,0.014l-0.019,0.013l-0.021,0.016l-0.02,0.015l-0.018,0.014l-0.018,0.015l-0.018,0.014l-0.021,0.018l-0.018,0.015l-0.018,0.016l-0.018,0.016l-0.016,0.014l-0.02,0.019l-0.016,0.016l-0.017,0.016l-0.019,0.02l-0.016,0.016l-0.015,0.017l-0.017,0.018l-0.015,0.017l-0.018,0.021l-0.017,0.019l-0.012,0.014l-0.016,0.019l-0.017,0.022l-0.015,0.019l-0.013,0.017l-0.014,0.02l-0.015,0.021l-0.013,0.018l-0.015,0.022l-0.013,0.019l-0.013,0.02l-0.014,0.023l-0.012,0.019l-0.012,0.021l-0.012,0.02l-0.012,0.021l-0.012,0.021l-0.011,0.022l-0.011,0.021l-0.011,0.021l-0.011,0.023l-0.009,0.019l-0.011,0.022l-0.01,0.024l-0.01,0.023l-0.009,0.023l-0.008,0.02l-0.01,0.024l-0.008,0.022l-0.007,0.02l-0.01,0.029l-0.007,0.021l-0.007,0.021l-0.008,0.027l-0.007,0.022l-0.006,0.023l-0.006,0.022l-0.006,0.023l-0.006,0.027l-0.005,0.024l-0.005,0.024l-0.005,0.024l-0.005,0.024l-0.004,0.025l-0.004,0.025l-0.004,0.025l-0.002,0.022l-0.004,0.029l-0.003,0.027l-0.002,0.022l-0.002,0.023l-0.002,0.027l-0.001,0.027l-0.001,0.024l-0.001,0.027l-0.001,0.028l0,0.025l0,0.025l0.001,0.028l0.001,0.027l0.001,0.024l0.001,0.027l0.002,0.027l0.002,0.023l0.002,0.022l0.003,0.027l0.004,0.029l0.002,0.022l0.004,0.025l0.004,0.025l0.004,0.025l0.005,0.024l0.005,0.024l0.005,0.024l0.005,0.024l0.006,0.027l0.006,0.023l0.006,0.022l0.006,0.023l0.007,0.022l0.008,0.027l0.007,0.021l0.007,0.021l0.01,0.029l0.007,0.02l0.008,0.022l0.01,0.024l0.008,0.02l0.009,0.023l0.01,0.023l0.01,0.024l0.011,0.022l0.009,0.019l0.011,0.023l0.011,0.021l0.011,0.021l0.011,0.022l0.012,0.021l0.012,0.021l0.012,0.02l0.012,0.021l0.012,0.019l0.014,0.023l0.013,0.02l0.013,0.019l0.015,0.022l0.013,0.018l0.015,0.021l0.014,0.02l0.013,0.017l0.015,0.019l0.017,0.022l0.016,0.019l0.012,0.014l0.017,0.019l0.018,0.021l0.015,0.017l0.017,0.018l0.015,0.017l0.016,0.016l0.019,0.02l0.017,0.016l0.016,0.016l0.02,0.019l0.016,0.014l0.018,0.016l0.018,0.016l0.018,0.015l0.021,0.018l0.018,0.014l0.018,0.015l0.018,0.014l0.02,0.015l0.021,0.016l0.019,0.013l0.019,0.014l0.02,0.013l0.021,0.014l0.02,0.013l0.018,0.012l0.021,0.013l0.022,0.013l0.023,0.013l0.019,0.011l0.021,0.012l0.022,0.011l0.02,0.011l0.023,0.011l0.02,0.01l0.023,0.011l0.022,0.01l0.023,0.01l0.023,0.01l0.019,0.008l0.024,0.01l0.023,0.009l0.022,0.008l0.024,0.009l0.022,0.007l0.022,0.008l0.025,0.008l0.023,0.006l0.024,0.008l0.024,0.006l0.021,0.006l0.025,0.006l0.025,0.006l0.025,0.005l0.023,0.005l0.023,0.005l0.026,0.005l0.024,0.004l0.025,0.004l0.023,0.003l0.026,0.004l0.026,0.003l0.024,0.002l0.026,0.003l0.027,0.002l0.025,0.002l0.025,0.001l0.025,0.001l0.026,0.001l0.027,0.001l0.026,0l0.026,0l0.027,-0.001l0.026,-0.001l0.025,-0.001l0.025,-0.001l0.025,-0.002l0.027,-0.002l0.026,-0.003l0.024,-0.002l0.026,-0.003l0.026,-0.004l0.023,-0.003l0.025,-0.004l0.024,-0.004l0.026,-0.005l0.023,-0.005l0.023,-0.005l0.025,-0.005l0.025,-0.006l0.025,-0.006l0.021,-0.006l0.024,-0.006l0.024,-0.008l0.023,-0.006l0.025,-0.008l0.022,-0.008l0.022,-0.007l0.024,-0.009l0.022,-0.008l0.023,-0.009l0.024,-0.01l0.019,-0.008l0.023,-0.01l0.023,-0.01l0.022,-0.01l0.023,-0.011l0.02,-0.01l0.023,-0.011l0.02,-0.011l0.022,-0.011l0.021,-0.012l0.019,-0.011l0.023,-0.013l0.022,-0.013l0.021,-0.013l0.018,-0.012l0.02,-0.013l0.021,-0.014l0.02,-0.013l0.019,-0.014l0.019,-0.013l0.021,-0.016l0.02,-0.015l0.018,-0.014l0.018,-0.015l0.018,-0.014l0.021,-0.018l0.018,-0.015l0.018,-0.016l0.018,-0.016l0.016,-0.014l0.02,-0.019l0.016,-0.016l0.017,-0.016l0.019,-0.02l0.016,-0.016l0.015,-0.017l0.017,-0.018l0.015,-0.017l0.018,-0.021l0.017,-0.019l0.012,-0.014l0.016,-0.019l0.017,-0.022l0.015,-0.019l0.013,-0.017l0.014,-0.02l0.015,-0.021l0.013,-0.018l0.015,-0.022l0.013,-0.019l0.013,-0.02l0.014,-0.023l0.012,-0.019l0.012,-0.021l0.012,-0.02l0.012,-0.021l0.012,-0.021l0.011,-0.022l0.011,-0.021l0.011,-0.021l0.011,-0.023l0.009,-0.019l0.011,-0.022l0.01,-0.024l0.01,-0.023l0.009,-0.023l0.008,-0.02l0.01,-0.024l0.008,-0.022l0.007,-0.02l0.01,-0.029l0.007,-0.021l0.007,-0.021l0.008,-0.027l0.007,-0.022l0.006,-0.023l0.006,-0.022l0.006,-0.023l0.006,-0.027l0.005,-0.024l0.005,-0.024l0.005,-0.024l0.005,-0.024l0.004,-0.025l0.004,-0.025l0.004,-0.025l0.002,-0.022l0.004,-0.029l0.003,-0.027l0.002,-0.022l0.002,-0.023l0.002,-0.027l0.001,-0.027l0.001,-0.024l0.001,-0.027l0.001,-0.028l0,-0.025l0,-0.025l-0.001,-0.028l-0.001,-0.027l-0.001,-0.024l-0.001,-0.027l-0.002,-0.027l-0.002,-0.023l-0.002,-0.022l-0.003,-0.027l-0.004,-0.029l-0.002,-0.022l-0.004,-0.025l-0.004,-0.025l-0.004,-0.025l-0.005,-0.024l-0.005,-0.024l-0.005,-0.024l-0.005,-0.024l-0.006,-0.027l-0.006,-0.023l-0.006,-0.022l-0.006,-0.023l-0.007,-0.022l-0.008,-0.027l-0.007,-0.021l-0.007,-0.021l-0.01,-0.029l-0.007,-0.02l-0.008,-0.022l-0.01,-0.024l-0.008,-0.02l-0.009,-0.023l-0.01,-0.023l-0.01,-0.024l-0.011,-0.022l-0.009,-0.019l-0.011,-0.023l-0.011,-0.021l-0.011,-0.021l-0.011,-0.022l-0.012,-0.021l-0.012,-0.021l-0.012,-0.02l-0.012,-0.021l-0.012,-0.019l-0.014,-0.023l-0.013,-0.02l-0.013,-0.019l-0.015,-0.022l-0.013,-0.018l-0.015,-0.021l-0.014,-0.02l-0.013,-0.017l-0.015,-0.019l-0.017,-0.022l-0.016,-0.019l-0.012,-0.014l-0.017,-0.019l-0.018,-0.021l-0.015,-0.017l-0.017,-0.018l-0.015,-0.017l-0.016,-0.016l-0.019,-0.02l-0.017,-0.016l-0.016,-0.016l-0.02,-0.019l-0.016,-0.014l-0.018,-0.016l-0.018,-0.016l-0.018,-0.015l-0.021,-0.018l-0.018,-0.014l-0.018,-0.015l-0.018,-0.014l-0.02,-0.015l-0.021,-0.016l-0.019,-0.013l-0.019,-0.014l-0.02,-0.013l-0.021,-0.014l-0.02,-0.013l-0.018,-0.012l-0.021,-0.013l-0.022,-0.013l-0.023,-0.013l-0.019,-0.011l-0.021,-0.012l-0.022,-0.011l-0.02,-0.011l-0.023,-0.011l-0.02,-0.01l-0.023,-0.011l-0.022,-0.01l-0.023,-0.01l-0.023,-0.01l-0.019,-0.008l-0.024,-0.01l-0.023,-0.009l-0.022,-0.008l-0.024,-0.009l-0.022,-0.007l-0.022,-0.008l-0.025,-0.008l-0.023,-0.006l-0.024,-0.008l-0.024,-0.006l-0.021,-0.006l-0.025,-0.006l-0.025,-0.006l-0.025,-0.005l-0.023,-0.005l-0.023,-0.005l-0.026,-0.005l-0.024,-0.004l-0.025,-0.004l-0.023,-0.003l-0.026,-0.004l-0.026,-0.003l-0.024,-0.002l-0.026,-0.003l-0.027,-0.002l-0.025,-0.002l-0.025,-0.001l-0.025,-0.001l-0.026,-0.001l-0.027,-0.001l-0.026,0l-0.026,0Z" style="fill:#e5a1c8;"/></g><g><path d="M274.052,129.5l0.051,0.001l0.052,0.002l0.051,0.002l0.051,0.003l0.051,0.004l0.05,0.004l0.051,0.005l0.05,0.005l0.05,0.006l0.05,0.007l0.05,0.007l0.049,0.008l0.05,0.009l0.049,0.009l0.049,0.009l0.048,0.011l0.049,0.011l0.048,0.011l0.048,0.012l0.048,0.013l0.048,0.013l0.047,0.014l0.047,0.014l0.047,0.015l0.046,0.015l0.047,0.016l0.046,0.017l0.046,0.017l0.045,0.018l0.045,0.018l0.045,0.019l0.045,0.019l0.045,0.02l0.044,0.02l0.044,0.021l0.043,0.021l0.043,0.022l0.043,0.022l0.043,0.023l0.042,0.023l0.042,0.024l0.042,0.025l0.041,0.024l0.042,0.026l0.04,0.026l0.041,0.026l0.04,0.027l0.04,0.027l0.039,0.027l0.039,0.029l0.039,0.028l0.038,0.029l0.038,0.03l0.038,0.03l0.037,0.03l0.037,0.031l0.036,0.031l0.036,0.032l0.036,0.032l0.035,0.032l0.035,0.033l0.035,0.033l0.034,0.034l0.034,0.034l0.033,0.035l0.033,0.035l0.032,0.035l0.032,0.036l0.032,0.036l0.031,0.036l0.031,0.037l0.03,0.037l0.03,0.038l0.03,0.038l0.029,0.038l0.028,0.039l0.029,0.039l0.027,0.039l0.027,0.04l0.027,0.04l0.026,0.041l0.026,0.04l0.026,0.042l0.024,0.041l0.025,0.042l0.024,0.042l0.023,0.042l0.023,0.043l0.022,0.043l0.022,0.043l0.021,0.043l0.021,0.044l0.02,0.044l0.02,0.045l0.019,0.045l0.019,0.045l0.018,0.045l0.018,0.045l0.017,0.046l0.017,0.046l0.016,0.047l0.015,0.046l0.015,0.047l0.014,0.047l0.014,0.047l0.013,0.048l0.013,0.048l0.012,0.048l0.011,0.048l0.011,0.049l0.011,0.048l0.009,0.049l0.009,0.049l0.009,0.05l0.008,0.049l0.007,0.05l0.007,0.05l0.006,0.05l0.005,0.05l0.005,0.051l0.004,0.05l0.004,0.051l0.003,0.051l0.002,0.051l0.002,0.052l0.001,0.051l0,0.052l0,0.052l-0.001,0.051l-0.002,0.052l-0.002,0.051l-0.003,0.051l-0.004,0.051l-0.004,0.05l-0.005,0.051l-0.005,0.05l-0.006,0.05l-0.007,0.05l-0.007,0.05l-0.008,0.049l-0.009,0.05l-0.009,0.049l-0.009,0.049l-0.011,0.048l-0.011,0.049l-0.011,0.048l-0.012,0.048l-0.013,0.048l-0.013,0.048l-0.014,0.047l-0.014,0.047l-0.015,0.047l-0.015,0.046l-0.016,0.047l-0.017,0.046l-0.017,0.046l-0.018,0.045l-0.018,0.045l-0.019,0.045l-0.019,0.045l-0.02,0.045l-0.02,0.044l-0.021,0.044l-0.021,0.043l-0.022,0.043l-0.022,0.043l-0.023,0.043l-0.023,0.042l-0.024,0.042l-0.025,0.042l-0.024,0.041l-0.026,0.042l-0.026,0.04l-0.026,0.041l-0.027,0.04l-0.027,0.04l-0.027,0.039l-0.029,0.039l-0.028,0.039l-0.029,0.038l-0.03,0.038l-0.03,0.038l-0.03,0.037l-0.031,0.037l-0.031,0.036l-0.032,0.036l-0.032,0.036l-0.032,0.035l-0.033,0.035l-0.033,0.035l-0.034,0.034l-0.034,0.034l-0.035,0.033l-0.035,0.033l-0.035,0.032l-0.036,0.032l-0.036,0.032l-0.036,0.031l-0.037,0.031l-0.037,0.03l-0.038,0.03l-0.038,0.03l-0.038,0.029l-0.039,0.028l-0.039,0.029l-0.039,0.027l-0.04,0.027l-0.04,0.027l-0.041,0.026l-0.04,0.026l-0.042,0.026l-0.041,0.024l-0.042,0.025l-0.042,0.024l-0.042,0.023l-0.043,0.023l-0.043,0.022l-0.043,0.022l-0.043,0.021l-0.044,0.021l-0.044,0.02l-0.045,0.02l-0.045,0.019l-0.045,0.019l-0.045,0.018l-0.045,0.018l-0.046,0.017l-0.046,0.017l-0.047,0.016l-0.046,0.015l-0.047,0.015l-0.047,0.014l-0.047,0.014l-0.048,0.013l-0.048,0.013l-0.048,0.012l-0.048,0.011l-0.049,0.011l-0.048,0.011l-0.049,0.009l-0.049,0.009l-0.05,0.009l-0.049,0.008l-0.05,0.007l-0.05,0.007l-0.05,0.006l-0.05,0.005l-0.051,0.005l-0.05,0.004l-0.051,0.004l-0.051,0.003l-0.051,0.002l-0.052,0.002l-0.051,0.001l-0.052,0l-0.052,0l-0.051,-0.001l-0.052,-0.002l-0.051,-0.002l-0.051,-0.003l-0.051,-0.004l-0.05,-0.004l-0.051,-0.005l-0.05,-0.005l-0.05,-0.006l-0.05,-0.007l-0.05,-0.007l-0.049,-0.008l-0.05,-0.009l-0.049,-0.009l-0.049,-0.009l-0.048,-0.011l-0.049,-0.011l-0.048,-0.011l-0.048,-0.012l-0.048,-0.013l-0.048,-0.013l-0.047,-0.014l-0.047,-0.014l-0.047,-0.015l-0.046,-0.015l-0.047,-0.016l-0.046,-0.017l-0.046,-0.017l-0.045,-0.018l-0.045,-0.018l-0.045,-0.019l-0.045,-0.019l-0.045,-0.02l-0.044,-0.02l-0.044,-0.021l-0.043,-0.021l-0.043,-0.022l-0.043,-0.022l-0.043,-0.023l-0.042,-0.023l-0.042,-0.024l-0.042,-0.025l-0.041,-0.024l-0.042,-0.026l-0.04,-0.026l-0.041,-0.026l-0.04,-0.027l-0.04,-0.027l-0.039,-0.027l-0.039,-0.029l-0.039,-0.028l-0.038,-0.029l-0.038,-0.03l-0.038,-0.03l-0.037,-0.03l-0.037,-0.031l-0.036,-0.031l-0.036,-0.032l-0.036,-0.032l-0.035,-0.032l-0.035,-0.033l-0.035,-0.033l-0.034,-0.034l-0.034,-0.034l-0.033,-0.035l-0.033,-0.035l-0.032,-0.035l-0.032,-0.036l-0.032,-0.036l-0.031,-0.036l-0.031,-0.037l-0.03,-0.037l-0.03,-0.038l-0.03,-0.038l-0.029,-0.038l-0.028,-0.039l-0.029,-0.039l-0.027,-0.039l-0.027,-0.04l-0.027,-0.04l-0.026,-0.041l-0.026,-0.04l-0.026,-0.042l-0.024,-0.041l-0.025,-0.042l-0.024,-0.042l-0.023,-0.042l-0.023,-0.043l-0.022,-0.043l-0.022,-0.043l-0.021,-0.043l-0.021,-0.044l-0.02,-0.044l-0.02,-0.045l-0.019,-0.045l-0.019,-0.045l-0.018,-0.045l-0.018,-0.045l-0.017,-0.046l-0.017,-0.046l-0.016,-0.047l-0.015,-0.046l-0.015,-0.047l-0.014,-0.047l-0.014,-0.047l-0.013,-0.048l-0.013,-0.048l-0.012,-0.048l-0.011,-0.048l-0.011,-0.049l-0.011,-0.048l-0.009,-0.049l-0.009,-0.049l-0.009,-0.05l-0.008,-0.049l-0.007,-0.05l-0.007,-0.05l-0.006,-0.05l-0.005,-0.05l-0.005,-0.051l-0.004,-0.05l-0.004,-0.051l-0.003,-0.051l-0.002,-0.051l-0.002,-0.052l-0.001,-0.051l0,-0.052l0,-0.052l0.001,-0.051l0.002,-0.052l0.002,-0.051l0.003,-0.051l0.004,-0.051l0.004,-0.05l0.005,-0.051l0.005,-0.05l0.006,-0.05l0.007,-0.05l0.007,-0.05l0.008,-0.049l0.009,-0.05l0.009,-0.049l0.009,-0.049l0.011,-0.048l0.011,-0.049l0.011,-0.048l0.012,-0.048l0.013,-0.048l0.013,-0.048l0.014,-0.047l0.014,-0.047l0.015,-0.047l0.015,-0.046l0.016,-0.047l0.017,-0.046l0.017,-0.046l0.018,-0.045l0.018,-0.045l0.019,-0.045l0.019,-0.045l0.02,-0.045l0.02,-0.044l0.021,-0.044l0.021,-0.043l0.022,-0.043l0.022,-0.043l0.023,-0.043l0.023,-0.042l0.024,-0.042l0.025,-0.042l0.024,-0.041l0.026,-0.042l0.026,-0.04l0.026,-0.041l0.027,-0.04l0.027,-0.04l0.027,-0.039l0.029,-0.039l0.028,-0.039l0.029,-0.038l0.03,-0.038l0.03,-0.038l0.03,-0.037l0.031,-0.037l0.031,-0.036l0.032,-0.036l0.032,-0.036l0.032,-0.035l0.033,-0.035l0.033,-0.035l0.034,-0.034l0.034,-0.034l0.035,-0.033l0.035,-0.033l0.035,-0.032l0.036,-0.032l0.036,-0.032l0.036,-0.031l0.037,-0.031l0.037,-0.03l0.038,-0.03l0.038,-0.03l0.038,-0.029l0.039,-0.028l0.039,-0.029l0.039,-0.027l0.04,-0.027l0.04,-0.027l0.041,-0.026l0.04,-0.026l0.042,-0.026l0.041,-0.024l0.042,-0.025l0.042,-0.024l0.042,-0.023l0.043,-0.023l0.043,-0.022l0.043,-0.022l0.043,-0.021l0.044,-0.021l0.044,-0.02l0.045,-0.02l0.045,-0.019l0.045,-0.019l0.045,-0.018l0.045,-0.018l0.046,-0.017l0.046,-0.017l0.047,-0.016l0.046,-0.015l0.047,-0.015l0.047,-0.014l0.047,-0.014l0.048,-0.013l0.048,-0.013l0.048,-0.012l0.048,-0.011l0.049,-0.011l0.048,-0.011l0.049,-0.009l0.049,-0.009l0.05,-0.009l0.049,-0.008l0.05,-0.007l0.05,-0.007l0.05,-0.006l0.05,-0.005l0.051,-0.005l0.05,-0.004l0.051,-0.004l0.051,-0.003l0.051,-0.002l0.052,-0.002l0.051,-0.001l0.052,0l0.052,0Zm-0.078,2l-0.027,0.001l-0.026,0.001l-0.025,0.001l-0.025,0.001l-0.025,0.002l-0.027,0.002l-0.026,0.003l-0.024,0.002l-0.026,0.003l-0.026,0.004l-0.023,0.003l-0.025,0.004l-0.024,0.004l-0.026,0.005l-0.023,0.005l-0.023,0.005l-0.025,0.005l-0.025,0.006l-0.025,0.006l-0.021,0.006l-0.024,0.006l-0.024,0.008l-0.023,0.006l-0.025,0.008l-0.022,0.008l-0.022,0.007l-0.024,0.009l-0.022,0.008l-0.023,0.009l-0.024,0.01l-0.019,0.008l-0.023,0.01l-0.023,0.01l-0.022,0.01l-0.023,0.011l-0.02,0.01l-0.023,0.011l-0.02,0.011l-0.022,0.011l-0.021,0.012l-0.019,0.011l-0.023,0.013l-0.022,0.013l-0.021,0.013l-0.018,0.012l-0.02,0.013l-0.021,0.014l-0.02,0.013l-0.019,0.014l-0.019,0.013l-0.021,0.016l-0.02,0.015l-0.018,0.014l-0.018,0.015l-0.018,0.014l-0.021,0.018l-0.018,0.015l-0.018,0.016l-0.018,0.016l-0.016,0.014l-0.02,0.019l-0.016,0.016l-0.017,0.016l-0.019,0.02l-0.016,0.016l-0.015,0.017l-0.017,0.018l-0.015,0.017l-0.018,0.021l-0.017,0.019l-0.012,0.014l-0.016,0.019l-0.017,0.022l-0.015,0.019l-0.013,0.017l-0.014,0.02l-0.015,0.021l-0.013,0.018l-0.015,0.022l-0.013,0.019l-0.013,0.02l-0.014,0.023l-0.012,0.019l-0.012,0.021l-0.012,0.02l-0.012,0.021l-0.012,0.021l-0.011,0.022l-0.011,0.021l-0.011,0.021l-0.011,0.023l-0.009,0.019l-0.011,0.022l-0.01,0.024l-0.01,0.023l-0.009,0.023l-0.008,0.02l-0.01,0.024l-0.008,0.022l-0.007,0.02l-0.01,0.029l-0.007,0.021l-0.007,0.021l-0.008,0.027l-0.007,0.022l-0.006,0.023l-0.006,0.022l-0.006,0.023l-0.006,0.027l-0.005,0.024l-0.005,0.024l-0.005,0.024l-0.005,0.024l-0.004,0.025l-0.004,0.025l-0.004,0.025l-0.002,0.022l-0.004,0.029l-0.003,0.027l-0.002,0.022l-0.002,0.023l-0.002,0.027l-0.001,0.027l-0.001,0.024l-0.001,0.027l-0.001,0.028l0,0.025l0,0.025l0.001,0.028l0.001,0.027l0.001,0.024l0.001,0.027l0.002,0.027l0.002,0.023l0.002,0.022l0.003,0.027l0.004,0.029l0.002,0.022l0.004,0.025l0.004,0.025l0.004,0.025l0.005,0.024l0.005,0.024l0.005,0.024l0.005,0.024l0.006,0.027l0.006,0.023l0.006,0.022l0.006,0.023l0.007,0.022l0.008,0.027l0.007,0.021l0.007,0.021l0.01,0.029l0.007,0.02l0.008,0.022l0.01,0.024l0.008,0.02l0.009,0.023l0.01,0.023l0.01,0.024l0.011,0.022l0.009,0.019l0.011,0.023l0.011,0.021l0.011,0.021l0.011,0.022l0.012,0.021l0.012,0.021l0.012,0.02l0.012,0.021l0.012,0.019l0.014,0.023l0.013,0.02l0.013,0.019l0.015,0.022l0.013,0.018l0.015,0.021l0.014,0.02l0.013,0.017l0.015,0.019l0.017,0.022l0.016,0.019l0.012,0.014l0.017,0.019l0.018,0.021l0.015,0.017l0.017,0.018l0.015,0.017l0.016,0.016l0.019,0.02l0.017,0.016l0.016,0.016l0.02,0.019l0.016,0.014l0.018,0.016l0.018,0.016l0.018,0.015l0.021,0.018l0.018,0.014l0.018,0.015l0.018,0.014l0.02,0.015l0.021,0.016l0.019,0.013l0.019,0.014l0.02,0.013l0.021,0.014l0.02,0.013l0.018,0.012l0.021,0.013l0.022,0.013l0.023,0.013l0.019,0.011l0.021,0.012l0.022,0.011l0.02,0.011l0.023,0.011l0.02,0.01l0.023,0.011l0.022,0.01l0.023,0.01l0.023,0.01l0.019,0.008l0.024,0.01l0.023,0.009l0.022,0.008l0.024,0.009l0.022,0.007l0.022,0.008l0.025,0.008l0.023,0.006l0.024,0.008l0.024,0.006l0.021,0.006l0.025,0.006l0.025,0.006l0.025,0.005l0.023,0.005l0.023,0.005l0.026,0.005l0.024,0.004l0.025,0.004l0.023,0.003l0.026,0.004l0.026,0.003l0.024,0.002l0.026,0.003l0.027,0.002l0.025,0.002l0.025,0.001l0.025,0.001l0.026,0.001l0.027,0.001l0.026,0l0.026,0l0.027,-0.001l0.026,-0.001l0.025,-0.001l0.025,-0.001l0.025,-0.002l0.027,-0.002l0.026,-0.003l0.024,-0.002l0.026,-0.003l0.026,-0.004l0.023,-0.003l0.025,-0.004l0.024,-0.004l0.026,-0.005l0.023,-0.005l0.023,-0.005l0.025,-0.005l0.025,-0.006l0.025,-0.006l0.021,-0.006l0.024,-0.006l0.024,-0.008l0.023,-0.006l0.025,-0.008l0.022,-0.008l0.022,-0.007l0.024,-0.009l0.022,-0.008l0.023,-0.009l0.024,-0.01l0.019,-0.008l0.023,-0.01l0.023,-0.01l0.022,-0.01l0.023,-0.011l0.02,-0.01l0.023,-0.011l0.02,-0.011l0.022,-0.011l0.021,-0.012l0.019,-0.011l0.023,-0.013l0.022,-0.013l0.021,-0.013l0.018,-0.012l0.02,-0.013l0.021,-0.014l0.02,-0.013l0.019,-0.014l0.019,-0.013l0.021,-0.016l0.02,-0.015l0.018,-0.014l0.018,-0.015l0.018,-0.014l0.021,-0.018l0.018,-0.015l0.018,-0.016l0.018,-0.016l0.016,-0.014l0.02,-0.019l0.016,-0.016l0.017,-0.016l0.019,-0.02l0.016,-0.016l0.015,-0.017l0.017,-0.018l0.015,-0.017l0.018,-0.021l0.017,-0.019l0.012,-0.014l0.016,-0.019l0.017,-0.022l0.015,-0.019l0.013,-0.017l0.014,-0.02l0.015,-0.021l0.013,-0.018l0.015,-0.022l0.013,-0.019l0.013,-0.02l0.014,-0.023l0.012,-0.019l0.012,-0.021l0.012,-0.02l0.012,-0.021l0.012,-0.021l0.011,-0.022l0.011,-0.021l0.011,-0.021l0.011,-0.023l0.009,-0.019l0.011,-0.022l0.01,-0.024l0.01,-0.023l0.009,-0.023l0.008,-0.02l0.01,-0.024l0.008,-0.022l0.007,-0.02l0.01,-0.029l0.007,-0.021l0.007,-0.021l0.008,-0.027l0.007,-0.022l0.006,-0.023l0.006,-0.022l0.006,-0.023l0.006,-0.027l0.005,-0.024l0.005,-0.024l0.005,-0.024l0.005,-0.024l0.004,-0.025l0.004,-0.025l0.004,-0.025l0.002,-0.022l0.004,-0.029l0.003,-0.027l0.002,-0.022l0.002,-0.023l0.002,-0.027l0.001,-0.027l0.001,-0.024l0.001,-0.027l0.001,-0.028l0,-0.025l0,-0.025l-0.001,-0.028l-0.001,-0.027l-0.001,-0.024l-0.001,-0.027l-0.002,-0.027l-0.002,-0.023l-0.002,-0.022l-0.003,-0.027l-0.004,-0.029l-0.002,-0.022l-0.004,-0.025l-0.004,-0.025l-0.004,-0.025l-0.005,-0.024l-0.005,-0.024l-0.005,-0.024l-0.005,-0.024l-0.006,-0.027l-0.006,-0.023l-0.006,-0.022l-0.006,-0.023l-0.007,-0.022l-0.008,-0.027l-0.007,-0.021l-0.007,-0.021l-0.01,-0.029l-0.007,-0.02l-0.008,-0.022l-0.01,-0.024l-0.008,-0.02l-0.009,-0.023l-0.01,-0.023l-0.01,-0.024l-0.011,-0.022l-0.009,-0.019l-0.011,-0.023l-0.011,-0.021l-0.011,-0.021l-0.011,-0.022l-0.012,-0.021l-0.012,-0.021l-0.012,-0.02l-0.012,-0.021l-0.012,-0.019l-0.014,-0.023l-0.013,-0.02l-0.013,-0.019l-0.015,-0.022l-0.013,-0.018l-0.015,-0.021l-0.014,-0.02l-0.013,-0.017l-0.015,-0.019l-0.017,-0.022l-0.016,-0.019l-0.012,-0.014l-0.017,-0.019l-0.018,-0.021l-0.015,-0.017l-0.017,-0.018l-0.015,-0.017l-0.016,-0.016l-0.019,-0.02l-0.017,-0.016l-0.016,-0.016l-0.02,-0.019l-0.016,-0.014l-0.018,-0.016l-0.018,-0.016l-0.018,-0.015l-0.021,-0.018l-0.018,-0.014l-0.018,-0.015l-0.018,-0.014l-0.02,-0.015l-0.021,-0.016l-0.019,-0.013l-0.019,-0.014l-0.02,-0.013l-0.021,-0.014l-0.02,-0.013l-0.018,-0.012l-0.021,-0.013l-0.022,-0.013l-0.023,-0.013l-0.019,-0.011l-0.021,-0.012l-0.022,-0.011l-0.02,-0.011l-0.023,-0.011l-0.02,-0.01l-0.023,-0.011l-0.022,-0.01l-0.023,-0.01l-0.023,-0.01l-0.019,-0.008l-0.024,-0.01l-0.023,-0.009l-0.022,-0.008l-0.024,-0.009l-0.022,-0.007l-0.022,-0.008l-0.025,-0.008l-0.023,-0.006l-0.024,-0.008l-0.024,-0.006l-0.021,-0.006l-0.025,-0.006l-0.025,-0.006l-0.025,-0.005l-0.023,-0.005l-0.023,-0.005l-0.026,-0.005l-0.024,-0.004l-0.025,-0.004l-0.023,-0.003l-0.026,-0.004l-0.026,-0.003l-0.024,-0.002l-0.026,-0.003l-0.027,-0.002l-0.025,-0.002l-0.025,-0.001l-0.025,-0.001l-0.026,-0.001l-0.027,-0.001l-0.026,0l-0.026,0Z" style="fill:#e5a1c8;"/></g></g><g><rect x="43.761" y="116.123" width="120" height="140" style="fill:#181b1c;"/><path d="M164.526,114.275l0.649,0.434l0.434,0.649l0.152,0.765l0,140l-0.152,0.765l-0.434,0.649l-0.649,0.434l-0.765,0.152l-120,0l-0.765,-0.152l-0.649,-0.434l-0.434,-0.649l-0.152,-0.765l0,-140l0.152,-0.765l0.434,-0.649l0.649,-0.434l0.765,-0.152l120,0l0.765,0.152Zm-120.765,1.848l0,140l120,0l0,-140l-120,0Z" style="fill:#fff;"/><rect x="51.761" y="124.123" width="104" height="124" style="fill:#181b1c;"/><path d="M156.074,122.148l0.305,0.073l0.29,0.12l0.267,0.164l0.239,0.204l0.204,0.238l0.164,0.268l0.12,0.29l0.073,0.305l0.025,0.313l0,124l-0.025,0.313l-0.073,0.305l-0.12,0.29l-0.164,0.268l-0.204,0.238l-0.239,0.204l-0.267,0.164l-0.29,0.12l-0.305,0.073l-0.313,0.025l-104,0l-0.313,-0.025l-0.305,-0.073l-0.29,-0.12l-0.268,-0.164l-0.238,-0.204l-0.204,-0.238l-0.164,-0.268l-0.12,-0.29l-0.073,-0.305l-0.025,-0.313l0,-124l0.025,-0.313l0.073,-0.305l0.12,-0.29l0.164,-0.268l0.204,-0.238l0.238,-0.204l0.268,-0.164l0.29,-0.12l0.305,-0.073l0.313,-0.025l104,0l0.313,0.025Zm-104.313,1.975l0,124l104,0l0,-124l-104,0Z" style="fill:#fff;"/></g><g><g><circle cx="120.668" cy="195.599" r="6" style="fill:none;stroke:#fff;stroke-width:2px;stroke-linejoin:round;stroke-miterlimit:1.5;"/></g><g><g><path d="M84.728,192.652l-12.688,-11.271" style="fill:none;stroke:#fff;stroke-width:2px;stroke-linejoin:round;stroke-miterlimit:1.5;"/></g><g><path d="M84.019,180.673l-11.27,12.687" style="fill:none;stroke:#fff;stroke-width:2px;stroke-linejoin:round;stroke-miterlimit:1.5;"/></g></g><path d="M128.579,225.397l-2.223,3.614l3.615,2.222" style="fill:none;stroke:#addde2;stroke-width:2px;stroke-linejoin:miter;stroke-miterlimit:10;"/><path d="M126.356,229.011c4.208,-1.127 16.612,-5.419 16.418,-16.813c-0.25,-14.753 -11.736,-16.127 -11.736,-16.127" style="fill:none;stroke:#addde2;stroke-width:2px;stroke-linejoin:round;stroke-miterlimit:1.5;"/><path d="M133.858,152.383l-0.926,4.14l-4.141,-0.926" style="fill:none;stroke:#addde2;stroke-width:2px;stroke-linejoin:miter;stroke-miterlimit:10;"/><path d="M83.642,221.407c0,0 15.044,-6.791 17.796,-19.099c5.233,-23.397 -15.078,-38.178 -3.582,-53.038c15.405,-19.914 31.449,1.768 35.076,7.253" style="fill:none;stroke:#addde2;stroke-width:2px;stroke-linejoin:round;stroke-miterlimit:1.5;stroke-dasharray:6,4,0,0;"/></g><g id="clip"><path d="M93.811,108.418c-0.033,-0.329 -0.05,-0.663 -0.05,-1c0,-5.519 4.481,-10 10,-10c5.519,0 10,4.481 10,10c0,0.337 -0.017,0.671 -0.05,1l20.05,0l0,20l-60,0l0,-20l20.05,0Z" style="fill:#181b1c;"/><path d="M103.839,95.418l0.076,0.001l0.077,0.001l0.078,0.002l0.077,0.002l0.076,0.003l0.076,0.003l0.077,0.003l0.078,0.005l0.075,0.004l0.077,0.005l0.076,0.006l0.075,0.006l0.077,0.006l0.077,0.007l0.075,0.008l0.075,0.008l0.075,0.008l0.075,0.009l0.076,0.009l0.074,0.01l0.075,0.01l0.075,0.011l0.076,0.011l0.074,0.012l0.072,0.012l0.076,0.012l0.074,0.014l0.072,0.013l0.075,0.014l0.074,0.014l0.072,0.015l0.075,0.015l0.073,0.016l0.071,0.016l0.073,0.016l0.074,0.018l0.07,0.017l0.073,0.018l0.073,0.018l0.072,0.019l0.073,0.019l0.07,0.02l0.071,0.02l0.071,0.02l0.071,0.021l0.07,0.021l0.072,0.022l0.072,0.023l0.069,0.022l0.069,0.023l0.07,0.023l0.07,0.024l0.071,0.025l0.067,0.024l0.07,0.025l0.07,0.026l0.067,0.025l0.068,0.027l0.072,0.028l0.133,0.053l0.136,0.056l0.134,0.058l0.133,0.059l0.133,0.061l0.132,0.063l0.13,0.064l0.13,0.065l0.129,0.068l0.128,0.068l0.127,0.07l0.126,0.072l0.126,0.073l0.124,0.075l0.123,0.075l0.122,0.078l0.121,0.078l0.12,0.08l0.119,0.082l0.119,0.084l0.117,0.084l0.115,0.085l0.116,0.087l0.113,0.088l0.113,0.09l0.112,0.091l0.11,0.092l0.11,0.095l0.107,0.093l0.107,0.096l0.107,0.099l0.105,0.098l0.102,0.1l0.103,0.101l0.101,0.103l0.1,0.103l0.098,0.103l0.098,0.107l0.097,0.108l0.093,0.107l0.094,0.109l0.093,0.111l0.091,0.112l0.09,0.113l0.088,0.114l0.087,0.114l0.085,0.116l0.085,0.117l0.082,0.118l0.082,0.12l0.08,0.119l0.079,0.122l0.078,0.122l0.075,0.123l0.075,0.125l0.073,0.125l0.071,0.125l0.071,0.128l0.068,0.129l0.067,0.127l0.066,0.13l0.064,0.131l0.063,0.132l0.061,0.133l0.058,0.132l0.059,0.136l0.056,0.135l0.054,0.134l0.027,0.071l0.026,0.067l0.026,0.069l0.026,0.07l0.025,0.068l0.024,0.067l0.025,0.073l0.024,0.071l0.022,0.065l0.023,0.07l0.024,0.074l0.022,0.069l0.022,0.071l0.021,0.072l0.02,0.068l0.021,0.072l0.02,0.072l0.02,0.072l0.019,0.072l0.018,0.07l0.019,0.072l0.019,0.076l0.016,0.07l0.017,0.072l0.017,0.073l0.016,0.07l0.016,0.076l0.015,0.074l0.014,0.071l0.015,0.076l0.014,0.074l0.013,0.071l0.014,0.077l0.012,0.074l0.012,0.071l0.012,0.077l0.011,0.074l0.011,0.075l0.01,0.075l0.01,0.074l0.009,0.075l0.009,0.075l0.008,0.078l0.008,0.075l0.008,0.075l0.006,0.075l0.007,0.073l18.041,0l0.209,0.011l0.207,0.033l0.202,0.054l0.195,0.075l0.187,0.095l0.176,0.114l0.162,0.132l0.148,0.148l0.132,0.162l0.114,0.176l0.095,0.186l0.075,0.196l0.054,0.202l0.033,0.207l0.011,0.209l0,20l-0.011,0.209l-0.033,0.207l-0.054,0.202l-0.075,0.195l-0.095,0.187l-0.114,0.175l-0.132,0.163l-0.148,0.148l-0.162,0.132l-0.176,0.114l-0.187,0.095l-0.195,0.075l-0.202,0.054l-0.207,0.033l-0.209,0.011l-60,0l-0.209,-0.011l-0.207,-0.033l-0.202,-0.054l-0.196,-0.075l-0.186,-0.095l-0.176,-0.114l-0.162,-0.132l-0.148,-0.148l-0.132,-0.163l-0.114,-0.175l-0.095,-0.187l-0.075,-0.195l-0.054,-0.202l-0.033,-0.207l-0.011,-0.209l0,-20l0.011,-0.209l0.033,-0.207l0.054,-0.202l0.075,-0.196l0.095,-0.186l0.114,-0.176l0.132,-0.162l0.148,-0.148l0.162,-0.132l0.176,-0.114l0.186,-0.095l0.196,-0.075l0.202,-0.054l0.207,-0.033l0.209,-0.011l18.041,0l0.006,-0.073l0.008,-0.078l0.007,-0.075l0.008,-0.072l0.008,-0.075l0.009,-0.078l0.009,-0.075l0.01,-0.074l0.01,-0.075l0.011,-0.075l0.012,-0.077l0.011,-0.071l0.012,-0.074l0.013,-0.077l0.012,-0.071l0.014,-0.074l0.014,-0.077l0.014,-0.07l0.015,-0.074l0.016,-0.076l0.015,-0.071l0.016,-0.073l0.017,-0.073l0.017,-0.072l0.017,-0.073l0.018,-0.07l0.018,-0.073l0.019,-0.074l0.02,-0.073l0.019,-0.069l0.019,-0.069l0.021,-0.072l0.022,-0.074l0.02,-0.069l0.022,-0.071l0.023,-0.071l0.022,-0.069l0.023,-0.071l0.024,-0.07l0.024,-0.071l0.023,-0.067l0.024,-0.068l0.027,-0.073l0.025,-0.067l0.025,-0.067l0.028,-0.072l0.027,-0.07l0.053,-0.132l0.057,-0.137l0.057,-0.133l0.059,-0.133l0.062,-0.134l0.062,-0.131l0.064,-0.129l0.066,-0.131l0.067,-0.13l0.068,-0.127l0.07,-0.127l0.072,-0.127l0.073,-0.125l0.074,-0.123l0.076,-0.124l0.078,-0.122l0.079,-0.122l0.08,-0.119l0.081,-0.119l0.083,-0.119l0.085,-0.117l0.085,-0.116l0.087,-0.114l0.088,-0.114l0.091,-0.114l0.091,-0.112l0.092,-0.109l0.093,-0.109l0.095,-0.109l0.096,-0.107l0.098,-0.106l0.098,-0.104l0.1,-0.103l0.102,-0.104l0.102,-0.1l0.102,-0.1l0.105,-0.099l0.106,-0.097l0.108,-0.097l0.108,-0.094l0.109,-0.094l0.111,-0.092l0.11,-0.09l0.114,-0.091l0.114,-0.088l0.114,-0.087l0.116,-0.085l0.118,-0.085l0.118,-0.083l0.119,-0.081l0.12,-0.081l0.121,-0.078l0.122,-0.078l0.124,-0.076l0.123,-0.074l0.126,-0.073l0.126,-0.071l0.127,-0.071l0.128,-0.069l0.129,-0.067l0.13,-0.065l0.13,-0.063l0.132,-0.063l0.134,-0.062l0.132,-0.059l0.134,-0.058l0.136,-0.056l0.133,-0.054l0.073,-0.028l0.067,-0.026l0.066,-0.025l0.07,-0.026l0.072,-0.025l0.066,-0.024l0.07,-0.025l0.071,-0.024l0.069,-0.023l0.07,-0.023l0.07,-0.023l0.071,-0.022l0.071,-0.022l0.072,-0.021l0.07,-0.021l0.07,-0.02l0.072,-0.02l0.071,-0.02l0.072,-0.019l0.072,-0.019l0.073,-0.018l0.072,-0.018l0.072,-0.018l0.073,-0.017l0.072,-0.016l0.072,-0.016l0.073,-0.016l0.075,-0.015l0.073,-0.015l0.073,-0.014l0.075,-0.014l0.072,-0.013l0.074,-0.014l0.076,-0.012l0.073,-0.012l0.074,-0.012l0.076,-0.011l0.074,-0.011l0.074,-0.01l0.075,-0.01l0.077,-0.009l0.075,-0.009l0.074,-0.008l0.075,-0.008l0.075,-0.008l0.077,-0.007l0.077,-0.006l0.075,-0.006l0.076,-0.006l0.077,-0.005l0.075,-0.004l0.077,-0.005l0.078,-0.003l0.076,-0.003l0.076,-0.003l0.077,-0.002l0.078,-0.002l0.077,-0.001l0.076,-0.001l0.078,0l0.078,0Zm-0.143,2l-0.064,0.001l-0.065,0.001l-0.064,0.001l-0.064,0.002l-0.064,0.002l-0.064,0.003l-0.064,0.003l-0.064,0.003l-0.064,0.004l-0.063,0.004l-0.064,0.005l-0.063,0.005l-0.064,0.005l-0.063,0.006l-0.063,0.007l-0.063,0.006l-0.063,0.007l-0.062,0.007l-0.063,0.008l-0.062,0.008l-0.063,0.009l-0.062,0.009l-0.062,0.009l-0.062,0.01l-0.062,0.01l-0.062,0.01l-0.061,0.011l-0.062,0.011l-0.061,0.012l-0.061,0.012l-0.061,0.012l-0.061,0.013l-0.061,0.013l-0.061,0.013l-0.06,0.014l-0.061,0.014l-0.06,0.015l-0.06,0.015l-0.06,0.015l-0.06,0.016l-0.059,0.015l-0.06,0.017l-0.059,0.016l-0.06,0.018l-0.059,0.017l-0.059,0.018l-0.058,0.018l-0.059,0.018l-0.058,0.019l-0.059,0.019l-0.058,0.02l-0.058,0.019l-0.058,0.021l-0.057,0.02l-0.058,0.021l-0.057,0.021l-0.057,0.022l-0.057,0.022l-0.057,0.022l-0.113,0.045l-0.113,0.047l-0.112,0.048l-0.111,0.05l-0.11,0.051l-0.11,0.052l-0.109,0.053l-0.108,0.055l-0.107,0.055l-0.107,0.058l-0.106,0.058l-0.105,0.06l-0.104,0.06l-0.104,0.062l-0.102,0.064l-0.102,0.064l-0.101,0.066l-0.1,0.067l-0.1,0.068l-0.098,0.069l-0.098,0.07l-0.097,0.072l-0.095,0.072l-0.095,0.074l-0.094,0.075l-0.093,0.076l-0.093,0.077l-0.091,0.078l-0.09,0.079l-0.089,0.08l-0.089,0.081l-0.087,0.083l-0.086,0.083l-0.086,0.084l-0.084,0.086l-0.083,0.086l-0.083,0.087l-0.081,0.089l-0.08,0.089l-0.079,0.09l-0.078,0.091l-0.077,0.092l-0.076,0.094l-0.075,0.094l-0.074,0.094l-0.072,0.096l-0.072,0.097l-0.07,0.098l-0.069,0.098l-0.068,0.099l-0.067,0.101l-0.066,0.101l-0.064,0.101l-0.063,0.103l-0.062,0.104l-0.061,0.104l-0.06,0.105l-0.058,0.106l-0.057,0.107l-0.056,0.107l-0.055,0.108l-0.053,0.109l-0.052,0.11l-0.051,0.11l-0.05,0.111l-0.048,0.112l-0.046,0.112l-0.046,0.114l-0.022,0.056l-0.022,0.057l-0.022,0.058l-0.021,0.057l-0.021,0.058l-0.02,0.057l-0.02,0.058l-0.02,0.058l-0.02,0.058l-0.019,0.058l-0.019,0.059l-0.018,0.059l-0.018,0.058l-0.018,0.059l-0.017,0.059l-0.017,0.06l-0.017,0.059l-0.016,0.059l-0.016,0.06l-0.016,0.06l-0.015,0.06l-0.015,0.06l-0.015,0.06l-0.014,0.061l-0.014,0.06l-0.013,0.061l-0.013,0.061l-0.013,0.061l-0.012,0.061l-0.012,0.061l-0.012,0.061l-0.011,0.062l-0.011,0.061l-0.01,0.062l-0.01,0.062l-0.01,0.062l-0.009,0.062l-0.009,0.062l-0.008,0.062l-0.009,0.063l-0.007,0.063l-0.008,0.062l-0.007,0.063l-0.006,0.063l-0.007,0.063l-0.005,0.063l-0.006,0.064l-0.005,0.063l-0.004,0.063l-0.005,0.064l-0.004,0.064l-0.003,0.064l-0.003,0.064l-0.003,0.064l-0.002,0.064l-0.002,0.064l-0.001,0.064l-0.001,0.065l-0.001,0.064l0,0.065l0,0.063l0.001,0.063l0.001,0.063l0.001,0.063l0.002,0.063l0.002,0.063l0.003,0.062l0.002,0.063l0.004,0.063l0.003,0.062l0.005,0.062l0.004,0.062l0.005,0.062l0.005,0.062l0.006,0.062l0.006,0.062l-20.05,0l0,20l60,0l0,-20l-20.05,0l0.006,-0.062l0.006,-0.062l0.005,-0.062l0.005,-0.062l0.004,-0.062l0.005,-0.062l0.003,-0.062l0.004,-0.063l0.002,-0.063l0.003,-0.062l0.002,-0.063l0.002,-0.063l0.001,-0.063l0.001,-0.063l0.001,-0.063l0,-0.063l0,-0.065l-0.001,-0.064l-0.001,-0.065l-0.001,-0.064l-0.002,-0.064l-0.002,-0.064l-0.003,-0.064l-0.003,-0.064l-0.003,-0.064l-0.004,-0.064l-0.005,-0.064l-0.004,-0.063l-0.005,-0.063l-0.006,-0.064l-0.005,-0.063l-0.007,-0.063l-0.006,-0.063l-0.007,-0.063l-0.008,-0.062l-0.007,-0.063l-0.009,-0.063l-0.008,-0.062l-0.009,-0.062l-0.009,-0.062l-0.01,-0.062l-0.01,-0.062l-0.011,-0.062l-0.01,-0.061l-0.012,-0.062l-0.011,-0.061l-0.012,-0.061l-0.012,-0.061l-0.013,-0.061l-0.013,-0.061l-0.013,-0.061l-0.014,-0.06l-0.014,-0.061l-0.015,-0.06l-0.015,-0.06l-0.015,-0.06l-0.016,-0.06l-0.016,-0.06l-0.016,-0.059l-0.017,-0.059l-0.017,-0.06l-0.017,-0.059l-0.018,-0.059l-0.018,-0.058l-0.018,-0.059l-0.019,-0.059l-0.019,-0.058l-0.02,-0.058l-0.02,-0.058l-0.02,-0.058l-0.02,-0.057l-0.021,-0.058l-0.021,-0.057l-0.022,-0.058l-0.022,-0.057l-0.022,-0.056l-0.046,-0.114l-0.046,-0.112l-0.049,-0.112l-0.049,-0.111l-0.051,-0.11l-0.052,-0.11l-0.053,-0.109l-0.055,-0.108l-0.056,-0.107l-0.057,-0.107l-0.058,-0.106l-0.06,-0.105l-0.061,-0.104l-0.062,-0.104l-0.063,-0.103l-0.064,-0.101l-0.066,-0.101l-0.067,-0.101l-0.068,-0.099l-0.069,-0.098l-0.07,-0.098l-0.072,-0.097l-0.072,-0.096l-0.074,-0.094l-0.075,-0.094l-0.076,-0.094l-0.077,-0.092l-0.078,-0.091l-0.079,-0.09l-0.08,-0.089l-0.081,-0.089l-0.083,-0.087l-0.083,-0.086l-0.084,-0.086l-0.086,-0.084l-0.086,-0.083l-0.087,-0.083l-0.089,-0.081l-0.089,-0.08l-0.09,-0.079l-0.091,-0.078l-0.093,-0.077l-0.093,-0.076l-0.094,-0.075l-0.095,-0.074l-0.095,-0.072l-0.097,-0.072l-0.098,-0.07l-0.098,-0.069l-0.1,-0.068l-0.1,-0.067l-0.101,-0.066l-0.102,-0.064l-0.102,-0.064l-0.104,-0.062l-0.104,-0.06l-0.105,-0.06l-0.106,-0.058l-0.107,-0.058l-0.107,-0.055l-0.108,-0.055l-0.109,-0.053l-0.11,-0.052l-0.11,-0.051l-0.111,-0.05l-0.112,-0.048l-0.113,-0.047l-0.113,-0.045l-0.057,-0.022l-0.057,-0.022l-0.057,-0.022l-0.057,-0.021l-0.058,-0.021l-0.057,-0.02l-0.058,-0.021l-0.058,-0.019l-0.058,-0.02l-0.059,-0.019l-0.058,-0.019l-0.059,-0.018l-0.058,-0.018l-0.059,-0.018l-0.059,-0.017l-0.06,-0.018l-0.059,-0.016l-0.06,-0.017l-0.059,-0.015l-0.06,-0.016l-0.06,-0.015l-0.06,-0.015l-0.06,-0.015l-0.061,-0.014l-0.06,-0.014l-0.061,-0.013l-0.061,-0.013l-0.061,-0.013l-0.061,-0.012l-0.061,-0.012l-0.061,-0.012l-0.062,-0.011l-0.061,-0.011l-0.062,-0.01l-0.062,-0.01l-0.062,-0.01l-0.062,-0.009l-0.062,-0.009l-0.063,-0.009l-0.062,-0.008l-0.063,-0.008l-0.062,-0.007l-0.063,-0.007l-0.063,-0.006l-0.063,-0.007l-0.063,-0.006l-0.064,-0.005l-0.063,-0.005l-0.064,-0.005l-0.063,-0.004l-0.064,-0.004l-0.064,-0.003l-0.064,-0.003l-0.064,-0.003l-0.064,-0.002l-0.064,-0.002l-0.064,-0.001l-0.065,-0.001l-0.064,-0.001l-0.065,0l-0.065,0Z" style="fill:#fff;"/><path d="M93.811,108.418c-0.033,-0.329 -0.05,-0.663 -0.05,-1c0,-5.519 4.481,-10 10,-10c5.519,0 10,4.481 10,10c0,0.337 -0.017,0.671 -0.05,1l20.05,0l0,20l-60,0l0,-20l20.05,0Z" style="fill:#4aa6b2;"/><path d="M103.826,97.418l0.064,0.001l0.065,0.001l0.064,0.001l0.064,0.002l0.064,0.002l0.064,0.003l0.064,0.003l0.064,0.003l0.064,0.004l0.063,0.004l0.064,0.005l0.063,0.005l0.064,0.005l0.063,0.006l0.063,0.007l0.063,0.006l0.063,0.007l0.062,0.007l0.063,0.008l0.062,0.008l0.063,0.009l0.062,0.009l0.062,0.009l0.062,0.01l0.062,0.01l0.062,0.01l0.061,0.011l0.062,0.011l0.061,0.012l0.061,0.012l0.061,0.012l0.061,0.013l0.061,0.013l0.061,0.013l0.06,0.014l0.061,0.014l0.06,0.015l0.06,0.015l0.06,0.015l0.06,0.016l0.059,0.015l0.06,0.017l0.059,0.016l0.06,0.018l0.059,0.017l0.059,0.018l0.058,0.018l0.059,0.018l0.058,0.019l0.059,0.019l0.058,0.02l0.058,0.019l0.058,0.021l0.057,0.02l0.058,0.021l0.057,0.021l0.057,0.022l0.057,0.022l0.057,0.022l0.113,0.045l0.113,0.047l0.112,0.048l0.111,0.05l0.11,0.051l0.11,0.052l0.109,0.053l0.108,0.055l0.107,0.055l0.107,0.058l0.106,0.058l0.105,0.06l0.104,0.06l0.104,0.062l0.102,0.064l0.102,0.064l0.101,0.066l0.1,0.067l0.1,0.068l0.098,0.069l0.098,0.07l0.097,0.072l0.095,0.072l0.095,0.074l0.094,0.075l0.093,0.076l0.093,0.077l0.091,0.078l0.09,0.079l0.089,0.08l0.089,0.081l0.087,0.083l0.086,0.083l0.086,0.084l0.084,0.086l0.083,0.086l0.083,0.087l0.081,0.089l0.08,0.089l0.079,0.09l0.078,0.091l0.077,0.092l0.076,0.094l0.075,0.094l0.074,0.094l0.072,0.096l0.072,0.097l0.07,0.098l0.069,0.098l0.068,0.099l0.067,0.101l0.066,0.101l0.064,0.101l0.063,0.103l0.062,0.104l0.061,0.104l0.06,0.105l0.058,0.106l0.057,0.107l0.056,0.107l0.055,0.108l0.053,0.109l0.052,0.11l0.051,0.11l0.049,0.111l0.049,0.112l0.046,0.112l0.046,0.114l0.022,0.056l0.022,0.057l0.022,0.058l0.021,0.057l0.021,0.058l0.02,0.057l0.02,0.058l0.02,0.058l0.02,0.058l0.019,0.058l0.019,0.059l0.018,0.059l0.018,0.058l0.018,0.059l0.017,0.059l0.017,0.06l0.017,0.059l0.016,0.059l0.016,0.06l0.016,0.06l0.015,0.06l0.015,0.06l0.015,0.06l0.014,0.061l0.014,0.06l0.013,0.061l0.013,0.061l0.013,0.061l0.012,0.061l0.012,0.061l0.011,0.061l0.012,0.062l0.01,0.061l0.011,0.062l0.01,0.062l0.01,0.062l0.009,0.062l0.009,0.062l0.008,0.062l0.009,0.063l0.007,0.063l0.008,0.062l0.007,0.063l0.006,0.063l0.007,0.063l0.005,0.063l0.006,0.064l0.005,0.063l0.004,0.063l0.005,0.064l0.004,0.064l0.003,0.064l0.003,0.064l0.003,0.064l0.002,0.064l0.002,0.064l0.001,0.064l0.001,0.065l0.001,0.064l0,0.065l0,0.063l-0.001,0.063l-0.001,0.063l-0.001,0.063l-0.002,0.063l-0.002,0.063l-0.003,0.062l-0.002,0.063l-0.004,0.063l-0.003,0.062l-0.005,0.062l-0.004,0.062l-0.005,0.062l-0.005,0.062l-0.006,0.062l-0.006,0.062l20.05,0l0,20l-60,0l0,-20l20.05,0l-0.006,-0.062l-0.006,-0.062l-0.005,-0.062l-0.005,-0.062l-0.004,-0.062l-0.005,-0.062l-0.003,-0.062l-0.004,-0.063l-0.002,-0.063l-0.003,-0.062l-0.002,-0.063l-0.002,-0.063l-0.001,-0.063l-0.001,-0.063l-0.001,-0.063l0,-0.063l0,-0.065l0.001,-0.064l0.001,-0.065l0.001,-0.064l0.002,-0.064l0.002,-0.064l0.003,-0.064l0.003,-0.064l0.003,-0.064l0.004,-0.064l0.005,-0.064l0.004,-0.063l0.005,-0.063l0.006,-0.064l0.005,-0.063l0.007,-0.063l0.006,-0.063l0.007,-0.063l0.008,-0.062l0.007,-0.063l0.009,-0.063l0.008,-0.062l0.009,-0.062l0.009,-0.062l0.01,-0.062l0.01,-0.062l0.01,-0.062l0.011,-0.061l0.011,-0.062l0.012,-0.061l0.012,-0.061l0.012,-0.061l0.013,-0.061l0.013,-0.061l0.013,-0.061l0.014,-0.06l0.014,-0.061l0.015,-0.06l0.015,-0.06l0.015,-0.06l0.016,-0.06l0.016,-0.06l0.016,-0.059l0.017,-0.059l0.017,-0.06l0.017,-0.059l0.018,-0.059l0.018,-0.058l0.018,-0.059l0.019,-0.059l0.019,-0.058l0.02,-0.058l0.02,-0.058l0.02,-0.058l0.02,-0.057l0.021,-0.058l0.021,-0.057l0.022,-0.058l0.022,-0.057l0.022,-0.056l0.046,-0.114l0.046,-0.112l0.048,-0.112l0.05,-0.111l0.051,-0.11l0.052,-0.11l0.053,-0.109l0.055,-0.108l0.056,-0.107l0.057,-0.107l0.058,-0.106l0.06,-0.105l0.061,-0.104l0.062,-0.104l0.063,-0.103l0.064,-0.101l0.066,-0.101l0.067,-0.101l0.068,-0.099l0.069,-0.098l0.07,-0.098l0.072,-0.097l0.072,-0.096l0.074,-0.094l0.075,-0.094l0.076,-0.094l0.077,-0.092l0.078,-0.091l0.079,-0.09l0.08,-0.089l0.081,-0.089l0.083,-0.087l0.083,-0.086l0.084,-0.086l0.086,-0.084l0.086,-0.083l0.087,-0.083l0.089,-0.081l0.089,-0.08l0.09,-0.079l0.091,-0.078l0.093,-0.077l0.093,-0.076l0.094,-0.075l0.095,-0.074l0.095,-0.072l0.097,-0.072l0.098,-0.07l0.098,-0.069l0.1,-0.068l0.1,-0.067l0.101,-0.066l0.102,-0.064l0.102,-0.064l0.104,-0.062l0.104,-0.06l0.105,-0.06l0.106,-0.058l0.107,-0.058l0.107,-0.055l0.108,-0.055l0.109,-0.053l0.11,-0.052l0.11,-0.051l0.111,-0.05l0.112,-0.048l0.113,-0.047l0.113,-0.045l0.057,-0.022l0.057,-0.022l0.057,-0.022l0.057,-0.021l0.058,-0.021l0.057,-0.02l0.058,-0.021l0.058,-0.019l0.058,-0.02l0.059,-0.019l0.058,-0.019l0.059,-0.018l0.058,-0.018l0.059,-0.018l0.059,-0.017l0.06,-0.018l0.059,-0.016l0.06,-0.017l0.059,-0.015l0.06,-0.016l0.06,-0.015l0.06,-0.015l0.06,-0.015l0.061,-0.014l0.06,-0.014l0.061,-0.013l0.061,-0.013l0.061,-0.013l0.061,-0.012l0.061,-0.012l0.061,-0.012l0.062,-0.011l0.061,-0.011l0.062,-0.01l0.062,-0.01l0.062,-0.01l0.062,-0.009l0.062,-0.009l0.063,-0.009l0.062,-0.008l0.063,-0.008l0.062,-0.007l0.063,-0.007l0.063,-0.006l0.063,-0.007l0.063,-0.006l0.064,-0.005l0.063,-0.005l0.064,-0.005l0.063,-0.004l0.064,-0.004l0.064,-0.003l0.064,-0.003l0.064,-0.003l0.064,-0.002l0.064,-0.002l0.064,-0.001l0.065,-0.001l0.064,-0.001l0.065,0l0.065,0Zm-0.117,2l-0.053,0.001l-0.051,0l-0.051,0.001l-0.051,0.002l-0.052,0.002l-0.053,0.002l-0.05,0.002l-0.051,0.003l-0.051,0.003l-0.051,0.003l-0.051,0.004l-0.051,0.004l-0.05,0.005l-0.05,0.004l-0.051,0.005l-0.051,0.006l-0.051,0.005l-0.05,0.006l-0.049,0.006l-0.05,0.007l-0.05,0.007l-0.05,0.007l-0.049,0.007l-0.05,0.008l-0.051,0.008l-0.047,0.008l-0.05,0.009l-0.05,0.009l-0.048,0.009l-0.049,0.01l-0.05,0.01l-0.047,0.009l-0.048,0.011l-0.05,0.011l-0.048,0.011l-0.048,0.011l-0.049,0.012l-0.047,0.012l-0.048,0.012l-0.047,0.012l-0.048,0.013l-0.048,0.013l-0.046,0.013l-0.049,0.014l-0.048,0.014l-0.047,0.014l-0.046,0.014l-0.046,0.015l-0.047,0.015l-0.047,0.015l-0.047,0.016l-0.045,0.015l-0.046,0.017l-0.048,0.017l-0.044,0.016l-0.045,0.016l-0.048,0.018l-0.046,0.018l-0.042,0.016l-0.092,0.038l-0.09,0.037l-0.09,0.039l-0.089,0.039l-0.087,0.04l-0.087,0.042l-0.089,0.043l-0.086,0.044l-0.086,0.044l-0.085,0.046l-0.084,0.046l-0.085,0.048l-0.083,0.049l-0.083,0.05l-0.082,0.05l-0.081,0.052l-0.081,0.052l-0.081,0.054l-0.079,0.054l-0.079,0.056l-0.078,0.056l-0.077,0.057l-0.078,0.059l-0.076,0.059l-0.074,0.059l-0.075,0.061l-0.074,0.062l-0.073,0.062l-0.073,0.064l-0.071,0.064l-0.071,0.065l-0.069,0.066l-0.07,0.067l-0.069,0.068l-0.067,0.068l-0.067,0.069l-0.066,0.07l-0.065,0.071l-0.064,0.071l-0.063,0.072l-0.063,0.074l-0.063,0.075l-0.06,0.074l-0.059,0.074l-0.059,0.076l-0.059,0.077l-0.057,0.078l-0.056,0.078l-0.055,0.078l-0.055,0.08l-0.054,0.081l-0.052,0.08l-0.052,0.082l-0.05,0.082l-0.05,0.083l-0.049,0.084l-0.047,0.083l-0.047,0.085l-0.046,0.086l-0.044,0.085l-0.044,0.086l-0.043,0.088l-0.042,0.088l-0.04,0.087l-0.039,0.089l-0.039,0.091l-0.037,0.088l-0.038,0.094l-0.017,0.044l-0.016,0.042l-0.018,0.047l-0.018,0.048l-0.015,0.042l-0.017,0.048l-0.017,0.048l-0.015,0.045l-0.015,0.046l-0.016,0.046l-0.015,0.048l-0.015,0.046l-0.014,0.046l-0.015,0.05l-0.013,0.043l-0.013,0.047l-0.014,0.05l-0.013,0.049l-0.013,0.048l-0.012,0.045l-0.012,0.047l-0.012,0.05l-0.012,0.048l-0.011,0.048l-0.011,0.048l-0.011,0.048l-0.011,0.052l-0.009,0.045l-0.01,0.049l-0.01,0.052l-0.009,0.046l-0.009,0.049l-0.009,0.052l-0.008,0.046l-0.008,0.05l-0.008,0.053l-0.007,0.046l-0.007,0.05l-0.007,0.05l-0.007,0.051l-0.006,0.05l-0.006,0.048l-0.005,0.05l-0.006,0.054l-0.005,0.051l-0.004,0.048l-0.004,0.049l-0.004,0.051l-0.004,0.055l-0.004,0.048l-0.003,0.052l-0.003,0.052l-0.002,0.049l-0.002,0.052l-0.002,0.053l-0.001,0.05l-0.001,0.052l-0.001,0.053l-0.001,0.05l0,0.053l0,0.051l0.001,0.051l0,0.049l0.002,0.051l0.001,0.053l0.002,0.048l0.002,0.051l0.002,0.05l0.003,0.048l0.003,0.053l0.003,0.05l0.003,0.047l0.004,0.05l0.005,0.052l0.004,0.05l0.218,2.246l-20.253,0l0,16l56,0l0,-16l-20.246,0l0.211,-2.246l0.005,-0.053l0.004,-0.046l0.003,-0.05l0.004,-0.053l0.003,-0.047l0.003,-0.05l0.003,-0.054l0.002,-0.047l0.002,-0.051l0.002,-0.051l0.001,-0.047l0.001,-0.051l0.001,-0.055l0.001,-0.051l0,-0.048l0,-0.05l-0.001,-0.053l0,-0.053l-0.002,-0.05l-0.001,-0.052l-0.002,-0.053l-0.002,-0.052l-0.003,-0.052l-0.002,-0.049l-0.003,-0.052l-0.004,-0.051l-0.003,-0.049l-0.004,-0.051l-0.005,-0.052l-0.005,-0.051l-0.005,-0.051l-0.005,-0.051l-0.005,-0.047l-0.006,-0.051l-0.006,-0.05l-0.007,-0.051l-0.007,-0.05l-0.007,-0.05l-0.007,-0.049l-0.008,-0.047l-0.008,-0.053l-0.009,-0.049l-0.008,-0.046l-0.009,-0.052l-0.009,-0.049l-0.009,-0.047l-0.011,-0.051l-0.01,-0.048l-0.01,-0.046l-0.011,-0.051l-0.011,-0.048l-0.011,-0.048l-0.012,-0.051l-0.011,-0.044l-0.013,-0.048l-0.013,-0.05l-0.012,-0.047l-0.013,-0.047l-0.013,-0.047l-0.014,-0.047l-0.014,-0.049l-0.014,-0.047l-0.014,-0.046l-0.016,-0.049l-0.014,-0.043l-0.015,-0.045l-0.017,-0.052l-0.015,-0.045l-0.015,-0.043l-0.017,-0.048l-0.018,-0.047l-0.016,-0.045l-0.017,-0.045l-0.018,-0.047l-0.017,-0.042l-0.037,-0.093l-0.037,-0.09l-0.038,-0.088l-0.041,-0.09l-0.04,-0.088l-0.041,-0.087l-0.043,-0.087l-0.043,-0.086l-0.046,-0.087l-0.045,-0.085l-0.046,-0.084l-0.049,-0.085l-0.048,-0.084l-0.049,-0.081l-0.052,-0.083l-0.051,-0.082l-0.052,-0.08l-0.054,-0.081l-0.054,-0.079l-0.056,-0.079l-0.056,-0.078l-0.057,-0.078l-0.059,-0.077l-0.059,-0.076l-0.06,-0.075l-0.06,-0.074l-0.061,-0.073l-0.063,-0.074l-0.065,-0.074l-0.063,-0.07l-0.064,-0.07l-0.067,-0.071l-0.067,-0.069l-0.068,-0.069l-0.068,-0.067l-0.07,-0.067l-0.07,-0.067l-0.069,-0.064l-0.072,-0.064l-0.074,-0.064l-0.072,-0.062l-0.074,-0.062l-0.074,-0.061l-0.075,-0.059l-0.077,-0.06l-0.076,-0.058l-0.078,-0.057l-0.079,-0.057l-0.078,-0.055l-0.079,-0.054l-0.081,-0.054l-0.081,-0.052l-0.081,-0.052l-0.083,-0.051l-0.082,-0.049l-0.083,-0.049l-0.084,-0.047l-0.085,-0.047l-0.086,-0.046l-0.085,-0.044l-0.086,-0.044l-0.088,-0.043l-0.087,-0.041l-0.088,-0.041l-0.09,-0.04l-0.089,-0.038l-0.089,-0.037l-0.094,-0.038l-0.042,-0.016l-0.045,-0.018l-0.047,-0.017l-0.045,-0.017l-0.046,-0.016l-0.047,-0.017l-0.045,-0.016l-0.046,-0.016l-0.047,-0.016l-0.047,-0.015l-0.048,-0.015l-0.045,-0.015l-0.046,-0.014l-0.047,-0.014l-0.048,-0.014l-0.048,-0.014l-0.047,-0.013l-0.049,-0.013l-0.047,-0.013l-0.047,-0.012l-0.047,-0.012l-0.048,-0.012l-0.049,-0.012l-0.048,-0.011l-0.048,-0.011l-0.05,-0.011l-0.048,-0.011l-0.047,-0.009l-0.051,-0.01l-0.048,-0.01l-0.048,-0.009l-0.05,-0.009l-0.049,-0.009l-0.048,-0.008l-0.052,-0.008l-0.049,-0.008l-0.049,-0.007l-0.049,-0.007l-0.051,-0.007l-0.05,-0.007l-0.049,-0.006l-0.051,-0.006l-0.05,-0.005l-0.051,-0.006l-0.051,-0.005l-0.049,-0.004l-0.05,-0.005l-0.052,-0.004l-0.051,-0.004l-0.05,-0.003l-0.053,-0.003l-0.05,-0.003l-0.051,-0.002l-0.052,-0.002l-0.052,-0.002l-0.051,-0.002l-0.051,-0.001l-0.052,0l-0.052,-0.001l-0.052,0l-0.052,0Z" style="fill:#181b1c;"/></g><rect x="75.75" y="118.5" width="56" height="8" style="fill:#171717;fill-opacity:0.15;"/><g><g><path d="M76.113,159.885l-12.226,-11.77" style="fill:none;stroke:#fff;stroke-width:2px;stroke-linejoin:round;stroke-miterlimit:1.5;"/></g><g><path d="M75.885,147.887l-11.77,12.226" style="fill:none;stroke:#fff;stroke-width:2px;stroke-linejoin:round;stroke-miterlimit:1.5;"/></g></g><g><g><path d="M140.236,173.254l-12.472,-11.508" style="fill:none;stroke:#fff;stroke-width:2px;stroke-linejoin:round;stroke-miterlimit:1.5;"/></g><g><path d="M139.754,161.264l-11.508,12.472" style="fill:none;stroke:#fff;stroke-width:2px;stroke-linejoin:round;stroke-miterlimit:1.5;"/></g></g><g><g><path d="M118.988,235.512l-11.976,-12.024" style="fill:none;stroke:#fff;stroke-width:2px;stroke-linejoin:round;stroke-miterlimit:1.5;"/></g><g><path d="M119.012,223.512l-12.024,11.976" style="fill:none;stroke:#fff;stroke-width:2px;stroke-linejoin:round;stroke-miterlimit:1.5;"/></g></g><g><circle cx="73" cy="223.5" r="6" style="fill:none;stroke:#fff;stroke-width:2px;stroke-linejoin:round;stroke-miterlimit:1.5;"/></g></svg>
