<?xml version="1.0" encoding="UTF-8" standalone="no"?><!DOCTYPE svg PUBLIC "-//W3C//DTD SVG 1.1//EN" "http://www.w3.org/Graphics/SVG/1.1/DTD/svg11.dtd"><svg width="100%" height="100%" viewBox="0 0 300 300" version="1.1" xmlns="http://www.w3.org/2000/svg" xmlns:xlink="http://www.w3.org/1999/xlink" xml:space="preserve" xmlns:serif="http://www.serif.com/" style="fill-rule:evenodd;clip-rule:evenodd;stroke-linecap:round;stroke-miterlimit:3;"><rect id="visual-design" serif:id="visual design" x="0" y="0" width="300" height="300" style="fill:#181b1c;"/><g id="background"><circle cx="164" cy="136" r="100" style="fill:#656565;fill-opacity:0.25;"/><g><path d="M56.278,222.13l-2.546,-2.546" style="fill:none;stroke:#fff;stroke-width:2px;"/><path d="M50.338,216.19l-2.545,-2.545" style="fill:none;stroke:#fff;stroke-width:2px;"/><path d="M56.278,213.645l-2.546,2.545" style="fill:none;stroke:#fff;stroke-width:2px;"/><path d="M50.338,219.584l-2.545,2.546" style="fill:none;stroke:#fff;stroke-width:2px;"/></g><g><path d="M190.533,170.533l-2.546,-2.546" style="fill:none;stroke:#fff;stroke-width:2px;"/><path d="M184.593,164.593l-2.545,-2.545" style="fill:none;stroke:#fff;stroke-width:2px;"/><path d="M190.533,162.048l-2.546,2.545" style="fill:none;stroke:#fff;stroke-width:2px;"/><path d="M184.593,167.987l-2.545,2.546" style="fill:none;stroke:#fff;stroke-width:2px;"/></g><g><path d="M167.033,66.033l-2.546,-2.546" style="fill:none;stroke:#fff;stroke-width:2px;"/><path d="M161.093,60.093l-2.545,-2.545" style="fill:none;stroke:#fff;stroke-width:2px;"/><path d="M167.033,57.548l-2.546,2.545" style="fill:none;stroke:#fff;stroke-width:2px;"/><path d="M161.093,63.487l-2.545,2.546" style="fill:none;stroke:#fff;stroke-width:2px;"/></g><g><path d="M247.533,238.533l-2.546,-2.546" style="fill:none;stroke:#fff;stroke-width:2px;"/><path d="M241.593,232.593l-2.545,-2.545" style="fill:none;stroke:#fff;stroke-width:2px;"/><path d="M247.533,230.048l-2.546,2.545" style="fill:none;stroke:#fff;stroke-width:2px;"/><path d="M241.593,235.987l-2.545,2.546" style="fill:none;stroke:#fff;stroke-width:2px;"/></g><g><circle cx="121.75" cy="44.25" r="2" style="fill:#e84f9e;"/></g><g><circle cx="247.5" cy="122" r="2" style="fill:#e84f9e;"/></g><g><circle cx="257" cy="201" r="2" style="fill:#e84f9e;"/></g><g><path d="M150.052,40l0.051,0.001l0.052,0.002l0.051,0.002l0.051,0.003l0.051,0.004l0.05,0.004l0.051,0.005l0.05,0.005l0.05,0.006l0.05,0.007l0.05,0.007l0.049,0.008l0.05,0.009l0.049,0.009l0.049,0.009l0.048,0.011l0.049,0.011l0.048,0.011l0.048,0.012l0.048,0.013l0.048,0.013l0.047,0.014l0.047,0.014l0.047,0.015l0.046,0.015l0.047,0.016l0.046,0.017l0.046,0.017l0.045,0.018l0.045,0.018l0.045,0.019l0.045,0.019l0.045,0.02l0.044,0.02l0.044,0.021l0.043,0.021l0.043,0.022l0.043,0.022l0.043,0.023l0.042,0.023l0.042,0.024l0.042,0.025l0.041,0.024l0.042,0.026l0.04,0.026l0.041,0.026l0.04,0.027l0.04,0.027l0.039,0.027l0.039,0.029l0.039,0.028l0.038,0.029l0.038,0.03l0.038,0.03l0.037,0.03l0.037,0.031l0.036,0.031l0.036,0.032l0.036,0.032l0.035,0.032l0.035,0.033l0.035,0.033l0.034,0.034l0.034,0.034l0.033,0.035l0.033,0.035l0.032,0.035l0.032,0.036l0.032,0.036l0.031,0.036l0.031,0.037l0.03,0.037l0.03,0.038l0.03,0.038l0.029,0.038l0.028,0.039l0.029,0.039l0.027,0.039l0.027,0.04l0.027,0.04l0.026,0.041l0.026,0.04l0.026,0.042l0.024,0.041l0.025,0.042l0.024,0.042l0.023,0.042l0.023,0.043l0.022,0.043l0.022,0.043l0.021,0.043l0.021,0.044l0.02,0.044l0.02,0.045l0.019,0.045l0.019,0.045l0.018,0.045l0.018,0.045l0.017,0.046l0.017,0.046l0.016,0.047l0.015,0.046l0.015,0.047l0.014,0.047l0.014,0.047l0.013,0.048l0.013,0.048l0.012,0.048l0.011,0.048l0.011,0.049l0.011,0.048l0.009,0.049l0.009,0.049l0.009,0.05l0.008,0.049l0.007,0.05l0.007,0.05l0.006,0.05l0.005,0.05l0.005,0.051l0.004,0.05l0.004,0.051l0.003,0.051l0.002,0.051l0.002,0.052l0.001,0.051l0,0.052l0,0.052l-0.001,0.051l-0.002,0.052l-0.002,0.051l-0.003,0.051l-0.004,0.051l-0.004,0.05l-0.005,0.051l-0.005,0.05l-0.006,0.05l-0.007,0.05l-0.007,0.05l-0.008,0.049l-0.009,0.05l-0.009,0.049l-0.009,0.049l-0.011,0.048l-0.011,0.049l-0.011,0.048l-0.012,0.048l-0.013,0.048l-0.013,0.048l-0.014,0.047l-0.014,0.047l-0.015,0.047l-0.015,0.046l-0.016,0.047l-0.017,0.046l-0.017,0.046l-0.018,0.045l-0.018,0.045l-0.019,0.045l-0.019,0.045l-0.02,0.045l-0.02,0.044l-0.021,0.044l-0.021,0.043l-0.022,0.043l-0.022,0.043l-0.023,0.043l-0.023,0.042l-0.024,0.042l-0.025,0.042l-0.024,0.041l-0.026,0.042l-0.026,0.04l-0.026,0.041l-0.027,0.04l-0.027,0.04l-0.027,0.039l-0.029,0.039l-0.028,0.039l-0.029,0.038l-0.03,0.038l-0.03,0.038l-0.03,0.037l-0.031,0.037l-0.031,0.036l-0.032,0.036l-0.032,0.036l-0.032,0.035l-0.033,0.035l-0.033,0.035l-0.034,0.034l-0.034,0.034l-0.035,0.033l-0.035,0.033l-0.035,0.032l-0.036,0.032l-0.036,0.032l-0.036,0.031l-0.037,0.031l-0.037,0.03l-0.038,0.03l-0.038,0.03l-0.038,0.029l-0.039,0.028l-0.039,0.029l-0.039,0.027l-0.04,0.027l-0.04,0.027l-0.041,0.026l-0.04,0.026l-0.042,0.026l-0.041,0.024l-0.042,0.025l-0.042,0.024l-0.042,0.023l-0.043,0.023l-0.043,0.022l-0.043,0.022l-0.043,0.021l-0.044,0.021l-0.044,0.02l-0.045,0.02l-0.045,0.019l-0.045,0.019l-0.045,0.018l-0.045,0.018l-0.046,0.017l-0.046,0.017l-0.047,0.016l-0.046,0.015l-0.047,0.015l-0.047,0.014l-0.047,0.014l-0.048,0.013l-0.048,0.013l-0.048,0.012l-0.048,0.011l-0.049,0.011l-0.048,0.011l-0.049,0.009l-0.049,0.009l-0.05,0.009l-0.049,0.008l-0.05,0.007l-0.05,0.007l-0.05,0.006l-0.05,0.005l-0.051,0.005l-0.05,0.004l-0.051,0.004l-0.051,0.003l-0.051,0.002l-0.052,0.002l-0.051,0.001l-0.052,0l-0.052,0l-0.051,-0.001l-0.052,-0.002l-0.051,-0.002l-0.051,-0.003l-0.051,-0.004l-0.05,-0.004l-0.051,-0.005l-0.05,-0.005l-0.05,-0.006l-0.05,-0.007l-0.05,-0.007l-0.049,-0.008l-0.05,-0.009l-0.049,-0.009l-0.049,-0.009l-0.048,-0.011l-0.049,-0.011l-0.048,-0.011l-0.048,-0.012l-0.048,-0.013l-0.048,-0.013l-0.047,-0.014l-0.047,-0.014l-0.047,-0.015l-0.046,-0.015l-0.047,-0.016l-0.046,-0.017l-0.046,-0.017l-0.045,-0.018l-0.045,-0.018l-0.045,-0.019l-0.045,-0.019l-0.045,-0.02l-0.044,-0.02l-0.044,-0.021l-0.043,-0.021l-0.043,-0.022l-0.043,-0.022l-0.043,-0.023l-0.042,-0.023l-0.042,-0.024l-0.042,-0.025l-0.041,-0.024l-0.042,-0.026l-0.04,-0.026l-0.041,-0.026l-0.04,-0.027l-0.04,-0.027l-0.039,-0.027l-0.039,-0.029l-0.039,-0.028l-0.038,-0.029l-0.038,-0.03l-0.038,-0.03l-0.037,-0.03l-0.037,-0.031l-0.036,-0.031l-0.036,-0.032l-0.036,-0.032l-0.035,-0.032l-0.035,-0.033l-0.035,-0.033l-0.034,-0.034l-0.034,-0.034l-0.033,-0.035l-0.033,-0.035l-0.032,-0.035l-0.032,-0.036l-0.032,-0.036l-0.031,-0.036l-0.031,-0.037l-0.03,-0.037l-0.03,-0.038l-0.03,-0.038l-0.029,-0.038l-0.028,-0.039l-0.029,-0.039l-0.027,-0.039l-0.027,-0.04l-0.027,-0.04l-0.026,-0.041l-0.026,-0.04l-0.026,-0.042l-0.024,-0.041l-0.025,-0.042l-0.024,-0.042l-0.023,-0.042l-0.023,-0.043l-0.022,-0.043l-0.022,-0.043l-0.021,-0.043l-0.021,-0.044l-0.02,-0.044l-0.02,-0.045l-0.019,-0.045l-0.019,-0.045l-0.018,-0.045l-0.018,-0.045l-0.017,-0.046l-0.017,-0.046l-0.016,-0.047l-0.015,-0.046l-0.015,-0.047l-0.014,-0.047l-0.014,-0.047l-0.013,-0.048l-0.013,-0.048l-0.012,-0.048l-0.011,-0.048l-0.011,-0.049l-0.011,-0.048l-0.009,-0.049l-0.009,-0.049l-0.009,-0.05l-0.008,-0.049l-0.007,-0.05l-0.007,-0.05l-0.006,-0.05l-0.005,-0.05l-0.005,-0.051l-0.004,-0.05l-0.004,-0.051l-0.003,-0.051l-0.002,-0.051l-0.002,-0.052l-0.001,-0.051l0,-0.052l0,-0.052l0.001,-0.051l0.002,-0.052l0.002,-0.051l0.003,-0.051l0.004,-0.051l0.004,-0.05l0.005,-0.051l0.005,-0.05l0.006,-0.05l0.007,-0.05l0.007,-0.05l0.008,-0.049l0.009,-0.05l0.009,-0.049l0.009,-0.049l0.011,-0.048l0.011,-0.049l0.011,-0.048l0.012,-0.048l0.013,-0.048l0.013,-0.048l0.014,-0.047l0.014,-0.047l0.015,-0.047l0.015,-0.046l0.016,-0.047l0.017,-0.046l0.017,-0.046l0.018,-0.045l0.018,-0.045l0.019,-0.045l0.019,-0.045l0.02,-0.045l0.02,-0.044l0.021,-0.044l0.021,-0.043l0.022,-0.043l0.022,-0.043l0.023,-0.043l0.023,-0.042l0.024,-0.042l0.025,-0.042l0.024,-0.041l0.026,-0.042l0.026,-0.04l0.026,-0.041l0.027,-0.04l0.027,-0.04l0.027,-0.039l0.029,-0.039l0.028,-0.039l0.029,-0.038l0.03,-0.038l0.03,-0.038l0.03,-0.037l0.031,-0.037l0.031,-0.036l0.032,-0.036l0.032,-0.036l0.032,-0.035l0.033,-0.035l0.033,-0.035l0.034,-0.034l0.034,-0.034l0.035,-0.033l0.035,-0.033l0.035,-0.032l0.036,-0.032l0.036,-0.032l0.036,-0.031l0.037,-0.031l0.037,-0.03l0.038,-0.03l0.038,-0.03l0.038,-0.029l0.039,-0.028l0.039,-0.029l0.039,-0.027l0.04,-0.027l0.04,-0.027l0.041,-0.026l0.04,-0.026l0.042,-0.026l0.041,-0.024l0.042,-0.025l0.042,-0.024l0.042,-0.023l0.043,-0.023l0.043,-0.022l0.043,-0.022l0.043,-0.021l0.044,-0.021l0.044,-0.02l0.045,-0.02l0.045,-0.019l0.045,-0.019l0.045,-0.018l0.045,-0.018l0.046,-0.017l0.046,-0.017l0.047,-0.016l0.046,-0.015l0.047,-0.015l0.047,-0.014l0.047,-0.014l0.048,-0.013l0.048,-0.013l0.048,-0.012l0.048,-0.011l0.049,-0.011l0.048,-0.011l0.049,-0.009l0.049,-0.009l0.05,-0.009l0.049,-0.008l0.05,-0.007l0.05,-0.007l0.05,-0.006l0.05,-0.005l0.051,-0.005l0.05,-0.004l0.051,-0.004l0.051,-0.003l0.051,-0.002l0.052,-0.002l0.051,-0.001l0.052,0l0.052,0Zm-0.078,2l-0.027,0.001l-0.026,0.001l-0.025,0.001l-0.025,0.001l-0.025,0.002l-0.027,0.002l-0.026,0.003l-0.024,0.002l-0.026,0.003l-0.026,0.004l-0.023,0.003l-0.025,0.004l-0.024,0.004l-0.026,0.005l-0.023,0.005l-0.023,0.005l-0.025,0.005l-0.025,0.006l-0.025,0.006l-0.021,0.006l-0.024,0.006l-0.024,0.008l-0.023,0.006l-0.025,0.008l-0.022,0.008l-0.022,0.007l-0.024,0.009l-0.022,0.008l-0.023,0.009l-0.024,0.01l-0.019,0.008l-0.023,0.01l-0.023,0.01l-0.022,0.01l-0.023,0.011l-0.02,0.01l-0.023,0.011l-0.02,0.011l-0.022,0.011l-0.021,0.012l-0.019,0.011l-0.023,0.013l-0.022,0.013l-0.021,0.013l-0.018,0.012l-0.02,0.013l-0.021,0.014l-0.02,0.013l-0.019,0.014l-0.019,0.013l-0.021,0.016l-0.02,0.015l-0.018,0.014l-0.018,0.015l-0.018,0.014l-0.021,0.018l-0.018,0.015l-0.018,0.016l-0.018,0.016l-0.016,0.014l-0.02,0.019l-0.016,0.016l-0.017,0.016l-0.019,0.02l-0.016,0.016l-0.015,0.017l-0.017,0.018l-0.015,0.017l-0.018,0.021l-0.017,0.019l-0.012,0.014l-0.016,0.019l-0.017,0.022l-0.015,0.019l-0.013,0.017l-0.014,0.02l-0.015,0.021l-0.013,0.018l-0.015,0.022l-0.013,0.019l-0.013,0.02l-0.014,0.023l-0.012,0.019l-0.012,0.021l-0.012,0.02l-0.012,0.021l-0.012,0.021l-0.011,0.022l-0.011,0.021l-0.011,0.021l-0.011,0.023l-0.009,0.019l-0.011,0.022l-0.01,0.024l-0.01,0.023l-0.009,0.023l-0.008,0.02l-0.01,0.024l-0.008,0.022l-0.007,0.02l-0.01,0.029l-0.007,0.021l-0.007,0.021l-0.008,0.027l-0.007,0.022l-0.006,0.023l-0.006,0.022l-0.006,0.023l-0.006,0.027l-0.005,0.024l-0.005,0.024l-0.005,0.024l-0.005,0.024l-0.004,0.025l-0.004,0.025l-0.004,0.025l-0.002,0.022l-0.004,0.029l-0.003,0.027l-0.002,0.022l-0.002,0.023l-0.002,0.027l-0.001,0.027l-0.001,0.024l-0.001,0.027l-0.001,0.028l0,0.025l0,0.025l0.001,0.028l0.001,0.027l0.001,0.024l0.001,0.027l0.002,0.027l0.002,0.023l0.002,0.022l0.003,0.027l0.004,0.029l0.002,0.022l0.004,0.025l0.004,0.025l0.004,0.025l0.005,0.024l0.005,0.024l0.005,0.024l0.005,0.024l0.006,0.027l0.006,0.023l0.006,0.022l0.006,0.023l0.007,0.022l0.008,0.027l0.007,0.021l0.007,0.021l0.01,0.029l0.007,0.02l0.008,0.022l0.01,0.024l0.008,0.02l0.009,0.023l0.01,0.023l0.01,0.024l0.011,0.022l0.009,0.019l0.011,0.023l0.011,0.021l0.011,0.021l0.011,0.022l0.012,0.021l0.012,0.021l0.012,0.02l0.012,0.021l0.012,0.019l0.014,0.023l0.013,0.02l0.013,0.019l0.015,0.022l0.013,0.018l0.015,0.021l0.014,0.02l0.013,0.017l0.015,0.019l0.017,0.022l0.016,0.019l0.012,0.014l0.017,0.019l0.018,0.021l0.015,0.017l0.017,0.018l0.015,0.017l0.016,0.016l0.019,0.02l0.017,0.016l0.016,0.016l0.02,0.019l0.016,0.014l0.018,0.016l0.018,0.016l0.018,0.015l0.021,0.018l0.018,0.014l0.018,0.015l0.018,0.014l0.02,0.015l0.021,0.016l0.019,0.013l0.019,0.014l0.02,0.013l0.021,0.014l0.02,0.013l0.018,0.012l0.021,0.013l0.022,0.013l0.023,0.013l0.019,0.011l0.021,0.012l0.022,0.011l0.02,0.011l0.023,0.011l0.02,0.01l0.023,0.011l0.022,0.01l0.023,0.01l0.023,0.01l0.019,0.008l0.024,0.01l0.023,0.009l0.022,0.008l0.024,0.009l0.022,0.007l0.022,0.008l0.025,0.008l0.023,0.006l0.024,0.008l0.024,0.006l0.021,0.006l0.025,0.006l0.025,0.006l0.025,0.005l0.023,0.005l0.023,0.005l0.026,0.005l0.024,0.004l0.025,0.004l0.023,0.003l0.026,0.004l0.026,0.003l0.024,0.002l0.026,0.003l0.027,0.002l0.025,0.002l0.025,0.001l0.025,0.001l0.026,0.001l0.027,0.001l0.026,0l0.026,0l0.027,-0.001l0.026,-0.001l0.025,-0.001l0.025,-0.001l0.025,-0.002l0.027,-0.002l0.026,-0.003l0.024,-0.002l0.026,-0.003l0.026,-0.004l0.023,-0.003l0.025,-0.004l0.024,-0.004l0.026,-0.005l0.023,-0.005l0.023,-0.005l0.025,-0.005l0.025,-0.006l0.025,-0.006l0.021,-0.006l0.024,-0.006l0.024,-0.008l0.023,-0.006l0.025,-0.008l0.022,-0.008l0.022,-0.007l0.024,-0.009l0.022,-0.008l0.023,-0.009l0.024,-0.01l0.019,-0.008l0.023,-0.01l0.023,-0.01l0.022,-0.01l0.023,-0.011l0.02,-0.01l0.023,-0.011l0.02,-0.011l0.022,-0.011l0.021,-0.012l0.019,-0.011l0.023,-0.013l0.022,-0.013l0.021,-0.013l0.018,-0.012l0.02,-0.013l0.021,-0.014l0.02,-0.013l0.019,-0.014l0.019,-0.013l0.021,-0.016l0.02,-0.015l0.018,-0.014l0.018,-0.015l0.018,-0.014l0.021,-0.018l0.018,-0.015l0.018,-0.016l0.018,-0.016l0.016,-0.014l0.02,-0.019l0.016,-0.016l0.017,-0.016l0.019,-0.02l0.016,-0.016l0.015,-0.017l0.017,-0.018l0.015,-0.017l0.018,-0.021l0.017,-0.019l0.012,-0.014l0.016,-0.019l0.017,-0.022l0.015,-0.019l0.013,-0.017l0.014,-0.02l0.015,-0.021l0.013,-0.018l0.015,-0.022l0.013,-0.019l0.013,-0.02l0.014,-0.023l0.012,-0.019l0.012,-0.021l0.012,-0.02l0.012,-0.021l0.012,-0.021l0.011,-0.022l0.011,-0.021l0.011,-0.021l0.011,-0.023l0.009,-0.019l0.011,-0.022l0.01,-0.024l0.01,-0.023l0.009,-0.023l0.008,-0.02l0.01,-0.024l0.008,-0.022l0.007,-0.02l0.01,-0.029l0.007,-0.021l0.007,-0.021l0.008,-0.027l0.007,-0.022l0.006,-0.023l0.006,-0.022l0.006,-0.023l0.006,-0.027l0.005,-0.024l0.005,-0.024l0.005,-0.024l0.005,-0.024l0.004,-0.025l0.004,-0.025l0.004,-0.025l0.002,-0.022l0.004,-0.029l0.003,-0.027l0.002,-0.022l0.002,-0.023l0.002,-0.027l0.001,-0.027l0.001,-0.024l0.001,-0.027l0.001,-0.028l0,-0.025l0,-0.025l-0.001,-0.028l-0.001,-0.027l-0.001,-0.024l-0.001,-0.027l-0.002,-0.027l-0.002,-0.023l-0.002,-0.022l-0.003,-0.027l-0.004,-0.029l-0.002,-0.022l-0.004,-0.025l-0.004,-0.025l-0.004,-0.025l-0.005,-0.024l-0.005,-0.024l-0.005,-0.024l-0.005,-0.024l-0.006,-0.027l-0.006,-0.023l-0.006,-0.022l-0.006,-0.023l-0.007,-0.022l-0.008,-0.027l-0.007,-0.021l-0.007,-0.021l-0.01,-0.029l-0.007,-0.02l-0.008,-0.022l-0.01,-0.024l-0.008,-0.02l-0.009,-0.023l-0.01,-0.023l-0.01,-0.024l-0.011,-0.022l-0.009,-0.019l-0.011,-0.023l-0.011,-0.021l-0.011,-0.021l-0.011,-0.022l-0.012,-0.021l-0.012,-0.021l-0.012,-0.02l-0.012,-0.021l-0.012,-0.019l-0.014,-0.023l-0.013,-0.02l-0.013,-0.019l-0.015,-0.022l-0.013,-0.018l-0.015,-0.021l-0.014,-0.02l-0.013,-0.017l-0.015,-0.019l-0.017,-0.022l-0.016,-0.019l-0.012,-0.014l-0.017,-0.019l-0.018,-0.021l-0.015,-0.017l-0.017,-0.018l-0.015,-0.017l-0.016,-0.016l-0.019,-0.02l-0.017,-0.016l-0.016,-0.016l-0.02,-0.019l-0.016,-0.014l-0.018,-0.016l-0.018,-0.016l-0.018,-0.015l-0.021,-0.018l-0.018,-0.014l-0.018,-0.015l-0.018,-0.014l-0.02,-0.015l-0.021,-0.016l-0.019,-0.013l-0.019,-0.014l-0.02,-0.013l-0.021,-0.014l-0.02,-0.013l-0.018,-0.012l-0.021,-0.013l-0.022,-0.013l-0.023,-0.013l-0.019,-0.011l-0.021,-0.012l-0.022,-0.011l-0.02,-0.011l-0.023,-0.011l-0.02,-0.01l-0.023,-0.011l-0.022,-0.01l-0.023,-0.01l-0.023,-0.01l-0.019,-0.008l-0.024,-0.01l-0.023,-0.009l-0.022,-0.008l-0.024,-0.009l-0.022,-0.007l-0.022,-0.008l-0.025,-0.008l-0.023,-0.006l-0.024,-0.008l-0.024,-0.006l-0.021,-0.006l-0.025,-0.006l-0.025,-0.006l-0.025,-0.005l-0.023,-0.005l-0.023,-0.005l-0.026,-0.005l-0.024,-0.004l-0.025,-0.004l-0.023,-0.003l-0.026,-0.004l-0.026,-0.003l-0.024,-0.002l-0.026,-0.003l-0.027,-0.002l-0.025,-0.002l-0.025,-0.001l-0.025,-0.001l-0.026,-0.001l-0.027,-0.001l-0.026,0l-0.026,0Z" style="fill:#e5a1c8;"/></g><g><path d="M233.552,127l0.051,0.001l0.052,0.002l0.051,0.002l0.051,0.003l0.051,0.004l0.05,0.004l0.051,0.005l0.05,0.005l0.05,0.006l0.05,0.007l0.05,0.007l0.049,0.008l0.05,0.009l0.049,0.009l0.049,0.009l0.048,0.011l0.049,0.011l0.048,0.011l0.048,0.012l0.048,0.013l0.048,0.013l0.047,0.014l0.047,0.014l0.047,0.015l0.046,0.015l0.047,0.016l0.046,0.017l0.046,0.017l0.045,0.018l0.045,0.018l0.045,0.019l0.045,0.019l0.045,0.02l0.044,0.02l0.044,0.021l0.043,0.021l0.043,0.022l0.043,0.022l0.043,0.023l0.042,0.023l0.042,0.024l0.042,0.025l0.041,0.024l0.042,0.026l0.04,0.026l0.041,0.026l0.04,0.027l0.04,0.027l0.039,0.027l0.039,0.029l0.039,0.028l0.038,0.029l0.038,0.03l0.038,0.03l0.037,0.03l0.037,0.031l0.036,0.031l0.036,0.032l0.036,0.032l0.035,0.032l0.035,0.033l0.035,0.033l0.034,0.034l0.034,0.034l0.033,0.035l0.033,0.035l0.032,0.035l0.032,0.036l0.032,0.036l0.031,0.036l0.031,0.037l0.03,0.037l0.03,0.038l0.03,0.038l0.029,0.038l0.028,0.039l0.029,0.039l0.027,0.039l0.027,0.04l0.027,0.04l0.026,0.041l0.026,0.04l0.026,0.042l0.024,0.041l0.025,0.042l0.024,0.042l0.023,0.042l0.023,0.043l0.022,0.043l0.022,0.043l0.021,0.043l0.021,0.044l0.02,0.044l0.02,0.045l0.019,0.045l0.019,0.045l0.018,0.045l0.018,0.045l0.017,0.046l0.017,0.046l0.016,0.047l0.015,0.046l0.015,0.047l0.014,0.047l0.014,0.047l0.013,0.048l0.013,0.048l0.012,0.048l0.011,0.048l0.011,0.049l0.011,0.048l0.009,0.049l0.009,0.049l0.009,0.05l0.008,0.049l0.007,0.05l0.007,0.05l0.006,0.05l0.005,0.05l0.005,0.051l0.004,0.05l0.004,0.051l0.003,0.051l0.002,0.051l0.002,0.052l0.001,0.051l0,0.052l0,0.052l-0.001,0.051l-0.002,0.052l-0.002,0.051l-0.003,0.051l-0.004,0.051l-0.004,0.05l-0.005,0.051l-0.005,0.05l-0.006,0.05l-0.007,0.05l-0.007,0.05l-0.008,0.049l-0.009,0.05l-0.009,0.049l-0.009,0.049l-0.011,0.048l-0.011,0.049l-0.011,0.048l-0.012,0.048l-0.013,0.048l-0.013,0.048l-0.014,0.047l-0.014,0.047l-0.015,0.047l-0.015,0.046l-0.016,0.047l-0.017,0.046l-0.017,0.046l-0.018,0.045l-0.018,0.045l-0.019,0.045l-0.019,0.045l-0.02,0.045l-0.02,0.044l-0.021,0.044l-0.021,0.043l-0.022,0.043l-0.022,0.043l-0.023,0.043l-0.023,0.042l-0.024,0.042l-0.025,0.042l-0.024,0.041l-0.026,0.042l-0.026,0.04l-0.026,0.041l-0.027,0.04l-0.027,0.04l-0.027,0.039l-0.029,0.039l-0.028,0.039l-0.029,0.038l-0.03,0.038l-0.03,0.038l-0.03,0.037l-0.031,0.037l-0.031,0.036l-0.032,0.036l-0.032,0.036l-0.032,0.035l-0.033,0.035l-0.033,0.035l-0.034,0.034l-0.034,0.034l-0.035,0.033l-0.035,0.033l-0.035,0.032l-0.036,0.032l-0.036,0.032l-0.036,0.031l-0.037,0.031l-0.037,0.03l-0.038,0.03l-0.038,0.03l-0.038,0.029l-0.039,0.028l-0.039,0.029l-0.039,0.027l-0.04,0.027l-0.04,0.027l-0.041,0.026l-0.04,0.026l-0.042,0.026l-0.041,0.024l-0.042,0.025l-0.042,0.024l-0.042,0.023l-0.043,0.023l-0.043,0.022l-0.043,0.022l-0.043,0.021l-0.044,0.021l-0.044,0.02l-0.045,0.02l-0.045,0.019l-0.045,0.019l-0.045,0.018l-0.045,0.018l-0.046,0.017l-0.046,0.017l-0.047,0.016l-0.046,0.015l-0.047,0.015l-0.047,0.014l-0.047,0.014l-0.048,0.013l-0.048,0.013l-0.048,0.012l-0.048,0.011l-0.049,0.011l-0.048,0.011l-0.049,0.009l-0.049,0.009l-0.05,0.009l-0.049,0.008l-0.05,0.007l-0.05,0.007l-0.05,0.006l-0.05,0.005l-0.051,0.005l-0.05,0.004l-0.051,0.004l-0.051,0.003l-0.051,0.002l-0.052,0.002l-0.051,0.001l-0.052,0l-0.052,0l-0.051,-0.001l-0.052,-0.002l-0.051,-0.002l-0.051,-0.003l-0.051,-0.004l-0.05,-0.004l-0.051,-0.005l-0.05,-0.005l-0.05,-0.006l-0.05,-0.007l-0.05,-0.007l-0.049,-0.008l-0.05,-0.009l-0.049,-0.009l-0.049,-0.009l-0.048,-0.011l-0.049,-0.011l-0.048,-0.011l-0.048,-0.012l-0.048,-0.013l-0.048,-0.013l-0.047,-0.014l-0.047,-0.014l-0.047,-0.015l-0.046,-0.015l-0.047,-0.016l-0.046,-0.017l-0.046,-0.017l-0.045,-0.018l-0.045,-0.018l-0.045,-0.019l-0.045,-0.019l-0.045,-0.02l-0.044,-0.02l-0.044,-0.021l-0.043,-0.021l-0.043,-0.022l-0.043,-0.022l-0.043,-0.023l-0.042,-0.023l-0.042,-0.024l-0.042,-0.025l-0.041,-0.024l-0.042,-0.026l-0.04,-0.026l-0.041,-0.026l-0.04,-0.027l-0.04,-0.027l-0.039,-0.027l-0.039,-0.029l-0.039,-0.028l-0.038,-0.029l-0.038,-0.03l-0.038,-0.03l-0.037,-0.03l-0.037,-0.031l-0.036,-0.031l-0.036,-0.032l-0.036,-0.032l-0.035,-0.032l-0.035,-0.033l-0.035,-0.033l-0.034,-0.034l-0.034,-0.034l-0.033,-0.035l-0.033,-0.035l-0.032,-0.035l-0.032,-0.036l-0.032,-0.036l-0.031,-0.036l-0.031,-0.037l-0.03,-0.037l-0.03,-0.038l-0.03,-0.038l-0.029,-0.038l-0.028,-0.039l-0.029,-0.039l-0.027,-0.039l-0.027,-0.04l-0.027,-0.04l-0.026,-0.041l-0.026,-0.04l-0.026,-0.042l-0.024,-0.041l-0.025,-0.042l-0.024,-0.042l-0.023,-0.042l-0.023,-0.043l-0.022,-0.043l-0.022,-0.043l-0.021,-0.043l-0.021,-0.044l-0.02,-0.044l-0.02,-0.045l-0.019,-0.045l-0.019,-0.045l-0.018,-0.045l-0.018,-0.045l-0.017,-0.046l-0.017,-0.046l-0.016,-0.047l-0.015,-0.046l-0.015,-0.047l-0.014,-0.047l-0.014,-0.047l-0.013,-0.048l-0.013,-0.048l-0.012,-0.048l-0.011,-0.048l-0.011,-0.049l-0.011,-0.048l-0.009,-0.049l-0.009,-0.049l-0.009,-0.05l-0.008,-0.049l-0.007,-0.05l-0.007,-0.05l-0.006,-0.05l-0.005,-0.05l-0.005,-0.051l-0.004,-0.05l-0.004,-0.051l-0.003,-0.051l-0.002,-0.051l-0.002,-0.052l-0.001,-0.051l0,-0.052l0,-0.052l0.001,-0.051l0.002,-0.052l0.002,-0.051l0.003,-0.051l0.004,-0.051l0.004,-0.05l0.005,-0.051l0.005,-0.05l0.006,-0.05l0.007,-0.05l0.007,-0.05l0.008,-0.049l0.009,-0.05l0.009,-0.049l0.009,-0.049l0.011,-0.048l0.011,-0.049l0.011,-0.048l0.012,-0.048l0.013,-0.048l0.013,-0.048l0.014,-0.047l0.014,-0.047l0.015,-0.047l0.015,-0.046l0.016,-0.047l0.017,-0.046l0.017,-0.046l0.018,-0.045l0.018,-0.045l0.019,-0.045l0.019,-0.045l0.02,-0.045l0.02,-0.044l0.021,-0.044l0.021,-0.043l0.022,-0.043l0.022,-0.043l0.023,-0.043l0.023,-0.042l0.024,-0.042l0.025,-0.042l0.024,-0.041l0.026,-0.042l0.026,-0.04l0.026,-0.041l0.027,-0.04l0.027,-0.04l0.027,-0.039l0.029,-0.039l0.028,-0.039l0.029,-0.038l0.03,-0.038l0.03,-0.038l0.03,-0.037l0.031,-0.037l0.031,-0.036l0.032,-0.036l0.032,-0.036l0.032,-0.035l0.033,-0.035l0.033,-0.035l0.034,-0.034l0.034,-0.034l0.035,-0.033l0.035,-0.033l0.035,-0.032l0.036,-0.032l0.036,-0.032l0.036,-0.031l0.037,-0.031l0.037,-0.03l0.038,-0.03l0.038,-0.03l0.038,-0.029l0.039,-0.028l0.039,-0.029l0.039,-0.027l0.04,-0.027l0.04,-0.027l0.041,-0.026l0.04,-0.026l0.042,-0.026l0.041,-0.024l0.042,-0.025l0.042,-0.024l0.042,-0.023l0.043,-0.023l0.043,-0.022l0.043,-0.022l0.043,-0.021l0.044,-0.021l0.044,-0.02l0.045,-0.02l0.045,-0.019l0.045,-0.019l0.045,-0.018l0.045,-0.018l0.046,-0.017l0.046,-0.017l0.047,-0.016l0.046,-0.015l0.047,-0.015l0.047,-0.014l0.047,-0.014l0.048,-0.013l0.048,-0.013l0.048,-0.012l0.048,-0.011l0.049,-0.011l0.048,-0.011l0.049,-0.009l0.049,-0.009l0.05,-0.009l0.049,-0.008l0.05,-0.007l0.05,-0.007l0.05,-0.006l0.05,-0.005l0.051,-0.005l0.05,-0.004l0.051,-0.004l0.051,-0.003l0.051,-0.002l0.052,-0.002l0.051,-0.001l0.052,0l0.052,0Zm-0.076,2l-0.029,0.001l-0.028,0.001l-0.023,0.001l-0.027,0.001l-0.027,0.002l-0.023,0.002l-0.022,0.002l-0.026,0.003l-0.03,0.004l-0.022,0.002l-0.025,0.004l-0.025,0.004l-0.024,0.004l-0.026,0.005l-0.023,0.005l-0.023,0.005l-0.025,0.005l-0.027,0.007l-0.023,0.005l-0.023,0.006l-0.022,0.006l-0.022,0.007l-0.027,0.008l-0.021,0.007l-0.021,0.007l-0.029,0.01l-0.022,0.008l-0.019,0.007l-0.024,0.009l-0.022,0.009l-0.021,0.009l-0.025,0.01l-0.023,0.01l-0.022,0.011l-0.019,0.009l-0.022,0.011l-0.023,0.011l-0.02,0.011l-0.022,0.011l-0.021,0.012l-0.019,0.011l-0.021,0.012l-0.023,0.014l-0.02,0.012l-0.022,0.014l-0.018,0.012l-0.02,0.013l-0.023,0.016l-0.017,0.012l-0.02,0.014l-0.02,0.015l-0.019,0.014l-0.019,0.015l-0.02,0.016l-0.019,0.015l-0.016,0.013l-0.018,0.017l-0.021,0.018l-0.016,0.014l-0.018,0.017l-0.02,0.018l-0.013,0.013l-0.02,0.019l-0.019,0.02l-0.013,0.013l-0.018,0.02l-0.017,0.018l-0.014,0.016l-0.018,0.021l-0.017,0.018l-0.013,0.016l-0.015,0.019l-0.016,0.02l-0.015,0.019l-0.014,0.019l-0.015,0.02l-0.014,0.02l-0.012,0.017l-0.016,0.023l-0.013,0.02l-0.012,0.018l-0.014,0.022l-0.012,0.02l-0.014,0.023l-0.012,0.021l-0.011,0.019l-0.012,0.021l-0.011,0.022l-0.011,0.02l-0.011,0.023l-0.011,0.022l-0.009,0.019l-0.011,0.022l-0.01,0.023l-0.01,0.025l-0.009,0.021l-0.009,0.022l-0.009,0.024l-0.007,0.019l-0.008,0.022l-0.01,0.029l-0.007,0.021l-0.007,0.021l-0.008,0.027l-0.007,0.022l-0.006,0.022l-0.006,0.023l-0.005,0.023l-0.007,0.027l-0.005,0.025l-0.005,0.023l-0.005,0.023l-0.005,0.026l-0.004,0.024l-0.004,0.025l-0.004,0.025l-0.002,0.022l-0.004,0.03l-0.003,0.026l-0.002,0.022l-0.002,0.023l-0.002,0.027l-0.001,0.027l-0.001,0.023l-0.001,0.028l-0.001,0.029l0,0.024l0,0.024l0.001,0.029l0.001,0.028l0.001,0.023l0.001,0.027l0.002,0.027l0.002,0.023l0.002,0.022l0.003,0.026l0.004,0.03l0.002,0.022l0.004,0.025l0.004,0.025l0.004,0.024l0.005,0.026l0.005,0.023l0.005,0.023l0.005,0.025l0.007,0.027l0.005,0.023l0.006,0.023l0.006,0.022l0.007,0.022l0.008,0.027l0.007,0.021l0.007,0.021l0.01,0.029l0.008,0.022l0.007,0.019l0.009,0.024l0.009,0.022l0.009,0.021l0.01,0.025l0.01,0.023l0.011,0.022l0.009,0.019l0.011,0.022l0.011,0.023l0.011,0.02l0.011,0.022l0.012,0.021l0.011,0.019l0.012,0.021l0.014,0.023l0.012,0.02l0.014,0.022l0.012,0.018l0.013,0.02l0.016,0.023l0.012,0.017l0.014,0.02l0.015,0.02l0.014,0.019l0.015,0.019l0.016,0.02l0.015,0.019l0.013,0.016l0.017,0.018l0.018,0.021l0.014,0.016l0.017,0.018l0.018,0.02l0.013,0.013l0.019,0.02l0.02,0.019l0.013,0.013l0.02,0.018l0.018,0.017l0.016,0.014l0.021,0.018l0.018,0.017l0.016,0.013l0.019,0.015l0.02,0.016l0.019,0.015l0.019,0.014l0.02,0.015l0.02,0.014l0.017,0.012l0.023,0.016l0.02,0.013l0.018,0.012l0.022,0.014l0.02,0.012l0.023,0.014l0.021,0.012l0.019,0.011l0.021,0.012l0.022,0.011l0.02,0.011l0.023,0.011l0.022,0.011l0.019,0.009l0.022,0.011l0.023,0.01l0.025,0.01l0.021,0.009l0.022,0.009l0.024,0.009l0.019,0.007l0.022,0.008l0.029,0.01l0.021,0.007l0.021,0.007l0.027,0.008l0.022,0.007l0.022,0.006l0.023,0.006l0.023,0.005l0.027,0.007l0.025,0.005l0.023,0.005l0.023,0.005l0.026,0.005l0.024,0.004l0.025,0.004l0.025,0.004l0.022,0.002l0.03,0.004l0.026,0.003l0.022,0.002l0.023,0.002l0.027,0.002l0.027,0.001l0.023,0.001l0.028,0.001l0.029,0.001l0.024,0l0.024,0l0.029,-0.001l0.028,-0.001l0.023,-0.001l0.027,-0.001l0.027,-0.002l0.023,-0.002l0.022,-0.002l0.026,-0.003l0.03,-0.004l0.022,-0.002l0.025,-0.004l0.025,-0.004l0.024,-0.004l0.026,-0.005l0.023,-0.005l0.023,-0.005l0.025,-0.005l0.027,-0.007l0.023,-0.005l0.023,-0.006l0.022,-0.006l0.022,-0.007l0.027,-0.008l0.021,-0.007l0.021,-0.007l0.029,-0.01l0.022,-0.008l0.019,-0.007l0.024,-0.009l0.022,-0.009l0.021,-0.009l0.025,-0.01l0.023,-0.01l0.022,-0.011l0.019,-0.009l0.022,-0.011l0.023,-0.011l0.02,-0.011l0.022,-0.011l0.021,-0.012l0.019,-0.011l0.021,-0.012l0.023,-0.014l0.02,-0.012l0.022,-0.014l0.018,-0.012l0.02,-0.013l0.023,-0.016l0.017,-0.012l0.02,-0.014l0.02,-0.015l0.019,-0.014l0.019,-0.015l0.02,-0.016l0.019,-0.015l0.016,-0.013l0.018,-0.017l0.021,-0.018l0.016,-0.014l0.018,-0.017l0.02,-0.018l0.013,-0.013l0.02,-0.019l0.019,-0.02l0.013,-0.013l0.018,-0.02l0.017,-0.018l0.014,-0.016l0.018,-0.021l0.017,-0.018l0.013,-0.016l0.015,-0.019l0.016,-0.02l0.015,-0.019l0.014,-0.019l0.015,-0.02l0.014,-0.02l0.012,-0.017l0.016,-0.023l0.013,-0.02l0.012,-0.018l0.014,-0.022l0.012,-0.02l0.014,-0.023l0.012,-0.021l0.011,-0.019l0.012,-0.021l0.011,-0.022l0.011,-0.02l0.011,-0.023l0.011,-0.022l0.009,-0.019l0.011,-0.022l0.01,-0.023l0.01,-0.025l0.009,-0.021l0.009,-0.022l0.009,-0.024l0.007,-0.019l0.008,-0.022l0.01,-0.029l0.007,-0.021l0.007,-0.021l0.008,-0.027l0.007,-0.022l0.006,-0.022l0.006,-0.023l0.005,-0.023l0.007,-0.027l0.005,-0.025l0.005,-0.023l0.005,-0.023l0.005,-0.026l0.004,-0.024l0.004,-0.025l0.004,-0.025l0.002,-0.022l0.004,-0.03l0.003,-0.026l0.002,-0.022l0.002,-0.023l0.002,-0.027l0.001,-0.027l0.001,-0.023l0.001,-0.028l0.001,-0.029l0,-0.024l0,-0.024l-0.001,-0.029l-0.001,-0.028l-0.001,-0.023l-0.001,-0.027l-0.002,-0.027l-0.002,-0.023l-0.002,-0.022l-0.003,-0.026l-0.004,-0.03l-0.002,-0.022l-0.004,-0.025l-0.004,-0.025l-0.004,-0.024l-0.005,-0.026l-0.005,-0.023l-0.005,-0.023l-0.005,-0.025l-0.007,-0.027l-0.005,-0.023l-0.006,-0.023l-0.006,-0.022l-0.007,-0.022l-0.008,-0.027l-0.007,-0.021l-0.007,-0.021l-0.01,-0.029l-0.008,-0.022l-0.007,-0.019l-0.009,-0.024l-0.009,-0.022l-0.009,-0.021l-0.01,-0.025l-0.01,-0.023l-0.011,-0.022l-0.009,-0.019l-0.011,-0.022l-0.011,-0.023l-0.011,-0.02l-0.011,-0.022l-0.012,-0.021l-0.011,-0.019l-0.012,-0.021l-0.014,-0.023l-0.012,-0.02l-0.014,-0.022l-0.012,-0.018l-0.013,-0.02l-0.016,-0.023l-0.012,-0.017l-0.014,-0.02l-0.015,-0.02l-0.014,-0.019l-0.015,-0.019l-0.016,-0.02l-0.015,-0.019l-0.013,-0.016l-0.017,-0.018l-0.018,-0.021l-0.014,-0.016l-0.017,-0.018l-0.018,-0.02l-0.013,-0.013l-0.019,-0.02l-0.02,-0.019l-0.013,-0.013l-0.02,-0.018l-0.018,-0.017l-0.016,-0.014l-0.021,-0.018l-0.018,-0.017l-0.016,-0.013l-0.019,-0.015l-0.02,-0.016l-0.019,-0.015l-0.019,-0.014l-0.02,-0.015l-0.02,-0.014l-0.017,-0.012l-0.023,-0.016l-0.02,-0.013l-0.018,-0.012l-0.022,-0.014l-0.02,-0.012l-0.023,-0.014l-0.021,-0.012l-0.019,-0.011l-0.021,-0.012l-0.022,-0.011l-0.02,-0.011l-0.023,-0.011l-0.022,-0.011l-0.019,-0.009l-0.022,-0.011l-0.023,-0.01l-0.025,-0.01l-0.021,-0.009l-0.022,-0.009l-0.024,-0.009l-0.019,-0.007l-0.022,-0.008l-0.029,-0.01l-0.021,-0.007l-0.021,-0.007l-0.027,-0.008l-0.022,-0.007l-0.022,-0.006l-0.023,-0.006l-0.023,-0.005l-0.027,-0.007l-0.025,-0.005l-0.023,-0.005l-0.023,-0.005l-0.026,-0.005l-0.024,-0.004l-0.025,-0.004l-0.025,-0.004l-0.022,-0.002l-0.03,-0.004l-0.026,-0.003l-0.022,-0.002l-0.023,-0.002l-0.027,-0.002l-0.027,-0.001l-0.023,-0.001l-0.028,-0.001l-0.029,-0.001l-0.024,0l-0.024,0Z" style="fill:#e5a1c8;"/></g></g><g id="visual-drawing" serif:id="visual drawing"><g id="vector"><path d="M143.999,104l-80,0" style="fill:none;stroke:#fff;stroke-width:2px;stroke-linecap:square;"/><path d="M66.49,125c7.744,-12.594 21.653,-21 37.509,-21c15.857,0 29.765,8.406 37.509,21" style="fill:none;stroke:#fff;stroke-width:2px;stroke-linecap:square;"/><rect x="95.999" y="96" width="16" height="16" style="fill:#181b1c;stroke:#fff;stroke-width:2px;stroke-linecap:square;"/><rect x="95.999" y="96" width="16" height="16" style="fill:#addde2;"/><path d="M111.999,112l-16,0l0,-16l16,0l0,16Zm-14,-14l0,12l12,0l0,-12l-12,0Z" style="fill:#181b1c;"/><g><circle cx="56" cy="104" r="6" style="fill:#181b1c;stroke:#fff;stroke-width:2px;stroke-linecap:square;"/><circle cx="151.999" cy="104" r="6" style="fill:#181b1c;stroke:#fff;stroke-width:2px;stroke-linecap:square;"/></g><g><circle cx="65.991" cy="126" r="4" style="fill:#fff;"/><circle cx="142.008" cy="126" r="4" style="fill:#fff;"/></g></g><g id="pen"><path d="M121.632,221.557l-35.265,0l-18.368,-33.6l36,-62.4l36,62.4l-18.367,33.6Z" style="fill:#181b1c;"/><path d="M104.26,123.574l0.257,0.051l0.248,0.084l0.235,0.116l0.217,0.146l0.197,0.172l0.172,0.197l0.146,0.218l36,62.4l0.113,0.229l0.083,0.242l0.052,0.25l0.019,0.255l-0.013,0.255l-0.046,0.252l-0.078,0.244l-0.108,0.231l-18.367,33.6l-0.144,0.226l-0.172,0.204l-0.198,0.18l-0.221,0.151l-0.238,0.121l-0.253,0.088l-0.262,0.053l-0.267,0.018l-35.265,0l-0.267,-0.018l-0.262,-0.053l-0.253,-0.088l-0.238,-0.121l-0.221,-0.151l-0.198,-0.18l-0.173,-0.204l-0.143,-0.226l-18.368,-33.6l-0.108,-0.231l-0.077,-0.244l-0.046,-0.252l-0.014,-0.255l0.02,-0.255l0.051,-0.25l0.084,-0.242l0.113,-0.229l36,-62.4l0.145,-0.218l0.173,-0.197l0.197,-0.172l0.217,-0.146l0.235,-0.116l0.248,-0.084l0.256,-0.051l0.261,-0.017l0.261,0.017Zm-36.261,64.383l18.368,33.6l35.265,0l18.367,-33.6l-36,-62.4l-36,62.4Z" style="fill:#fff;"/><path d="M123.999,232.5l-3,0l0,27.519l-34,0l0,-27.519l-3,0l0,-12.5l40,0l0,12.5Z" style="fill:#181b1c;"/><path d="M124.174,218.008l0.173,0.022l0.17,0.038l0.166,0.053l0.162,0.066l0.154,0.081l0.147,0.094l0.139,0.106l0.128,0.118l0.118,0.128l0.107,0.139l0.093,0.147l0.081,0.155l0.067,0.161l0.052,0.166l0.038,0.171l0.023,0.173l0.007,0.174l0,12.5l-0.007,0.174l-0.023,0.173l-0.038,0.171l-0.052,0.166l-0.067,0.161l-0.081,0.155l-0.093,0.147l-0.107,0.139l-0.118,0.128l-0.128,0.118l-0.139,0.106l-0.147,0.094l-0.154,0.081l-0.162,0.066l-0.166,0.053l-0.17,0.038l-0.173,0.022l-0.175,0.008l-1,0l0,25.519l-0.007,0.175l-0.023,0.173l-0.038,0.17l-0.052,0.166l-0.067,0.162l-0.081,0.154l-0.093,0.148l-0.107,0.138l-0.117,0.129l-0.129,0.118l-0.139,0.106l-0.147,0.094l-0.154,0.08l-0.162,0.067l-0.166,0.052l-0.17,0.038l-0.173,0.023l-0.175,0.007l-34,0l-0.174,-0.007l-0.173,-0.023l-0.17,-0.038l-0.167,-0.052l-0.161,-0.067l-0.155,-0.08l-0.147,-0.094l-0.138,-0.106l-0.129,-0.118l-0.118,-0.129l-0.106,-0.138l-0.094,-0.148l-0.08,-0.154l-0.067,-0.162l-0.053,-0.166l-0.037,-0.17l-0.023,-0.173l-0.008,-0.175l0,-25.519l-1,0l-0.174,-0.008l-0.173,-0.022l-0.17,-0.038l-0.167,-0.053l-0.161,-0.066l-0.155,-0.081l-0.147,-0.094l-0.138,-0.106l-0.129,-0.118l-0.118,-0.128l-0.106,-0.139l-0.094,-0.147l-0.08,-0.155l-0.067,-0.161l-0.053,-0.166l-0.037,-0.171l-0.023,-0.173l-0.008,-0.174l0,-12.5l0.008,-0.174l0.023,-0.173l0.037,-0.171l0.053,-0.166l0.067,-0.161l0.08,-0.155l0.094,-0.147l0.106,-0.139l0.118,-0.128l0.129,-0.118l0.138,-0.106l0.147,-0.094l0.155,-0.081l0.161,-0.066l0.167,-0.053l0.17,-0.038l0.173,-0.022l0.174,-0.008l40,0l0.175,0.008Zm-40.175,1.992l0,12.5l3,0l0,27.519l34,0l0,-27.519l3,0l0,-12.5l-40,0Z" style="fill:#fff;"/><path d="M123.999,232.5l-3,0l0,27.519l-34,0l0,-27.519l-3,0l0,-12.5l40,0l0,12.5Z" style="fill:#4aa6b2;"/><path d="M123.999,232.5l-3,0l0,27.519l-34,0l0,-27.519l-3,0l0,-12.5l40,0l0,12.5Zm-38,-10.5l0,8.5l3,0l0,27.519l30,0l0,-27.519l3,0l0,-8.5l-36,0Z" style="fill:#181b1c;"/><rect x="88.999" y="232.5" width="30" height="8" style="fill:#171717;fill-opacity:0.15;"/><circle cx="103.999" cy="195.49" r="6" style="fill:#181b1c;stroke:#fff;stroke-width:2px;stroke-linecap:square;"/><path d="M87.499,231.5l33,0" style="fill:none;stroke:#181b1c;stroke-width:2px;stroke-linecap:square;"/><path d="M103.999,127.468l0,60.5" style="fill:none;stroke:#fff;stroke-width:2px;stroke-linecap:square;"/></g></g></svg>