<svg xmlns="http://www.w3.org/2000/svg" width="240" height="240" viewBox="0 0 240 240">
  <g fill="none" fill-rule="evenodd">
    <circle cx="120" cy="120" r="120" fill="#A0DEE3" fill-opacity=".2"/>
    <path stroke="#0B7285" stroke-linecap="round" stroke-linejoin="round" stroke-width="4" d="M113 145C124.304348 136.482993 132.304348 131.816327 137 131 141.695652 130.183673 145.362319 131.183673 148 134M125 149C139.104575 139.779661 148.771242 134.446328 154 133 159.228758 131.553672 162.895425 132.306968 165 135.259887M135.041592 153.536869C148.448161 145.604476 156.792871 140.698566 160.075723 138.819139 165 136 170.755203 133.730095 173 137 175.244797 140.269905 176 144 168.289223 149.278852 160.578445 154.557704 119.030058 187 100.785924 187 88.6231671 187 74.0278592 183.013212 57 175.039636M112.013104 145C111.75103 128.826087 115.420067 115.219462 123.020217 104.180124 130.620367 93.1407867 138.613628 86.0807453 147 83M83 113.637363C85.5526316 110.985348 89.2192982 110.106227 94 111 101.171053 112.340659 107.565789 128.945055 111 142"/>
    <path fill="#0B7285" fill-opacity=".25" stroke="#0B7285" stroke-linecap="round" stroke-linejoin="round" stroke-width="4" d="M101 115C98.3913043 107.666667 95.2608696 104 91.6086957 104 87.9565217 104 85.0869565 107 83 113M123 104C119.36036 96.64 119.783784 88.4666667 124.27027 79.48 131 66 145.783784 64 156 64 162.810811 64 170.144144 65.65 178 68.95 172.27027 80.8766667 165.837838 90.3666667 158.702703 97.42 151.567568 104.473333 139.666667 106.666667 123 104z"/>
    <path fill="#ECF8F9" stroke="#0B7285" stroke-linecap="round" stroke-linejoin="round" stroke-width="4" d="M52,130.442322 C64.8839701,124.519226 76.0797302,124.519226 85.5872802,130.442322 C95.0948303,136.365418 102.17261,140.563057 106.820618,143.035237 C129.250853,149.46252 142.396274,153.948173 146.256881,156.492197 C152.047791,160.308232 151.229828,164.52665 150.457707,166.434667 C149.685586,168.342685 145.484759,170.611526 140.46597,169.848319 C135.447181,169.085112 116.858196,162.115412 103.732133,160.207394 C90.6060692,158.299377 80.1824305,159.444187 74.0054595,163.641826"/>
  </g>
</svg>
