<?xml version="1.0" encoding="UTF-8" standalone="no"?>
<!DOCTYPE svg PUBLIC "-//W3C//DTD SVG 1.1//EN" "http://www.w3.org/Graphics/SVG/1.1/DTD/svg11.dtd">
<svg width="100%" height="100%" viewBox="0 0 600 600" version="1.1" xmlns="http://www.w3.org/2000/svg" xmlns:xlink="http://www.w3.org/1999/xlink" xml:space="preserve" xmlns:serif="http://www.serif.com/" style="fill-rule:evenodd;clip-rule:evenodd;stroke-linecap:round;stroke-linejoin:round;stroke-miterlimit:3;">
    <g transform="matrix(1,0,0,1,-5465.06,-2381.44)">
        <g id="we-care" transform="matrix(0.950872,0,0,0.950872,5461.26,920.899)">
            <rect x="4" y="1536" width="631" height="631" style="fill:white;"/>
            <g transform="matrix(0.630188,0,0,0.630188,-11.8294,1514.81)">
                <g id="background">
                    <circle cx="525.763" cy="534.273" r="333.763" style="fill:rgb(173,221,226);"/>
                </g>
            </g>
            <g id="visual-drawing" serif:id="visual drawing">
            </g>
            <g transform="matrix(10.2587,0,0,10.1181,153.258,1697.79)">
                <g id="heart">
                    <path id="Shape" d="M25.87,11.05C25.426,8.67 23.691,7.314 21.734,7.047C19.888,6.802 17.841,7.514 16.507,9.271C16.262,9.604 16.107,9.916 15.995,10.316C15.884,9.916 15.729,9.604 15.484,9.271C14.149,7.514 12.125,6.802 10.257,7.047C8.3,7.314 6.543,8.67 6.12,11.05C5.609,13.83 6.788,15.565 8.522,17.678C10.88,20.569 13.46,23.327 15.995,26.085C18.531,23.327 21.111,20.592 23.491,17.678C25.225,15.565 26.404,13.83 25.87,11.05Z" style="fill:none;stroke:rgb(24,27,28);stroke-width:1.24px;"/>
                </g>
            </g>
        </g>
    </g>
</svg>
