<?xml version="1.0" encoding="UTF-8" standalone="no"?>
<!DOCTYPE svg PUBLIC "-//W3C//DTD SVG 1.1//EN" "http://www.w3.org/Graphics/SVG/1.1/DTD/svg11.dtd">
<svg width="100%" height="100%" viewBox="0 0 600 600" version="1.1" xmlns="http://www.w3.org/2000/svg" xmlns:xlink="http://www.w3.org/1999/xlink" xml:space="preserve" xmlns:serif="http://www.serif.com/" style="fill-rule:evenodd;clip-rule:evenodd;stroke-linejoin:round;stroke-miterlimit:2;">
    <g transform="matrix(1,0,0,1,-6155.06,-2381.44)">
        <g id="we-listen" transform="matrix(0.950872,0,0,0.950872,6151.26,920.899)">
            <rect x="4" y="1536" width="631" height="631" style="fill:white;"/>
            <g transform="matrix(0.630188,0,0,0.630188,-11.8294,1514.81)">
                <g id="background">
                    <circle cx="525.763" cy="534.273" r="333.763" style="fill:rgb(173,221,226);"/>
                </g>
            </g>
            <g id="visual-drawing" serif:id="visual drawing">
            </g>
            <g id="heart" transform="matrix(7.51942,0,0,7.60904,172.372,1742.5)">
                <g transform="matrix(0.0551792,0,0,0.0545292,21.1049,15.0163)">
                    <g id="heart1" serif:id="heart">
                        <g transform="matrix(1,0,0,1,-256,-256)">
                            <g>
                                <path d="M190,0C93.505,0 15,78.505 15,175L15,412C15,467.141 59.859,512 115,512C170.141,512 215,467.141 215,412C215,400.12 220.901,389.094 230.786,382.504L266.795,358.497C328.288,317.502 365,248.904 365,175C365,78.505 286.495,0 190,0ZM250.154,333.536L214.145,357.543C195.896,369.709 185,390.066 185,412C185,450.598 153.598,482 115,482C76.402,482 45,450.598 45,412L45,175C45,95.047 110.047,30 190,30C269.953,30 335,95.047 335,175C335,238.852 303.282,298.117 250.154,333.536Z" style="fill-rule:nonzero;"/>
                                <path d="M205.088,81.103C177.463,76.936 149.579,84.915 128.581,102.983C107.57,121.064 95.51,147.276 95.481,174.907L94.723,236.741C94.541,251.631 100.462,266.195 110.968,276.701L112.635,278.368C117.225,282.959 119.723,289.014 119.667,295.421C119.613,301.703 117.101,307.562 112.605,311.905L112.019,312.471C101.509,322.641 95.481,336.891 95.481,351.569L95.481,365C95.481,389.813 115.668,410 140.481,410C148.765,410 155.481,403.284 155.481,395C155.481,386.716 148.765,380 140.481,380C132.21,380 125.481,373.271 125.481,365L125.481,351.568C125.481,344.972 128.178,338.581 132.905,334.006L133.438,333.49C143.78,323.499 149.542,310.07 149.667,295.678C149.792,281.16 144.175,267.479 133.849,257.154L132.182,255.487C127.286,250.591 124.637,244.063 124.722,237.107L125.203,197.852L125.482,194.999C125.482,181.214 136.697,169.999 150.482,169.999C164.267,169.999 175.482,181.214 175.482,194.999C175.482,203.283 182.198,209.999 190.482,209.999C198.766,209.999 205.482,203.283 205.482,194.999C205.482,164.672 180.809,139.999 150.482,139.999C144.842,139.999 139.399,140.855 134.273,142.439C137.892,136.208 142.55,130.541 148.15,125.721C162.73,113.174 181.367,107.867 200.617,110.765C235.047,115.955 258.868,149.389 254.848,186.879C251.347,219.524 233.638,248.716 206.261,266.972C199.369,271.568 197.507,280.881 202.104,287.774C206.701,294.667 216.014,296.53 222.906,291.931C257.71,268.722 280.225,231.598 284.677,190.078C290.414,136.562 255.455,88.694 205.088,81.103Z" style="fill-rule:nonzero;"/>
                                <path d="M466.295,100.754C460.438,94.897 450.94,94.897 445.082,100.754C439.224,106.611 439.224,116.109 445.082,121.967C474.324,151.21 474.324,198.79 445.082,228.033C439.224,233.89 439.224,243.388 445.082,249.246C448.011,252.175 451.85,253.64 455.688,253.64C459.526,253.64 463.366,252.175 466.294,249.246C507.235,208.307 507.235,141.693 466.295,100.754Z" style="fill-rule:nonzero;"/>
                                <path d="M402.656,143.181C396.798,149.038 396.798,158.536 402.656,164.394C405.489,167.227 407.05,170.994 407.05,175C407.05,179.006 405.489,182.773 402.656,185.606C396.798,191.463 396.798,200.961 402.656,206.819C405.585,209.748 409.424,211.213 413.262,211.213C417.1,211.213 420.94,209.748 423.868,206.819C432.368,198.32 437.049,187.019 437.049,175C437.049,162.981 432.368,151.68 423.868,143.181C418.011,137.323 408.513,137.323 402.656,143.181Z" style="fill-rule:nonzero;"/>
                            </g>
                        </g>
                    </g>
                </g>
            </g>
        </g>
    </g>
</svg>
