<?xml version="1.0" encoding="UTF-8" standalone="no"?>
<!DOCTYPE svg PUBLIC "-//W3C//DTD SVG 1.1//EN" "http://www.w3.org/Graphics/SVG/1.1/DTD/svg11.dtd">
<svg width="100%" height="100%" viewBox="0 0 600 600" version="1.1" xmlns="http://www.w3.org/2000/svg" xmlns:xlink="http://www.w3.org/1999/xlink" xml:space="preserve" xmlns:serif="http://www.serif.com/" style="fill-rule:evenodd;clip-rule:evenodd;stroke-linejoin:round;stroke-miterlimit:2;">
    <g transform="matrix(1,0,0,1,-6850.06,-2381.44)">
        <g id="we-respect-your-privacy" transform="matrix(0.950872,0,0,0.950872,6846.26,920.899)">
            <rect x="4" y="1536" width="631" height="631" style="fill:white;"/>
            <g transform="matrix(0.630188,0,0,0.630188,-11.8294,1514.81)">
                <g id="background">
                    <circle cx="525.763" cy="534.273" r="333.763" style="fill:rgb(173,221,226);"/>
                </g>
            </g>
            <g id="visual-drawing" serif:id="visual drawing">
            </g>
            <g id="heart" transform="matrix(2.60683,0,0,2.6379,367.492,1605.6)">
                <g transform="matrix(0.180439,0,0,0.178314,-18.41,93.2174)">
                    <g id="heart1" serif:id="heart">
                        <g transform="matrix(1,0,0,1,-256,-256)">
                            <g>
                                <g>
                                    <path d="M256,0C116.519,0 0,116.134 0,256C0,395.481 116.134,512 256,512C395.481,512 512,395.866 512,256C512,116.519 395.866,0 256,0ZM96.901,415.099C11.255,329.454 7.845,197.225 86.639,107.852L143.099,164.312C96.151,199.756 65.626,244.541 63.547,247.637C60.151,252.695 60.151,259.304 63.547,264.363C67.02,269.534 149.814,391 256,391C287.771,391 317.444,380.122 343.529,364.742L404.148,425.361C314.775,504.154 182.547,500.744 96.901,415.099ZM256,181C240.736,181 226.53,185.594 214.67,193.458L190.482,169.27C210.725,158.337 232.905,151 256,151C331.525,151 397.582,229.796 417.464,256.011C406.381,270.657 380.932,301.68 347.439,326.225L318.542,297.33C326.406,285.47 331,271.264 331,256C331,214.645 297.355,181 256,181ZM236.61,215.398C242.486,212.581 249.061,211 256,211C280.813,211 301,231.187 301,256C301,262.939 299.419,269.514 296.602,275.389L236.61,215.398ZM275.389,296.602C269.514,299.419 262.939,301 256,301C231.187,301 211,280.813 211,256C211,249.061 212.581,242.486 215.398,236.611L275.389,296.602ZM193.458,214.67C185.594,226.53 181,240.736 181,256C181,297.355 214.645,331 256,331C271.264,331 285.47,326.406 297.33,318.542L321.518,342.73C301.275,353.663 279.095,361 256,361C180.469,361 114.409,282.193 94.536,255.989C105.619,241.343 131.068,210.32 164.562,185.774L193.458,214.67ZM425.361,404.149L368.901,347.689C415.849,312.245 446.374,267.46 448.453,264.364C451.849,259.306 451.849,252.697 448.453,247.638C444.98,242.466 362.186,121 256,121C224.229,121 194.556,131.879 168.471,147.258L107.852,86.639C150.677,48.884 203.334,29.99 256,29.99C313.246,29.99 370.492,52.294 415.099,96.901C500.745,182.547 504.154,314.775 425.361,404.149Z" style="fill-rule:nonzero;"/>
                                </g>
                            </g>
                        </g>
                    </g>
                </g>
            </g>
        </g>
    </g>
</svg>
