<?xml version="1.0" encoding="UTF-8" standalone="no"?>
<!DOCTYPE svg PUBLIC "-//W3C//DTD SVG 1.1//EN" "http://www.w3.org/Graphics/SVG/1.1/DTD/svg11.dtd">
<svg width="100%" height="100%" viewBox="0 0 600 600" version="1.1" xmlns="http://www.w3.org/2000/svg" xmlns:xlink="http://www.w3.org/1999/xlink" xml:space="preserve" xmlns:serif="http://www.serif.com/" style="fill-rule:evenodd;clip-rule:evenodd;stroke-linecap:round;stroke-linejoin:round;stroke-miterlimit:1.5;">
    <g transform="matrix(1,0,0,1,-88,-3218)">
        <g id="web-development" serif:id="web development" transform="matrix(0.950872,0,0,0.950872,84.1965,1757.46)">
            <rect x="4" y="1536" width="631" height="631" style="fill:rgb(24,27,28);"/>
            <g id="rings" transform="matrix(1.05167,0,0,1.05167,-101.167,-256.04)">
                <g transform="matrix(0.767011,0,0,0.767011,-3.26618,1594.21)">
                    <circle cx="525.763" cy="534.273" r="333.763" style="fill:none;stroke:rgb(104,189,198);stroke-width:10.43px;"/>
                </g>
                <g transform="matrix(0.719073,0,0,0.719073,21.938,1619.82)">
                    <circle cx="525.763" cy="534.273" r="333.763" style="fill:none;stroke:rgb(221,124,179);stroke-width:11.13px;"/>
                </g>
            </g>
            <g transform="matrix(0.779012,0,0,0.919825,-2691.11,1621.18)">
                <path d="M4033.4,316.573L3698.6,316.573L3698.6,111.427L4033.4,111.427L4033.4,316.573ZM3704,116L3704,312L4028,312L4028,116L3704,116Z" style="fill:white;"/>
            </g>
            <g transform="matrix(0.645467,0,0,0.625481,-2174.83,1676.16)">
                <rect x="3704" y="116" width="324" height="196" style="fill:rgb(24,27,28);"/>
                <path d="M4028,312L3704,312L3704,116L4028,116L4028,312ZM3710.52,122.725L3710.52,305.275L4021.48,305.275L4021.48,122.725L3710.52,122.725Z" style="fill:white;"/>
            </g>
            <g transform="matrix(0.645467,0,0,0.625481,-2174.83,1676.16)">
                <path d="M4037.78,322.088L3694.22,322.088L3694.22,105.912L4037.78,105.912L4037.78,322.088ZM3704,116L3704,312L4028,312L4028,116L3704,116Z" style="fill:rgb(24,27,28);"/>
            </g>
            <g transform="matrix(0.600952,0,0,0.600952,-1996.72,1688.39)">
                <circle cx="3856" cy="332" r="12" style="fill:white;"/>
            </g>
            <g transform="matrix(0.901429,0,0,0.940965,-42.724,-42.8284)">
                <path d="M449.061,2133.53L463.667,2133.53L463.667,2158.47L342.333,2158.47L342.333,2133.53L356.939,2133.53L377.061,2073.53L428.939,2073.53L449.061,2133.53ZM380.463,2078L360.341,2138L347,2138L347,2154L459,2154L459,2138L445.659,2138L425.537,2078L380.463,2078Z" style="fill:white;"/>
            </g>
            <g transform="matrix(0.901429,0,0,0.940965,-42.724,-42.8284)">
                <path d="M445.659,2138.35L459,2138.35L459,2154L347,2154L347,2138.35L360.341,2138.35L380.463,2078L425.537,2078L445.659,2138.35Z" style="fill:rgb(133,197,204);"/>
                <path d="M445.659,2138.35L459,2138.35L459,2154L347,2154L347,2138.35L360.341,2138.35L380.463,2078L425.537,2078L445.659,2138.35ZM383.872,2082.47L363.75,2142.82L351.667,2142.82L351.667,2149.53L454.333,2149.53L454.333,2142.82L442.25,2142.82L422.128,2082.47L383.872,2082.47Z" style="fill:rgb(24,27,28);"/>
            </g>
            <g transform="matrix(0.27196,0.27196,-0.27196,0.27196,-633.355,818.5)">
                <path d="M3486.75,84.25L3486.75,159.25L3561.75,159.25L3561.75,196.75L3449.25,196.75L3449.25,84.25L3486.75,84.25Z" style="fill:rgb(24,27,28);"/>
                <path d="M3441.81,76.232L3442.43,75.699L3443.09,75.213L3443.78,74.778L3444.5,74.395L3445.25,74.068L3446.03,73.798L3446.82,73.587L3447.62,73.434L3448.43,73.343L3449.25,73.312L3486.75,73.313L3487.57,73.343L3488.38,73.435L3489.18,73.587L3489.97,73.799L3490.75,74.069L3491.5,74.396L3492.22,74.778L3492.91,75.213L3493.57,75.699L3494.19,76.232L3494.77,76.811L3495.3,77.431L3495.79,78.089L3496.22,78.781L3496.6,79.505L3496.93,80.254L3497.2,81.026L3497.41,81.816L3497.57,82.62L3497.66,83.433L3497.69,84.25L3497.69,148.312L3561.75,148.312L3562.57,148.343L3563.38,148.434L3564.18,148.586L3564.97,148.798L3565.75,149.068L3566.49,149.395L3567.22,149.777L3567.91,150.213L3568.57,150.698L3569.19,151.232L3569.77,151.81L3570.3,152.43L3570.79,153.088L3571.22,153.781L3571.6,154.504L3571.93,155.254L3572.2,156.026L3572.41,156.816L3572.57,157.619L3572.66,158.432L3572.69,159.25L3572.69,196.75L3572.66,197.567L3572.57,198.38L3572.41,199.184L3572.2,199.974L3571.93,200.746L3571.6,201.495L3571.22,202.219L3570.79,202.911L3570.3,203.569L3569.77,204.189L3569.19,204.768L3568.57,205.301L3567.91,205.787L3567.22,206.222L3566.5,206.604L3565.75,206.931L3564.97,207.201L3564.18,207.413L3563.38,207.565L3562.57,207.657L3561.75,207.687L3449.25,207.687L3448.43,207.657L3447.62,207.565L3446.82,207.413L3446.03,207.201L3445.25,206.931L3444.5,206.604L3443.78,206.222L3443.09,205.787L3442.43,205.301L3441.81,204.768L3441.23,204.189L3440.7,203.569L3440.21,202.911L3439.78,202.219L3439.4,201.495L3439.07,200.746L3438.8,199.974L3438.59,199.184L3438.43,198.38L3438.34,197.567L3438.31,196.75L3438.31,84.25L3438.34,83.432L3438.43,82.62L3438.59,81.816L3438.8,81.026L3439.07,80.254L3439.4,79.504L3439.78,78.781L3440.21,78.088L3440.7,77.43L3441.23,76.81L3441.81,76.232ZM3449.25,196.75L3561.75,196.75L3561.75,159.25L3486.75,159.25L3486.75,84.25L3449.25,84.25L3449.25,196.75Z" style="fill:white;"/>
            </g>
            <g transform="matrix(-0.27196,0.27196,0.27196,0.27196,1275.93,818.5)">
                <path d="M3449.25,196.75L3561.75,196.75L3561.75,159.25L3486.75,159.25L3486.75,84.25L3449.25,84.25L3449.25,196.75Z" style="fill:rgb(24,27,28);"/>
                <path d="M3440.7,77.43L3440.21,78.089L3439.78,78.781L3439.4,79.504L3439.07,80.254L3438.8,81.026L3438.59,81.816L3438.43,82.62L3438.34,83.432L3438.31,84.25L3438.31,196.75L3438.34,197.567L3438.43,198.38L3438.59,199.184L3438.8,199.974L3439.07,200.746L3439.4,201.495L3439.78,202.219L3440.21,202.911L3440.7,203.569L3441.23,204.189L3441.81,204.768L3442.43,205.301L3443.09,205.787L3443.78,206.222L3444.5,206.604L3445.25,206.931L3446.03,207.201L3446.82,207.413L3447.62,207.565L3448.43,207.657L3449.25,207.687L3561.75,207.687L3562.57,207.657L3563.38,207.565L3564.18,207.413L3564.97,207.201L3565.75,206.931L3566.49,206.604L3567.22,206.222L3567.91,205.787L3568.57,205.301L3569.19,204.768L3569.77,204.189L3570.3,203.569L3570.79,202.911L3571.22,202.219L3571.6,201.495L3571.93,200.746L3572.2,199.974L3572.41,199.184L3572.57,198.38L3572.66,197.567L3572.69,196.75L3572.69,159.25L3572.66,158.432L3572.57,157.619L3572.41,156.816L3572.2,156.026L3571.93,155.254L3571.6,154.504L3571.22,153.781L3570.79,153.088L3570.3,152.43L3569.77,151.81L3569.19,151.232L3568.57,150.698L3567.91,150.213L3567.22,149.777L3566.49,149.395L3565.74,149.068L3564.97,148.798L3564.18,148.586L3563.38,148.434L3562.57,148.343L3561.75,148.312L3497.69,148.312L3497.69,84.25L3497.66,83.433L3497.57,82.62L3497.41,81.816L3497.2,81.026L3496.93,80.254L3496.6,79.505L3496.22,78.781L3495.79,78.089L3495.3,77.431L3494.77,76.811L3494.19,76.232L3493.57,75.699L3492.91,75.213L3492.22,74.778L3491.5,74.396L3490.75,74.069L3489.97,73.799L3489.18,73.587L3488.38,73.435L3487.57,73.343L3486.75,73.313L3449.25,73.312L3448.43,73.343L3447.62,73.435L3446.82,73.587L3446.03,73.798L3445.25,74.068L3444.5,74.395L3443.78,74.778L3443.09,75.213L3442.43,75.699L3441.81,76.232L3441.23,76.81L3440.7,77.43ZM3486.75,84.25L3486.75,159.25L3561.75,159.25L3561.75,196.75L3449.25,196.75L3449.25,84.25L3486.75,84.25Z" style="fill:white;"/>
            </g>
            <g transform="matrix(0.461491,0,0,0.628904,-1458.31,1679.83)">
                <path d="M3889.36,155.875L3850.05,264.034L3819.85,258.125L3859.16,149.966C3869.22,151.936 3879.29,153.905 3889.36,155.875Z" style="fill:rgb(24,27,28);"/>
                <path d="M3860.1,143.313L3860.81,143.388L3861.51,143.503L3891.7,149.412L3892.39,149.567L3893.05,149.761L3893.7,149.993L3894.31,150.261L3894.9,150.563L3895.45,150.899L3895.96,151.265L3896.43,151.659L3896.86,152.08L3897.24,152.524L3897.58,152.988L3897.86,153.47L3898.09,153.968L3898.27,154.476L3898.39,154.994L3898.46,155.517L3898.47,156.042L3898.42,156.566L3898.32,157.086L3898.16,157.598L3858.86,265.757L3858.65,266.259L3858.38,266.747L3858.07,267.219L3857.7,267.67L3857.29,268.1L3856.83,268.504L3856.33,268.88L3855.8,269.227L3855.22,269.542L3854.62,269.823L3853.99,270.068L3853.33,270.276L3852.65,270.445L3851.96,270.575L3851.25,270.665L3850.54,270.713L3849.82,270.721L3849.11,270.687L3848.4,270.612L3847.7,270.497L3817.5,264.588L3816.82,264.433L3816.16,264.239L3815.51,264.007L3814.9,263.739L3814.31,263.436L3813.76,263.101L3813.25,262.735L3812.78,262.341L3812.35,261.92L3811.96,261.476L3811.63,261.012L3811.35,260.529L3811.12,260.032L3810.94,259.523L3810.82,259.006L3810.75,258.483L3810.74,257.958L3810.79,257.434L3810.89,256.914L3811.05,256.401L3850.35,148.242L3850.56,147.741L3850.83,147.253L3851.14,146.781L3851.51,146.33L3851.92,145.9L3852.38,145.496L3852.88,145.119L3853.41,144.773L3853.99,144.458L3854.59,144.177L3855.22,143.932L3855.88,143.724L3856.56,143.555L3857.25,143.425L3857.96,143.335L3858.67,143.287L3859.39,143.279L3860.1,143.313ZM3819.85,258.125L3850.05,264.034L3889.36,155.875L3859.16,149.966L3819.85,258.125Z" style="fill:white;"/>
            </g>
            <g transform="matrix(0.27196,0.27196,-0.27196,0.27196,-633.355,818.5)">
                <path d="M3486.75,84.25L3486.75,159.25L3561.75,159.25L3561.75,196.75L3449.25,196.75L3449.25,84.25L3486.75,84.25Z" style="fill:rgb(133,197,204);"/>
                <path d="M3486.75,84.25L3486.75,159.25L3561.75,159.25L3561.75,196.75L3449.25,196.75L3449.25,84.25L3486.75,84.25ZM3460.19,185.812L3550.81,185.812L3550.81,170.187L3486.75,170.187L3485.93,170.157L3485.12,170.065L3484.32,169.913L3483.53,169.701L3482.75,169.431L3482,169.104L3481.28,168.722L3480.59,168.287L3479.93,167.801L3479.31,167.268L3478.73,166.689L3478.2,166.069L3477.71,165.411L3477.28,164.719L3476.9,163.995L3476.57,163.246L3476.3,162.474L3476.09,161.684L3475.93,160.88L3475.84,160.067L3475.81,159.25L3475.81,95.188L3460.19,95.187L3460.19,185.812Z" style="fill:rgb(24,27,28);"/>
            </g>
            <g transform="matrix(-0.27196,0.27196,0.27196,0.27196,1275.93,818.5)">
                <path d="M3449.25,196.75L3561.75,196.75L3561.75,159.25L3486.75,159.25L3486.75,84.25L3449.25,84.25L3449.25,196.75Z" style="fill:rgb(133,197,204);"/>
                <path d="M3449.25,196.75L3561.75,196.75L3561.75,159.25L3486.75,159.25L3486.75,84.25L3449.25,84.25L3449.25,196.75ZM3475.81,95.188L3475.81,159.25L3475.84,160.067L3475.93,160.88L3476.09,161.684L3476.3,162.474L3476.57,163.246L3476.9,163.995L3477.28,164.719L3477.71,165.411L3478.2,166.069L3478.73,166.689L3479.31,167.268L3479.93,167.801L3480.59,168.287L3481.28,168.722L3482,169.104L3482.75,169.431L3483.53,169.701L3484.32,169.913L3485.12,170.065L3485.93,170.157L3486.75,170.187L3550.81,170.187L3550.81,185.812L3460.19,185.812L3460.19,95.187L3475.81,95.188Z" style="fill:rgb(24,27,28);"/>
            </g>
            <g transform="matrix(0.461491,0,0,0.628904,-1458.31,1679.83)">
                <path d="M3889.36,155.875L3850.05,264.034L3819.85,258.125L3859.16,149.966C3869.22,151.936 3879.29,153.905 3889.36,155.875Z" style="fill:rgb(133,197,204);"/>
                <path d="M3889.36,155.875L3850.05,264.034L3819.85,258.125L3859.16,149.966L3889.36,155.875ZM3831.01,253.385L3843.59,255.847L3878.2,160.615L3865.62,158.152L3831.01,253.385Z" style="fill:rgb(24,27,28);"/>
            </g>
            <g transform="matrix(0.400635,0,0,0.400635,-1261.86,1708.54)">
                <path d="M3736,126L3718,144" style="fill:none;stroke:white;stroke-width:10.5px;stroke-linejoin:miter;stroke-miterlimit:3;"/>
            </g>
            <g transform="matrix(0.80127,0,0,0.80127,-2750.52,1659.58)">
                <path d="M3736,126L3718,144" style="fill:none;stroke:white;stroke-width:5.25px;stroke-linejoin:miter;stroke-miterlimit:3;"/>
            </g>
            <g transform="matrix(0.942809,-0.942809,0.942809,0.942809,-1723.79,267.12)">
                <g transform="matrix(4.37844e-17,-0.430227,0.78875,1.75138e-16,-314.655,2459.05)">
                    <path d="M1505,645L1527,645" style="fill:none;stroke:white;stroke-width:4.97px;stroke-linejoin:miter;stroke-miterlimit:3;"/>
                </g>
                <g transform="matrix(4.37844e-17,-0.430227,0.78875,1.75138e-16,-314.655,2436.97)">
                    <path d="M1505,645L1527,645" style="fill:none;stroke:white;stroke-width:4.97px;stroke-linejoin:miter;stroke-miterlimit:3;"/>
                </g>
                <g transform="matrix(-0.430227,-4.37844e-17,1.75138e-16,-0.78875,857.356,2304.53)">
                    <path d="M1505,645L1527,645" style="fill:none;stroke:white;stroke-width:4.97px;stroke-linejoin:miter;stroke-miterlimit:3;"/>
                </g>
                <g transform="matrix(-0.430227,-4.37844e-17,1.75138e-16,-0.78875,835.271,2304.53)">
                    <path d="M1505,645L1527,645" style="fill:none;stroke:white;stroke-width:4.97px;stroke-linejoin:miter;stroke-miterlimit:3;"/>
                </g>
            </g>
            <g transform="matrix(0.942809,-0.942809,0.942809,0.942809,-1785.47,540.971)">
                <g transform="matrix(4.37844e-17,-0.430227,0.78875,1.75138e-16,-89.8613,2617.59)">
                    <path d="M1505,645L1527,645" style="fill:none;stroke:white;stroke-width:4.97px;stroke-linejoin:miter;stroke-miterlimit:3;"/>
                </g>
                <g transform="matrix(4.37844e-17,-0.430227,0.78875,1.75138e-16,-89.8613,2595.51)">
                    <path d="M1505,645L1527,645" style="fill:none;stroke:white;stroke-width:4.97px;stroke-linejoin:miter;stroke-miterlimit:3;"/>
                </g>
                <g transform="matrix(-0.430227,-4.37844e-17,1.75138e-16,-0.78875,1082.15,2463.07)">
                    <path d="M1505,645L1527,645" style="fill:none;stroke:white;stroke-width:4.97px;stroke-linejoin:miter;stroke-miterlimit:3;"/>
                </g>
                <g transform="matrix(-0.430227,-4.37844e-17,1.75138e-16,-0.78875,1060.06,2463.07)">
                    <path d="M1505,645L1527,645" style="fill:none;stroke:white;stroke-width:4.97px;stroke-linejoin:miter;stroke-miterlimit:3;"/>
                </g>
            </g>
            <g transform="matrix(0.863869,0,0,0.901429,-25.8223,34.22)">
                <path d="M362,2149L446,2149" style="fill:none;stroke:rgb(24,27,28);stroke-width:4.76px;stroke-linecap:square;stroke-linejoin:miter;stroke-miterlimit:3;"/>
            </g>
        </g>
    </g>
</svg>
